<svg xmlns="http://www.w3.org/2000/svg" width="101.501" height="101.501" viewBox="0 0 101.501 101.501"><defs><style>.a{fill:#2e7d32;}</style></defs><g transform="translate(-1793.956 -1081.448)"><path class="a" d="M1895.457,1132.235a50.751,50.751,0,1,1-50.613-50.787A50.744,50.744,0,0,1,1895.457,1132.235Zm-50.782,45.479a45.516,45.516,0,1,0-45.484-45.557A45.512,45.512,0,0,0,1844.675,1177.714Z" transform="translate(0)"/><path class="a" d="M1839.084,1157.159a2.769,2.769,0,0,1-2.034-.917q-6.506-6.518-13.022-13.027c-.308-.308-.621-.613-.924-.927a2.664,2.664,0,1,1,3.773-3.76q5.946,5.928,11.873,11.877c.267.269.391.294.677.008q15.676-15.7,31.369-31.392a2.694,2.694,0,0,1,2.826-.818,2.647,2.647,0,0,1,1.315,4.191,6.049,6.049,0,0,1-.46.495q-16.664,16.662-33.325,33.326A2.806,2.806,0,0,1,1839.084,1157.159Z" transform="translate(-4.195 -5.425)"/></g></svg>