<svg xmlns="http://www.w3.org/2000/svg" width="128.001" height="25.347" viewBox="0 0 128.001 25.347"><defs><style>.a{fill:#29458f;}</style></defs><g transform="translate(-471.185 -219.502)"><g transform="translate(471.185 219.502)"><path class="a" d="M629.436,1286.565a3.8,3.8,0,0,0,3.8-3.8v-1.1a6.661,6.661,0,0,0-6.661-6.661h-14.4a3.179,3.179,0,0,0-3.179,3.179v21.851l17.472-.11a7.765,7.765,0,0,0,7.716-7.765v-.838A4.753,4.753,0,0,0,629.436,1286.565Zm-14.575-7.287h9.359a2.681,2.681,0,0,1,2.681,2.68,3.023,3.023,0,0,1-3.023,3.023h-9.017Zm12.99,13.453a3.023,3.023,0,0,1-3.023,3.023h-9.968V1289h10.31a2.681,2.681,0,0,1,2.681,2.681Z" transform="translate(-609 -1275)"/><path class="a" d="M723.6,1297.654v-5.545a3.8,3.8,0,0,0-3.8-3.8,4.594,4.594,0,0,0,4.594-4.594v-2.492a6.221,6.221,0,0,0-6.221-6.221H702.508a2.508,2.508,0,0,0-2.508,2.508v22.522l6.178.158v-9.822h8.4a3.008,3.008,0,0,1,3.008,3.009v5.236a1.578,1.578,0,0,0,1.578,1.578h5.709C723.6,1300.189,723.6,1297.654,723.6,1297.654Zm-5.386-14.568a3.162,3.162,0,0,1-3.162,3.162h-9.195v-6.97h9.491a2.865,2.865,0,0,1,2.866,2.866Z" transform="translate(-671.167 -1275)"/><path class="a" d="M5.958,0h0a0,0,0,0,1,0,0V24.824a0,0,0,0,1,0,0H0a0,0,0,0,1,0,0V5.958A5.958,5.958,0,0,1,5.958,0Z" transform="translate(57.997 0.276)"/><path class="a" d="M5.958,0h0a0,0,0,0,1,0,0V24.824a0,0,0,0,1,0,0H0a0,0,0,0,1,0,0V5.958A5.958,5.958,0,0,1,5.958,0Z" transform="translate(122.043 0.276)"/><path class="a" d="M818.634,1275H842.4v4.436L825.6,1295.911H842.08v4.436H818v-4.278l16.951-16.476H821.621a2.928,2.928,0,0,1-2.926-2.827Z" transform="translate(-751.78 -1275)"/><path class="a" d="M905.634,1275H929.4v4.436L912.6,1295.911H929.08v4.436H905v-4.278l16.951-16.476H908.62a2.928,2.928,0,0,1-2.926-2.827Z" transform="translate(-811.215 -1275)"/></g></g></svg>