<svg xmlns="http://www.w3.org/2000/svg" width="16.72" height="18.437" viewBox="0 0 16.72 18.437"><defs><style>.a{fill:#ea9a00;}.b{fill:#f5a100;}.c{fill:#f4c825;}.d{fill:#ffd229;}.e{fill:#fff;}</style></defs><g transform="translate(3199.185 -810.718)"><path class="a" d="M-3182.465,819.936c0-4.933-2.846-8.961-6.426-9.207v-.009h-.2l-.146,0-.124,0h-2.927l-.124,0-.146,0h0c-3.673.106-6.626,4.191-6.626,9.216s2.953,9.11,6.626,9.216v0h3.668v-.012C-3185.311,828.9-3182.465,824.869-3182.465,819.936Z"/><path class="b" d="M-3182.465,819.936c0-4.933-2.777-8.961-6.27-9.207v-.009h-.2l-.143,0-.121,0h-2.856l-.121,0-.142,0h0c-3.585.106-6.467,4.191-6.467,9.216s2.882,9.11,6.467,9.216v0h3.579v-.012C-3185.242,828.9-3182.465,824.869-3182.465,819.936Z"/><ellipse class="c" cx="7.244" cy="9.219" rx="7.244" ry="9.219" transform="translate(-3196.953 810.718)"/><ellipse class="d" cx="6.874" cy="9.219" rx="6.874" ry="9.219" transform="translate(-3196.212 810.718)"/><path class="e" d="M-3188.909,812.542a5.518,5.518,0,0,1,4.3,3.527c1.244,3.215.208,1.456-.706-.42C-3186.621,812.96-3190.361,812.8-3188.909,812.542Z"/><path class="e" d="M-3194.486,815.275s-1.684,5.568.822,9.993,7.205,2.154,7.205,2.154-4.7,1.645-7.009-2.271S-3194.486,815.275-3194.486,815.275Z"/></g></svg>