<svg xmlns="http://www.w3.org/2000/svg" width="45.076" height="38.555" viewBox="0 0 45.076 38.555"><defs><style>.a{fill:#e6a784;}.b{fill:#683b11;}.c{fill:#3a4149;}.d{fill:#ceff00;stroke:#000;}.e{stroke:none;}.f{fill:none;}</style></defs><g transform="translate(-1389 -1531.664)"><g transform="translate(-748.174 520.504)"><ellipse class="a" cx="17.568" cy="14.656" rx="17.568" ry="14.656" transform="translate(2144.988 1049.61) rotate(-89.794)"/><path class="b" d="M2198.834,1035.941c2.351,3.577,3.014,7.4,9.473,6.682h0c-1.545-7.676-7.3-13.386-14.184-13.411-8.094-.029-14.684,7.813-14.719,17.515C2179.405,1046.728,2193.874,1046.166,2198.834,1035.941Z" transform="translate(-34.354 -14.685)"/><g transform="translate(2137.174 1011.161)"><g transform="translate(5.523)"><path d="M2169.067,1027.247c.216,0,.429.013.64.031,1.747-7.4,7.436-12.82,14.166-12.8s12.376,5.478,14.072,12.89c.178-.012.357-.02.538-.02a7.383,7.383,0,0,1,2.39.406c-1.637-9.453-8.608-16.567-16.987-16.6s-15.383,7.015-17.1,16.437A7.381,7.381,0,0,1,2169.067,1027.247Z" transform="translate(-2166.786 -1011.161)"/></g><path d="M2145.648,1096.436a7.483,7.483,0,0,0-1.049-.079,7.4,7.4,0,1,0,1,14.725Z" transform="translate(-2137.174 -1080.466)"/><rect class="c" width="3.622" height="17.345" rx="1.811" transform="translate(7.125 15.122) rotate(0.206)"/><path d="M2333.461,1096.934a7.4,7.4,0,1,1-.053,14.646Z" transform="translate(-2296.806 -1080.878)"/><rect class="c" width="3.622" height="17.345" rx="1.811" transform="matrix(-1, -0.004, 0.004, -1, 37.947, 32.564)"/><path d="M2299.438,1175.678s.957,4.6-9.447,4.716l0,.783s10.6.9,10.5-5.582Z" transform="translate(-2261.485 -1144.924)"/><rect class="c" width="1.896" height="7.338" rx="0.948" transform="translate(28.72 34.905) rotate(90.206)"/></g></g><g class="d" transform="translate(1420 1533)"><circle class="e" cx="6.5" cy="6.5" r="6.5"/><circle class="f" cx="6.5" cy="6.5" r="6"/></g></g></svg>