<svg xmlns="http://www.w3.org/2000/svg" width="83.765" height="34.43" viewBox="0 0 83.765 34.43"><defs><style>.a{fill:none;}.b,.c{fill:#fff;}</style></defs>
<path class="a" d="M0,0H34.43V34.43H0Z"/><path class="b" d="M27.823,2H4.869A2.865,2.865,0,0,0,2.014,4.869L2,30.692l5.738-5.738H27.823a2.878,2.878,0,0,0,2.869-2.869V4.869A2.878,2.878,0,0,0,27.823,2ZM9.173,12.042H23.519a1.435,1.435,0,1,1,0,2.869H9.173a1.435,1.435,0,1,1,0-2.869Zm8.608,7.173H9.173a1.435,1.435,0,1,1,0-2.869H17.78a1.435,1.435,0,1,1,0,2.869Zm5.738-8.607H9.173a1.435,1.435,0,1,1,0-2.869H23.519a1.435,1.435,0,1,1,0,2.869Z" transform="translate(0.869 0.869)"/></svg>