<svg xmlns="http://www.w3.org/2000/svg" xmlns:xlink="http://www.w3.org/1999/xlink" width="78.38" height="78.38" viewBox="0 0 78.38 78.38"><defs><style>.a{fill:#42a86c;opacity:0.344;isolation:isolate;}.b{fill:none;}.c{fill:#47b989;opacity:0.44;}.d{fill:url(#a);}</style><linearGradient id="a" y1="0.5" x2="1" y2="0.5" gradientUnits="objectBoundingBox"><stop offset="0" stop-color="#47b989"/><stop offset="1" stop-color="#388e3c"/></linearGradient></defs><g transform="translate(-6269.629 -4883.215)"><circle class="a" cx="39.19" cy="39.19" r="39.19" transform="translate(6269.629 4883.215)"/><circle class="b" cx="39.19" cy="39.19" r="39.19" transform="translate(6269.629 4883.215)"/><g transform="translate(3684.31 3241.297)"><path class="c" d="M2633.323,1690.016c-1.51-7.187-6.689-12.853-13.28-14.554a9.372,9.372,0,0,0,3.586-7.562c0-4.961-3.478-8.982-7.767-8.982s-7.768,4.021-7.768,8.982a9.366,9.366,0,0,0,3.607,7.577c-6.713,1.758-11.949,7.632-13.317,15.031a3.915,3.915,0,0,0,2.442,4.354c6.855,2.638,17.017,4.195,29.971-.4A3.9,3.9,0,0,0,2633.323,1690.016Z"/><path class="c" d="M2650.7,1690.016c-1.509-7.187-6.688-12.853-13.28-14.554A9.37,9.37,0,0,0,2641,1667.9c0-4.961-3.478-8.982-7.768-8.982s-7.767,4.021-7.767,8.982a9.366,9.366,0,0,0,3.607,7.577c-6.714,1.758-11.949,7.632-13.317,15.031a3.915,3.915,0,0,0,2.442,4.354c6.855,2.638,17.016,4.195,29.971-.4A3.9,3.9,0,0,0,2650.7,1690.016Z"/><path class="d" d="M2641.96,1695.365c-1.509-7.187-6.688-12.852-13.28-14.553a9.37,9.37,0,0,0,3.586-7.562c0-4.961-3.477-8.982-7.767-8.982s-7.767,4.021-7.767,8.982a9.366,9.366,0,0,0,3.607,7.577c-6.714,1.758-11.949,7.632-13.317,15.03a3.917,3.917,0,0,0,2.442,4.355c6.855,2.637,17.016,4.195,29.97-.4A3.9,3.9,0,0,0,2641.96,1695.365Z"/></g></g></svg>