<svg xmlns="http://www.w3.org/2000/svg" xmlns:xlink="http://www.w3.org/1999/xlink" width="78.38" height="78.38" viewBox="0 0 78.38 78.38"><defs><style>.a{fill:#42a86c;opacity:0.344;isolation:isolate;}.b{fill:none;}.c{fill:#47b989;opacity:0.44;}.d{fill:#388e3c;}.e{fill:url(#a);}.f{fill:url(#b);}.g{fill:url(#c);}.h{fill:#acfcd7;}</style><linearGradient id="a" x1="0.698" y1="-0.358" x2="0.642" y2="0.618" gradientUnits="objectBoundingBox"><stop offset="0" stop-color="#47b989"/><stop offset="1" stop-color="#388e3c"/></linearGradient><linearGradient id="b" x1="0.261" y1="0.142" x2="0.886" y2="1.094" xlink:href="#a"/><linearGradient id="c" x1="-0.078" y1="0.54" x2="1.608" y2="0.475" xlink:href="#a"/></defs><g transform="translate(-6269.629 -4883.215)"><circle class="a" cx="39.19" cy="39.19" r="39.19" transform="translate(6269.629 4883.215)"/><circle class="b" cx="39.19" cy="39.19" r="39.19" transform="translate(6269.629 4883.215)"/><g transform="translate(-2811.371 -2153.785)"><g transform="translate(6557.35 5398.425)"><path class="c" d="M2576.521,1663.563h-29.438a4.427,4.427,0,0,0-4.419,4.29h0c0,.049-.014.095-.014.144a4.429,4.429,0,0,0,4.433,4.433h31.762a2.11,2.11,0,0,1,2.11,2.11V1668A4.434,4.434,0,0,0,2576.521,1663.563Z"/><path class="d" d="M2558.73,1668.389c-.523-.791-1.3-1.01-2.341-.322l-1.341.887,1.746,2.64,1.341-.886A1.533,1.533,0,0,0,2558.73,1668.389Z"/><path class="e" d="M2564.574,1657.414l-14.046,9.288a5.125,5.125,0,0,0-1.449,7.1l4.506,6.815a5.126,5.126,0,0,0,7.1,1.449l14.046-9.287a5.126,5.126,0,0,0,1.449-7.1l-4.506-6.815A5.126,5.126,0,0,0,2564.574,1657.414Zm-2.65,15.936-3.546-1.753-1.1.728,1.886,2.851-.91.6-4.611-6.973,2.251-1.488c1.64-1.085,3.023-.69,3.777.45a2.356,2.356,0,0,1-.338,3.1l3.683,1.763Zm5.435-3.464a2.843,2.843,0,0,1-2.779.256l2.388,3.611-.91.6-5.344-8.083.909-.6.668,1.01a2.782,2.782,0,0,1,1.324-2.457,3.115,3.115,0,0,1,4.46,1.092A3.163,3.163,0,0,1,2567.359,1669.886Z"/><path class="d" d="M2563.948,1665.14a2.45,2.45,0,1,0,3.2.79A2.221,2.221,0,0,0,2563.948,1665.14Z"/><path class="f" d="M2542.65,1668v22.441a8.42,8.42,0,0,0,8.42,8.42h21.465a8.42,8.42,0,0,0,8.42-8.42v-15.9a2.11,2.11,0,0,0-2.11-2.11h-31.762A4.434,4.434,0,0,1,2542.65,1668Z"/><path class="g" d="M4.225,0H9.232a1.725,1.725,0,0,1,1.725,1.725v5A1.725,1.725,0,0,1,9.231,8.451H4.225A4.225,4.225,0,0,1,0,4.225v0A4.225,4.225,0,0,1,4.225,0Z" transform="translate(2572.198 1678.641)"/><circle class="h" cx="1.744" cy="1.744" r="1.744" transform="translate(2574.589 1681.123)"/></g></g></g></svg>