<svg xmlns="http://www.w3.org/2000/svg" xmlns:xlink="http://www.w3.org/1999/xlink" width="78.38" height="78.38" viewBox="0 0 78.38 78.38"><defs><style>.a{fill:#42a86c;opacity:0.344;isolation:isolate;}.b{fill:none;}.c{fill:url(#a);}.d{fill:#47b989;opacity:0.44;}.e{fill:url(#b);}</style><linearGradient id="a" y1="-0.032" x2="1.072" y2="0.897" gradientUnits="objectBoundingBox"><stop offset="0" stop-color="#47b989"/><stop offset="1" stop-color="#388e3c"/></linearGradient><linearGradient id="b" x1="0" y1="0" x2="1" y2="1.079" xlink:href="#a"/></defs><g transform="translate(-6269.629 -4883.215)"><circle class="a" cx="39.19" cy="39.19" r="39.19" transform="translate(6269.629 4883.215)"/><circle class="b" cx="39.19" cy="39.19" r="39.19" transform="translate(6269.629 4883.215)"/><g transform="translate(-2998.914 -2157.535)"><path class="c" d="M2768.2,1694.089c-1.51-7.187-6.689-12.853-13.28-14.554a9.372,9.372,0,0,0,3.586-7.562c0-4.961-3.478-8.982-7.768-8.982s-7.767,4.021-7.767,8.982a9.366,9.366,0,0,0,3.607,7.577c-6.713,1.758-11.949,7.632-13.317,15.031a3.916,3.916,0,0,0,2.442,4.354c6.855,2.637,17.017,4.195,29.971-.4A3.9,3.9,0,0,0,2768.2,1694.089Z" transform="translate(6557.35 5398.425)"/><path class="d" d="M2768.281,1676.016a2.4,2.4,0,0,0,2.4-2.4h-4.793A2.4,2.4,0,0,0,2768.281,1676.016Z" transform="translate(6557.35 5398.425)"/><path class="e" d="M2773.892,1671.727a4.845,4.845,0,0,1-1.25-3.27,3.931,3.931,0,0,1-3.9-3.928,3.879,3.879,0,0,1,.431-1.754,4.387,4.387,0,0,0-5.276,4.294v.511c0,.065.012.126.015.191a5.216,5.216,0,0,1-1.295,3.948l-.007.008a.851.851,0,0,0-.567.8,1.094,1.094,0,0,0,1.094,1.095h10.35a1.036,1.036,0,0,0,1.035-1.035A.905.905,0,0,0,2773.892,1671.727Z" transform="translate(6557.35 5398.425)"/><circle class="d" cx="3.204" cy="3.204" r="3.204" transform="translate(9326.818 7059.75)"/></g></g></svg>