<svg xmlns="http://www.w3.org/2000/svg" xmlns:xlink="http://www.w3.org/1999/xlink" width="78.38" height="78.38" viewBox="0 0 78.38 78.38"><defs><style>.a{fill:#42a86c;opacity:0.344;isolation:isolate;}.b{fill:none;}.c{fill:url(#a);}.d{fill:url(#b);}.e{fill:#47b989;opacity:0.44;}.f{fill:#acfcd7;}</style><linearGradient id="a" x1="0.345" y1="0.138" x2="1.029" y2="1.541" gradientUnits="objectBoundingBox"><stop offset="0" stop-color="#47b989"/><stop offset="1" stop-color="#388e3c"/></linearGradient><linearGradient id="b" x1="0.175" y1="0.21" x2="0.921" y2="0.876" xlink:href="#a"/></defs><g transform="translate(-6269.629 -4883.215)"><circle class="a" cx="39.19" cy="39.19" r="39.19" transform="translate(6269.629 4883.215)"/><circle class="b" cx="39.19" cy="39.19" r="39.19" transform="translate(6269.629 4883.215)"/><g transform="translate(6063.548 3963.345)"><path class="c" d="M234.27,945.582a2.351,2.351,0,0,0,2.085,1.255h30.688s7.685-.355,3.192,10.759-3.9,10.995-14.3,10.995-17.5,2.246-20.453-5.675-4.445-23.091-15.015-21.636c-1.136.206-2.879-4.085,1.064-4.374C223.563,936.757,229.625,936.663,234.27,945.582Z"/><circle class="d" cx="4.611" cy="4.611" r="4.611" transform="translate(258.378 971.901)"/><circle class="d" cx="4.611" cy="4.611" r="4.611" transform="translate(235.378 971.901)"/><path class="e" d="M255.506,940.807l-6.857,6.03h11.136Z"/><rect class="f" width="12.708" height="2.128" rx="1.064" transform="translate(245.67 962.443)"/></g></g></svg>