<svg xmlns="http://www.w3.org/2000/svg" width="56.375" height="56.375" viewBox="0 0 56.375 56.375"><defs><style>.a{fill:#388e3c;}</style></defs><path class="a" d="M27.235,18.664a2.65,2.65,0,0,1,2.643-2.643h1.762a2.65,2.65,0,0,1,2.643,2.643v1.762a2.65,2.65,0,0,1-2.643,2.643H29.877a2.65,2.65,0,0,1-2.643-2.643ZM37.8,44.209H23.711V40.686h3.523V30.115H23.711V26.592h10.57V40.686H37.8ZM30.758,1.928A28.187,28.187,0,1,0,58.945,30.115,28.187,28.187,0,0,0,30.758,1.928Zm0,51.09a22.9,22.9,0,1,1,22.9-22.9A22.9,22.9,0,0,1,30.758,53.018Z" transform="translate(-2.571 -1.928)"/></svg>