<svg xmlns="http://www.w3.org/2000/svg" width="138.439" height="72" viewBox="0 0 138.439 72"><defs><style>.a{fill:none;opacity:0;}.b{fill:#108ee9;}.c{fill:#fff;}</style></defs><g transform="translate(-1368.561 -478)"><rect class="a" width="138" height="72" transform="translate(1369 478)"/><g transform="translate(1368.561 495)"><g transform="translate(0 0)"><circle class="b" cx="19.438" cy="19.438" r="19.438"/><path class="c" d="M11.54,18.269V29.753a10.312,10.312,0,0,0,12.048,0c6.566-4.339,10.124,0,10.124,0V17.994s-3.29-4.382-10.956,0C18.931,20.728,11.54,18.269,11.54,18.269Z" transform="translate(-3.195 -4.443)"/><path class="b" d="M70.423,12.25H62.75V34.668h7.514A11.288,11.288,0,0,0,81.552,23.379,11.129,11.129,0,0,0,70.423,12.25Zm.564,18.079h-3.9V16.589H69.7A7.514,7.514,0,0,1,77.213,24.1,6.234,6.234,0,0,1,70.987,30.329Z" transform="translate(-17.372 -3.391)"/><path class="b" d="M107.2,12.25h0A9.452,9.452,0,0,0,97.75,21.7V34.668h4.982V29.685h9.343v4.982h4.975V22.107A9.849,9.849,0,0,0,107.2,12.25Zm5.192,12.764h-9.972V21.969a5.062,5.062,0,0,1,5.062-5.062,4.91,4.91,0,0,1,4.91,4.925Z" transform="translate(-27.062 -3.391)"/><path class="b" d="M174.2,12.25h0A9.452,9.452,0,0,0,164.75,21.7V34.668h4.982V29.685h9.343v4.982h4.975V22.107A9.849,9.849,0,0,0,174.2,12.25Zm5.192,12.764h-9.972V21.969a5.062,5.062,0,0,1,5.062-5.062,4.91,4.91,0,0,1,4.91,4.925Z" transform="translate(-45.611 -3.391)"/><path class="b" d="M139.782,12.25a9.032,9.032,0,0,0-9.032,9.032V34.668h4.52V21.275a4.491,4.491,0,0,1,4.491-4.491h.311a4.729,4.729,0,0,1,4.737,4.729V34.668h4.527V21.817a9.567,9.567,0,0,0-9.553-9.567Z" transform="translate(-36.198 -3.391)"/></g></g></g></svg>