<svg xmlns="http://www.w3.org/2000/svg" width="138" height="72" viewBox="0 0 138 72"><defs><style>.a{fill:none;opacity:0;}.b,.c{fill:#4b3795;}.b{isolation:isolate;}</style></defs><g transform="translate(-1369 -397)"><rect class="a" width="138" height="72" transform="translate(1369 397)"/><g transform="translate(1366.01 408.733)"><g transform="translate(14.99 6)"><path class="b" d="M18.724,0a18.727,18.727,0,1,0,18.72,18.725A18.727,18.727,0,0,0,18.724,0Zm0,31.338A12.611,12.611,0,1,1,31.335,18.727,12.611,12.611,0,0,1,18.724,31.338Z" transform="translate(0.01 0)"/><path class="b" d="M131.167,0a18.727,18.727,0,1,0,18.727,18.727A18.727,18.727,0,0,0,131.167,0Zm0,31.338a12.611,12.611,0,1,1,12.611-12.611A12.611,12.611,0,0,1,131.167,31.338Z" transform="translate(-35.245 0)"/><path class="c" d="M92.7,1.11H81.239v6.1h3.8l-8.382,20.7-8.979-20.7H71.3V1.11H56.78v6.1h3.741L72.535,34.919a4.579,4.579,0,0,0,6.014,2.375l.508-.22a1.442,1.442,0,0,0,.789-.879,1.167,1.167,0,0,0,.1-.151L92.065,6.156A2.821,2.821,0,0,0,92.7,4.385Z" transform="translate(-17.795 -0.348)"/></g></g></g></svg>