<svg xmlns="http://www.w3.org/2000/svg" width="138" height="72" viewBox="0 0 138 72"><defs><style>.a,.f{fill:none;}.a{opacity:0;}.b{fill:#001b38;}.c{fill:#fff;}.d{fill:#e5bf7e;}.e{fill:#e9c07e;}.f{stroke:#e5bf7e;stroke-miterlimit:10;stroke-width:3px;}</style></defs><g transform="translate(-1369 -753)"><rect class="a" width="138" height="72" transform="translate(1369 753)"/><g transform="translate(1390 762)"><rect class="b" width="96.693" height="54.365"/><path class="c" d="M50.556,20.1H40.788a.884.884,0,0,0-.888.888v.592a.884.884,0,0,0,.888.888H44.34V33.223a1.14,1.14,0,0,0,1.184,1.184h.2A1.349,1.349,0,0,0,47.1,33.025V22.468h3.552a.884.884,0,0,0,.888-.888v-.592A1.049,1.049,0,0,0,50.556,20.1Z" transform="translate(-0.532 -0.268)"/><path class="c" d="M55.175,29.344h-.3A1.558,1.558,0,0,1,53.3,27.765v-.987A1.558,1.558,0,0,1,54.879,25.2h.3a1.558,1.558,0,0,1,1.579,1.579v.987A1.558,1.558,0,0,1,55.175,29.344Z" transform="translate(-0.711 -0.336)"/><path class="d" d="M55.175,23.844h-.3A1.558,1.558,0,0,1,53.3,22.265v-.987A1.558,1.558,0,0,1,54.879,19.7h.3a1.558,1.558,0,0,1,1.579,1.579v.987A1.558,1.558,0,0,1,55.175,23.844Z" transform="translate(-0.711 -0.263)"/><path class="c" d="M55.175,34.544h-.3A1.558,1.558,0,0,1,53.3,32.965v-.987A1.558,1.558,0,0,1,54.879,30.4h.3a1.558,1.558,0,0,1,1.579,1.579v.987A1.558,1.558,0,0,1,55.175,34.544Z" transform="translate(-0.711 -0.405)"/><path class="c" d="M23.88,28.057h-.3A1.2,1.2,0,0,1,22.4,26.873v-.789A1.2,1.2,0,0,1,23.584,24.9h.3a1.2,1.2,0,0,1,1.184,1.184v.789A1.137,1.137,0,0,1,23.88,28.057Z" transform="translate(-0.299 -0.332)"/><path class="d" d="M23.88,23.657h-.3A1.2,1.2,0,0,1,22.4,22.473v-.789A1.2,1.2,0,0,1,23.584,20.5h.3a1.2,1.2,0,0,1,1.184,1.184v.789A1.089,1.089,0,0,1,23.88,23.657Z" transform="translate(-0.299 -0.273)"/><path class="c" d="M23.88,32.157h-.3A1.2,1.2,0,0,1,22.4,30.973v-.789A1.2,1.2,0,0,1,23.584,29h.3a1.2,1.2,0,0,1,1.184,1.184v.789A1.137,1.137,0,0,1,23.88,32.157Z" transform="translate(-0.299 -0.387)"/><path class="c" d="M67.386,27.693V26.509l3.749-4.539a1.268,1.268,0,0,0-.2-1.776l-.1-.1a1.268,1.268,0,0,0-1.776.2l-3.256,3.947H64.623l-3.256-4.045a1.345,1.345,0,0,0-1.776-.2l-.2.1a1.345,1.345,0,0,0-.2,1.776l3.749,4.637v1.085L59.2,32.231a1.268,1.268,0,0,0,.2,1.776l.2.1a1.268,1.268,0,0,0,1.776-.2l3.256-3.947h1.283l3.157,3.947a1.345,1.345,0,0,0,1.776.2l.2-.1a1.345,1.345,0,0,0,.2-1.776Z" transform="translate(-0.786 -0.263)"/><path class="e" d="M76.087,24.493h-.2A.849.849,0,0,1,75.1,23.7V17.389a.849.849,0,0,1,.789-.789h.2a.849.849,0,0,1,.789.789V23.7A.849.849,0,0,1,76.087,24.493Z" transform="translate(-1.001 -0.221)"/><path class="e" d="M81.757,16.6H80.179A1.558,1.558,0,0,0,78.6,18.179v4.835a1.349,1.349,0,0,0,1.381,1.381h1.973a3.537,3.537,0,0,0,3.552-3.552v-.691A3.78,3.78,0,0,0,81.757,16.6Zm-.3,6.512h-.987a.212.212,0,0,1-.2-.2V18.277a.262.262,0,0,1,.3-.3h.888a2.565,2.565,0,1,1,0,5.131Z" transform="translate(-1.048 -0.221)"/><path class="f" d="M32.148,26.187a2.222,2.222,0,0,1,1.579-2.072V18.688a.884.884,0,0,0-.888-.888H14.388a.884.884,0,0,0-.888.888v5.427a2.149,2.149,0,0,1,0,4.144v5.525a.884.884,0,0,0,.888.888H32.839a.884.884,0,0,0,.888-.888V28.259A2.027,2.027,0,0,1,32.148,26.187Z" transform="translate(-0.18 -0.237)"/></g></g></svg>