<svg xmlns="http://www.w3.org/2000/svg" xmlns:xlink="http://www.w3.org/1999/xlink" width="39.502" height="43.99" viewBox="0 0 39.502 43.99"><defs><style>.a{fill:none;}.b{fill:#929292;}.c{fill:url(#a);}.d{clip-path:url(#b);}.e{fill:#946116;}.f{fill:#8f5e15;}.g{fill:#8a5a15;}.h{fill:#855714;}.i{clip-path:url(#c);}.j{fill:#ffbc00;}.k{clip-path:url(#d);}.l{fill:#fcfcfc;}.m{fill:#fff;}</style><linearGradient id="a" y1="-1.71" x2="1" y2="-1.71" gradientUnits="objectBoundingBox"><stop offset="0" stop-color="#ffa726"/><stop offset="0" stop-color="#c3bb31"/><stop offset="0" stop-color="#3adf41"/><stop offset="0.61" stop-color="#32b17d"/><stop offset="1" stop-color="#2e979e"/></linearGradient><clipPath id="b"><path class="a" d="M90.743,26.648,88.216,25a4.209,4.209,0,0,1-1.728-3.712l2.527,1.642A4.215,4.215,0,0,0,90.743,26.648Z" transform="translate(-86.48 -21.29)"/></clipPath><clipPath id="c"><path class="a" d="M63.023,87.536,60.5,85.89c.2.131.4.259.615.375l2.527,1.646A6.626,6.626,0,0,1,63.023,87.536Z" transform="translate(-60.5 -85.89)"/></clipPath><clipPath id="d"><path class="a" d="M75.311,33.14l2.523,1.642C76.709,42.76,72.36,51.121,64.667,54.942L62.14,53.3C69.833,49.475,74.164,41.115,75.311,33.14Z" transform="translate(-62.14 -33.14)"/></clipPath></defs><g transform="translate(-3613.989 -1485.719)"><g transform="translate(3619.573 1524.497)"><ellipse class="b" cx="14.116" cy="2.606" rx="14.116" ry="2.606" transform="translate(0 0)"/></g><g transform="translate(3613.989 1485.719)"><path class="c" d="M55.632,90.611c-.266-.682-1.421-1.1-2.624-1a6.805,6.805,0,0,0-1,.21c-1.578.472-9.418,3.157-9.47,3.262h-.21l.1.157c.9.75,1.368,1.526,1.159,2.16-.262.945-1.578,1.522-3.685,1.736a29.063,29.063,0,0,1-7-.529h1c2,0,3.839,0,5.313-.1,2.25-.157,3.314-.682,3.472-1.526.056-.577-.262-1.05-1.05-1.421a17.971,17.971,0,0,0-4.323-.945c-1.155-.214-2.25-.319-3.052-.529a24.935,24.935,0,0,0-8.8-1.211,14.033,14.033,0,0,0-1.473.21,64.412,64.412,0,0,0-7.525,1.792H16.16l3.787,5.47A9.289,9.289,0,0,1,22,98.03a10.573,10.573,0,0,1,2.576,0c1,.21,3.629.75,6.1,1.211,2.624.577,5.1,1.05,6.051,1.207.525.052,1.054.052,1.578.052a10.936,10.936,0,0,0,3.787-1.47c.42-.21.791-.424,1.159-.634L54.462,92.35c1.263-.791,1.263-1.421,1.159-1.74Z" transform="translate(-16.16 -63.988)"/><g transform="translate(9.546)"><g transform="translate(16.819 0)"><g class="d"><g transform="translate(0)"><path class="e" d="M86.488,21.29l2.527,1.642a4.219,4.219,0,0,0,0,.592l-2.523-1.646a3.856,3.856,0,0,1,0-.589" transform="translate(-86.48 -21.29)"/><path class="f" d="M86.52,22.86l2.523,1.646a4.673,4.673,0,0,0,.409,1.6l-2.527-1.642a4.673,4.673,0,0,1-.4-1.6" transform="translate(-86.505 -22.271)"/><path class="g" d="M87.6,27.13l2.527,1.642a3.665,3.665,0,0,0,.716,1.039l-2.527-1.646A3.723,3.723,0,0,1,87.6,27.13" transform="translate(-87.18 -24.94)"/><path class="h" d="M89.51,29.89l2.527,1.646a3.763,3.763,0,0,0,.6.487L90.11,30.377a3.392,3.392,0,0,1-.6-.487" transform="translate(-88.374 -26.666)"/></g></g></g><g transform="translate(7.078 24.22)"><g class="i"><path class="h" d="M61.115,86.269l2.527,1.646c-.21-.124-.416-.247-.619-.375L60.5,85.89c.2.131.4.259.615.375" transform="translate(-60.5 -85.89)"/></g></g><path class="j" d="M58.447,21.29a4.09,4.09,0,0,0,4.038,4.443c-1.147,7.975-5.478,16.335-13.171,20.156-6.6-3.82-8.529-12.181-7.382-20.156a5.8,5.8,0,0,0,5.313-4.443Z" transform="translate(-41.62 -21.29)"/><g transform="translate(7.693 4.443)"><g class="k"><path class="e" d="M90.744,33.14l2.523,1.642a30.942,30.942,0,0,1-3.914,11.285L86.83,44.421A31.014,31.014,0,0,0,90.744,33.14" transform="translate(-77.573 -33.14)"/><path class="f" d="M79.229,63.23l2.523,1.646a24.469,24.469,0,0,1-4.559,5.65L74.67,68.884a24.506,24.506,0,0,0,4.559-5.654" transform="translate(-69.972 -51.949)"/><path class="g" d="M67.007,78.31l2.523,1.642a20.483,20.483,0,0,1-4.593,3.172L62.41,81.482a20.765,20.765,0,0,0,4.6-3.172" transform="translate(-62.309 -61.375)"/><path class="h" d="M62.241,86.77l2.527,1.642-.1.052L62.14,86.819l.1-.049" transform="translate(-62.14 -66.663)"/></g></g></g><g transform="translate(13.748 5.972)"><path class="l" d="M56.673,54.207l.982.326-3.847-.067-.979-.326Z" transform="translate(-52.83 -47.796)"/><path class="l" d="M70.111,37.34l.982.326-.071,3.794-.982-.33Z" transform="translate(-63.588 -37.295)"/><path class="l" d="M69.791,54.45l.982.326-.071,3.79-.982-.326Z" transform="translate(-63.388 -47.99)"/><path class="l" d="M65.451,64.485l.982.326-2.561-.041-.982-.33Z" transform="translate(-59.118 -54.235)"/><path class="m" d="M56.793,37.22l2.561.045-.071,3.79,3.847.067-.049,2.624-3.847-.067-.071,3.79L56.6,47.425l.071-3.794-3.843-.067.049-2.621,3.843.067Z" transform="translate(-52.83 -37.22)"/><path class="l" d="M80.219,47.63l.982.33-.052,2.621-.979-.326Z" transform="translate(-69.92 -43.727)"/><path class="l" d="M73.757,54.517l.979.326-3.843-.067-.982-.326Z" transform="translate(-63.506 -47.99)"/></g></g></g></svg>