<svg xmlns="http://www.w3.org/2000/svg" width="128.137" height="35.983" viewBox="0 0 128.137 35.983"><defs><style>.a{fill:#108ee9;}.b{fill:#fff;}</style></defs><g transform="translate(0 0)"><circle class="a" cx="17.992" cy="17.992" r="17.992"/><path class="b" d="M11.54,18.1V28.733a9.545,9.545,0,0,0,11.151,0c6.078-4.016,9.371,0,9.371,0V17.849s-3.045-4.056-10.14,0C18.381,20.379,11.54,18.1,11.54,18.1Z" transform="translate(-3.816 -5.306)"/><path class="a" d="M69.852,12.25h-7.1V33H69.7A10.448,10.448,0,0,0,80.153,22.551,10.3,10.3,0,0,0,69.852,12.25Zm.522,16.733H66.766V16.266h2.416a6.954,6.954,0,0,1,6.954,6.954A5.77,5.77,0,0,1,70.374,28.983Z" transform="translate(-20.749 -4.051)"/><path class="a" d="M106.5,12.25h0A8.748,8.748,0,0,0,97.75,21V33h4.612V28.388h8.648V33h4.605V21.373A9.116,9.116,0,0,0,106.5,12.25ZM111.3,24.064h-9.23V21.246a4.685,4.685,0,0,1,4.685-4.685,4.545,4.545,0,0,1,4.545,4.558Z" transform="translate(-32.323 -4.051)"/><path class="a" d="M173.5,12.25h0A8.748,8.748,0,0,0,164.75,21V33h4.612V28.388h8.648V33h4.605V21.373A9.116,9.116,0,0,0,173.5,12.25ZM178.3,24.064h-9.23V21.246a4.685,4.685,0,0,1,4.685-4.685,4.545,4.545,0,0,1,4.545,4.558Z" transform="translate(-54.477 -4.051)"/><path class="a" d="M139.11,12.25a8.36,8.36,0,0,0-8.36,8.36V33h4.183V20.6a4.157,4.157,0,0,1,4.157-4.157h.288a4.377,4.377,0,0,1,4.384,4.377V33h4.19V21.105a8.855,8.855,0,0,0-8.842-8.855Z" transform="translate(-43.235 -4.051)"/></g></svg>