<svg xmlns="http://www.w3.org/2000/svg" width="130.151" height="30.5" viewBox="0 0 130.151 30.5"><defs><style>.a{fill:#d46725;}.b{fill:#00386c;}.c{fill:#00386d;}.d{fill:#00376b;}.e{fill:#c66123;}.f{fill:#c36023;}</style></defs><g transform="translate(1393.916 2068.919)"><path class="a" d="M-1260.125-2056.432a12.508,12.508,0,0,1-12.514,12.5A12.544,12.544,0,0,1-1285-2056.589a12.394,12.394,0,0,1,12.385-12.31A12.373,12.373,0,0,1-1260.125-2056.432Zm-12.392-4.763c-4.705,0-4.705,0-4.705,4.726,0,4.747,0,4.747,4.686,4.747s4.686,0,4.686-4.727C-1267.851-2061.2-1267.851-2061.2-1272.517-2061.2Z" transform="translate(-50.008 -0.009)"/><path class="b" d="M-1331.266-2043.213c0-.729-.01-1.457,0-2.186.066-6.378,4.236-9.329,10.378-7.222a4.827,4.827,0,0,0,3.373-.054c5.778-1.913,9.79.78,10.116,6.772.124,2.271.055,4.553.042,6.831-.006,1.106.048,2.313-1.6,2.272-1.463-.036-2.5-.646-2.556-2.231-.076-2.366-.047-4.736-.077-7.1-.017-1.319-.24-2.565-1.529-3.289-1.837-1.032-3.849.126-3.991,2.458-.155,2.542-.1,5.1-.076,7.649.013,1.566-.3,2.616-2.25,2.584-1.87-.031-2.006-1.1-1.989-2.508q.043-3.416-.013-6.832c-.028-1.879-.5-3.589-2.771-3.649-2.34-.062-2.769,1.621-2.764,3.537.005,2.46-.041,4.919-.006,7.379.022,1.532-.684,2.07-2.171,2.064s-2.18-.574-2.12-2.1C-1331.218-2040.3-1331.263-2041.755-1331.266-2043.213Z" transform="translate(-28.76 -7.174)"/><path class="c" d="M-1207.951-2044.934c-.005-5.764,2.942-8.631,8.362-8.136a7.2,7.2,0,0,1,6.373,7.829c-.117,1.207-.75,1.519-1.8,1.515-2.091-.007-4.183-.024-6.272.032-.754.021-1.815-.318-2.07.774a2.205,2.205,0,0,0,1.352,2.443,3.3,3.3,0,0,0,3.811-.444c1.326-.979,3.258-1.644,4.113-.3.77,1.208-.893,2.593-2.085,3.382a7.76,7.76,0,0,1-8.049.512C-1207.3-2038.852-1208.025-2041.746-1207.951-2044.934Zm7.356-1.432c.891-.45,2.514.665,2.624-1.035.095-1.474-1.159-2.191-2.564-2.236s-2.746.6-2.767,2.03C-1203.332-2045.646-1201.508-2046.845-1200.6-2046.365Z" transform="translate(-85.385 -7.252)"/><path class="b" d="M-1172.78-2042.948c.726-2.528,1.438-5.061,2.185-7.583.31-1.048.6-2.179,1.913-2.415a3.084,3.084,0,0,1,2.392.176c.881.639.257,1.516.016,2.24-1.756,5.273-3.566,10.527-5.327,15.8-.888,2.657-2.775,3.678-5.462,3.538-.924-.048-1.619-.307-1.69-1.36-.064-.948-.048-1.908,1.17-2.115,2.629-.447,2.254-2.1,1.622-3.892-1.333-3.781-2.706-7.549-3.937-11.363-.3-.938-1.607-2.382.232-2.955,1.65-.514,3.424-.545,3.989,1.92.628,2.737,1.523,5.411,2.3,8.114Z" transform="translate(-97.932 -7.237)"/><path class="b" d="M-1378.158-2044.805c-.044-5.665,3.092-8.737,8.372-8.2a6.939,6.939,0,0,1,6.161,7.654c-.139,1.377-.89,1.619-2.006,1.616-1.911-.005-3.823-.031-5.732.035-.825.029-2.02-.313-2.1,1.074a2.1,2.1,0,0,0,1.709,2.179,3.865,3.865,0,0,0,3.586-.722c1.152-.866,2.965-1.38,3.723-.315.906,1.272-.659,2.46-1.691,3.269a7.328,7.328,0,0,1-7.979.887C-1377.242-2038.765-1378.066-2041.63-1378.158-2044.805Zm7.354-1.581c.884-.386,2.531.637,2.549-1.15.013-1.342-1.165-2.033-2.472-2.052-1.386-.021-2.745.531-2.681,2.075C-1373.34-2045.858-1371.732-2046.706-1370.8-2046.386Z" transform="translate(-7.235 -7.277)"/><path class="d" d="M-1221.981-2042.81c0,1.181.025,2.362-.007,3.542-.031,1.15.225,2.535-1.616,2.522a2.337,2.337,0,0,1-2.63-2.475c-.061-2-.032-4-.043-5.994-.012-2.028.177-4.347-2.706-4.424-2.936-.077-2.8,2.227-2.806,4.276,0,2.18-.047,4.361.005,6.539.036,1.486-.553,2.126-2.079,2.143-1.6.018-2.333-.523-2.274-2.209.095-2.722-.069-5.456.1-8.172.236-3.895,2.559-5.911,6.665-6.042,4.286-.138,6.756,1.733,7.236,5.67a38.4,38.4,0,0,1,.03,4.623Z" transform="translate(-72.444 -7.259)"/><path class="e" d="M-1393.909-2055.068c.138-6.836,6.948-13.678,13.769-13.836.729-.017,1.645-.141,1.661.872.016,1.137-1.034,1.03-1.821,1.165-6.653,1.137-10.918,5.532-11.808,12.091-.12.885.474,2.171-.979,2.487C-1393.788-2052.138-1393.956-2052.74-1393.909-2055.068Z" transform="translate(0 -0.001)"/><path class="f" d="M-1387.734-2051.72a11.965,11.965,0,0,1,10.434-10.848c.83-.083,1.8-.311,1.927.813.1.925-.806.97-1.532,1.133-5.618,1.269-7.944,3.727-8.768,9.205-.119.788-.013,1.743-1.143,1.858C-1387.565-2049.482-1387.827-2050.151-1387.734-2051.72Z" transform="translate(-2.83 -2.881)"/><path class="d" d="M-1344.829-2037.56c-.726,0-1.452.005-2.177,0-.849-.006-1.708-.039-1.751-1.193-.042-1.134.378-2.006,1.638-2.063,1.629-.073,3.264-.035,4.9-.054,1.09-.013,1.688.44,1.713,1.6.03,1.326-.67,1.754-1.869,1.713C-1343.2-2037.583-1344.013-2037.561-1344.829-2037.56Z" transform="translate(-20.733 -12.879)"/></g></svg>