<svg xmlns="http://www.w3.org/2000/svg" xmlns:xlink="http://www.w3.org/1999/xlink" width="136.932" height="24.98" viewBox="0 0 136.932 24.98"><defs><style>.a{fill:url(#a);}.b{fill:url(#d);}.c{fill:url(#g);}.d{opacity:0.54;mix-blend-mode:multiply;isolation:isolate;}.e{fill:url(#j);}.f{fill:url(#k);}.g{fill:url(#n);}.h{fill:url(#q);}.i{fill:url(#t);}.j{filter:url(#r);}.k{filter:url(#o);}.l{filter:url(#l);}.m{filter:url(#h);}.n{filter:url(#e);}.o{filter:url(#b);}</style><linearGradient id="a" x1="0.836" y1="-0.964" x2="0.226" y2="1.871" gradientUnits="objectBoundingBox"><stop offset="0" stop-color="#fe9f13"/><stop offset="0.613" stop-color="#fe6b0e"/></linearGradient><filter id="b" x="8.049" y="11.935" width="20.874" height="7.608" filterUnits="userSpaceOnUse"><feOffset dx="2" dy="4" input="SourceAlpha"/><feGaussianBlur result="c"/><feFlood flood-opacity="0.541"/><feComposite operator="in" in2="c"/><feComposite in="SourceGraphic"/></filter><linearGradient id="d" x1="0.818" y1="-1.501" x2="0.227" y2="2.331" xlink:href="#a"/><filter id="e" x="2.776" y="6.106" width="28.368" height="7.608" filterUnits="userSpaceOnUse"><feOffset dx="2" dy="4" input="SourceAlpha"/><feGaussianBlur result="f"/><feFlood flood-opacity="0.541"/><feComposite operator="in" in2="f"/><feComposite in="SourceGraphic"/></filter><linearGradient id="g" x1="0.834" y1="-0.455" x2="0.257" y2="0.792" xlink:href="#a"/><filter id="h" x="0" y="0" width="47.242" height="22.596" filterUnits="userSpaceOnUse"><feOffset dx="2" dy="4" input="SourceAlpha"/><feGaussianBlur result="i"/><feFlood flood-opacity="0.541"/><feComposite operator="in" in2="i"/><feComposite in="SourceGraphic"/></filter><linearGradient id="j" x1="0.956" y1="-0.007" x2="-0.072" y2="0.918" xlink:href="#a"/><linearGradient id="k" x1="1.016" y1="0.019" x2="0.001" y2="0.973" xlink:href="#a"/><filter id="l" x="72.482" y="0" width="21.389" height="21.319" filterUnits="userSpaceOnUse"><feOffset dx="2" dy="3" input="SourceAlpha"/><feGaussianBlur result="m"/><feFlood flood-opacity="0.541"/><feComposite operator="in" in2="m"/><feComposite in="SourceGraphic"/></filter><linearGradient id="n" x1="0.967" y1="-0.03" x2="0.025" y2="1.036" xlink:href="#a"/><filter id="o" x="101.863" y="3.886" width="20.396" height="17.433" filterUnits="userSpaceOnUse"><feOffset dx="2" dy="3" input="SourceAlpha"/><feGaussianBlur result="p"/><feFlood flood-opacity="0.541"/><feComposite operator="in" in2="p"/><feComposite in="SourceGraphic"/></filter><linearGradient id="q" x1="0.918" y1="0.161" x2="-0.011" y2="0.987" xlink:href="#a"/><filter id="r" x="116.573" y="0" width="20.359" height="21.319" filterUnits="userSpaceOnUse"><feOffset dx="2" dy="3" input="SourceAlpha"/><feGaussianBlur result="s"/><feFlood flood-opacity="0.541"/><feComposite operator="in" in2="s"/><feComposite in="SourceGraphic"/></filter><linearGradient id="t" x1="0.962" y1="0" x2="0.036" y2="0.999" xlink:href="#a"/></defs><g transform="translate(-534.5 -882)"><g class="o" transform="matrix(1, 0, 0, 1, 534.5, 882)"><path class="a" d="M563.5,926.943,582.374,925l-1.388,3.608Z" transform="translate(-555.45 -913.07)"/></g><g class="n" transform="matrix(1, 0, 0, 1, 534.5, 882)"><path class="b" d="M544.5,905.665,570.868,904l-1.388,3.608Z" transform="translate(-541.72 -897.89)"/></g><g class="m" transform="matrix(1, 0, 0, 1, 534.5, 882)"><path class="c" d="M534.5,883.665,579.742,882l-1.11,3.608H572.8L568.084,900.6h-2.776l5-14.988Z" transform="translate(-534.5 -882)"/></g><g transform="translate(587.791 885.886)"><g class="d" transform="translate(0.555 1.11)"><path d="M747.378,900H735.439L728.5,919.984h2.776l1.665-5.274H742.6a2.053,2.053,0,0,0,1.932-1.36l4.132-11.526A1.364,1.364,0,0,0,747.378,900Zm-2.792,4.362-2.391,6.217a.383.383,0,0,1-.357.245h-7.509l2.5-7.216h7.241A.555.555,0,0,1,744.586,904.362Z" transform="translate(-728.5 -900)"/></g><path class="e" d="M745.378,896H733.439L726.5,915.984h2.776l1.665-5.273H740.6a2.053,2.053,0,0,0,1.932-1.36l4.132-11.526A1.364,1.364,0,0,0,745.378,896Zm-2.792,4.362-2.391,6.217a.383.383,0,0,1-.357.245h-7.509l2.5-7.216h7.241A.555.555,0,0,1,742.586,900.362Z" transform="translate(-726.5 -896)"/></g><g class="l" transform="matrix(1, 0, 0, 1, 534.5, 882)"><path class="f" d="M808.926,900.319H796.464a.82.82,0,0,1-.778-1.08l5.414-16.244a1.455,1.455,0,0,1,1.38-.995h12.552l-1.388,3.886H803.49a.923.923,0,0,0-.878.638l-3.2,9.843a.475.475,0,0,0,.452.621h10.171Z" transform="translate(-723.16 -882)"/></g><g class="k" transform="matrix(1, 0, 0, 1, 534.5, 882)"><path class="g" d="M902.61,906.825l-1.11,3.608h12.581A.662.662,0,0,0,914.7,910l2.9-7.978a.555.555,0,0,0-.522-.745h-9.754l.644-1.5a.728.728,0,0,1,.669-.441h10.067l1.157-2.776a.4.4,0,0,0-.37-.555H907.648a1.645,1.645,0,0,0-1.546,1.083l-2.356,6.479a1.19,1.19,0,0,0,1.119,1.6h7.986a.5.5,0,0,1,.488.577l-.1.6a.58.58,0,0,1-.572.485Z" transform="translate(-799.64 -892.11)"/></g><g class="j" transform="matrix(1, 0, 0, 1, 534.5, 882)"><path class="h" d="M960.606,882,954.5,900.319h2.776l3.886-10.825H968.4a.555.555,0,0,1,.518.754l-3.873,10.071H968.1l4.684-12.82a1.2,1.2,0,0,0-1.128-1.613h-9.385L963.659,882Z" transform="translate(-837.93 -882)"/></g><g transform="translate(621.929 885.886)"><g class="d" transform="translate(0.555 1.11)"><path d="M867.84,900h-11.9l-1.163,3.023a.431.431,0,0,0,.4.585h10.2l-.555,1.665h-9.1a1.723,1.723,0,0,0-1.6,1.092l-2.54,6.448a1.185,1.185,0,0,0,1.1,1.62h11.86l4.44-12.827A1.211,1.211,0,0,0,867.84,900Zm-4.684,11.1h-7.67a.286.286,0,0,1-.275-.364l.377-1.319a.358.358,0,0,1,.344-.26h7.779Z" transform="translate(-851.498 -900)"/></g><path class="i" d="M865.84,896h-11.9l-1.163,3.023a.431.431,0,0,0,.4.585h10.2l-.555,1.665h-9.1a1.724,1.724,0,0,0-1.6,1.092l-2.54,6.448a1.185,1.185,0,0,0,1.1,1.62h11.86l4.44-12.827A1.211,1.211,0,0,0,865.84,896Zm-4.684,11.1h-7.67a.286.286,0,0,1-.275-.364l.377-1.319a.358.358,0,0,1,.344-.26h7.779Z" transform="translate(-849.498 -896)"/></g><g transform="translate(575.3 885.886)"><g class="d" transform="translate(0.555 1.11)"><path d="M699.84,900h-11.9l-1.163,3.023a.431.431,0,0,0,.4.585h10.2l-.555,1.665h-9.1a1.724,1.724,0,0,0-1.6,1.092l-2.54,6.448a1.185,1.185,0,0,0,1.1,1.62h11.86l4.44-12.827A1.211,1.211,0,0,0,699.84,900Zm-4.684,11.1h-7.67a.286.286,0,0,1-.275-.364l.377-1.319a.358.358,0,0,1,.344-.26h7.779Z" transform="translate(-683.498 -900)"/></g><g transform="translate(0)"><path class="i" d="M697.84,896h-11.9l-1.163,3.023a.431.431,0,0,0,.4.585h10.2l-.555,1.665h-9.1a1.724,1.724,0,0,0-1.6,1.092l-2.54,6.448a1.185,1.185,0,0,0,1.1,1.62h11.86l4.44-12.827A1.211,1.211,0,0,0,697.84,896Zm-4.684,11.1h-7.67a.286.286,0,0,1-.275-.364l.377-1.319a.358.358,0,0,1,.344-.26h7.779Z" transform="translate(-681.498 -896)"/></g></g></g></svg>