<svg xmlns="http://www.w3.org/2000/svg" xmlns:xlink="http://www.w3.org/1999/xlink" width="46.054" height="44.345" viewBox="0 0 46.054 44.345"><defs><style>.a,.l{fill:none;}.b{opacity:0.8;}.c{fill:#424242;opacity:0.5;}.d{isolation:isolate;}.e{clip-path:url(#a);}.f{fill:#856200;}.g{clip-path:url(#b);}.h{clip-path:url(#c);}.i{clip-path:url(#d);}.j{fill:#febb00;}.k{fill:#ffbc00;}.l{stroke:#fff;stroke-miterlimit:10;stroke-width:0.5px;}.m{fill:url(#e);}.n{fill:#fff;}</style><clipPath id="a"><path class="a" d="M1722.36,967.517l-.619,2.455a7.38,7.38,0,0,0-5.535-3.6,7.587,7.587,0,0,0-2.913.343l.619-2.456a7.585,7.585,0,0,1,2.913-.342A7.38,7.38,0,0,1,1722.36,967.517Z" transform="translate(-1713.294 -963.892)"/></clipPath><clipPath id="b"><path class="a" d="M1706.16,970.574l.619-2.455a4.958,4.958,0,0,1,3.274-3.426l-.619,2.456A4.956,4.956,0,0,0,1706.16,970.574Z" transform="translate(-1706.16 -964.693)"/></clipPath><clipPath id="c"><path class="a" d="M1742.158,990.5l-.619,2.456c-.119.2-2.391,4.054-10.391,5.41l.619-2.455C1739.767,994.559,1742.039,990.707,1742.158,990.5Z" transform="translate(-1731.148 -990.504)"/></clipPath><clipPath id="d"><path class="a" d="M1697.193,973.061l.619-2.455c-1.464,5.808,2.684,13.731,12.052,14.551a19.54,19.54,0,0,0,3.378-.008l-.619,2.455a19.538,19.538,0,0,1-3.378.008C1699.876,986.793,1695.729,978.869,1697.193,973.061Z" transform="translate(-1696.905 -970.606)"/></clipPath><linearGradient id="e" y1="0.5" x2="1" y2="0.5" gradientUnits="objectBoundingBox"><stop offset="0" stop-color="#ffa726"/><stop offset="0" stop-color="#c3bb31"/><stop offset="0" stop-color="#3adf41"/><stop offset="0.614" stop-color="#32b07c"/><stop offset="1" stop-color="#2e979e"/></linearGradient></defs><g class="b" transform="translate(0 38.875)"><ellipse class="c" cx="23.027" cy="2.735" rx="23.027" ry="2.735"/></g><g transform="translate(10.481)"><g class="d"><g class="d" transform="translate(7.522 3.259)"><g class="e"><g class="d"><path class="f" d="M1722.36,967.517l-.619,2.455a7.38,7.38,0,0,0-5.535-3.6,7.587,7.587,0,0,0-2.913.343l.619-2.456a7.585,7.585,0,0,1,2.913-.342,7.38,7.38,0,0,1,5.535,3.6" transform="translate(-1713.294 -963.892)"/></g></g></g><g class="d" transform="translate(4.248 3.626)"><g class="g"><g class="d"><path class="f" d="M1710.053,964.693l-.619,2.456a4.956,4.956,0,0,0-3.274,3.426l.619-2.455a4.958,4.958,0,0,1,3.274-3.426" transform="translate(-1706.16 -964.693)"/></g></g></g><g transform="translate(5.591 7.622)"><path class="f" d="M1725.71,973.4l-.619,2.455-16.005,5.7.619-2.455Z" transform="translate(-1709.086 -973.399)"/></g><g class="d" transform="translate(15.717 15.473)"><g class="h"><g class="d"><path class="f" d="M1742.158,990.5l-.619,2.456c-.119.2-2.391,4.054-10.391,5.41l.619-2.455c8-1.355,10.272-5.207,10.391-5.41" transform="translate(-1731.148 -990.504)"/></g></g></g><g class="d" transform="translate(0 6.34)"><g class="i"><g class="d"><path class="f" d="M1713.241,985.149l-.619,2.455a19.538,19.538,0,0,1-3.378.008c-9.368-.819-13.516-8.743-12.052-14.551l.619-2.455c-1.464,5.808,2.684,13.731,12.052,14.551a19.54,19.54,0,0,0,3.378-.008" transform="translate(-1696.905 -970.606)"/></g></g></g><g transform="translate(0.619)"><path class="j" d="M1721.89,969.535l2.472,2.731c-.119.2-2.391,4.055-10.391,5.41a19.545,19.545,0,0,1-3.378.008c-13.68-1.2-16.228-17.544-6.425-20.327a13.677,13.677,0,0,1,4.951-.518c7.266.637,10.559,7.229,10.732,7.576l-16.006,5.7a10.463,10.463,0,0,0,7.1,3.981C1716.8,974.613,1721.635,969.789,1721.89,969.535Zm-16.114-9.116c-4.557,1.82-3.376,6.006-3.08,7.225l11.528-3.968a7.38,7.38,0,0,0-5.534-3.6,7.586,7.586,0,0,0-2.913.342" transform="translate(-1698.253 -956.793)"/></g></g></g><g transform="translate(8.766 32.616)"><path class="k" d="M1693.167,1036.677l13.531-8.826,1.963.035,12.952,8.858Z" transform="translate(-1693.167 -1027.851)"/><path class="l" d="M1724.95,1039.325v-.756" transform="translate(-1710.362 -1033.65)"/><path class="l" d="M1724.93,1044.506v-1.613" transform="translate(-1710.351 -1035.989)"/><path class="l" d="M1724.95,1035.623v-.52" transform="translate(-1710.362 -1031.775)"/><path class="l" d="M1724.95,1032.7" transform="translate(-1710.362 -1030.475)"/><path class="l" d="M1724.95,1030.2" transform="translate(-1710.362 -1029.12)"/></g><path class="m" d="M1678.474,1006.584H1674.1v4.649h4.376a6.6,6.6,0,0,1,4.376,2.324v11.623h4.377v-9.564a9.285,9.285,0,0,1,6.564-2.324h6.564s4.376,0,6.564,2.324v9.564h4.376v-11.623s2.188-2.324,4.376-2.324h4.376v-4.649Z" transform="translate(-1674.085 -983.73)"/><ellipse class="n" cx="1.567" cy="1.567" rx="1.567" ry="1.567" transform="translate(15.065 25.91)"/><ellipse class="n" cx="1.567" cy="1.567" rx="1.567" ry="1.567" transform="translate(21.675 25.91)"/><ellipse class="n" cx="1.567" cy="1.567" rx="1.567" ry="1.567" transform="translate(27.951 25.91)"/></svg>