<svg xmlns="http://www.w3.org/2000/svg" xmlns:xlink="http://www.w3.org/1999/xlink" width="30.842" height="52.872" viewBox="0 0 30.842 52.872"><defs><style>.a{fill:none;}.b{opacity:0.8;}.c{fill:#424242;opacity:0.5;}.d{fill:url(#a);}.e{isolation:isolate;}.f{clip-path:url(#e);}.g{fill:#855714;}.h{fill:#fba425;}.i{clip-path:url(#f);}.j{fill:#858585;}.k{fill:#fbfbfb;}.l{fill:#818181;}.m{clip-path:url(#g);}.n{clip-path:url(#h);}.o{clip-path:url(#i);}.p{clip-path:url(#j);}.q{clip-path:url(#k);}.r{fill:#838383;}.s{clip-path:url(#l);}.t{clip-path:url(#m);}.u{clip-path:url(#n);}</style><linearGradient id="a" y1="0.5" x2="1" y2="0.5" gradientUnits="objectBoundingBox"><stop offset="0" stop-color="#ffa726"/><stop offset="0" stop-color="#c3bb31"/><stop offset="0" stop-color="#3adf41"/><stop offset="0.614" stop-color="#32b07c"/><stop offset="1" stop-color="#2e979e"/></linearGradient><clipPath id="e"><path class="a" d="M2052.473,1709.221l.987.721a2.31,2.31,0,0,1,.879,2.118,3.068,3.068,0,0,1-.255.979,3.328,3.328,0,0,1-1.184,1.411,2.8,2.8,0,0,1-1.352.476,2.153,2.153,0,0,1-1.437-.4l-.987-.721a2.151,2.151,0,0,0,1.437.4,2.8,2.8,0,0,0,1.351-.476,3.331,3.331,0,0,0,1.185-1.411,3.106,3.106,0,0,0,.255-.979A2.31,2.31,0,0,0,2052.473,1709.221Z" transform="translate(-2049.125 -1709.221)"/></clipPath><clipPath id="f"><path class="a" d="M2064.617,1725.128l.987.721a3.258,3.258,0,0,0-1.368,1.213l-.987-.721A3.247,3.247,0,0,1,2064.617,1725.128Z" transform="translate(-2063.249 -1725.128)"/></clipPath><clipPath id="g"><path class="a" d="M2071.987,1725.946a2.045,2.045,0,0,0-.338-.2l-.872-.637-.115-.084a2.03,2.03,0,0,1,.339.2Z" transform="translate(-2070.661 -1725.024)"/></clipPath><clipPath id="h"><path class="a" d="M2082.44,1716l-.987-.721a2.15,2.15,0,0,1-.537-.8l.987.722A2.16,2.16,0,0,0,2082.44,1716Z" transform="translate(-2080.917 -1714.478)"/></clipPath><clipPath id="i"><path class="a" d="M2090.38,1707.031a2.045,2.045,0,0,0-.338-.2l-.872-.637-.115-.084a2.04,2.04,0,0,1,.339.2Z" transform="translate(-2089.055 -1706.109)"/></clipPath><clipPath id="j"><path class="a" d="M2083.073,1716.935a2.015,2.015,0,0,0,.187.154l-.987-.722a2,2,0,0,1-.187-.154l.592.433.2.144C2082.942,1716.839,2083.01,1716.883,2083.073,1716.935Z" transform="translate(-2082.086 -1716.214)"/></clipPath><clipPath id="k"><path class="a" d="M2067.453,1725.462l.987.721a2.128,2.128,0,0,1,.722.948,2.567,2.567,0,0,1,.157,1.166,3.186,3.186,0,0,1-2.791,2.87,2.15,2.15,0,0,1-1.437-.395l-.987-.721a2.146,2.146,0,0,0,1.436.4,3.185,3.185,0,0,0,2.792-2.87,2.559,2.559,0,0,0-.157-1.166A2.123,2.123,0,0,0,2067.453,1725.462Z" transform="translate(-2064.105 -1725.462)"/></clipPath><clipPath id="l"><path class="a" d="M2102.41,1694.111a2.134,2.134,0,0,0,.724.951l-.987-.721a2.129,2.129,0,0,1-.724-.951A4.858,4.858,0,0,1,2102.41,1694.111Z" transform="translate(-2101.423 -1693.39)"/></clipPath><clipPath id="m"><path class="a" d="M2085.843,1706.545l.987.721a2.122,2.122,0,0,1,.723.949,2.57,2.57,0,0,1,.156,1.168,3.186,3.186,0,0,1-2.791,2.871,2.208,2.208,0,0,1-1.1-.2,2.022,2.022,0,0,1-.337-.2l-.987-.721a2.036,2.036,0,0,0,.336.2,2.212,2.212,0,0,0,1.1.2,3.187,3.187,0,0,0,2.792-2.871,2.568,2.568,0,0,0-.157-1.168A2.123,2.123,0,0,0,2085.843,1706.545Z" transform="translate(-2082.493 -1706.545)"/></clipPath><clipPath id="n"><path class="a" d="M2106.347,1685.466l.987.721a2.307,2.307,0,0,1,.88,2.114,3.186,3.186,0,0,1-2.792,2.871,2.211,2.211,0,0,1-1.1-.2,2.067,2.067,0,0,1-.337-.2l-.987-.721a2.036,2.036,0,0,0,.337.2,2.2,2.2,0,0,0,1.1.2,3.185,3.185,0,0,0,2.791-2.871A2.306,2.306,0,0,0,2106.347,1685.466Z" transform="translate(-2103 -1685.466)"/></clipPath></defs><g class="b" transform="translate(0.757 47.402)"><ellipse class="c" cx="14.491" cy="2.735" rx="14.491" ry="2.735"/></g><g transform="translate(1.232 24.838)"><rect class="d" width="5.672" height="18.269" rx="1.604" transform="translate(0 7.089)"/><rect class="d" width="5.672" height="11.343" rx="1.604" transform="translate(7.062 14.015)"/><rect class="d" width="5.672" height="17.56" rx="1.604" transform="translate(14.615 7.798)"/><rect class="d" width="5.672" height="25.358" rx="1.604" transform="translate(22.359)"/></g><g transform="translate(0 0)"><g class="e"><g class="e" transform="translate(0.889 11.306)"><g class="f"><g class="e"><path class="g" d="M2052.473,1709.221l.987.721a2.31,2.31,0,0,1,.879,2.118,3.068,3.068,0,0,1-.255.979,3.328,3.328,0,0,1-1.184,1.411,2.8,2.8,0,0,1-1.352.476,2.153,2.153,0,0,1-1.437-.4l-.987-.721a2.151,2.151,0,0,0,1.437.4,2.8,2.8,0,0,0,1.351-.476,3.331,3.331,0,0,0,1.185-1.411,3.106,3.106,0,0,0,.255-.979,2.31,2.31,0,0,0-.88-2.118" transform="translate(-2049.125 -1709.221)"/></g></g></g><g transform="translate(0 10.903)"><path class="h" d="M2049.986,1708.351a2.179,2.179,0,0,1,2.319,2.514,3.114,3.114,0,0,1-.255.979,3.331,3.331,0,0,1-1.185,1.411,2.8,2.8,0,0,1-1.352.476,2.175,2.175,0,0,1-2.315-2.51A3.184,3.184,0,0,1,2049.986,1708.351Z" transform="translate(-2047.188 -1708.345)"/></g><g class="e" transform="translate(7.372 18.607)"><g class="i"><g class="e"><path class="j" d="M2064.617,1725.128l.987.721a3.258,3.258,0,0,0-1.368,1.213l-.987-.721a3.247,3.247,0,0,1,1.368-1.213" transform="translate(-2063.249 -1725.128)"/></g></g></g><g transform="translate(3.677 14.402)"><path class="k" d="M2055.2,1717.38a3.331,3.331,0,0,0,1.185-1.412l3.878,4.2a3.249,3.249,0,0,0-1.368,1.213Z" transform="translate(-2055.2 -1715.968)"/></g><g transform="translate(4.862 14.402)"><path class="l" d="M2057.781,1715.968l.987.721,3.878,4.2-.987-.721Z" transform="translate(-2057.781 -1715.968)"/></g><g class="e" transform="translate(10.774 18.559)"><g class="m"><g class="e"><path class="j" d="M2071,1725.225l.987.721a2.045,2.045,0,0,0-.338-.2l-.987-.721a2.03,2.03,0,0,1,.339.2" transform="translate(-2070.661 -1725.024)"/></g></g></g><g class="e" transform="translate(15.481 13.718)"><g class="n"><g class="e"><path class="j" d="M2080.917,1714.478l.987.722a2.135,2.135,0,0,0,.724.95l-.987-.721a2.129,2.129,0,0,1-.723-.951" transform="translate(-2080.917 -1714.478)"/></g></g></g><g class="e" transform="translate(19.217 9.877)"><g class="o"><g class="e"><path class="j" d="M2089.394,1706.309l.987.722a2.045,2.045,0,0,0-.338-.2l-.987-.721a2.04,2.04,0,0,1,.339.2" transform="translate(-2089.055 -1706.109)"/></g></g></g><g class="e" transform="translate(16.018 14.515)"><g class="p"><g class="e" transform="translate(-0.537 -0.797)"><path class="j" d="M2080.917,1714.478l.987.722a2.135,2.135,0,0,0,.724.95l-.987-.721a2.129,2.129,0,0,1-.723-.951" transform="translate(-2080.917 -1714.478)"/></g></g></g><g class="e" transform="translate(7.765 18.76)"><g class="q"><g class="e"><path class="g" d="M2067.453,1725.462l.987.721a2.128,2.128,0,0,1,.722.948,2.567,2.567,0,0,1,.157,1.166,3.186,3.186,0,0,1-2.791,2.87,2.15,2.15,0,0,1-1.437-.395l-.987-.721a2.146,2.146,0,0,0,1.436.4,3.185,3.185,0,0,0,2.792-2.87,2.559,2.559,0,0,0-.157-1.166,2.123,2.123,0,0,0-.722-.947" transform="translate(-2064.105 -1725.462)"/></g></g></g><g transform="translate(11.835 14.869)"><path class="r" d="M2077.679,1716.984l.988.721-4.707,4.839-.987-.721Z" transform="translate(-2072.973 -1716.984)"/></g><g transform="translate(10.774 13.718)"><path class="k" d="M2075.368,1714.478a2.092,2.092,0,0,0,1.06,1.15l-4.706,4.839a2.1,2.1,0,0,0-1.061-1.148Z" transform="translate(-2070.661 -1714.478)"/></g><g transform="translate(6.875 18.357)"><path class="h" d="M2064.965,1724.591a2.213,2.213,0,0,1,1.1.2,2.1,2.1,0,0,1,1.061,1.148,2.552,2.552,0,0,1,.157,1.166,3.185,3.185,0,0,1-2.791,2.871,2.176,2.176,0,0,1-2.314-2.514,3.158,3.158,0,0,1,.485-1.41,3.247,3.247,0,0,1,1.368-1.213A2.691,2.691,0,0,1,2064.965,1724.591Z" transform="translate(-2062.167 -1724.585)"/></g><g class="e" transform="translate(24.894 4.039)"><g class="s"><g class="e"><path class="j" d="M2101.423,1693.39l.987.721a2.134,2.134,0,0,0,.724.951l-.987-.721a2.129,2.129,0,0,1-.724-.951" transform="translate(-2101.423 -1693.39)"/></g></g></g><g class="e" transform="translate(16.205 10.077)"><g class="t"><g class="e"><path class="g" d="M2085.843,1706.545l.987.721a2.126,2.126,0,0,1,.723.95,2.57,2.57,0,0,1,.156,1.168,3.186,3.186,0,0,1-2.791,2.871,2.208,2.208,0,0,1-1.1-.2,2.022,2.022,0,0,1-.337-.2l-.987-.721a2.036,2.036,0,0,0,.336.2,2.212,2.212,0,0,0,1.1.2,3.187,3.187,0,0,0,2.792-2.871,2.568,2.568,0,0,0-.157-1.168,2.123,2.123,0,0,0-.723-.95" transform="translate(-2082.493 -1706.545)"/></g></g></g><g transform="translate(20.278 5.191)"><path class="r" d="M2097.044,1695.9l.987.721-5.677,5.837-.987-.721Z" transform="translate(-2091.367 -1695.898)"/></g><g transform="translate(15.314 9.675)"><path class="h" d="M2083.354,1705.675a2.207,2.207,0,0,1,1.1.2,2.1,2.1,0,0,1,1.061,1.15,2.576,2.576,0,0,1,.157,1.168,3.186,3.186,0,0,1-2.791,2.87,2.209,2.209,0,0,1-1.1-.2,2.1,2.1,0,0,1-1.06-1.15,2.579,2.579,0,0,1-.156-1.167A3.186,3.186,0,0,1,2083.354,1705.675Z" transform="translate(-2080.552 -1705.669)"/></g><g transform="translate(19.217 4.039)"><path class="k" d="M2094.732,1693.39a2.1,2.1,0,0,0,1.062,1.151l-5.677,5.837a2.1,2.1,0,0,0-1.061-1.15Z" transform="translate(-2089.055 -1693.39)"/></g><g class="e" transform="translate(25.617 0.402)"><g class="u"><g class="e"><path class="g" d="M2106.347,1685.466l.987.721a2.307,2.307,0,0,1,.88,2.114,3.186,3.186,0,0,1-2.792,2.871,2.211,2.211,0,0,1-1.1-.2,2.067,2.067,0,0,1-.337-.2l-.987-.721a2.036,2.036,0,0,0,.337.2,2.2,2.2,0,0,0,1.1.2,3.185,3.185,0,0,0,2.791-2.871,2.306,2.306,0,0,0-.879-2.114" transform="translate(-2103 -1685.466)"/></g></g></g><g transform="translate(24.726)"><path class="h" d="M2103.857,1684.6a2.177,2.177,0,0,1,2.319,2.51,3.186,3.186,0,0,1-2.791,2.871,2.2,2.2,0,0,1-1.1-.2,2.1,2.1,0,0,1-1.062-1.151,2.58,2.58,0,0,1-.156-1.167A3.183,3.183,0,0,1,2103.857,1684.6Z" transform="translate(-2101.059 -1684.59)"/></g></g></g></svg>