<svg xmlns="http://www.w3.org/2000/svg" width="133.028" height="37" viewBox="0 0 133.028 37"><defs><style>.a{font-size:37px;font-family:MyriadPro-Bold, Myriad Pro;font-weight:700;letter-spacing:-0.04em;}.b,.d{fill:#00add5;}.b{isolation:isolate;}.c{fill:#fff;}.d{stroke:#00add5;stroke-miterlimit:10;}</style></defs><g transform="translate(0 -6.26)"><g transform="translate(0 6.26)"><text class="a" transform="translate(34.202 28)"><tspan x="0" y="0">gopa</tspan></text><path d="M208.2,23.49l8.058,16.122-4.029,8.064h4.606L228.928,23.49h-5.469l-4.606,11.23-5.469-11.23Z" transform="translate(-95.901 -14.196)"/><circle class="b" cx="14.687" cy="14.687" r="14.687" transform="translate(0 5.259)"/><path class="c" d="M11.86,33.2v6.354a4.169,4.169,0,0,0,4.169,4.169h8.776A3.916,3.916,0,0,0,28.726,39.8V36.021a3.36,3.36,0,0,0-3.36-3.333h-9.9a.539.539,0,0,1-.539-.539v-.135a.615.615,0,0,1,.615-.615h9.547a2.589,2.589,0,0,0-2.616-2.589l-6.311.07A4.347,4.347,0,0,0,11.86,33.2Z" transform="translate(-5.463 -16.647)"/><circle class="d" cx="0.874" cy="0.874" r="0.874" transform="translate(19.046 19.946)"/><rect class="d" width="1.165" height="2.325" transform="translate(19.337 20.82)"/></g></g></svg>