<svg xmlns="http://www.w3.org/2000/svg" width="156" height="38.998" viewBox="0 0 156 38.998"><defs><style>.a{fill:#fff;}.b{fill:#388e3c;}.c{fill:#ee3b49;}.d{fill:#fffffc;}</style></defs><g transform="translate(27.314 0)"><g transform="translate(0 9.913)"><path class="a" d="M179.547,90.316c.047-.388.093-.792.14-1.181a10.291,10.291,0,0,1,3.34-6.525,9.363,9.363,0,0,1,4.739-2.455,10.1,10.1,0,0,1,3.418-.016,13.022,13.022,0,0,0,2.051.155,10.87,10.87,0,0,0,3.154-.42c.528-.155,1.041-.373,1.569-.575a4.468,4.468,0,0,1-.218,2.113,12.485,12.485,0,0,1-.808,1.569c-.093.171-.124.264,0,.42a10.693,10.693,0,0,1,2.548,5.376,10.827,10.827,0,0,1-5.718,11.575,9.094,9.094,0,0,1-3.6.917,1.474,1.474,0,0,0-.357.078h-.621a3.975,3.975,0,0,0-.419-.078c-.419-.062-.855-.078-1.274-.171a9.351,9.351,0,0,1-5.112-2.983,10.409,10.409,0,0,1-2.8-6.65c-.016-.186-.047-.388-.078-.575A2.459,2.459,0,0,0,179.547,90.316Zm5,.342c.078.59.124,1.181.249,1.756a4.847,4.847,0,0,0,4.211,3.884,4.753,4.753,0,0,0,4.925-2.626,6.659,6.659,0,0,0,.606-4.273,5,5,0,0,0-4.444-4.366,4.754,4.754,0,0,0-4.257,1.8A5.955,5.955,0,0,0,184.55,90.657Z" transform="translate(-179.5 -76.954)"/><path class="a" d="M400.048,104.925c-.326-.047-.637-.093-.963-.155a6.282,6.282,0,0,1-5.267-5.158,13.565,13.565,0,0,1-.2-2.393c-.016-4.428-.016-8.84-.016-13.269,0-.451,0-.451.466-.451H398c.311,0,.388.093.388.4-.016,3.107-.031,6.2.016,9.307a21.8,21.8,0,0,0,.3,4.273,3.064,3.064,0,0,0,2.564,2.626,3.582,3.582,0,0,0,3.356-1.227,5.591,5.591,0,0,0,1.4-3.418c.093-1.507.124-3.03.14-4.552q.023-3.5,0-6.992c0-.326.093-.419.419-.419,1.352.016,2.7,0,4.055,0,.419,0,.419,0,.419.419v16.562a14.67,14.67,0,0,0,.513,4.117c.016.062.016.124.031.249-.388-.062-.761-.093-1.119-.171a6.4,6.4,0,0,1-3.5-1.911.886.886,0,0,0-1.072-.249,3.108,3.108,0,0,0-.761.435,8.171,8.171,0,0,1-3.915,1.8c-.264.031-.544.078-.808.124A1.027,1.027,0,0,1,400.048,104.925Z" transform="translate(-360.335 -80.501)"/><path class="a" d="M324.073,82.192h0c-3.232,1.088-4.086.373-4.3-.109V73.569c0-.062,0-.093.016-.109a.121.121,0,0,1,.078,0H321.2a.766.766,0,0,0,.715-.373,8.264,8.264,0,0,0,1.336-5.3,1.18,1.18,0,0,0-.047-.249c-.016-.031-.016-.078-.031-.109l-.078-.326-.264.2a4.895,4.895,0,0,1-2.812.761,1.326,1.326,0,0,1-.249,0,1.1,1.1,0,0,1-.016-.218V64.79a.5.5,0,0,0-.575-.59h-1.057a.573.573,0,0,0-.419.14.424.424,0,0,0-.124.3,4.525,4.525,0,0,1-4.1,3.434h-.28a.687.687,0,0,0-.233.031h0a.322.322,0,0,0-.155.093.562.562,0,0,0-.124.451,32.412,32.412,0,0,1,0,4.257.508.508,0,0,0,.124.419.575.575,0,0,0,.388.124h1.429v11.3a3.846,3.846,0,0,0,3.838,3.838H320a2.412,2.412,0,0,0,.357-.078C321.928,88.08,324.616,86.62,324.073,82.192Z" transform="translate(-291.989 -64.2)"/></g><g transform="translate(59.212)"><path class="a" d="M574.415,86.011a4.806,4.806,0,0,0-4.148-1.647,5,5,0,0,0-4.475,4.381,6.651,6.651,0,0,0,.606,4.3,4.785,4.785,0,0,0,4.956,2.641,4.637,4.637,0,0,0,3.387-2.02l3.511,3.511-.28.326a9.389,9.389,0,0,1-5.143,3.014c-.42.078-.855.109-1.29.171-.14.016-.28.062-.419.078H570.5a1.473,1.473,0,0,0-.357-.078,9.24,9.24,0,0,1-3.636-.917,10.921,10.921,0,0,1-5.749-11.653,10.621,10.621,0,0,1,2.563-5.407c.14-.155.109-.249,0-.42a12.8,12.8,0,0,1-.823-1.585,4.9,4.9,0,0,1-.217-2.113c.544.2,1.056.42,1.585.575a10.975,10.975,0,0,0,3.169.419,13.219,13.219,0,0,0,2.067-.155,11.165,11.165,0,0,1,3.449.016,9.482,9.482,0,0,1,4.77,2.47c.2.186.388.373.575.575Z" transform="translate(-560.603 -66.45)"/><path class="a" d="M694.114,21.639a13.825,13.825,0,0,0-.2-2.393,6.316,6.316,0,0,0-5.267-5.158l-.948-.14h-.388c-.264.047-.528.078-.808.124a8.171,8.171,0,0,0-3.915,1.8,3.949,3.949,0,0,1-.544.311.321.321,0,0,1-.466-.3V6.4a5.364,5.364,0,0,0-1.321-4.288,5.918,5.918,0,0,0-3.03-1.554C676.9.493,676.557.462,676.2.4a1.692,1.692,0,0,0,.031.233,13.216,13.216,0,0,1,.466,3.822V34.208c0,.419,0,.419.419.419,1.352,0,2.7-.016,4.055,0,.326,0,.42-.093.42-.419,0-1.041-.016-2.082-.016-3.123V29.578c0-.792,0-1.569.016-2.362.015-1.523.046-2.3.14-3.822a5.681,5.681,0,0,1,1.4-3.418,3.582,3.582,0,0,1,3.356-1.227,3.048,3.048,0,0,1,2.564,2.626,21.888,21.888,0,0,1,.3,4.273c.031,3.107.016,5.469.016,8.576,0,.3.093.4.388.4,1.305-.016,2.61,0,3.931,0,.466,0,.466,0,.466-.451C694.114,29.749,694.13,26.067,694.114,21.639Z" transform="translate(-658.24 -0.4)"/><path class="a" d="M819.279,89.628l-.047-.528a8.962,8.962,0,0,1-4.925,1.631,2.749,2.749,0,0,1-.932-.311c-.186-.078-.342-.155-.466-.2a10.48,10.48,0,0,0-2.439-.559,10.1,10.1,0,0,0-3.216.016,9.017,9.017,0,0,0-4.475,2.315,9.589,9.589,0,0,0-3.138,6.137c-.031.249-.062.5-.093.73l-.047.342v.575c.016.062.016.109.031.171l.047.326a9.773,9.773,0,0,0,2.626,6.246,8.775,8.775,0,0,0,4.816,2.812c.264.047.513.078.777.109.14.016.28.031.4.047l.233.047c.047.016.078.016.124.031h.684c.031-.016.078-.016.109-.031a.892.892,0,0,1,.155-.031,8.686,8.686,0,0,0,3.4-.87c.218-.109.419-.218.637-.326h0a1.28,1.28,0,0,0,1.274,1.274h2.331a1.23,1.23,0,0,0,1.227-1.227v-7.768a10.186,10.186,0,0,0,0-2.175V93.45a1.472,1.472,0,0,1,.2-.761,6.293,6.293,0,0,0,.5-1.025A4.654,4.654,0,0,0,819.279,89.628Zm-6.386,12.694h0a4.315,4.315,0,0,1-4.49,2.393,4.452,4.452,0,0,1-3.822-3.542c-.078-.373-.124-.73-.171-1.134-.016-.171-.047-.342-.062-.513a5.53,5.53,0,0,1,1.165-3.5,4.31,4.31,0,0,1,3.884-1.647,4.537,4.537,0,0,1,4.04,3.977A6.038,6.038,0,0,1,812.893,102.322Z" transform="translate(-762.383 -75.319)"/><path class="a" d="M945.373,81.392h0c-3.232,1.088-4.086.373-4.3-.109V72.769c0-.062,0-.093.016-.109a.121.121,0,0,1,.078,0H942.5a.766.766,0,0,0,.715-.373,8.264,8.264,0,0,0,1.336-5.3,1.18,1.18,0,0,0-.047-.249c-.016-.031-.016-.078-.031-.109l-.078-.326-.264.2a4.895,4.895,0,0,1-2.812.761,1.325,1.325,0,0,1-.249,0,1.1,1.1,0,0,1-.016-.218V63.99a.5.5,0,0,0-.575-.59h-1.057a.573.573,0,0,0-.419.14.425.425,0,0,0-.124.3,4.526,4.526,0,0,1-4.1,3.434h-.28a.644.644,0,0,0-.233.031h0a.323.323,0,0,0-.155.093.563.563,0,0,0-.124.451,32.422,32.422,0,0,1,0,4.257.508.508,0,0,0,.124.419.575.575,0,0,0,.389.124h1.429v11.3a3.846,3.846,0,0,0,3.838,3.838H941.3a2.413,2.413,0,0,0,.357-.078C943.228,87.3,945.916,85.835,945.373,81.392Z" transform="translate(-875.97 -53.612)"/></g></g><g transform="translate(0 9.089)"><path class="b" d="M13.355,91.068h-.062l-.5-.031v-.5c0-.233.016-.482.016-.715.031-1.227.062-2.3-.466-2.843a2.486,2.486,0,0,0-1.833-.528,3.23,3.23,0,0,1-3-2.082A5.55,5.55,0,0,1,7,82.025V62.2H26.095a4.655,4.655,0,0,1,3.931,2.3,7.324,7.324,0,0,1,1.227,4.071V86.453h-7.52a13.576,13.576,0,0,0-1.771.124,7.886,7.886,0,0,0-4.257,2.16c-2.253,2.222-4.024,2.331-4.35,2.331" transform="translate(-6.487 -61.687)"/><path class="a" d="M23.308,59.941a4.215,4.215,0,0,1,3.511,2.066A6.827,6.827,0,0,1,27.953,65.8v17.37H20.962a12.346,12.346,0,0,0-1.849.14,8.363,8.363,0,0,0-4.537,2.3c-2.144,2.082-3.775,2.16-4.009,2.16h-.031c.031-2.455.435-4.6-2.812-4.6a2.751,2.751,0,0,1-2.517-1.787,5.055,5.055,0,0,1-.466-2.129V59.941H23.308m0-1.041H3.7V79.253a6.167,6.167,0,0,0,.559,2.579A3.761,3.761,0,0,0,7.724,84.21a2.305,2.305,0,0,1,1.46.357c.373.388.357,1.4.326,2.47,0,.233-.016.466-.016.715l-.016.979.994.078h.093c.513,0,2.377-.171,4.739-2.455a7.353,7.353,0,0,1,3.977-2.02,12.2,12.2,0,0,1,1.678-.124H29.01V65.8A7.782,7.782,0,0,0,27.7,61.433a5.262,5.262,0,0,0-4.4-2.533" transform="translate(-3.7 -58.9)"/><path class="c" d="M37.256,111.661a1.45,1.45,0,0,0,.155.078,4.62,4.62,0,0,1,2.75,4.646,4.674,4.674,0,0,1-7.147,3.589c-.155-.093-.233-.093-.357.047a2.046,2.046,0,0,1-1.46.637,6.154,6.154,0,0,0-.155-3.263,4.357,4.357,0,0,1-.2-1.9,4.914,4.914,0,0,1,1.414-2.874,4.777,4.777,0,0,1,5-.963m-4.164,4.754a2.439,2.439,0,0,0,4.816-.777v-.047a2.443,2.443,0,1,0-4.816.823" transform="translate(-26.597 -103.193)"/><path class="d" d="M79.678,111.531a5.013,5.013,0,0,1,2.61-1.864,4.409,4.409,0,0,1,1.911-.093,6.066,6.066,0,0,0,3.247-.373,2.075,2.075,0,0,1-.4,1.538c-.109.155-.109.218.016.357a4.679,4.679,0,0,1-2.424,7.629,4.631,4.631,0,0,1-5.018-1.989l-.093-.14a4.739,4.739,0,0,1,.155-5.065m1.445,2.657a2.432,2.432,0,1,0,4.863.109v-.078a2.432,2.432,0,0,0-4.863-.031" transform="translate(-67.186 -101.385)"/></g></svg>