<svg xmlns="http://www.w3.org/2000/svg" width="220.362" height="55.087" viewBox="0 0 220.362 55.087"><defs><style>.a{fill:#388e3c;}.b{fill:#fff;}.c{fill:#ee3b49;}.d{fill:#fffffc;}</style></defs><g transform="translate(-3.7 -0.4)"><g transform="translate(42.283 0.4)"><g transform="translate(0 14.002)"><path class="a" d="M179.566,94.86c.066-.549.132-1.119.2-1.668a14.537,14.537,0,0,1,4.719-9.218,13.226,13.226,0,0,1,6.694-3.468A14.267,14.267,0,0,1,196,80.485a18.4,18.4,0,0,0,2.9.219,15.355,15.355,0,0,0,4.455-.593c.746-.219,1.47-.527,2.217-.812a6.31,6.31,0,0,1-.307,2.985,17.632,17.632,0,0,1-1.141,2.217c-.132.241-.176.373,0,.593a15.1,15.1,0,0,1,3.6,7.594c1.075,6.277-1.822,13.388-8.077,16.351a12.845,12.845,0,0,1-5.092,1.295,2.081,2.081,0,0,0-.5.11h-.878a5.615,5.615,0,0,0-.593-.11c-.593-.088-1.207-.11-1.8-.241a13.208,13.208,0,0,1-7.221-4.214,14.7,14.7,0,0,1-3.95-9.393c-.022-.263-.066-.549-.11-.812A3.476,3.476,0,0,0,179.566,94.86Zm7.067.483c.11.834.176,1.668.351,2.48a6.846,6.846,0,0,0,5.948,5.487,6.714,6.714,0,0,0,6.957-3.709,9.407,9.407,0,0,0,.856-6.035,7.06,7.06,0,0,0-6.277-6.167,6.715,6.715,0,0,0-6.013,2.546A8.412,8.412,0,0,0,186.633,95.343Z" transform="translate(-179.5 -75.986)"/><path class="a" d="M402.708,113.765c-.461-.066-.9-.132-1.361-.219a8.874,8.874,0,0,1-7.44-7.286,19.161,19.161,0,0,1-.285-3.38c-.022-6.255-.022-12.488-.022-18.743,0-.636,0-.636.658-.636h5.553c.439,0,.549.132.549.571-.022,4.389-.044,8.757.022,13.146a30.8,30.8,0,0,0,.417,6.035,4.329,4.329,0,0,0,3.621,3.709,5.06,5.06,0,0,0,4.741-1.734,7.9,7.9,0,0,0,1.975-4.828c.132-2.129.176-4.28.2-6.43q.033-4.938,0-9.876c0-.461.132-.593.593-.593,1.909.022,3.819,0,5.728,0,.593,0,.593,0,.593.593v23.4a20.723,20.723,0,0,0,.724,5.816c.022.088.022.176.044.351-.549-.088-1.075-.132-1.58-.241a9.037,9.037,0,0,1-4.938-2.7,1.251,1.251,0,0,0-1.514-.351,4.39,4.39,0,0,0-1.075.615,11.542,11.542,0,0,1-5.531,2.546c-.373.044-.768.11-1.141.176A1.45,1.45,0,0,1,402.708,113.765Z" transform="translate(-346.611 -79.264)"/><path class="a" d="M328.772,89.615h0c-4.565,1.536-5.772.527-6.079-.154V77.434c0-.088,0-.132.022-.154a.171.171,0,0,1,.11,0h1.887a1.082,1.082,0,0,0,1.01-.527,11.673,11.673,0,0,0,1.887-7.484,1.664,1.664,0,0,0-.066-.351c-.022-.044-.022-.11-.044-.154l-.11-.461-.373.285a6.914,6.914,0,0,1-3.972,1.075,1.873,1.873,0,0,1-.351,0,1.555,1.555,0,0,1-.022-.307V65.034a.711.711,0,0,0-.812-.834h-1.492a.809.809,0,0,0-.593.2.6.6,0,0,0-.176.417,6.393,6.393,0,0,1-5.794,4.85h-.4a.97.97,0,0,0-.329.044h0a.456.456,0,0,0-.219.132.794.794,0,0,0-.176.636,45.813,45.813,0,0,1,0,6.013.718.718,0,0,0,.176.593.813.813,0,0,0,.549.176h2.019V93.214a5.433,5.433,0,0,0,5.421,5.421h2.173a3.409,3.409,0,0,0,.5-.11C325.744,97.933,329.541,95.87,328.772,89.615Z" transform="translate(-283.452 -64.2)"/></g><g transform="translate(83.641 0)"><path class="a" d="M580.114,89.069a6.788,6.788,0,0,0-5.86-2.326,7.063,7.063,0,0,0-6.321,6.189,9.4,9.4,0,0,0,.856,6.079,6.759,6.759,0,0,0,7,3.731,6.55,6.55,0,0,0,4.784-2.853l4.96,4.96-.4.461a13.262,13.262,0,0,1-7.264,4.258c-.593.11-1.207.154-1.822.241-.2.022-.4.088-.593.11h-.878a2.082,2.082,0,0,0-.5-.11,13.052,13.052,0,0,1-5.136-1.295c-6.277-2.985-9.2-10.14-8.12-16.46a15,15,0,0,1,3.621-7.638c.2-.219.154-.351,0-.593a18.059,18.059,0,0,1-1.163-2.239,6.92,6.92,0,0,1-.307-2.985c.768.285,1.492.593,2.239.812a15.5,15.5,0,0,0,4.477.593,18.672,18.672,0,0,0,2.919-.219,15.771,15.771,0,0,1,4.872.022,13.4,13.4,0,0,1,6.738,3.49c.285.263.549.527.812.812Z" transform="translate(-560.603 -61.437)"/><path class="a" d="M701.5,30.4a19.522,19.522,0,0,0-.285-3.38,8.921,8.921,0,0,0-7.44-7.286c-.439-.066-.9-.132-1.339-.2h-.549c-.373.066-.746.11-1.141.176a11.542,11.542,0,0,0-5.531,2.546,5.577,5.577,0,0,1-.768.439.453.453,0,0,1-.658-.417V8.872a7.576,7.576,0,0,0-1.865-6.057,8.359,8.359,0,0,0-4.28-2.195C677.188.532,676.7.488,676.2.4a2.376,2.376,0,0,0,.044.329,18.678,18.678,0,0,1,.658,5.4V48.157c0,.593,0,.593.593.593,1.909,0,3.819-.022,5.728,0,.461,0,.593-.132.593-.593,0-1.47-.022-2.941-.022-4.411V41.617c0-1.119,0-2.217.022-3.336.022-2.151.066-3.248.2-5.4a8.027,8.027,0,0,1,1.975-4.828,5.06,5.06,0,0,1,4.741-1.734,4.305,4.305,0,0,1,3.621,3.709,30.914,30.914,0,0,1,.417,6.035c.044,4.389.022,7.725.022,12.115,0,.417.132.571.549.571,1.844-.022,3.687,0,5.553,0,.658,0,.658,0,.658-.636C701.5,41.858,701.527,36.657,701.5,30.4Z" transform="translate(-650.83 -0.4)"/><path class="a" d="M827.439,89.846l-.066-.746a12.66,12.66,0,0,1-6.957,2.3,3.883,3.883,0,0,1-1.317-.439c-.263-.11-.483-.219-.658-.285a14.805,14.805,0,0,0-3.446-.79,14.269,14.269,0,0,0-4.543.022,12.737,12.737,0,0,0-6.321,3.27,13.545,13.545,0,0,0-4.433,8.669c-.044.351-.088.7-.132,1.032l-.066.483v.812c.022.088.022.154.044.241l.066.461a13.8,13.8,0,0,0,3.709,8.823,12.4,12.4,0,0,0,6.8,3.972c.373.066.724.11,1.1.154.2.022.4.044.571.066l.329.066c.066.022.11.022.176.044h.966c.044-.022.11-.022.154-.044a1.262,1.262,0,0,1,.219-.044,12.27,12.27,0,0,0,4.806-1.229c.307-.154.593-.307.9-.461h0a1.808,1.808,0,0,0,1.8,1.8h3.292a1.737,1.737,0,0,0,1.734-1.734V105.319a14.379,14.379,0,0,0,0-3.073v-7a2.079,2.079,0,0,1,.285-1.075,8.9,8.9,0,0,0,.7-1.449A6.573,6.573,0,0,0,827.439,89.846Zm-9.02,17.931h0a6.094,6.094,0,0,1-6.343,3.38,6.288,6.288,0,0,1-5.4-5c-.11-.527-.176-1.032-.241-1.6-.022-.241-.066-.483-.088-.724a7.813,7.813,0,0,1,1.646-4.938,6.087,6.087,0,0,1,5.487-2.326,6.409,6.409,0,0,1,5.706,5.618A8.526,8.526,0,0,1,818.418,107.777Z" transform="translate(-747.069 -69.633)"/><path class="a" d="M950.072,88.815h0c-4.565,1.536-5.772.527-6.079-.154V76.634c0-.088,0-.132.022-.154a.171.171,0,0,1,.11,0h1.888a1.082,1.082,0,0,0,1.01-.527,11.673,11.673,0,0,0,1.887-7.484,1.662,1.662,0,0,0-.066-.351c-.022-.044-.022-.11-.044-.154l-.11-.461-.373.285a6.914,6.914,0,0,1-3.972,1.075,1.873,1.873,0,0,1-.351,0,1.553,1.553,0,0,1-.022-.307V64.234a.711.711,0,0,0-.812-.834h-1.492a.809.809,0,0,0-.593.2.6.6,0,0,0-.176.417,6.392,6.392,0,0,1-5.794,4.85h-.4a.91.91,0,0,0-.329.044h0a.455.455,0,0,0-.219.132.794.794,0,0,0-.176.636,45.818,45.818,0,0,1,0,6.013.718.718,0,0,0,.176.593.813.813,0,0,0,.549.176h2.019V92.414a5.433,5.433,0,0,0,5.421,5.421h2.173a3.411,3.411,0,0,0,.5-.11C947.044,97.155,950.841,95.092,950.072,88.815Z" transform="translate(-852.036 -49.573)"/></g></g><g transform="translate(3.7 13.239)"><path class="a" d="M15.976,102.978h-.088l-.7-.044v-.7c0-.329.022-.68.022-1.01.044-1.734.088-3.248-.658-4.016a3.512,3.512,0,0,0-2.59-.746,4.562,4.562,0,0,1-4.236-2.941A7.84,7.84,0,0,1,7,90.2v-28H33.973a6.576,6.576,0,0,1,5.553,3.248,10.346,10.346,0,0,1,1.734,5.75V96.459H30.637a19.175,19.175,0,0,0-2.5.176,11.139,11.139,0,0,0-6.013,3.051c-3.182,3.138-5.684,3.292-6.145,3.292" transform="translate(-6.276 -61.476)"/><path class="b" d="M31.4,60.37a5.955,5.955,0,0,1,4.96,2.919,9.644,9.644,0,0,1,1.6,5.355V93.181H28.083a17.439,17.439,0,0,0-2.612.2,11.814,11.814,0,0,0-6.409,3.248c-3.029,2.941-5.333,3.051-5.662,3.051h-.044c.044-3.468.615-6.5-3.972-6.5a3.886,3.886,0,0,1-3.555-2.524,7.14,7.14,0,0,1-.658-3.007V60.37H31.4m0-1.47H3.7V87.651a8.711,8.711,0,0,0,.79,3.643,5.313,5.313,0,0,0,4.894,3.358,3.257,3.257,0,0,1,2.063.5c.527.549.5,1.975.461,3.49,0,.329-.022.658-.022,1.01l-.022,1.383,1.4.11H13.4c.724,0,3.358-.241,6.694-3.468a10.387,10.387,0,0,1,5.618-2.853,17.229,17.229,0,0,1,2.37-.176H39.452V68.644a10.993,10.993,0,0,0-1.844-6.167A7.432,7.432,0,0,0,31.4,58.9" transform="translate(-3.7 -58.9)"/><path class="c" d="M39.915,111.793a2.039,2.039,0,0,0,.219.11,6.526,6.526,0,0,1,3.885,6.562,6.6,6.6,0,0,1-10.1,5.07c-.219-.132-.329-.132-.5.066a2.89,2.89,0,0,1-2.063.9,8.693,8.693,0,0,0-.219-4.609,6.155,6.155,0,0,1-.285-2.678,6.941,6.941,0,0,1,2-4.06,6.748,6.748,0,0,1,7.067-1.361m-5.882,6.716a3.446,3.446,0,0,0,6.8-1.1v-.066a3.451,3.451,0,1,0-6.8,1.163" transform="translate(-24.86 -99.832)"/><path class="d" d="M80.013,112.492a7.082,7.082,0,0,1,3.687-2.634,6.228,6.228,0,0,1,2.7-.132,8.568,8.568,0,0,0,4.587-.527,2.932,2.932,0,0,1-.571,2.173c-.154.219-.154.307.022.5a6.609,6.609,0,0,1-3.424,10.776,6.542,6.542,0,0,1-7.089-2.809l-.132-.2a6.7,6.7,0,0,1,.219-7.155m2.041,3.753a3.436,3.436,0,1,0,6.869.154v-.11a3.435,3.435,0,0,0-6.869-.044" transform="translate(-62.368 -98.161)"/></g></g></svg>