<svg xmlns="http://www.w3.org/2000/svg" width="117.569" height="38.408" viewBox="0 0 117.569 38.408"><defs><style>.a,.b{fill:#4b3795;}.a{isolation:isolate;}</style></defs><g transform="translate(0.01)"><g transform="translate(-0.01 0)"><path class="a" d="M19.2,0A19.2,19.2,0,1,0,38.4,19.2,19.2,19.2,0,0,0,19.2,0Zm0,32.136A12.932,12.932,0,1,1,32.133,19.2,12.932,12.932,0,0,1,19.2,32.136Z" transform="translate(0.01 0)"/><path class="a" d="M131.644,0a19.2,19.2,0,1,0,19.2,19.2A19.2,19.2,0,0,0,131.644,0Zm0,32.136A12.932,12.932,0,1,1,144.576,19.2,12.932,12.932,0,0,1,131.644,32.136Z" transform="translate(-33.28 0)"/><path class="b" d="M93.618,1.11H81.862V7.368h3.893L77.16,28.6,67.952,7.368h3.717V1.11H56.78V7.368h3.837L72.936,35.78A4.7,4.7,0,0,0,79.1,38.216l.521-.225a1.478,1.478,0,0,0,.81-.9,1.2,1.2,0,0,0,.106-.155L92.964,6.284a2.893,2.893,0,0,0,.655-1.816Z" transform="translate(-16.802 -0.329)"/></g></g></svg>