<svg xmlns="http://www.w3.org/2000/svg" xmlns:xlink="http://www.w3.org/1999/xlink" width="35.139" height="47.597" viewBox="0 0 35.139 47.597"><defs><style>.a{fill:none;}.b{opacity:0.8;}.c{fill:#424242;opacity:0.5;}.d{fill:#fff;}.e{fill:url(#a);}.f{isolation:isolate;}.g{clip-path:url(#b);}.h{fill:#856200;}.i{fill:#8a6600;}.j{clip-path:url(#c);}.k{fill:#946d00;}.l{clip-path:url(#d);}.m{clip-path:url(#e);}.n{fill:#858585;}.o{fill:#8d8d8d;}.p{fill:#8c8c8c;}.q{clip-path:url(#f);}.r{clip-path:url(#g);}.s{clip-path:url(#h);}.t{clip-path:url(#i);}.u{clip-path:url(#j);}.v{fill:#8a8a8a;}.w{clip-path:url(#k);}.x{fill:#805e00;}.y{clip-path:url(#l);}.z{clip-path:url(#m);}.aa{clip-path:url(#n);}.ab{clip-path:url(#o);}.ac{clip-path:url(#p);}.ad{clip-path:url(#q);}.ae{fill:#ffbc00;}.af{clip-path:url(#r);}.ag{clip-path:url(#s);}.ah{clip-path:url(#t);}.ai{clip-path:url(#u);}</style><linearGradient id="a" x1="-0.127" y1="0.196" x2="1.127" y2="0.804" gradientUnits="objectBoundingBox"><stop offset="0" stop-color="#ffa726"/><stop offset="0" stop-color="#c3bb31"/><stop offset="0" stop-color="#3adf41"/><stop offset="0.614" stop-color="#32b07c"/><stop offset="1" stop-color="#2e979e"/></linearGradient><clipPath id="b"><path class="a" d="M1536.985,707.43c-5.247.551-9.99,4.859-10.571,9.6l-.781-1.209c.581-4.741,5.324-9.048,10.57-9.6Z" transform="translate(-1525.633 -706.221)"/></clipPath><clipPath id="c"><path class="a" d="M1547.668,713.428l.781,1.208a.492.492,0,0,0-.369-.1.742.742,0,0,0-.4.177l-.781-1.208a.743.743,0,0,1,.4-.177A.493.493,0,0,1,1547.668,713.428Z" transform="translate(-1546.896 -713.329)"/></clipPath><clipPath id="d"><path class="a" d="M1537.38,723.625a.448.448,0,0,0-.149.578l-.781-1.209a.448.448,0,0,1,.149-.578Z" transform="translate(-1536.395 -722.416)"/></clipPath><clipPath id="e"><path class="a" d="M1537.3,724.882l-.782-1.209a.445.445,0,0,0,.442.171l.781,1.208A.444.444,0,0,1,1537.3,724.882Z" transform="translate(-1536.514 -723.673)"/></clipPath><clipPath id="f"><path class="a" d="M1540.357,723.8l.781,1.209a.453.453,0,0,0-.442-.174c-.351.039-.774.088-1.036.116-.118.012-.2.02-.234.022l-.781-1.209c.031,0,.116-.009.234-.022.262-.028.685-.076,1.036-.115A.453.453,0,0,1,1540.357,723.8Z" transform="translate(-1538.645 -723.623)"/></clipPath><clipPath id="g"><path class="a" d="M1543.206,725.452l-.238-.368-.543-.84a.342.342,0,0,0-.05-.231l.781,1.208A.341.341,0,0,1,1543.206,725.452Z" transform="translate(-1542.375 -724.013)"/></clipPath><clipPath id="h"><path class="a" d="M1526.345,728.344a6.692,6.692,0,0,0,.961,4.516l-.781-1.208a6.689,6.689,0,0,1-.961-4.517l.391.6.1.158.1.155.1.15A.554.554,0,0,1,1526.345,728.344Z" transform="translate(-1525.505 -727.135)"/></clipPath><clipPath id="i"><path class="a" d="M1556.945,710.443c-1.41-2.18-4.161-3.434-7.5-3.083l-.781-1.209c3.339-.351,6.091.9,7.5,3.083Z" transform="translate(-1548.663 -706.093)"/></clipPath><clipPath id="j"><path class="a" d="M1543.877,710.649l.781,1.208c-1.283-1.983-3.785-3.122-6.821-2.8-4.775.5-9.09,4.42-9.619,8.735a6.085,6.085,0,0,0,.874,4.107l-.781-1.208a6.087,6.087,0,0,1-.874-4.107c.529-4.315,4.843-8.233,9.619-8.735C1540.092,707.526,1542.594,708.666,1543.877,710.649Z" transform="translate(-1527.383 -707.792)"/></clipPath><clipPath id="k"><path class="a" d="M1551.107,722.553l.781,1.208a.679.679,0,0,0-.6.521l-.781-1.209A.678.678,0,0,1,1551.107,722.553Z" transform="translate(-1550.506 -722.553)"/></clipPath><clipPath id="l"><path class="a" d="M1556.845,720.394l.781,1.208a.376.376,0,0,0-.072-.08l-.781-1.209A.368.368,0,0,1,1556.845,720.394Z" transform="translate(-1556.773 -720.313)"/></clipPath><clipPath id="m"><path class="a" d="M1556.275,720.489l.781,1.208c.176.272-.115.7-.555.752l-.781-1.209C1556.161,721.192,1556.451,720.761,1556.275,720.489Z" transform="translate(-1555.72 -720.489)"/></clipPath><clipPath id="n"><path class="a" d="M1541.906,737.421l-.781-1.208a.35.35,0,0,1-.05-.235l.781,1.208A.346.346,0,0,0,1541.906,737.421Z" transform="translate(-1541.072 -735.978)"/></clipPath><clipPath id="o"><path class="a" d="M1541.969,737.7l-.781-1.208a.448.448,0,0,0,.438.172l.781,1.208A.448.448,0,0,1,1541.969,737.7Z" transform="translate(-1541.188 -736.49)"/></clipPath><clipPath id="p"><path class="a" d="M1564.1,715.224a6.092,6.092,0,0,1,.875,4.111l-.781-1.208a6.094,6.094,0,0,0-.875-4.112Z" transform="translate(-1563.317 -714.016)"/></clipPath><clipPath id="q"><path class="a" d="M1548.389,735.134l.781,1.209a.673.673,0,0,1-.605.521l-.781-1.208A.672.672,0,0,0,1548.389,735.134Z" transform="translate(-1547.784 -735.134)"/></clipPath><clipPath id="r"><path class="a" d="M1537.011,739.9c-3.039.32-5.543-.821-6.826-2.8l-.781-1.209c1.282,1.983,3.787,3.123,6.826,2.8Z" transform="translate(-1529.404 -735.887)"/></clipPath><clipPath id="s"><path class="a" d="M1554.672,724.182c-.529,4.312-4.843,8.23-9.615,8.731l-.781-1.208c4.772-.5,9.086-4.419,9.614-8.731l.391.6.051.079.151.234.049.076.048.074A.547.547,0,0,1,1554.672,724.182Z" transform="translate(-1544.276 -722.974)"/></clipPath><clipPath id="t"><path class="a" d="M1544.837,712.937l.781,1.208a6.691,6.691,0,0,1,.961,4.517c-.581,4.741-5.324,9.048-10.571,9.6-3.339.351-6.091-.9-7.5-3.083l-.781-1.208c1.41,2.18,4.161,3.434,7.5,3.083,5.247-.551,9.99-4.858,10.571-9.6A6.691,6.691,0,0,0,1544.837,712.937Z" transform="translate(-1527.727 -712.937)"/></clipPath><clipPath id="u"><path class="a" d="M1544.648,711.436l.781,1.208a7.53,7.53,0,0,1,1.079,5.082c-.654,5.334-5.968,10.159-11.87,10.779-3.755.395-6.842-1.007-8.423-3.453l-.782-1.209c1.582,2.446,4.669,3.848,8.424,3.453,5.9-.621,11.216-5.445,11.87-10.779A7.532,7.532,0,0,0,1544.648,711.436Z" transform="translate(-1525.433 -711.436)"/></clipPath></defs><g class="b" transform="translate(0 42.127)"><ellipse class="c" cx="14.491" cy="2.735" rx="14.491" ry="2.735"/></g><rect class="d" width="17.778" height="28.685" transform="translate(5.764 12.963)"/><path class="e" d="M1519.911,723.1H1506.8a4.911,4.911,0,0,0-4.918,4.918v26.228a4.911,4.911,0,0,0,4.918,4.918h13.114a4.911,4.911,0,0,0,4.918-4.918V728.018A4.912,4.912,0,0,0,1519.911,723.1Zm-4.1,32.786H1510.9a.82.82,0,0,1,0-1.64h4.918a.82.82,0,0,1,0,1.64Zm5.737-4.918h-16.393v-22.95h16.393Z" transform="translate(-1498.693 -714.226)"/><g transform="translate(12.853)"><g class="f"><g class="f" transform="translate(1.236 1.126)"><g class="g"><g class="f" transform="translate(-0.059 -0.059)"><path class="h" d="M1552,709.235l.781,1.208c-1.41-2.18-4.161-3.433-7.5-3.082a11.88,11.88,0,0,0-3.533.952l-.781-1.208a11.859,11.859,0,0,1,3.533-.953c3.339-.351,6.091.9,7.5,3.083" transform="translate(-1533.869 -706.093)"/><path class="i" d="M1533.714,708.3l.781,1.208a12.544,12.544,0,0,0-6.152,5.743l-.781-1.208a12.539,12.539,0,0,1,6.152-5.743" transform="translate(-1526.618 -707.285)"/><path class="h" d="M1526.449,720.808l.781,1.208a9.092,9.092,0,0,0-.885,2.9,6.692,6.692,0,0,0,.961,4.516l-.781-1.208a6.688,6.688,0,0,1-.961-4.516,9.093,9.093,0,0,1,.885-2.9" transform="translate(-1525.505 -714.054)"/></g></g></g><g class="f" transform="translate(10.996 4.389)"><g class="j"><g class="f"><path class="h" d="M1547.89,713.428l.781,1.208a.492.492,0,0,0-.369-.1.746.746,0,0,0-.214.057l-.781-1.208a.716.716,0,0,1,.214-.057.492.492,0,0,1,.369.1" transform="translate(-1547.118 -713.329)"/><path class="i" d="M1547.085,713.462l.781,1.208a.753.753,0,0,0-.189.119l-.781-1.208a.738.738,0,0,1,.189-.119" transform="translate(-1546.896 -713.401)"/></g></g></g><g transform="translate(6.38 4.569)"><path class="k" d="M1541.455,713.722l.781,1.208-4.616,3.991-.781-1.208Z" transform="translate(-1536.838 -713.722)"/></g><g class="f" transform="translate(6.176 8.56)"><g class="l"><g class="f"><path class="i" d="M1536.654,722.416l.782,1.209a.618.618,0,0,0-.156.2l-.782-1.208a.64.64,0,0,1,.156-.2" transform="translate(-1536.451 -722.416)"/><path class="h" d="M1536.442,722.844l.782,1.208a.382.382,0,0,0,.007.382l-.781-1.209a.382.382,0,0,1-.007-.382" transform="translate(-1536.395 -722.648)"/></g></g></g><g class="f" transform="translate(6.231 9.137)"><g class="m"><g class="f"><path class="n" d="M1536.956,723.844l.781,1.208a.444.444,0,0,1-.442-.17l-.782-1.209a.445.445,0,0,0,.442.171" transform="translate(-1536.514 -723.673)"/></g></g></g><g transform="translate(6.673 9.257)"><path class="o" d="M1537.956,723.935l.781,1.208-.479.05-.781-1.208Z" transform="translate(-1537.477 -723.935)"/></g><g transform="translate(7.151 9.254)"><path class="p" d="M1538.578,723.929l.781,1.208-.057,0-.781-1.208Z" transform="translate(-1538.52 -723.929)"/></g><g class="f" transform="translate(7.209 9.114)"><g class="q"><g class="f"><path class="n" d="M1540.357,723.8l.781,1.209a.453.453,0,0,0-.442-.174c-.351.039-.774.088-1.036.116-.118.012-.2.02-.234.022l-.781-1.209c.031,0,.116-.009.234-.022.262-.028.685-.076,1.036-.115a.453.453,0,0,1,.441.174" transform="translate(-1538.645 -723.623)"/></g></g></g><g class="f" transform="translate(8.921 9.293)"><g class="r"><g class="f"><path class="h" d="M1542.375,724.013l.781,1.208a.341.341,0,0,1,.05.231l-.781-1.208a.343.343,0,0,0-.05-.231" transform="translate(-1542.375 -724.013)"/></g></g></g><g class="f" transform="translate(1.177 10.726)"><g class="s"><g class="f" transform="translate(0 -2.904)"><path class="h" d="M1526.449,720.808l.781,1.208a9.092,9.092,0,0,0-.885,2.9,6.692,6.692,0,0,0,.961,4.516l-.781-1.208a6.688,6.688,0,0,1-.961-4.516,9.093,9.093,0,0,1,.885-2.9" transform="translate(-1525.505 -720.808)"/></g></g></g><g class="f" transform="translate(11.807 1.068)"><g class="t"><g class="f" transform="translate(-3.533)"><path class="h" d="M1552,709.235l.781,1.208c-1.41-2.18-4.161-3.433-7.5-3.082a11.88,11.88,0,0,0-3.533.952l-.781-1.208a11.859,11.859,0,0,1,3.533-.953c3.339-.351,6.091.9,7.5,3.083" transform="translate(-1540.966 -706.093)"/></g></g></g><g class="f" transform="translate(2.04 1.847)"><g class="u"><g class="f"><path class="n" d="M1551.486,710.649l.781,1.208c-1.282-1.983-3.785-3.122-6.821-2.8a10.809,10.809,0,0,0-3.216.867l-.781-1.208a10.814,10.814,0,0,1,3.216-.867c3.036-.319,5.539.821,6.821,2.8" transform="translate(-1534.993 -707.792)"/><path class="v" d="M1534.852,709.8l.781,1.208a11.4,11.4,0,0,0-5.6,5.224l-.782-1.209a11.41,11.41,0,0,1,5.6-5.224" transform="translate(-1528.396 -708.877)"/><path class="n" d="M1528.243,721.178l.782,1.209a8.284,8.284,0,0,0-.806,2.644,6.085,6.085,0,0,0,.874,4.107l-.781-1.208a6.086,6.086,0,0,1-.874-4.107,8.274,8.274,0,0,1,.806-2.644" transform="translate(-1527.383 -715.034)"/></g></g></g><g class="f" transform="translate(12.653 8.623)"><g class="w"><g class="f"><path class="n" d="M1551.568,722.553l.781,1.208a.74.74,0,0,0-.211.058l-.781-1.208a.734.734,0,0,1,.211-.057" transform="translate(-1550.966 -722.553)"/><path class="v" d="M1550.95,722.678l.781,1.208a.7.7,0,0,0-.346.316l-.781-1.208a.7.7,0,0,1,.346-.316" transform="translate(-1550.559 -722.621)"/><path class="n" d="M1550.551,723.367l.781,1.209a.483.483,0,0,0-.045.147l-.781-1.208a.467.467,0,0,1,.045-.147" transform="translate(-1550.506 -722.993)"/></g></g></g><g transform="translate(11.768 4.488)"><path class="x" d="M1552.34,716.652l.781,1.208-3.761-3.107-.781-1.208Z" transform="translate(-1548.578 -713.545)"/></g><g class="f" transform="translate(15.529 7.594)"><g class="y"><g class="f"><path class="h" d="M1556.845,720.394l.781,1.208a.376.376,0,0,0-.072-.08l-.781-1.209a.368.368,0,0,1,.072.081" transform="translate(-1556.773 -720.313)"/></g></g></g><g transform="translate(13.254 8.427)"><path class="o" d="M1553.608,722.127l.781,1.208-1.792.2-.781-1.208Z" transform="translate(-1551.816 -722.127)"/></g><g class="f" transform="translate(15.046 7.675)"><g class="z"><g class="f"><path class="n" d="M1556.93,720.489l.781,1.208a.377.377,0,0,1,0,.378l-.781-1.208a.376.376,0,0,0,0-.378" transform="translate(-1556.375 -720.489)"/><path class="v" d="M1556.533,721.312l.782,1.208a.7.7,0,0,1-.341.316l-.782-1.209a.692.692,0,0,0,.342-.316" transform="translate(-1555.975 -720.934)"/><path class="n" d="M1555.936,722l.782,1.209a.754.754,0,0,1-.216.058l-.781-1.208a.732.732,0,0,0,.216-.058" transform="translate(-1555.72 -721.307)"/></g></g></g><g transform="translate(8.326 9.524)"><path class="i" d="M1541.723,724.516l.781,1.208-.645,5.261-.781-1.208Z" transform="translate(-1541.078 -724.516)"/></g><g class="f" transform="translate(8.323 14.785)"><g class="aa"><g class="f"><path class="h" d="M1541.075,735.978l.781,1.208a.346.346,0,0,0,.05.235l-.781-1.208a.35.35,0,0,1-.05-.235" transform="translate(-1541.072 -735.978)"/></g></g></g><g class="f" transform="translate(8.376 15.02)"><g class="ab"><g class="f"><path class="n" d="M1541.625,736.662l.781,1.208a.448.448,0,0,1-.437-.172l-.781-1.208a.448.448,0,0,0,.438.172" transform="translate(-1541.188 -736.49)"/></g></g></g><g class="f" transform="translate(18.533 4.704)"><g class="ac"><g class="f" transform="translate(0 0)"><path class="h" d="M1563.317,714.017l.781,1.208a6.092,6.092,0,0,1,.875,4.111,8.279,8.279,0,0,1-.806,2.641l-.781-1.208a8.285,8.285,0,0,0,.805-2.642,6.09,6.09,0,0,0-.875-4.111" transform="translate(-1563.317 -714.017)"/></g></g></g><g transform="translate(12.009 9.144)"><path class="v" d="M1549.747,723.688l.781,1.208-.644,5.254-.781-1.208Z" transform="translate(-1549.103 -723.688)"/></g><g transform="translate(8.813 14.919)"><path class="o" d="M1544.731,736.271l.781,1.208-2.59.272-.781-1.208Z" transform="translate(-1542.14 -736.271)"/></g><g class="f" transform="translate(11.404 14.397)"><g class="ad"><g class="f"><path class="n" d="M1549.049,735.134l.781,1.209a.467.467,0,0,1-.046.15l-.781-1.208a.47.47,0,0,0,.046-.15" transform="translate(-1548.443 -735.134)"/><path class="v" d="M1548.6,735.461l.781,1.208a.685.685,0,0,1-.342.313l-.781-1.208a.691.691,0,0,0,.342-.313" transform="translate(-1548.041 -735.311)"/><path class="n" d="M1548,736.144l.781,1.208a.711.711,0,0,1-.217.058l-.781-1.208a.744.744,0,0,0,.217-.058" transform="translate(-1547.784 -735.68)"/></g></g></g><g transform="translate(2.04 1.847)"><path class="ae" d="M1537.056,707.845c4.771-.5,8.225,2.6,7.7,6.915s-4.843,8.229-9.615,8.731-8.229-2.6-7.7-6.911S1532.28,708.348,1537.056,707.845Zm3.334,6.526c.487-.055.791-.576.483-.833l-3.761-3.106a.493.493,0,0,0-.37-.1.742.742,0,0,0-.4.177l-4.616,3.99c-.378.328-.2.8.288.748l.484-.051.057,0c.031,0,.116-.009.234-.022.262-.027.685-.076,1.029-.114.309-.033.53.149.5.405l-.645,5.261c-.032.258.186.438.487.407l2.59-.272a.673.673,0,0,0,.605-.522l.644-5.254a.677.677,0,0,1,.6-.521l1.792-.2" transform="translate(-1527.384 -707.792)"/></g><g class="f" transform="translate(2.967 14.743)"><g class="af"><g class="f"><path class="h" d="M1539.443,737.825l.781,1.209a10.816,10.816,0,0,1-3.213.866c-3.039.32-5.543-.821-6.826-2.8l-.781-1.208c1.282,1.983,3.786,3.123,6.826,2.8a10.8,10.8,0,0,0,3.213-.866" transform="translate(-1529.404 -735.887)"/></g></g></g><g class="f" transform="translate(9.793 8.816)"><g class="ag"><g class="f" transform="translate(-6.826 -4.111)"><path class="h" d="M1563.317,714.017l.781,1.208a6.092,6.092,0,0,1,.875,4.111,8.279,8.279,0,0,1-.806,2.641l-.781-1.208a8.285,8.285,0,0,0,.805-2.642,6.09,6.09,0,0,0-.875-4.111" transform="translate(-1547.751 -714.017)"/><path class="i" d="M1556.872,728.729l.781,1.208a11.408,11.408,0,0,1-5.6,5.224l-.781-1.208a11.405,11.405,0,0,0,5.6-5.223" transform="translate(-1541.237 -721.976)"/><path class="h" d="M1539.443,737.825l.781,1.209a10.816,10.816,0,0,1-3.213.866c-3.039.32-5.543-.821-6.826-2.8l-.781-1.208c1.282,1.983,3.786,3.123,6.826,2.8a10.8,10.8,0,0,0,3.213-.866" transform="translate(-1529.404 -725.849)"/></g></g></g><g class="f" transform="translate(2.198 4.209)"><g class="ah"><g class="f"><path class="n" d="M1565,712.937l.781,1.208a6.692,6.692,0,0,1,.961,4.517,9.1,9.1,0,0,1-.886,2.9l-.781-1.208a9.092,9.092,0,0,0,.886-2.9,6.692,6.692,0,0,0-.961-4.516" transform="translate(-1547.894 -712.937)"/><path class="v" d="M1557.917,729.1l.781,1.209a12.541,12.541,0,0,1-6.152,5.743l-.781-1.208a12.541,12.541,0,0,0,6.152-5.743" transform="translate(-1540.732 -721.683)"/><path class="n" d="M1538.76,739.105l.781,1.208a11.87,11.87,0,0,1-3.533.952c-3.339.351-6.091-.9-7.5-3.083l-.781-1.208c1.41,2.18,4.161,3.434,7.5,3.083a11.866,11.866,0,0,0,3.533-.952" transform="translate(-1527.727 -725.942)"/></g></g></g><g transform="translate(1.178 1.068)"><path class="d" d="M1536.134,706.152c5.246-.551,9.043,2.858,8.462,7.6s-5.324,9.048-10.571,9.6-9.043-2.858-8.461-7.6S1530.887,706.7,1536.134,706.152Zm-2.014,16.421c4.772-.5,9.086-4.419,9.615-8.731s-2.924-7.417-7.7-6.915-9.09,4.42-9.619,8.735,2.925,7.413,7.7,6.911" transform="translate(-1525.505 -706.094)"/></g><g class="f" transform="translate(1.145 3.52)"><g class="ai"><g class="f"><path class="h" d="M1567.3,711.436l.781,1.208a7.53,7.53,0,0,1,1.079,5.082,10.253,10.253,0,0,1-1,3.273l-.781-1.208a10.266,10.266,0,0,0,1-3.273,7.531,7.531,0,0,0-1.079-5.082" transform="translate(-1548.081 -711.436)"/><path class="i" d="M1559.348,729.639l.782,1.208a14.043,14.043,0,0,1-6.894,6.435l-.782-1.208a14.046,14.046,0,0,0,6.894-6.435" transform="translate(-1540.051 -721.284)"/><path class="h" d="M1537.835,740.852l.782,1.208a13.371,13.371,0,0,1-3.979,1.072c-3.755.395-6.842-1.007-8.423-3.453l-.782-1.209c1.582,2.446,4.669,3.848,8.424,3.453a13.372,13.372,0,0,0,3.978-1.072" transform="translate(-1525.433 -726.062)"/></g></g></g><path class="ae" d="M1534.876,703.833c5.9-.621,10.156,3.2,9.5,8.536s-5.967,10.159-11.87,10.78-10.156-3.2-9.5-8.533S1528.974,704.453,1534.876,703.833Zm-2.239,18.259c5.247-.551,9.99-4.858,10.571-9.6s-3.215-8.15-8.462-7.6-9.989,4.858-10.57,9.6,3.215,8.15,8.461,7.6" transform="translate(-1522.94 -703.767)"/><g transform="translate(6.176 4.389)"><path class="d" d="M1541.618,713.333a.492.492,0,0,1,.369.1l3.761,3.107c.308.257,0,.777-.483.832l-1.792.2a.678.678,0,0,0-.6.521l-.644,5.254a.673.673,0,0,1-.605.522l-2.59.272c-.3.032-.519-.149-.488-.407l.645-5.261c.031-.256-.19-.438-.492-.406-.351.039-.774.088-1.036.115-.118.012-.2.021-.234.022l-.057,0-.479.051c-.492.051-.672-.42-.293-.748l4.616-3.991A.743.743,0,0,1,1541.618,713.333Z" transform="translate(-1536.395 -713.329)"/></g></g></g></svg>