<svg xmlns="http://www.w3.org/2000/svg" width="34.747" height="34.747" viewBox="0 0 34.747 34.747"><defs><style>.a{fill:none;}.b{fill:#fff;}</style></defs><path class="a" d="M0,0H34.747V34.747H0Z"/><path class="b" d="M9.687,25.165a2.9,2.9,0,1,0,2.9,2.9A2.892,2.892,0,0,0,9.687,25.165ZM1,3.448A1.452,1.452,0,0,0,2.448,4.9H3.9L9.108,15.884,7.153,19.417a2.9,2.9,0,0,0,2.534,4.3H25.613a1.448,1.448,0,1,0,0-2.9H9.687l1.593-2.9H22.066A2.882,2.882,0,0,0,24.6,16.435l5.183-9.4A1.442,1.442,0,0,0,28.523,4.9H7.1l-.97-2.07A1.437,1.437,0,0,0,4.822,2H2.448A1.452,1.452,0,0,0,1,3.448ZM24.165,25.165a2.9,2.9,0,1,0,2.9,2.9A2.892,2.892,0,0,0,24.165,25.165Z" transform="translate(0.448 0.896)"/></svg>