<svg xmlns="http://www.w3.org/2000/svg" xmlns:xlink="http://www.w3.org/1999/xlink" width="46.474" height="47.798" viewBox="0 0 46.474 47.798"><defs><style>.a{fill:none;}.b{opacity:0.8;}.c{fill:#424242;opacity:0.5;}.d{fill:#00a008;}.e{fill:url(#a);}.f{fill:#fff;}.g{isolation:isolate;}.h{clip-path:url(#b);}.i{fill:#855714;}.j{fill:#8a5a15;}.k{fill:#8f5e15;}.l{fill:#946116;}.m{clip-path:url(#c);}.n{fill:#ac711a;}.o{clip-path:url(#d);}.p{fill:#996417;}.q{fill:#9e6818;}.r{clip-path:url(#e);}.s{fill:#b3751b;}.t{fill:#f39f24;}</style><linearGradient id="a" y1="0.5" x2="1" y2="0.5" gradientUnits="objectBoundingBox"><stop offset="0" stop-color="#ffa726"/><stop offset="0" stop-color="#c3bb31"/><stop offset="0" stop-color="#3adf41"/><stop offset="0.614" stop-color="#32b07c"/><stop offset="1" stop-color="#2e979e"/></linearGradient><clipPath id="b"><path class="a" d="M1578.6,1443.559l1.224,1.187c.292.284.17.959.162,1l-1.223-1.187C1578.766,1444.518,1578.889,1443.843,1578.6,1443.559Z" transform="translate(-1578.596 -1443.559)"/></clipPath><clipPath id="c"><path class="a" d="M1546.984,1484.18l-1.223-1.186a.722.722,0,0,0,.187.129l1.224,1.187A.713.713,0,0,1,1546.984,1484.18Z" transform="translate(-1545.761 -1482.994)"/></clipPath><clipPath id="d"><path class="a" d="M1582.444,1466.958l1.223,1.187c.434.42.036,1.186.012,1.232l-1.224-1.186C1582.48,1468.145,1582.878,1467.379,1582.444,1466.958Z" transform="translate(-1582.444 -1466.958)"/></clipPath><clipPath id="e"><path class="a" d="M1551.357,1507.27l-1.223-1.187a.532.532,0,0,0,.38.136,1.835,1.835,0,0,0,.735-.191l1.223,1.187a1.82,1.82,0,0,1-.735.191A.532.532,0,0,1,1551.357,1507.27Z" transform="translate(-1550.134 -1506.028)"/></clipPath></defs><g class="b" transform="translate(4.884 42.328)"><ellipse class="c" cx="14.491" cy="2.735" rx="14.491" ry="2.735"/></g><g transform="translate(0 6.948)"><path class="d" d="M1490.219,1458.426c-2.736,0-3.479,1.389-3.479,3.044v2.763c0,.828-.744,1.773-2.443,1.773h16.359v-7.581Z" transform="translate(-1484.297 -1458.426)"/><g transform="translate(5.188 0.02)"><path class="e" d="M1521.591,1496.594l-1.26-1.49-1.26,1.49-1.26-1.49-1.26,1.49-1.26-1.49-1.26,1.49-1.26-1.49-1.26,1.49-1.26-1.49-1.26,1.49-1.261-1.49-1.26,1.49-1.26-1.49-1.261,1.49-1.26-1.49-1.26,1.49-1.26-1.49-1.26,1.49h0v-27.347c0-5.584,1.693-10.779-3.308-10.779l20.583.039c5,0,5.41,5.155,5.41,10.74Z" transform="translate(-1495.599 -1458.469)"/><g transform="translate(7.682 9.96)"><rect class="f" width="9.598" height="1.036" rx="0.518"/><rect class="f" width="7.744" height="1.036" rx="0.518" transform="translate(6.108 19.06)"/><rect class="f" width="13.974" height="1.036" rx="0.518" transform="translate(0 5.971)"/><rect class="f" width="13.974" height="1.036" rx="0.518" transform="translate(0 8.344)"/><rect class="f" width="13.974" height="1.036" rx="0.518" transform="translate(0 10.634)"/><rect class="f" width="10.893" height="1.036" rx="0.518" transform="translate(0 12.815)"/></g></g></g><g transform="translate(28.031 0)"><g class="g"><g class="g" transform="translate(15.251 0.124)"><g class="h"><g class="g"><path class="i" d="M1578.6,1443.559l1.224,1.187a.564.564,0,0,1,.133.218l-1.223-1.187a.561.561,0,0,0-.134-.218" transform="translate(-1578.596 -1443.559)"/><path class="j" d="M1578.887,1444.033l1.223,1.187a1.1,1.1,0,0,1,.054.258l-1.223-1.186a1.088,1.088,0,0,0-.054-.259" transform="translate(-1578.753 -1443.815)"/><path class="k" d="M1579,1444.6l1.224,1.186a1.965,1.965,0,0,1,0,.354L1579,1444.95a1.962,1.962,0,0,0,0-.353" transform="translate(-1578.814 -1444.121)"/><path class="l" d="M1578.973,1445.367l1.223,1.187c-.009.094-.021.16-.023.173l-1.223-1.186c0-.013.014-.079.023-.174" transform="translate(-1578.787 -1444.537)"/></g></g></g><g class="g" transform="translate(0.18 18.224)"><g class="m"><g class="g"><path class="i" d="M1545.948,1483.123l1.224,1.187a.713.713,0,0,1-.188-.129l-1.223-1.186a.722.722,0,0,0,.187.129" transform="translate(-1545.761 -1482.994)"/></g></g></g><g transform="translate(11.729 1.127)"><path class="n" d="M1574.607,1445.745l1.223,1.187-3.685,9.5-1.223-1.186Z" transform="translate(-1570.922 -1445.745)"/></g><g transform="translate(0.368 18.353)"><path class="k" d="M1551.548,1483.4l1.223,1.186-5.379-.126-1.223-1.186Z" transform="translate(-1546.169 -1483.274)"/></g><g class="g" transform="translate(17.017 10.864)"><g class="o"><g class="g"><path class="i" d="M1582.444,1466.958l1.223,1.187a.63.63,0,0,1,.157.243l-1.224-1.187a.64.64,0,0,0-.157-.243" transform="translate(-1582.444 -1466.958)"/><path class="j" d="M1582.785,1467.488l1.224,1.187a.775.775,0,0,1,.041.187l-1.223-1.186a.755.755,0,0,0-.041-.187" transform="translate(-1582.628 -1467.245)"/><path class="k" d="M1582.873,1467.9l1.223,1.186a1.023,1.023,0,0,1,0,.194l-1.223-1.187a1.108,1.108,0,0,0,0-.194" transform="translate(-1582.676 -1467.465)"/><path class="l" d="M1582.823,1468.318l1.223,1.186a1.388,1.388,0,0,1-.042.234l-1.223-1.186a1.535,1.535,0,0,0,.042-.234" transform="translate(-1582.626 -1467.694)"/><path class="p" d="M1582.654,1468.828l1.223,1.187a1.893,1.893,0,0,1-.107.3l-1.223-1.186a1.954,1.954,0,0,0,.107-.3" transform="translate(-1582.5 -1467.97)"/><path class="q" d="M1582.505,1469.485l1.223,1.186c-.018.04-.031.065-.035.073l-1.224-1.186c0-.007.017-.033.035-.073" transform="translate(-1582.458 -1468.325)"/></g></g></g><g class="g" transform="translate(2.187 28.797)"><g class="r"><g class="g"><path class="l" d="M1552.244,1506.028l1.223,1.187c-.1.043-.187.078-.271.105l-1.224-1.186c.084-.028.173-.062.271-.106" transform="translate(-1551.129 -1506.028)"/><path class="k" d="M1551.648,1506.258l1.224,1.186a1.85,1.85,0,0,1-.276.07l-1.223-1.186a1.864,1.864,0,0,0,.276-.07" transform="translate(-1550.804 -1506.153)"/><path class="j" d="M1551.116,1506.411l1.223,1.187a1.054,1.054,0,0,1-.189.015h-.028l-1.224-1.186h.029a1.107,1.107,0,0,0,.189-.016" transform="translate(-1550.548 -1506.235)"/><path class="i" d="M1550.485,1506.283l1.224,1.186a.52.52,0,0,1-.352-.135l-1.223-1.187a.521.521,0,0,0,.351.135" transform="translate(-1550.134 -1506.093)"/></g></g></g><g transform="translate(3.302 12.097)"><path class="s" d="M1566.29,1469.643l1.223,1.186-13.727,16.7-1.223-1.186Z" transform="translate(-1552.563 -1469.643)"/></g><path class="t" d="M1560.294,1443.289c.69.01.5,1.072.488,1.127l-3.685,9.5,5.036.075c.813.338.291,1.341.264,1.394l-13.727,16.7a1.841,1.841,0,0,1-.735.191c-.772-.011-.507-1.006-.493-1.059l3.672-9.451-5.378-.126c-.758-.37-.113-1.384-.079-1.437l13.611-16.474A1.941,1.941,0,0,1,1560.294,1443.289Z" transform="translate(-1545.369 -1443.289)"/></g></g></svg>