<svg xmlns="http://www.w3.org/2000/svg" xmlns:xlink="http://www.w3.org/1999/xlink" width="35.543" height="48.222" viewBox="0 0 35.543 48.222"><defs><style>.a{fill:none;}.b{opacity:0.8;}.c{fill:#424242;opacity:0.5;}.d{fill:#fff;}.e{fill:url(#a);}.f{isolation:isolate;}.g{clip-path:url(#b);}.h{fill:#855714;}.i{fill:#8a5a14;}.j{clip-path:url(#c);}.k{fill:#926016;}.l{clip-path:url(#d);}.m{clip-path:url(#e);}.n{clip-path:url(#f);}.o{clip-path:url(#g);}.p{clip-path:url(#h);}.q{fill:#ffa726;}.r{clip-path:url(#i);}.s{clip-path:url(#j);}.t{clip-path:url(#k);}.u{clip-path:url(#l);}.v{clip-path:url(#m);}.w{fill:#8c5b15;}.x{clip-path:url(#n);}</style><linearGradient id="a" x1="-0.127" y1="0.196" x2="1.127" y2="0.804" gradientUnits="objectBoundingBox"><stop offset="0" stop-color="#ffa726"/><stop offset="0" stop-color="#c3bb31"/><stop offset="0" stop-color="#3adf41"/><stop offset="0.614" stop-color="#32b07c"/><stop offset="1" stop-color="#2e979e"/></linearGradient><clipPath id="b"><path class="a" d="M2092.907,707.088l.987,1.082a1.689,1.689,0,0,1,.414,1.235l-.987-1.082A1.689,1.689,0,0,0,2092.907,707.088Z" transform="translate(-2092.907 -707.088)"/></clipPath><clipPath id="c"><path class="a" d="M2092.4,715.816l.987,1.083a2.808,2.808,0,0,1-.94,1.881l-.987-1.083A2.808,2.808,0,0,0,2092.4,715.816Z" transform="translate(-2091.465 -715.816)"/></clipPath><clipPath id="d"><path class="a" d="M2098.548,716.074l-.987-1.083a.746.746,0,0,0,.561.232l.987,1.083A.748.748,0,0,1,2098.548,716.074Z" transform="translate(-2097.561 -714.991)"/></clipPath><clipPath id="e"><path class="a" d="M2089.457,729.717l-.987-1.083a11.563,11.563,0,0,1-2.3-3.795l.987,1.083A11.578,11.578,0,0,0,2089.457,729.717Z" transform="translate(-2086.173 -724.839)"/></clipPath><clipPath id="f"><path class="a" d="M2102.652,717.152l.987,1.082a5.326,5.326,0,0,0-3.869-1.656l-.987-1.083A5.322,5.322,0,0,1,2102.652,717.152Z" transform="translate(-2098.783 -715.496)"/></clipPath><clipPath id="g"><path class="a" d="M2106.879,709.666l.987,1.083a7.727,7.727,0,0,0-5.729-2.295,1.087,1.087,0,0,1-.825-.322l-.987-1.083a1.086,1.086,0,0,0,.825.322A7.727,7.727,0,0,1,2106.879,709.666Z" transform="translate(-2100.325 -707.049)"/></clipPath><clipPath id="h"><path class="a" d="M2111.431,729.721l-.986-1.083a.791.791,0,0,0,.677.231.51.51,0,0,0,.124-.022l.987,1.083a.5.5,0,0,1-.124.022A.793.793,0,0,1,2111.431,729.721Z" transform="translate(-2110.445 -728.638)"/></clipPath><clipPath id="i"><path class="a" d="M2110.88,715.746l.987,1.083a6.775,6.775,0,0,1,1.669,4.921,1.375,1.375,0,0,1-1.068,1.205l-.987-1.083a1.374,1.374,0,0,0,1.068-1.2A6.775,6.775,0,0,0,2110.88,715.746Z" transform="translate(-2110.88 -715.746)"/></clipPath><clipPath id="j"><path class="a" d="M2119.779,708.834l.987,1.083a7.757,7.757,0,0,1,1.993,5.5l-.987-1.083A7.758,7.758,0,0,0,2119.779,708.834Z" transform="translate(-2119.779 -708.834)"/></clipPath><clipPath id="k"><path class="a" d="M2119.441,724.479l-.987-1.082a1.167,1.167,0,0,0,.991.32.9.9,0,0,0,.167-.027l.987,1.083a.9.9,0,0,1-.167.027A1.165,1.165,0,0,1,2119.441,724.479Z" transform="translate(-2118.454 -723.397)"/></clipPath><clipPath id="l"><path class="a" d="M2122.421,720.81l.987,1.083a1.745,1.745,0,0,1-1.443,1.48l-.987-1.083A1.745,1.745,0,0,0,2122.421,720.81Z" transform="translate(-2120.978 -720.81)"/></clipPath><clipPath id="m"><path class="a" d="M2118.128,733.826l.987,1.083a1.715,1.715,0,0,1,.377,1.483l-.987-1.083A1.714,1.714,0,0,0,2118.128,733.826Z" transform="translate(-2118.128 -733.826)"/></clipPath><clipPath id="n"><path class="a" d="M2088.079,737.924l-.987-1.082a14.627,14.627,0,0,0,11.608,4.47c.044,0,.086,0,.13-.009a3.081,3.081,0,0,0,2.569-2.438l.986,1.083a3.079,3.079,0,0,1-2.568,2.438c-.044,0-.087.007-.131.009A14.626,14.626,0,0,1,2088.079,737.924Z" transform="translate(-2087.092 -736.842)"/></clipPath></defs><g class="b" transform="translate(0 42.752)"><ellipse class="c" cx="14.491" cy="2.735" rx="14.491" ry="2.735"/></g><rect class="d" width="17.778" height="28.685" transform="translate(4.946 13.588)"/><path class="e" d="M2072.625,723.1H2059.51a4.911,4.911,0,0,0-4.917,4.918v26.228a4.911,4.911,0,0,0,4.917,4.918h13.114a4.911,4.911,0,0,0,4.918-4.918V728.018A4.912,4.912,0,0,0,2072.625,723.1Zm-4.1,32.786h-4.918a.82.82,0,0,1,0-1.64h4.918a.82.82,0,0,1,0,1.64Zm5.738-4.918h-16.393v-22.95h16.393Z" transform="translate(-2051.952 -713.601)"/><g transform="translate(14.034 0)"><g class="f"><g class="f" transform="translate(6.193 2.149)"><g class="g"><g class="f"><path class="h" d="M2092.907,707.088l.987,1.082a1.689,1.689,0,0,1,.414,1.235l-.987-1.082a1.689,1.689,0,0,0-.414-1.235" transform="translate(-2092.907 -707.088)"/></g></g></g><g transform="translate(6.471 3.384)"><path class="i" d="M2093.648,709.779l.987,1.083-.136,2.771-.987-1.083Z" transform="translate(-2093.512 -709.779)"/></g><g class="f" transform="translate(5.531 6.156)"><g class="j"><g class="f"><path class="h" d="M2092.4,715.816l.987,1.083a2.808,2.808,0,0,1-.94,1.881l-.987-1.083a2.808,2.808,0,0,0,.939-1.881" transform="translate(-2091.465 -715.816)"/></g></g></g><g transform="translate(3.102 8.037)"><path class="k" d="M2088.6,719.915l.987,1.083-2.429,2.26-.987-1.083Z" transform="translate(-2086.173 -719.915)"/></g><g class="f" transform="translate(8.329 5.777)"><g class="l"><g class="f"><path class="h" d="M2098.122,715.223l.987,1.083a.748.748,0,0,1-.561-.232l-.987-1.083a.746.746,0,0,0,.561.232" transform="translate(-2097.561 -714.991)"/></g></g></g><g class="f" transform="translate(3.102 10.297)"><g class="m"><g class="f"><path class="h" d="M2086.173,724.839l.987,1.083a11.578,11.578,0,0,0,2.3,3.795l-.987-1.083a11.563,11.563,0,0,1-2.3-3.795" transform="translate(-2086.173 -724.839)"/></g></g></g><g class="f" transform="translate(8.89 6.009)"><g class="n"><g class="f"><path class="h" d="M2102.652,717.152l.987,1.082a5.326,5.326,0,0,0-3.869-1.656l-.987-1.083a5.322,5.322,0,0,1,3.869,1.656" transform="translate(-2098.783 -715.496)"/></g></g></g><g class="f" transform="translate(9.598 2.132)"><g class="o"><g class="f"><path class="h" d="M2106.879,709.666l.987,1.083a7.727,7.727,0,0,0-5.729-2.295,1.087,1.087,0,0,1-.825-.322l-.987-1.083a1.086,1.086,0,0,0,.825.322,7.727,7.727,0,0,1,5.729,2.294" transform="translate(-2100.325 -707.049)"/></g></g></g><g class="f" transform="translate(14.243 12.041)"><g class="p"><g class="f"><path class="h" d="M2111.246,728.847l.987,1.083a.5.5,0,0,1-.124.022.793.793,0,0,1-.678-.231l-.986-1.083a.791.791,0,0,0,.677.231.51.51,0,0,0,.124-.022" transform="translate(-2110.445 -728.638)"/></g></g></g><g transform="translate(8.145 3.995)"><path class="q" d="M2097.9,713.123a.738.738,0,0,1-.7-1.025,1.4,1.4,0,0,1,1.162-.984.941.941,0,0,1,.11-.005,6.508,6.508,0,0,1,6.651,7.05,1.375,1.375,0,0,1-1.068,1.205.514.514,0,0,1-.124.022.731.731,0,0,1-.86-.784A5.066,5.066,0,0,0,2097.9,713.123Z" transform="translate(-2097.16 -711.109)"/></g><g class="f" transform="translate(14.443 6.123)"><g class="r"><g class="f"><path class="h" d="M2110.88,715.746l.987,1.083a6.775,6.775,0,0,1,1.669,4.921,1.375,1.375,0,0,1-1.068,1.205l-.987-1.083a1.374,1.374,0,0,0,1.068-1.2,6.775,6.775,0,0,0-1.669-4.921" transform="translate(-2110.88 -715.746)"/></g></g></g><g class="f" transform="translate(18.527 2.951)"><g class="s"><g class="f"><path class="h" d="M2119.779,708.834l.987,1.083a7.757,7.757,0,0,1,1.993,5.5l-.987-1.083a7.758,7.758,0,0,0-1.993-5.5" transform="translate(-2119.779 -708.834)"/></g></g></g><g class="f" transform="translate(17.919 9.635)"><g class="t"><g class="f"><path class="h" d="M2119.612,723.69l.987,1.083a.9.9,0,0,1-.167.027,1.165,1.165,0,0,1-.991-.32l-.987-1.082a1.167,1.167,0,0,0,.991.32.9.9,0,0,0,.167-.027" transform="translate(-2118.454 -723.397)"/></g></g></g><g transform="translate(9.377)"><path class="q" d="M2110.987,710.853a1.745,1.745,0,0,1-1.443,1.48.907.907,0,0,1-.167.027c-.7.067-1.229-.325-1.208-.936.076-3.814-2.91-6.507-7.278-6.565a.933.933,0,0,1-1-1.235,1.862,1.862,0,0,1,1.575-1.211c.052-.005.1-.008.154-.008C2107.242,702.475,2111.089,705.948,2110.987,710.853Z" transform="translate(-2099.843 -702.405)"/></g><g class="f" transform="translate(19.078 8.448)"><g class="u"><g class="f"><path class="h" d="M2122.421,720.81l.987,1.083a1.745,1.745,0,0,1-1.443,1.48l-.987-1.083a1.745,1.745,0,0,0,1.443-1.48" transform="translate(-2120.978 -720.81)"/></g></g></g><g class="f" transform="translate(17.77 14.422)"><g class="v"><g class="f"><path class="h" d="M2118.128,733.826l.987,1.083a1.715,1.715,0,0,1,.377,1.483l-.987-1.083a1.714,1.714,0,0,0-.377-1.483" transform="translate(-2118.128 -733.826)"/></g></g></g><g transform="translate(17.831 15.905)"><path class="w" d="M2118.578,737.056l.986,1.083-.316,1.925-.987-1.083Z" transform="translate(-2118.261 -737.056)"/></g><g class="f" transform="translate(3.524 15.806)"><g class="x"><g class="f"><path class="h" d="M2101.4,738.865l.986,1.083a3.079,3.079,0,0,1-2.568,2.438c-.044,0-.087.007-.131.009a14.626,14.626,0,0,1-11.607-4.47l-.987-1.082a14.627,14.627,0,0,0,11.608,4.47c.044,0,.086,0,.13-.009a3.081,3.081,0,0,0,2.569-2.438" transform="translate(-2087.092 -736.842)"/></g></g></g><g transform="translate(0 1.621)"><path class="q" d="M2095.938,718.211a1.622,1.622,0,0,1,1.623,2.009l-.316,1.925a3.081,3.081,0,0,1-2.569,2.438c-.043,0-.086.007-.13.009-9.535.335-16-6.5-15.037-15.938a3.058,3.058,0,0,1,2.635-2.519l1.951-.188a1.641,1.641,0,0,1,1.926,1.753l-.136,2.771a2.808,2.808,0,0,1-.94,1.881l-2.429,2.26a11.489,11.489,0,0,0,6.238,6.608l2.412-2.244a2.961,2.961,0,0,1,1.7-.8,2.267,2.267,0,0,1,.255-.011Z" transform="translate(-2079.414 -705.937)"/></g></g></g></svg>