<svg xmlns="http://www.w3.org/2000/svg" width="98" height="55.1" viewBox="0 0 98 55.1"><defs><style>.a{fill:#001b38;}.b{fill:#fff;}.c{fill:#e5bf7e;}.d{fill:#e9c07e;}.e{fill:none;stroke:#e5bf7e;stroke-miterlimit:10;stroke-width:3px;}</style></defs><rect class="a" width="98" height="55.1"/><path class="b" d="M50.7,20.1H40.8a.9.9,0,0,0-.9.9v.6a.9.9,0,0,0,.9.9h3.6V33.4a1.155,1.155,0,0,0,1.2,1.2h.2a1.367,1.367,0,0,0,1.4-1.4V22.5h3.6a.9.9,0,0,0,.9-.9V21A1.063,1.063,0,0,0,50.7,20.1Z"/><path class="b" d="M55.2,29.4h-.3a1.58,1.58,0,0,1-1.6-1.6v-1a1.58,1.58,0,0,1,1.6-1.6h.3a1.58,1.58,0,0,1,1.6,1.6v1A1.58,1.58,0,0,1,55.2,29.4Z"/><path class="c" d="M55.2,23.9h-.3a1.58,1.58,0,0,1-1.6-1.6v-1a1.58,1.58,0,0,1,1.6-1.6h.3a1.58,1.58,0,0,1,1.6,1.6v1A1.58,1.58,0,0,1,55.2,23.9Z"/><path class="b" d="M55.2,34.6h-.3A1.58,1.58,0,0,1,53.3,33V32a1.58,1.58,0,0,1,1.6-1.6h.3A1.58,1.58,0,0,1,56.8,32v1A1.58,1.58,0,0,1,55.2,34.6Z"/><path class="b" d="M23.9,28.1h-.3a1.216,1.216,0,0,1-1.2-1.2v-.8a1.216,1.216,0,0,1,1.2-1.2h.3a1.216,1.216,0,0,1,1.2,1.2v.8A1.153,1.153,0,0,1,23.9,28.1Z"/><path class="c" d="M23.9,23.7h-.3a1.216,1.216,0,0,1-1.2-1.2v-.8a1.216,1.216,0,0,1,1.2-1.2h.3a1.216,1.216,0,0,1,1.2,1.2v.8A1.1,1.1,0,0,1,23.9,23.7Z"/><path class="b" d="M23.9,32.2h-.3A1.216,1.216,0,0,1,22.4,31v-.8A1.216,1.216,0,0,1,23.6,29h.3a1.216,1.216,0,0,1,1.2,1.2V31A1.153,1.153,0,0,1,23.9,32.2Z"/><path class="b" d="M67.5,27.8V26.6L71.3,22a1.285,1.285,0,0,0-.2-1.8l-.1-.1a1.285,1.285,0,0,0-1.8.2l-3.3,4H64.7l-3.3-4.1a1.363,1.363,0,0,0-1.8-.2l-.2.1a1.363,1.363,0,0,0-.2,1.8L63,26.6v1.1l-3.8,4.7a1.285,1.285,0,0,0,.2,1.8l.2.1a1.285,1.285,0,0,0,1.8-.2l3.3-4H66l3.2,4a1.363,1.363,0,0,0,1.8.2l.2-.1a1.363,1.363,0,0,0,.2-1.8Z"/><path class="d" d="M76.1,24.6h-.2a.86.86,0,0,1-.8-.8V17.4a.86.86,0,0,1,.8-.8h.2a.86.86,0,0,1,.8.8v6.4A.86.86,0,0,1,76.1,24.6Z"/><path class="d" d="M81.8,16.6H80.2a1.58,1.58,0,0,0-1.6,1.6v4.9A1.367,1.367,0,0,0,80,24.5h2a3.585,3.585,0,0,0,3.6-3.6v-.7A3.831,3.831,0,0,0,81.8,16.6Zm-.3,6.6h-1a.215.215,0,0,1-.2-.2V18.3a.265.265,0,0,1,.3-.3h.9a2.6,2.6,0,1,1,0,5.2Z"/><path class="e" d="M32.4,26.3A2.252,2.252,0,0,1,34,24.2V18.7a.9.9,0,0,0-.9-.9H14.4a.9.9,0,0,0-.9.9v5.5a2.178,2.178,0,0,1,0,4.2V34a.9.9,0,0,0,.9.9H33.1A.9.9,0,0,0,34,34V28.4A2.055,2.055,0,0,1,32.4,26.3Z"/></svg>