<svg xmlns="http://www.w3.org/2000/svg" xmlns:xlink="http://www.w3.org/1999/xlink" width="35.776" height="45.422" viewBox="0 0 35.776 45.422"><defs><style>.a{fill:none;}.b{opacity:0.8;}.c{fill:#424242;opacity:0.5;}.d{fill:url(#a);}.e{fill:#fff;}.f{isolation:isolate;}.g{clip-path:url(#e);}.h{fill:#856d51;}.i{clip-path:url(#f);}.j{clip-path:url(#g);}.k{fill:#70430d;}.l{clip-path:url(#h);}.m{fill:#858585;}.n{fill:#80694e;}.o{clip-path:url(#i);}.p{fill:#d07c18;}.q{fill:#6c410d;}.r{fill:gray;}.s{clip-path:url(#j);}.t{clip-path:url(#k);}.u{clip-path:url(#l);}.v{clip-path:url(#m);}.w{clip-path:url(#n);}.x{clip-path:url(#o);}.y{clip-path:url(#p);}.z{fill:#f5f5f5;}.aa{clip-path:url(#q);}.ab{clip-path:url(#r);}.ac{fill:#f5ca96;}.ad{clip-path:url(#s);}.ae{clip-path:url(#t);}.af{clip-path:url(#u);}.ag{clip-path:url(#v);}.ah{fill:#855714;}.ai{clip-path:url(#w);}.aj{clip-path:url(#x);}.ak{fill:#f5a025;}.al{clip-path:url(#y);}.am{clip-path:url(#z);}.an{clip-path:url(#aa);}.ao{clip-path:url(#ab);}.ap{clip-path:url(#ac);}.aq{clip-path:url(#ad);}.ar{clip-path:url(#ae);}.as{clip-path:url(#af);}.at{clip-path:url(#ag);}.au{clip-path:url(#ah);}.av{clip-path:url(#ai);}</style><linearGradient id="a" y1="0.5" x2="1" y2="0.5" gradientUnits="objectBoundingBox"><stop offset="0" stop-color="#ffa726"/><stop offset="0" stop-color="#c3bb31"/><stop offset="0" stop-color="#3adf41"/><stop offset="0.614" stop-color="#32b07c"/><stop offset="1" stop-color="#2e979e"/></linearGradient><clipPath id="e"><path class="a" d="M2101.857,1452.064l.812.6a.2.2,0,0,0-.089-.018.244.244,0,0,0-.2.135.232.232,0,0,0-.016.172l-.812-.6a.228.228,0,0,1,.016-.172.242.242,0,0,1,.2-.135A.2.2,0,0,1,2101.857,1452.064Z" transform="translate(-2101.539 -1452.046)"/></clipPath><clipPath id="f"><path class="a" d="M2101.219,1452.716l.812.6c-.861.745.26,4.253,2.549,8.081l-.812-.6C2101.48,1456.969,2100.359,1453.46,2101.219,1452.716Z" transform="translate(-2100.93 -1452.716)"/></clipPath><clipPath id="g"><path class="a" d="M2102.373,1453.321a.194.194,0,0,0,.07.1l-.812-.6a.2.2,0,0,1-.07-.1A3.662,3.662,0,0,1,2102.373,1453.321Z" transform="translate(-2101.56 -1452.716)"/></clipPath><clipPath id="h"><path class="a" d="M2102.524,1453.539l-.812-.605a.17.17,0,0,0,.031.019l.813.6A.2.2,0,0,1,2102.524,1453.539Z" transform="translate(-2101.712 -1452.934)"/></clipPath><clipPath id="i"><path class="a" d="M2103.77,1452.793l.813.6a2.671,2.671,0,0,0-.575-.265l-.812-.6A2.652,2.652,0,0,1,2103.77,1452.793Z" transform="translate(-2103.194 -1452.528)"/></clipPath><clipPath id="j"><path class="a" d="M2103.736,1450.224l.812.6a16.287,16.287,0,0,1,2.365,2.262l-.812-.6A16.266,16.266,0,0,0,2103.736,1450.224Z" transform="translate(-2103.736 -1450.224)"/></clipPath><clipPath id="k"><path class="a" d="M2107.787,1470.927a.245.245,0,0,0-.086.323l-.812-.6a.245.245,0,0,1,.086-.323Z" transform="translate(-2106.858 -1470.322)"/></clipPath><clipPath id="l"><path class="a" d="M2107.738,1471.631h0l-.812-.6h0l.406.3.053.04.053.04.052.039.152.113A.749.749,0,0,1,2107.738,1471.631Z" transform="translate(-2106.926 -1471.026)"/></clipPath><clipPath id="m"><path class="a" d="M2107.738,1471.631a.189.189,0,0,0,.046.05l-.813-.6a.2.2,0,0,1-.046-.05l.406.3.159.118.1.077.1.073A.387.387,0,0,1,2107.738,1471.631Z" transform="translate(-2106.926 -1471.026)"/></clipPath><clipPath id="n"><path class="a" d="M2107.838,1471.723l-.812-.6a.2.2,0,0,0,.124.037.233.233,0,0,0,.134-.05l.813.6a.235.235,0,0,1-.134.05A.2.2,0,0,1,2107.838,1471.723Z" transform="translate(-2107.026 -1471.106)"/></clipPath><clipPath id="o"><path class="a" d="M2108.385,1471.721c.068.1.131.2.195.3l-.812-.6c-.063-.1-.126-.2-.2-.3A7.216,7.216,0,0,1,2108.385,1471.721Z" transform="translate(-2107.573 -1471.116)"/></clipPath><clipPath id="p"><path class="a" d="M2090.049,1494.79l-.812-.6a1.545,1.545,0,0,0,.986.3l.812.6A1.546,1.546,0,0,1,2090.049,1494.79Z" transform="translate(-2089.237 -1494.185)"/></clipPath><clipPath id="q"><path class="a" d="M2118.4,1459.882a1.766,1.766,0,0,0-.207.406l-.812-.6a1.761,1.761,0,0,1,.207-.406Z" transform="translate(-2117.383 -1459.277)"/></clipPath><clipPath id="r"><path class="a" d="M2107.619,1455.664l.812.605a25.737,25.737,0,0,1,3.3,4.123l-.812-.6A25.747,25.747,0,0,0,2107.619,1455.664Z" transform="translate(-2107.619 -1455.664)"/></clipPath><clipPath id="s"><path class="a" d="M2110.412,1456.951l.812.6a37.567,37.567,0,0,1,2.371,3.268l-.812-.6A37.655,37.655,0,0,0,2110.412,1456.951Z" transform="translate(-2110.412 -1456.951)"/></clipPath><clipPath id="t"><path class="a" d="M2096.244,1476.265a8.228,8.228,0,0,0,2.781,3.546l-.813-.6a8.239,8.239,0,0,1-2.781-3.546A4.226,4.226,0,0,1,2096.244,1476.265Z" transform="translate(-2095.432 -1475.661)"/></clipPath><clipPath id="u"><path class="a" d="M2118.252,1463.3a1.351,1.351,0,0,0,.225.351l-.812-.6a1.356,1.356,0,0,1-.226-.351A4.44,4.44,0,0,1,2118.252,1463.3Z" transform="translate(-2117.44 -1462.696)"/></clipPath><clipPath id="v"><path class="a" d="M2119.173,1464.461l-.812-.6a1.343,1.343,0,0,0,.858.261h.023l.813.6h-.024A1.347,1.347,0,0,1,2119.173,1464.461Z" transform="translate(-2118.361 -1463.856)"/></clipPath><clipPath id="w"><path class="a" d="M2098.821,1490.615l.812.6a1.994,1.994,0,0,1-1.851,1.849l-.812-.6A2,2,0,0,0,2098.821,1490.615Z" transform="translate(-2096.969 -1490.615)"/></clipPath><clipPath id="x"><path class="a" d="M2121.328,1458.207l.812.6a1.405,1.405,0,0,1,.543,1.244,1.765,1.765,0,0,1-1.16,1.524,1.537,1.537,0,0,1-.428.084l-.812-.6a1.525,1.525,0,0,0,.428-.084,1.766,1.766,0,0,0,1.161-1.524A1.4,1.4,0,0,0,2121.328,1458.207Z" transform="translate(-2120.282 -1458.207)"/></clipPath><clipPath id="y"><path class="a" d="M2116.07,1464.836l.812.605.14.222a40.033,40.033,0,0,1,2.173,3.915l-.813-.6a39.838,39.838,0,0,0-2.172-3.915Z" transform="translate(-2116.07 -1464.836)"/></clipPath><clipPath id="z"><path class="a" d="M2115.295,1465.409l.812.6c.071.11.143.222.213.334a29.488,29.488,0,0,1,2.59,5.082l-.812-.6a29.379,29.379,0,0,0-2.59-5.081Q2115.4,1465.575,2115.295,1465.409Z" transform="translate(-2115.295 -1465.409)"/></clipPath><clipPath id="aa"><path class="a" d="M2108.811,1472.373a22.448,22.448,0,0,0,4.735,5.675l-.812-.6a22.441,22.441,0,0,1-4.736-5.676l.406.3.159.118.1.077.05.037A.715.715,0,0,1,2108.811,1472.373Z" transform="translate(-2107.998 -1471.768)"/></clipPath><clipPath id="ab"><path class="a" d="M2102.652,1460.731a27.269,27.269,0,0,0,5.8,6.934l-.812-.6a27.266,27.266,0,0,1-5.8-6.935c-2.861-4.56-4.432-8.933-3.848-10.469l.811.6-.405-.3-.405-.3,0-.009.813.6C2098.215,1451.781,2099.786,1456.162,2102.652,1460.731Z" transform="translate(-2097.872 -1449.648)"/></clipPath><clipPath id="ac"><path class="a" d="M2122.074,1484.876l.812.6a.19.19,0,0,0,.065.136l-.812-.6A.189.189,0,0,1,2122.074,1484.876Z" transform="translate(-2122.074 -1484.876)"/></clipPath><clipPath id="ad"><path class="a" d="M2120.528,1485.364a2.508,2.508,0,0,1-1.4-.626l-.812-.6a2.515,2.515,0,0,0,1.4.627.605.605,0,0,0,.344-.112.554.554,0,0,0,.047-.038l.813.6-.047.038A.608.608,0,0,1,2120.528,1485.364Z" transform="translate(-2118.316 -1484.133)"/></clipPath><clipPath id="ae"><path class="a" d="M2123.029,1485.777l.009.007-.812-.6-.01-.007C2122.461,1485.354,2122.792,1485.588,2123.029,1485.777Z" transform="translate(-2122.217 -1485.173)"/></clipPath><clipPath id="af"><path class="a" d="M2123.05,1485.794l-.812-.6a.2.2,0,0,0,.125.038l.03,0,.812.6-.03,0A.2.2,0,0,1,2123.05,1485.794Z" transform="translate(-2122.238 -1485.189)"/></clipPath><clipPath id="ag"><path class="a" d="M2122.77,1484.7l.813.6a.252.252,0,0,1-.195.261l-.812-.6A.251.251,0,0,0,2122.77,1484.7Z" transform="translate(-2122.576 -1484.696)"/></clipPath><clipPath id="ah"><path class="a" d="M2110.971,1486.06l.812.6c-4.473-.179-7.491-1.2-9.48-2.673l-.812-.6C2103.48,1484.859,2106.5,1485.88,2110.971,1486.06Z" transform="translate(-2101.491 -1483.386)"/></clipPath><clipPath id="ai"><path class="a" d="M2119.976,1482.15l-.812-.6a4.423,4.423,0,0,0,1.368.746,1.446,1.446,0,0,0,.437.06.8.8,0,0,0,.452-.147c.813-.59.427-2.862-.828-5.784l.812.6c1.254,2.922,1.641,5.194.827,5.784a.8.8,0,0,1-.452.146,1.445,1.445,0,0,1-.437-.06A4.431,4.431,0,0,1,2119.976,1482.15Z" transform="translate(-2119.164 -1476.42)"/></clipPath></defs><g class="b" transform="translate(0 39.952)"><ellipse class="c" cx="14.491" cy="2.735" rx="14.491" ry="2.735"/></g><g transform="translate(0.273 19.187)"><rect class="d" width="28.532" height="22.853" rx="3.267"/><rect class="e" width="26.418" height="17.512" rx="3.267" transform="translate(1.06 0.996)"/><g transform="translate(5.335 6.031)"><path class="d" d="M2064.052,1512.037l1.683,2.354,2.664-3.476a.5.5,0,0,1,.805,0l3.056,3.995a.54.54,0,0,1-.4.875h-10.286a.542.542,0,0,1-.413-.864l2.066-2.883A.511.511,0,0,1,2064.052,1512.037Z" transform="translate(-2061.055 -1507.359)"/><path class="d" d="M2084.934,1515.28l1.1,1.569,1.743-2.317a.324.324,0,0,1,.527,0l2,2.663a.361.361,0,0,1-.263.583h-6.73a.362.362,0,0,1-.271-.576l1.351-1.921A.331.331,0,0,1,2084.934,1515.28Z" transform="translate(-2072.913 -1509.353)"/><ellipse class="d" cx="1.754" cy="1.834" rx="1.754" ry="1.834" transform="translate(10.469)"/></g></g><g transform="translate(17.915)"><g class="f"><g class="f" transform="translate(6.274 1.644)"><g class="g"><g class="f"><path class="h" d="M2101.857,1452.064l.812.6a.2.2,0,0,0-.089-.018.244.244,0,0,0-.2.135.232.232,0,0,0-.016.172l-.812-.6a.228.228,0,0,1,.016-.172.242.242,0,0,1,.2-.135.2.2,0,0,1,.09.018" transform="translate(-2101.539 -1452.046)"/></g></g></g><g class="f" transform="translate(5.995 1.951)"><g class="i"><g class="f"><path class="h" d="M2101.219,1452.716l.812.6c-.861.745.26,4.253,2.549,8.081l-.812-.6c-2.288-3.828-3.409-7.337-2.549-8.081" transform="translate(-2100.93 -1452.716)"/></g></g></g><g class="f" transform="translate(6.284 1.951)"><g class="j"><g class="f"><path class="k" d="M2101.56,1452.716l.813.6a.194.194,0,0,0,.07.1l-.812-.6a.2.2,0,0,1-.07-.1" transform="translate(-2101.56 -1452.716)"/></g></g></g><g class="f" transform="translate(6.354 2.051)"><g class="l"><g class="f"><path class="m" d="M2101.743,1452.953l.813.6a.2.2,0,0,1-.031-.018l-.812-.605a.17.17,0,0,0,.031.019" transform="translate(-2101.712 -1452.934)"/></g></g></g><g transform="translate(6.593 1.662)"><path class="n" d="M2102.674,1452.288l.812.6-.441-.2-.812-.6Z" transform="translate(-2102.233 -1452.085)"/></g><g class="f" transform="translate(7.034 1.865)"><g class="o"><g class="f"><path class="h" d="M2103.77,1452.793l.813.6a2.671,2.671,0,0,0-.575-.265l-.812-.6a2.652,2.652,0,0,1,.575.265" transform="translate(-2103.194 -1452.528)"/></g></g></g><g transform="translate(7.034 1.865)"><path class="p" d="M2103.194,1452.528a2.652,2.652,0,0,1,.575.265Z" transform="translate(-2103.194 -1452.528)"/></g><g transform="translate(7.035 1.865)"><path class="q" d="M2103.77,1452.793l.812.6-.575-.265-.812-.6Z" transform="translate(-2103.195 -1452.528)"/></g><g transform="translate(6.385 2.07)"><path class="r" d="M2104.46,1454.209l.812.6-2.68-1.234-.812-.6Z" transform="translate(-2101.78 -1452.975)"/></g><g class="f" transform="translate(7.283 0.808)"><g class="s"><g class="f"><path class="h" d="M2103.736,1450.224l.812.6a16.287,16.287,0,0,1,2.365,2.262l-.812-.6a16.266,16.266,0,0,0-2.365-2.262" transform="translate(-2103.736 -1450.224)"/></g></g></g><g transform="translate(7.61 2.13)"><path class="n" d="M2106.487,1454.046l.812.6-2.038-.94-.812-.6Z" transform="translate(-2104.448 -1453.106)"/></g><g transform="translate(9.065 3.305)"><path class="r" d="M2108.9,1456.255l.812.6-1.282-.59-.812-.6Z" transform="translate(-2107.619 -1455.664)"/></g><g class="f" transform="translate(8.716 10.032)"><g class="t"><g class="f" transform="translate(0)"><path class="h" d="M2106.975,1470.322l.812.6a.245.245,0,0,0-.086.323.2.2,0,0,0,.046.05l-.812-.6a.2.2,0,0,1-.046-.049.245.245,0,0,1,.086-.323" transform="translate(-2106.858 -1470.322)"/></g></g></g><g class="f" transform="translate(8.747 10.356)"><g class="u"><g class="f" transform="translate(-0.031 -0.323)"><path class="h" d="M2106.975,1470.322l.812.6a.245.245,0,0,0-.086.323.2.2,0,0,0,.046.05l-.812-.6a.2.2,0,0,1-.046-.049.245.245,0,0,1,.086-.323" transform="translate(-2106.858 -1470.322)"/></g></g></g><g class="f" transform="translate(8.747 10.356)"><g class="v"><g class="f" transform="translate(-0.031 -0.323)"><path class="h" d="M2106.975,1470.322l.812.6a.245.245,0,0,0-.086.323.2.2,0,0,0,.046.05l-.812-.6a.2.2,0,0,1-.046-.049.245.245,0,0,1,.086-.323" transform="translate(-2106.858 -1470.322)"/></g></g></g><g class="f" transform="translate(8.793 10.392)"><g class="w"><g class="f"><path class="m" d="M2107.283,1471.106l.813.6a.235.235,0,0,1-.134.05.2.2,0,0,1-.124-.037l-.812-.6a.2.2,0,0,0,.124.037.233.233,0,0,0,.134-.05" transform="translate(-2107.026 -1471.106)"/></g></g></g><g class="f" transform="translate(9.044 10.397)"><g class="x"><g class="f"><path class="h" d="M2107.573,1471.116l.813.6c.068.1.131.2.195.3a22.446,22.446,0,0,0,4.736,5.675l-.812-.6a22.45,22.45,0,0,1-4.736-5.676c-.063-.1-.126-.2-.2-.3" transform="translate(-2107.573 -1471.116)"/></g></g></g><g class="f" transform="translate(0.628 20.985)"><g class="y"><g class="f"><path class="k" d="M2090.223,1494.485l.812.6a1.546,1.546,0,0,1-.985-.3l-.812-.6a1.545,1.545,0,0,0,.986.3" transform="translate(-2089.237 -1494.185)"/></g></g></g><g transform="translate(6.274 1.644)"><path class="z" d="M2101.768,1452.046a.2.2,0,0,1,.09.018l.441.2.576.266,2.038.939,4.105,1.893a1.781,1.781,0,0,0-.207.406l-3.2-1.473-1.282-.591-2.681-1.234a.194.194,0,0,1-.1-.119.228.228,0,0,1,.016-.172A.242.242,0,0,1,2101.768,1452.046Z" transform="translate(-2101.539 -1452.046)"/></g><g class="f" transform="translate(13.547 4.963)"><g class="aa"><g class="f"><path class="m" d="M2117.59,1459.277l.813.6a1.766,1.766,0,0,0-.207.406l-.812-.6a1.761,1.761,0,0,1,.207-.406" transform="translate(-2117.383 -1459.277)"/></g></g></g><g transform="translate(10.347 3.895)"><path class="r" d="M2113.612,1458.424l.812.6-3.2-1.474-.812-.6Z" transform="translate(-2110.412 -1456.951)"/></g><g class="f" transform="translate(9.065 3.305)"><g class="ab"><g class="f"><path class="k" d="M2107.619,1455.664l.812.605a25.737,25.737,0,0,1,3.3,4.123l-.812-.6a25.747,25.747,0,0,0-3.3-4.123" transform="translate(-2107.619 -1455.664)"/></g></g></g><g transform="translate(5.995 1.951)"><path class="p" d="M2104,1454.069a25.77,25.77,0,0,1,3.3,4.123l-3.528,2.6c-2.288-3.828-3.409-7.337-2.549-8.081a.194.194,0,0,0,.1.119Z" transform="translate(-2100.93 -1452.716)"/></g><g transform="translate(8.833 7.427)"><path class="q" d="M2110.641,1464.647l.812.6-3.528,2.6-.812-.6Z" transform="translate(-2107.113 -1464.647)"/></g><g transform="translate(12.361 7.163)"><path class="n" d="M2115.156,1464.071l.812.6-.357.264-.812-.6Z" transform="translate(-2114.798 -1464.071)"/></g><g transform="translate(9.065 3.305)"><path class="ac" d="M2110.914,1459.787a25.747,25.747,0,0,0-3.3-4.123l1.282.591a37.761,37.761,0,0,1,2.371,3.268Z" transform="translate(-2107.619 -1455.664)"/></g><g class="f" transform="translate(10.347 3.895)"><g class="ad"><g class="f"><path class="h" d="M2110.412,1456.951l.812.6a37.567,37.567,0,0,1,2.371,3.268l-.812-.6a37.655,37.655,0,0,0-2.371-3.268" transform="translate(-2110.412 -1456.951)"/></g></g></g><g class="f" transform="translate(3.471 12.483)"><g class="ae"><g class="f"><path class="k" d="M2095.432,1475.661l.813.6a8.228,8.228,0,0,0,2.781,3.546l-.813-.6a8.239,8.239,0,0,1-2.781-3.546" transform="translate(-2095.432 -1475.661)"/></g></g></g><g transform="translate(9.051 7.777)"><path class="r" d="M2111.125,1465.409l.813.6-3.538,2.615-.812-.6Z" transform="translate(-2107.587 -1465.409)"/></g><g transform="translate(12.589 7.515)"><path class="r" d="M2115.651,1464.837l.812.6-.355.263-.812-.6Z" transform="translate(-2115.295 -1464.837)"/></g><g transform="translate(8.715 6.532)"><path class="z" d="M2111.714,1462.7a1.362,1.362,0,0,0,.226.351l-.854.631-.355.263-3.538,2.615a.233.233,0,0,1-.134.05.19.19,0,0,1-.17-.087.238.238,0,0,1,.071-.312l.015-.011,3.528-2.6.358-.264Z" transform="translate(-2106.856 -1462.696)"/></g><g transform="translate(12.944 6.883)"><path class="r" d="M2116.924,1463.461l.812.6-.854.631-.812-.6Z" transform="translate(-2116.07 -1463.461)"/></g><g class="f" transform="translate(13.573 6.532)"><g class="af"><g class="f"><path class="m" d="M2117.44,1462.7l.813.6a1.351,1.351,0,0,0,.225.351l-.812-.6a1.356,1.356,0,0,1-.226-.351" transform="translate(-2117.44 -1462.696)"/></g></g></g><g transform="translate(1.614 21.196)"><path class="q" d="M2093.948,1494.643l.812.6-2.563.09-.812-.6Z" transform="translate(-2091.385 -1494.643)"/></g><g class="f" transform="translate(13.996 7.065)"><g class="ag"><g class="f"><path class="ah" d="M2119.243,1464.115l.813.6h-.024a1.347,1.347,0,0,1-.859-.261l-.812-.6a1.343,1.343,0,0,0,.858.261h.023" transform="translate(-2118.361 -1463.856)"/></g></g></g><g transform="translate(6.028 16.029)"><path class="q" d="M2101.227,1483.386l.813.6-.225,3.318-.812-.6Z" transform="translate(-2101.003 -1483.386)"/></g><g class="f" transform="translate(4.177 19.347)"><g class="ai"><g class="f"><path class="k" d="M2098.821,1490.615l.812.6a1.994,1.994,0,0,1-1.851,1.849l-.812-.6a2,2,0,0,0,1.852-1.849" transform="translate(-2096.969 -1490.615)"/></g></g></g><g transform="translate(0 12.483)"><path class="p" d="M2091.34,1475.661a8.241,8.241,0,0,0,2.781,3.546l-.224,3.318a2,2,0,0,1-1.852,1.849l-2.563.09a1.558,1.558,0,0,1-1.61-1.728l.351-5.185a1.994,1.994,0,0,1,1.851-1.845Z" transform="translate(-2087.869 -1475.661)"/></g><g class="f" transform="translate(14.878 4.472)"><g class="aj"><g class="f"><path class="ah" d="M2121.328,1458.207l.812.6a1.405,1.405,0,0,1,.543,1.244,1.765,1.765,0,0,1-1.16,1.524,1.537,1.537,0,0,1-.428.084l-.812-.6a1.525,1.525,0,0,0,.428-.084,1.766,1.766,0,0,0,1.161-1.524,1.4,1.4,0,0,0-.543-1.244" transform="translate(-2120.282 -1458.207)"/></g></g></g><g transform="translate(13.449 4.21)"><path class="ak" d="M2118.785,1457.637a1.356,1.356,0,0,1,1.4,1.5,1.767,1.767,0,0,1-1.16,1.524,1.539,1.539,0,0,1-.429.084h-.023a1.333,1.333,0,0,1-1.056-.442,1.375,1.375,0,0,1-.225-.351,1.5,1.5,0,0,1-.12-.712,1.669,1.669,0,0,1,.094-.452,1.772,1.772,0,0,1,.207-.406A1.688,1.688,0,0,1,2118.785,1457.637Z" transform="translate(-2117.169 -1457.636)"/></g><g class="f" transform="translate(12.944 7.514)"><g class="al"><g class="f"><path class="h" d="M2116.07,1464.836l.812.605.14.222a40.033,40.033,0,0,1,2.173,3.915l-.813-.6a39.838,39.838,0,0,0-2.172-3.915l-.14-.222" transform="translate(-2116.07 -1464.836)"/></g></g></g><g transform="translate(15.257 11.652)"><path class="n" d="M2121.108,1473.85l.812.6.135,1.542-.812-.6Z" transform="translate(-2121.108 -1473.85)"/></g><g class="f" transform="translate(12.588 7.777)"><g class="am"><g class="f"><path class="k" d="M2115.295,1465.409l.812.6c.071.11.143.222.213.334a29.488,29.488,0,0,1,2.59,5.082l-.812-.6a29.379,29.379,0,0,0-2.59-5.081q-.106-.169-.213-.335" transform="translate(-2115.295 -1465.409)"/></g></g></g><g transform="translate(12.588 7.514)"><path class="ac" d="M2115.508,1465.434q-.106-.169-.213-.335l.356-.263.141.222a39.838,39.838,0,0,1,2.172,3.915l.135,1.542A29.388,29.388,0,0,0,2115.508,1465.434Z" transform="translate(-2115.295 -1464.836)"/></g><g transform="translate(15.306 7.24)"><path class="r" d="M2121.216,1464.238l.812.6.487,5.591-.812-.6Z" transform="translate(-2121.216 -1464.238)"/></g><g class="f" transform="translate(9.239 10.696)"><g class="an"><g class="f" transform="translate(-0.195 -0.299)"><path class="h" d="M2107.573,1471.116l.813.6c.068.1.131.2.195.3a22.446,22.446,0,0,0,4.736,5.675l-.812-.6a22.45,22.45,0,0,1-4.736-5.676c-.063-.1-.126-.2-.2-.3" transform="translate(-2107.573 -1471.116)"/></g></g></g><g class="f" transform="translate(4.591 0.543)"><g class="ao"><g class="f"><path class="ah" d="M2098,1449.648l.813.6c-.594,1.528.977,5.91,3.844,10.479a27.269,27.269,0,0,0,5.8,6.934l-.812-.6a27.266,27.266,0,0,1-5.8-6.935c-2.867-4.569-4.438-8.951-3.844-10.478" transform="translate(-2097.872 -1449.648)"/></g></g></g><g transform="translate(15.392 13.194)"><path class="q" d="M2121.4,1477.209l.812.6.308,3.519-.812-.6Z" transform="translate(-2121.402 -1477.209)"/></g><g class="f" transform="translate(15.7 16.713)"><g class="ap"><g class="f"><path class="k" d="M2122.074,1484.876l.812.6a.19.19,0,0,0,.065.136l-.812-.6a.189.189,0,0,1-.066-.136" transform="translate(-2122.074 -1484.876)"/></g></g></g><g class="f" transform="translate(13.975 16.372)"><g class="aq"><g class="f"><path class="k" d="M2120.107,1484.61l.813.6-.047.038a.608.608,0,0,1-.344.111,2.509,2.509,0,0,1-1.4-.626l-.812-.6a2.515,2.515,0,0,0,1.4.627.605.605,0,0,0,.344-.112.554.554,0,0,0,.047-.038" transform="translate(-2118.316 -1484.133)"/></g></g></g><g transform="translate(9.051 7.777)"><path class="p" d="M2114.237,1474.344a.189.189,0,0,0,.066.136.5.5,0,0,1-.047.038.607.607,0,0,1-.344.112c-1.207.042-3.795-2.577-6.135-6.3l-.189-.3,3.538-2.615q.107.166.213.335a29.359,29.359,0,0,1,2.59,5.081Z" transform="translate(-2107.587 -1465.409)"/></g><g class="f" transform="translate(15.766 16.849)"><g class="ar"><g class="f"><path class="h" d="M2122.217,1485.173l.812.6.009.007-.812-.6-.01-.007" transform="translate(-2122.217 -1485.173)"/></g></g></g><g class="f" transform="translate(15.775 16.856)"><g class="as"><g class="f"><path class="m" d="M2122.393,1485.224l.812.6-.03,0a.2.2,0,0,1-.125-.038l-.812-.6a.2.2,0,0,0,.125.038l.03,0" transform="translate(-2122.238 -1485.189)"/></g></g></g><g transform="translate(15.794 12.831)"><path class="r" d="M2122.278,1476.42l.812.6.331,3.8-.812-.6Z" transform="translate(-2122.278 -1476.42)"/></g><g class="f" transform="translate(15.93 16.63)"><g class="at"><g class="f"><path class="m" d="M2122.77,1484.7l.813.6a.252.252,0,0,1-.195.261l-.812-.6a.251.251,0,0,0,.194-.261" transform="translate(-2122.576 -1484.696)"/></g></g></g><g transform="translate(14.878 7.24)"><path class="z" d="M2120.71,1464.238l.488,5.591.331,3.8a.251.251,0,0,1-.194.261l-.03,0a.2.2,0,0,1-.135-.045.19.19,0,0,1-.066-.136l-.308-3.519-.135-1.542-.379-4.328A1.534,1.534,0,0,0,2120.71,1464.238Z" transform="translate(-2120.282 -1464.238)"/></g><g transform="translate(4.596)"><path class="ac" d="M2109.08,1461.3c1.254,2.922,1.641,5.194.827,5.784a.8.8,0,0,1-.452.147,1.443,1.443,0,0,1-.437-.06c-1.648-.458-4.546-3.5-7.173-7.681-2.867-4.569-4.438-8.951-3.837-10.466a.9.9,0,0,1,.3-.408.8.8,0,0,1,.453-.146c.925-.033,2.464,1.131,4.173,3.069l-2.038-.94a2.665,2.665,0,0,0-.575-.266l-.441-.2a.193.193,0,0,0-.089-.018.242.242,0,0,0-.2.135.227.227,0,0,0-.016.172c-.861.744.261,4.253,2.549,8.081a.244.244,0,0,0-.086.323.192.192,0,0,0,.17.087.225.225,0,0,0,.127-.046c.069.1.132.2.195.3,2.341,3.725,4.928,6.344,6.135,6.3a.6.6,0,0,0,.344-.112.481.481,0,0,0,.047-.037.2.2,0,0,0,.135.045.256.256,0,0,0,.224-.264Z" transform="translate(-2097.882 -1448.464)"/></g><g transform="translate(2.734 0.543)"><path class="ak" d="M2095.806,1449.648c-.593,1.527.978,5.91,3.844,10.478,2.628,4.183,5.525,7.223,7.173,7.681-4.473-.179-7.491-1.2-9.48-2.674a8.239,8.239,0,0,1-2.781-3.546C2092.41,1456.324,2095.636,1449.982,2095.806,1449.648Z" transform="translate(-2093.825 -1449.648)"/></g><g class="f" transform="translate(6.253 16.029)"><g class="au"><g class="f"><path class="ah" d="M2110.971,1486.06l.812.6c-4.473-.179-7.491-1.2-9.48-2.673l-.812-.6c1.989,1.473,5.007,2.494,9.48,2.674" transform="translate(-2101.491 -1483.386)"/></g></g></g><g class="f" transform="translate(14.364 12.831)"><g class="av"><g class="f"><path class="h" d="M2120.593,1476.42l.812.6c1.254,2.922,1.641,5.194.827,5.784a.8.8,0,0,1-.452.146,1.445,1.445,0,0,1-.437-.06,4.431,4.431,0,0,1-1.368-.746l-.812-.6a4.423,4.423,0,0,0,1.368.746,1.446,1.446,0,0,0,.437.06.8.8,0,0,0,.452-.147c.813-.59.427-2.862-.828-5.784" transform="translate(-2119.164 -1476.42)"/></g></g></g></g></g><rect class="e" width="1.711" height="1.036" rx="0.518" transform="translate(13.903 34.838)"/><rect class="e" width="2.618" height="0.941" rx="0.47" transform="translate(13.494 39.433)"/></svg>