<svg xmlns="http://www.w3.org/2000/svg" width="25.922" height="21.562" viewBox="0 0 25.922 21.562"><defs><style>.a{fill:#388e3c;fill-rule:evenodd;}</style></defs><path class="a" d="M31.371,9.677a10.172,10.172,0,0,1-1.787.6,5.57,5.57,0,0,0,1.471-2.346.293.293,0,0,0-.426-.341,10.239,10.239,0,0,1-2.734,1.13.716.716,0,0,1-.647-.161,5.6,5.6,0,0,0-3.7-1.393,5.978,5.978,0,0,0-1.771.271,5.41,5.41,0,0,0-3.648,3.9A5.976,5.976,0,0,0,18,13.4a.2.2,0,0,1-.049.153.2.2,0,0,1-.155.073h-.02A14.664,14.664,0,0,1,7.7,8.245a.29.29,0,0,0-.477.037,5.584,5.584,0,0,0,.908,6.794,5.006,5.006,0,0,1-1.275-.494.292.292,0,0,0-.433.251,5.6,5.6,0,0,0,3.264,5.155h-.12a5.022,5.022,0,0,1-.938-.088.294.294,0,0,0-.337.373,5.6,5.6,0,0,0,4.427,3.809A10.294,10.294,0,0,1,6.94,25.839H6.294a.428.428,0,0,0-.418.32.443.443,0,0,0,.212.49A15.352,15.352,0,0,0,13.8,28.73a15.552,15.552,0,0,0,6.585-1.4A14.546,14.546,0,0,0,25.2,23.721a15.817,15.817,0,0,0,2.95-4.945,15.576,15.576,0,0,0,1-5.406v-.086a.959.959,0,0,1,.355-.743,11.086,11.086,0,0,0,2.224-2.436.292.292,0,0,0-.363-.428" transform="translate(-5.863 -7.168)"/></svg>