<svg xmlns="http://www.w3.org/2000/svg" width="29.138" height="21.368" viewBox="0 0 29.138 21.368"><defs><style>.a{fill:#388e3c;}</style></defs><path class="a" d="M396.854,84.7a6.726,6.726,0,0,0-1.155-3.015,4.078,4.078,0,0,0-2.921-1.286c-4.08-.306-10.194-.306-10.194-.306h-.014s-6.118,0-10.194.306a4.081,4.081,0,0,0-2.922,1.286A6.76,6.76,0,0,0,368.3,84.7a47.912,47.912,0,0,0-.29,4.916v2.3a48.015,48.015,0,0,0,.29,4.919,6.752,6.752,0,0,0,1.157,3.015,4.82,4.82,0,0,0,3.213,1.3c2.332.235,9.909.309,9.909.309s6.121-.013,10.2-.319a4.081,4.081,0,0,0,2.921-1.286,6.726,6.726,0,0,0,1.155-3.015,47.812,47.812,0,0,0,.292-4.919v-2.3A47.812,47.812,0,0,0,396.854,84.7Zm-9.416,5.766-7.869,4.251,0-6.544V86.182l3.549,1.934Z" transform="translate(-368.007 -80.095)"/></svg>