<svg xmlns="http://www.w3.org/2000/svg" xmlns:xlink="http://www.w3.org/1999/xlink" width="29.82" height="48.45" viewBox="0 0 29.82 48.45"><defs><style>.a{fill:none;}.b{opacity:0.8;}.c{fill:#424242;opacity:0.5;}.d{isolation:isolate;}.e{clip-path:url(#a);}.f{fill:#858585;}.g{fill:#8a8a8a;}.h{fill:#8f8f8f;}.i{fill:#fbfbfb;}.j{clip-path:url(#b);}.k{fill:#8f5e15;}.l{fill:#8a5a15;}.m{fill:#855714;}.n{clip-path:url(#c);}.o{fill:#fba425;}.p{clip-path:url(#d);}.q{fill:#838383;}.r{fill:#999;}.s{clip-path:url(#e);}.t{fill:#996417;}.u{fill:#835613;}.v{fill:#939393;}.w{fill:#956216;}.x{fill:#875814;}.y{clip-path:url(#f);}.z{fill:#885914;}.aa{fill:#986417;}.ab{clip-path:url(#g);}.ac{fill:#949494;}.ad{clip-path:url(#h);}.ae{clip-path:url(#i);}.af{clip-path:url(#j);}.ag{clip-path:url(#k);}.ah{clip-path:url(#l);}.ai{clip-path:url(#m);}.aj{clip-path:url(#n);}.ak{clip-path:url(#o);}.al{clip-path:url(#p);}.am{clip-path:url(#q);}.an{clip-path:url(#r);}.ao{clip-path:url(#s);}.ap{clip-path:url(#t);}.aq{clip-path:url(#u);}.ar{clip-path:url(#v);}.as{clip-path:url(#w);}.at{fill-rule:evenodd;fill:url(#x);}</style><clipPath id="a"><path class="a" d="M1704.54,1446.594l.945.785a2.616,2.616,0,0,1,.838,2.479,3.6,3.6,0,0,1-3.37,3.02,2.427,2.427,0,0,1-1.573-.547l-.946-.785a2.432,2.432,0,0,0,1.573.547,3.6,3.6,0,0,0,3.371-3.02A2.617,2.617,0,0,0,1704.54,1446.594Z" transform="translate(-1700.434 -1446.594)"/></clipPath><clipPath id="b"><path class="a" d="M1695.127,1468.325l.946.785a6.719,6.719,0,0,0,.254,2.616,16.381,16.381,0,0,0,1.974,2.989,10.485,10.485,0,0,1,1.614,2.869,3.221,3.221,0,0,1,.113,1.266l-.945-.785a3.23,3.23,0,0,0-.114-1.265,10.482,10.482,0,0,0-1.615-2.869,16.4,16.4,0,0,1-1.973-2.989A6.725,6.725,0,0,1,1695.127,1468.325Z" transform="translate(-1695.097 -1468.325)"/></clipPath><clipPath id="c"><path class="a" d="M1701.9,1460.35l.945.785a5.694,5.694,0,0,1-1,1.859c-.687.815-2.068,2.026-2.8,2.845a3.045,3.045,0,0,0-.756,1.805l-.946-.785a3.047,3.047,0,0,1,.756-1.805c.728-.819,2.11-2.03,2.8-2.845A5.7,5.7,0,0,0,1701.9,1460.35Z" transform="translate(-1697.351 -1460.35)"/></clipPath><clipPath id="d"><path class="a" d="M1699.173,1489.247l.945.786a3.578,3.578,0,0,0-1.344-.253,4.568,4.568,0,0,0-2.566.839l-.946-.785a4.571,4.571,0,0,1,2.566-.838A3.6,3.6,0,0,1,1699.173,1489.247Z" transform="translate(-1695.262 -1488.995)"/></clipPath><clipPath id="e"><path class="a" d="M1712.189,1482.441l-.945-.785a1.043,1.043,0,0,0,.666.181l.946.785A1.04,1.04,0,0,1,1712.189,1482.441Z" transform="translate(-1711.243 -1481.656)"/></clipPath><clipPath id="f"><path class="a" d="M1737.065,1466.7l.946.785c.28.233.285.7.174,1.422l-.945-.785C1737.35,1467.394,1737.345,1466.931,1737.065,1466.7Z" transform="translate(-1737.065 -1466.698)"/></clipPath><clipPath id="g"><path class="a" d="M1727.964,1484.851l.946.785c-.164.954-.668,1.137-1.716,1.145l-.946-.785C1727.3,1485.988,1727.8,1485.806,1727.964,1484.851Z" transform="translate(-1726.248 -1484.851)"/></clipPath><clipPath id="h"><path class="a" d="M1723.031,1442.6l.945.785a7.22,7.22,0,0,0-2.615.7,25.158,25.158,0,0,0-3.268,2.562,15.578,15.578,0,0,1-3.089,2.166,3.452,3.452,0,0,1-1.263.33l-.945-.785a3.454,3.454,0,0,0,1.263-.33,15.564,15.564,0,0,0,3.09-2.166,25.183,25.183,0,0,1,3.268-2.562A7.227,7.227,0,0,1,1723.031,1442.6Z" transform="translate(-1712.796 -1442.598)"/></clipPath><clipPath id="i"><path class="a" d="M1729.638,1446.326l.945.785a2.15,2.15,0,0,0-1.359-.448,1.768,1.768,0,0,0-.232.013l-.946-.785a1.856,1.856,0,0,1,.232-.012A2.152,2.152,0,0,1,1729.638,1446.326Z" transform="translate(-1728.047 -1445.878)"/></clipPath><clipPath id="j"><path class="a" d="M1741.638,1444.805l.946.785c.055.046.106.093.164.141l-.945-.785C1741.745,1444.9,1741.693,1444.851,1741.638,1444.805Z" transform="translate(-1741.638 -1444.805)"/></clipPath><clipPath id="k"><path class="a" d="M1737.722,1453.133l-.946-.785a3.7,3.7,0,0,0,1.634.715l.946.785A3.7,3.7,0,0,1,1737.722,1453.133Z" transform="translate(-1736.776 -1452.348)"/></clipPath><clipPath id="l"><path class="a" d="M1741.031,1445.271l.945.785a5.078,5.078,0,0,0-.934,2.2,4.2,4.2,0,0,0,.079,1.763l-.945-.785a4.209,4.209,0,0,1-.079-1.763A5.08,5.08,0,0,1,1741.031,1445.271Z" transform="translate(-1740.039 -1445.271)"/></clipPath><clipPath id="m"><path class="a" d="M1699,1492.926l.945.785a2.61,2.61,0,0,1,.837,2.474,3.611,3.611,0,0,1-3.375,3.024,2.426,2.426,0,0,1-1.571-.547l-.945-.785a2.427,2.427,0,0,0,1.571.547,3.61,3.61,0,0,0,3.375-3.024A2.61,2.61,0,0,0,1699,1492.926Z" transform="translate(-1694.891 -1492.926)"/></clipPath><clipPath id="n"><path class="a" d="M1706.208,1503.154l.945.785c-.028-.023-.057-.046-.089-.07l-.945-.785C1706.151,1503.108,1706.18,1503.131,1706.208,1503.154Z" transform="translate(-1706.119 -1503.084)"/></clipPath><clipPath id="o"><path class="a" d="M1714.928,1499.343l-.945-.785-.06-.052c-.684-.625-1.644-1.867-2.331-2.45l.946.785c.687.582,1.647,1.824,2.331,2.449Z" transform="translate(-1711.592 -1496.056)"/></clipPath><clipPath id="p"><path class="a" d="M1707.641,1503.752l-.946-.785c.252.21.593.4,2.031.564a4.03,4.03,0,0,0,.473.027,8.577,8.577,0,0,0,3.723-1.1l.946.785a8.579,8.579,0,0,1-3.723,1.1,4.075,4.075,0,0,1-.473-.027C1708.233,1504.147,1707.892,1503.961,1707.641,1503.752Z" transform="translate(-1706.695 -1502.459)"/></clipPath><clipPath id="q"><path class="a" d="M1734.892,1493.215l.945.785a5.053,5.053,0,0,0-.469,1.448,3.948,3.948,0,0,0,.4,2.543l-.946-.785a3.947,3.947,0,0,1-.4-2.543A5.055,5.055,0,0,1,1734.892,1493.215Z" transform="translate(-1734.366 -1493.215)"/></clipPath><clipPath id="r"><path class="a" d="M1723.376,1501.909l.946.785a13.387,13.387,0,0,1-4.771,2,11.7,11.7,0,0,1-1.626.1,23.505,23.505,0,0,1-3.765-.335l-.946-.785a23.513,23.513,0,0,0,3.765.335,11.661,11.661,0,0,0,1.626-.1A13.377,13.377,0,0,0,1723.376,1501.909Z" transform="translate(-1713.214 -1501.909)"/></clipPath><clipPath id="s"><path class="a" d="M1748.583,1444.652l.946.785a2.61,2.61,0,0,1,.837,2.473,3.611,3.611,0,0,1-3.375,3.024,2.417,2.417,0,0,1-1.568-.545l-.946-.785a2.423,2.423,0,0,0,1.568.545,3.61,3.61,0,0,0,3.374-3.024A2.61,2.61,0,0,0,1748.583,1444.652Z" transform="translate(-1744.477 -1444.652)"/></clipPath><clipPath id="t"><path class="a" d="M1750.014,1473.831l.945.785a7.2,7.2,0,0,1,.353,4.208c-.542,2.046-.788,2.05-1.154,2.531l-.945-.785c.366-.481.612-.486,1.154-2.531A7.2,7.2,0,0,0,1750.014,1473.831Z" transform="translate(-1749.213 -1473.831)"/></clipPath><clipPath id="u"><path class="a" d="M1753.048,1457.534l.945.785a10.5,10.5,0,0,1,1.174,4.651,24.929,24.929,0,0,1-1.129,5.679l-.945-.785a24.943,24.943,0,0,0,1.129-5.679A10.517,10.517,0,0,0,1753.048,1457.534Z" transform="translate(-1753.048 -1457.534)"/></clipPath><clipPath id="v"><path class="a" d="M1744.792,1487.8l.946.785a3.469,3.469,0,0,0-2-.606,4.309,4.309,0,0,0-1.746.377l-.945-.785a4.3,4.3,0,0,1,1.745-.377A3.469,3.469,0,0,1,1744.792,1487.8Z" transform="translate(-1741.042 -1487.193)"/></clipPath><clipPath id="w"><path class="a" d="M1743.032,1490.972l.945.785a2.615,2.615,0,0,1,.839,2.478,3.606,3.606,0,0,1-3.374,3.02,2.424,2.424,0,0,1-1.57-.545l-.945-.785a2.423,2.423,0,0,0,1.57.546,3.607,3.607,0,0,0,3.375-3.02A2.615,2.615,0,0,0,1743.032,1490.972Z" transform="translate(-1738.926 -1490.972)"/></clipPath><linearGradient id="x" y1="0.5" x2="1" y2="0.5" gradientUnits="objectBoundingBox"><stop offset="0" stop-color="#ffa726"/><stop offset="0" stop-color="#c3bb31"/><stop offset="0" stop-color="#3adf41"/><stop offset="0.614" stop-color="#32b07c"/><stop offset="1" stop-color="#2e979e"/></linearGradient></defs><g class="b" transform="translate(0.518 42.98)"><ellipse class="c" cx="14.491" cy="2.735" rx="14.491" ry="2.735"/></g><g transform="translate(0 0)"><g class="d" transform="translate(2.672 1.624)"><g class="d" transform="translate(0.878 0.545)"><g class="e"><g class="d"><path class="f" d="M1709.379,1446.594l.946.785a2.34,2.34,0,0,1,.421.458l-.946-.785a2.311,2.311,0,0,0-.421-.458" transform="translate(-1705.273 -1446.594)"/><path class="g" d="M1710.3,1447.592l.945.785a2.613,2.613,0,0,1,.456,1.427l-.945-.785a2.617,2.617,0,0,0-.456-1.427" transform="translate(-1705.769 -1447.134)"/><path class="h" d="M1710.773,1450.7l.945.785a3.118,3.118,0,0,1-.039.594,3.515,3.515,0,0,1-.4,1.15l-.945-.785a3.526,3.526,0,0,0,.4-1.15,3.169,3.169,0,0,0,.039-.594" transform="translate(-1705.79 -1448.816)"/><path class="g" d="M1709,1454.5l.945.785a3.784,3.784,0,0,1-1.134,1.262l-.945-.785A3.793,3.793,0,0,0,1709,1454.5" transform="translate(-1704.453 -1450.871)"/><path class="f" d="M1703.844,1457.249l.945.785a3.22,3.22,0,0,1-1.837.608,2.427,2.427,0,0,1-1.573-.547l-.946-.785a2.43,2.43,0,0,0,1.573.547,3.219,3.219,0,0,0,1.837-.608" transform="translate(-1700.434 -1452.359)"/></g></g></g><path class="i" d="M1701.937,1445.406a2.461,2.461,0,0,1,2.406,3.024,3.6,3.6,0,0,1-3.371,3.02,2.46,2.46,0,0,1-2.41-3.02A3.611,3.611,0,0,1,1701.937,1445.406Z" transform="translate(-1698.522 -1445.406)"/></g><g class="d" transform="translate(0 8.25)"><g class="d" transform="translate(1.1 3.893)"><g class="j"><g class="d" transform="translate(0)"><path class="k" d="M1695.127,1468.325l.946.785a8.361,8.361,0,0,0-.026,1.006l-.946-.785a8.653,8.653,0,0,1,.026-1.006" transform="translate(-1695.097 -1468.325)"/><path class="l" d="M1695.107,1470.517l.946.785a4.959,4.959,0,0,0,.28,1.61,6.4,6.4,0,0,0,.729,1.29l-.946-.785a6.409,6.409,0,0,1-.729-1.29,4.958,4.958,0,0,1-.28-1.61" transform="translate(-1695.103 -1469.511)"/><path class="m" d="M1697.305,1476.836l.946.785c.359.515.788,1.048,1.245,1.7l.04.059-.945-.785-.041-.058c-.457-.65-.885-1.184-1.245-1.7" transform="translate(-1696.292 -1472.93)"/><path class="l" d="M1700.106,1480.664l.945.785a10.256,10.256,0,0,1,1.574,2.81,3.29,3.29,0,0,1,.131.816l-.945-.785a3.281,3.281,0,0,0-.131-.816,10.255,10.255,0,0,0-1.573-2.81" transform="translate(-1697.807 -1475.001)"/><path class="k" d="M1703.8,1488.565l.945.785a2.988,2.988,0,0,1-.018.45l-.945-.785a3.043,3.043,0,0,0,.017-.45" transform="translate(-1699.796 -1479.275)"/></g></g></g><g class="d" transform="translate(2.135 0.233)"><g class="n"><g class="d"><path class="k" d="M1706.722,1460.35l.945.785a5.8,5.8,0,0,1-.462,1.072l-.945-.785a5.8,5.8,0,0,0,.463-1.072" transform="translate(-1702.17 -1460.35)"/><path class="l" d="M1701.883,1462.685l.945.785a4.946,4.946,0,0,1-.536.788c-.687.815-2.068,2.027-2.8,2.845a2.989,2.989,0,0,0-.38.538l-.945-.785a2.977,2.977,0,0,1,.38-.538c.728-.819,2.11-2.03,2.8-2.845a4.951,4.951,0,0,0,.536-.788" transform="translate(-1697.794 -1461.613)"/><path class="k" d="M1697.727,1471.773l.945.785a2.994,2.994,0,0,0-.375,1.267l-.946-.785a2.993,2.993,0,0,1,.376-1.267" transform="translate(-1697.351 -1466.53)"/></g></g></g><g transform="translate(1.6)"><path class="o" d="M1697.522,1459.843a3.448,3.448,0,0,0,2.008.609,4.367,4.367,0,0,0,1.742-.376,5.7,5.7,0,0,1-1,1.859c-.687.815-2.069,2.026-2.8,2.845a3.048,3.048,0,0,0-.756,1.805,7.2,7.2,0,0,1-.353-4.208C1696.91,1460.328,1697.155,1460.324,1697.522,1459.843Z" transform="translate(-1696.186 -1459.843)"/></g><g class="d" transform="translate(1.176 13.381)"><g class="p"><g class="d"><path class="m" d="M1699.173,1489.247l.945.786a3.578,3.578,0,0,0-1.344-.253,4.568,4.568,0,0,0-2.566.839l-.946-.785a4.571,4.571,0,0,1,2.566-.838,3.6,3.6,0,0,1,1.345.252" transform="translate(-1695.262 -1488.995)"/></g></g></g><g transform="translate(0 3.893)"><path class="o" d="M1693.83,1468.325a6.723,6.723,0,0,0,.255,2.616,16.388,16.388,0,0,0,1.973,2.989,10.475,10.475,0,0,1,1.614,2.869,3.223,3.223,0,0,1,.114,1.265,3.593,3.593,0,0,0-1.345-.252,4.572,4.572,0,0,0-2.566.838,10.481,10.481,0,0,1-1.174-4.65A24.911,24.911,0,0,1,1693.83,1468.325Z" transform="translate(-1692.7 -1468.325)"/></g></g><g class="d" transform="translate(7.812 7.649)"><g transform="translate(0 5.648)"><path class="q" d="M1710.811,1470.837l.945.785h-1.092l-.945-.785Z" transform="translate(-1709.719 -1470.837)"/></g><g transform="translate(3.173 5.683)"><path class="q" d="M1717.823,1470.913l.945.785h-1.192l-.945-.785Z" transform="translate(-1716.631 -1470.913)"/></g><g transform="translate(2.471 3.567)"><path class="f" d="M1715.1,1466.3l.945.785,1.894,2.115-.945-.785Z" transform="translate(-1715.102 -1466.304)"/></g><g transform="translate(2.702 5.683)"><path class="r" d="M1716.076,1470.913l.945.785-.471,2.95-.945-.785Z" transform="translate(-1715.605 -1470.913)"/></g><g class="d" transform="translate(0.7 10.614)"><g class="s"><g class="d"><path class="f" d="M1711.909,1481.838l.946.785a1.04,1.04,0,0,1-.666-.181l-.945-.785a1.043,1.043,0,0,0,.666.181" transform="translate(-1711.243 -1481.656)"/></g></g></g><g transform="translate(5.433 3.319)"><path class="t" d="M1721.978,1465.763l.945.785-.422,2.647-.945-.785Z" transform="translate(-1721.556 -1465.763)"/></g><g transform="translate(5.855 3.319)"><path class="u" d="M1725.3,1465.763l.945.785h-2.822l-.945-.785Z" transform="translate(-1722.476 -1465.763)"/></g><g transform="translate(1.366 10.78)"><path class="q" d="M1713.933,1482.018l.945.785-1.239.016-.945-.785Z" transform="translate(-1712.694 -1482.018)"/></g><g transform="translate(2.604 8.633)"><path class="v" d="M1718.019,1477.341l.945.785-2.626,2.147-.945-.785Z" transform="translate(-1715.393 -1477.341)"/></g><g transform="translate(0 3.567)"><path class="i" d="M1712.19,1466.3l1.894,2.116h-1.192l-.47,2.95h2.528l-2.626,2.146-1.239.015c-.912-.012-1.008-.5-.84-1.6l.566-3.544h-1.091Z" transform="translate(-1709.719 -1466.304)"/></g><g transform="translate(8.478 2.236)"><path class="w" d="M1730.585,1463.4l.945.785-2.4,2.333-.945-.785Z" transform="translate(-1728.189 -1463.403)"/></g><g transform="translate(9.24)"><path class="x" d="M1729.851,1458.532l.945.785,1.633,2.236-.945-.785Z" transform="translate(-1729.851 -1458.532)"/></g><g transform="translate(3.761 0)"><path class="o" d="M1723.392,1458.532l1.633,2.236-2.4,2.333.2-1.25h-2.822l-.422,2.647-1.672-2.387.192-1.3c.163-.951.663-1.134,1.715-1.141h3.39Z" transform="translate(-1717.913 -1458.532)"/></g><g transform="translate(4.578 9.798)"><path class="t" d="M1719.893,1479.878l.945.785-.2,1.246-.945-.785Z" transform="translate(-1719.694 -1479.878)"/></g><g transform="translate(8.021 5.733)"><path class="q" d="M1729.723,1471.023l.945.785h-2.528l-.946-.785Z" transform="translate(-1727.194 -1471.023)"/></g><g transform="translate(4.015 13.225)"><path class="t" d="M1718.648,1487.346l.945.785-.182,1.141-.945-.785Z" transform="translate(-1718.466 -1487.346)"/></g><g class="d" transform="translate(12.552 3.748)"><g class="y"><g class="d"><path class="f" d="M1737.065,1466.7l.946.785a.554.554,0,0,1,.1.109l-.945-.785a.551.551,0,0,0-.1-.11" transform="translate(-1737.065 -1466.698)"/><path class="g" d="M1737.285,1466.937l.945.785a.956.956,0,0,1,.14.53l-.945-.785a.967.967,0,0,0-.14-.53" transform="translate(-1737.184 -1466.827)"/><path class="h" d="M1737.512,1468.091l.945.785a4.413,4.413,0,0,1-.067.783l-.945-.785a4.525,4.525,0,0,0,.067-.783" transform="translate(-1737.27 -1467.452)"/></g></g></g><g transform="translate(7.819 8.396)"><path class="z" d="M1726.754,1476.825l.945.785,1.672,2.391-.945-.785Z" transform="translate(-1726.754 -1476.825)"/></g><g transform="translate(4.197 13.225)"><path class="u" d="M1722.253,1487.346l.945.785h-3.39l-.945-.785Z" transform="translate(-1718.863 -1487.346)"/></g><g transform="translate(9.303 10.788)"><path class="aa" d="M1730.175,1482.034l.945.785-.188,1.293-.945-.785Z" transform="translate(-1729.987 -1482.034)"/></g><g transform="translate(12.16 5.171)"><path class="r" d="M1736.778,1469.8l.945.785-.565,3.544-.945-.785Z" transform="translate(-1736.213 -1469.797)"/></g><g transform="translate(2.381 8.396)"><path class="o" d="M1720.345,1476.825l1.672,2.391-.188,1.293c-.164.954-.668,1.138-1.716,1.145h-3.39l-.182,1.141-1.633-2.236,2.4-2.333-.2,1.246h2.818Z" transform="translate(-1714.907 -1476.825)"/></g><g class="d" transform="translate(7.587 12.08)"><g class="ab"><g class="d"><path class="k" d="M1729.774,1484.851l.945.785a1.791,1.791,0,0,1-.181.564l-.946-.785a1.8,1.8,0,0,0,.181-.565" transform="translate(-1728.057 -1484.851)"/><path class="l" d="M1729.254,1486.081l.945.785a.939.939,0,0,1-.288.326l-.946-.785a.94.94,0,0,0,.288-.326" transform="translate(-1727.718 -1485.516)"/><path class="m" d="M1727.5,1486.791l.946.785a2.218,2.218,0,0,1-1.248.255l-.946-.785a2.216,2.216,0,0,0,1.248-.254" transform="translate(-1726.248 -1485.9)"/></g></g></g><g transform="translate(8.021 3.567)"><path class="i" d="M1731.063,1466.3c.908.011,1,.509.836,1.6l-.565,3.544h1.091l-2.471,2.08-1.894-2.115h1.192l.47-2.946h-2.529l2.626-2.146Z" transform="translate(-1727.194 -1466.304)"/></g><g transform="translate(10.781 8.715)"><path class="ac" d="M1735.679,1477.518l.945.785-2.471,2.081-.945-.785Z" transform="translate(-1733.208 -1477.518)"/></g></g><g class="d" transform="translate(9.224)"><g class="d" transform="translate(0 0.335)"><g class="ad"><g class="d"><path class="m" d="M1731.248,1442.6l.945.785a7.22,7.22,0,0,0-2.615.7,7.4,7.4,0,0,0-.649.41l-.946-.785a7.578,7.578,0,0,1,.649-.409,7.227,7.227,0,0,1,2.615-.7" transform="translate(-1721.013 -1442.598)"/><path class="l" d="M1722.752,1445.021l.946.786c-.8.562-1.586,1.3-2.619,2.152-.7.575-1.292,1.043-1.821,1.415l-.945-.785c.529-.371,1.119-.839,1.821-1.414,1.033-.85,1.817-1.59,2.619-2.153" transform="translate(-1715.78 -1443.909)"/><path class="m" d="M1715.328,1452.793l.945.785a8.126,8.126,0,0,1-1.268.751,3.45,3.45,0,0,1-1.263.33l-.945-.785a3.457,3.457,0,0,0,1.263-.33,8.1,8.1,0,0,0,1.269-.751" transform="translate(-1712.796 -1448.114)"/></g></g></g><g class="d" transform="translate(7 1.841)"><g class="ae"><g class="d"><path class="m" d="M1729.638,1446.326l.945.785a2.15,2.15,0,0,0-1.359-.448,1.768,1.768,0,0,0-.232.013l-.946-.785a1.856,1.856,0,0,1,.232-.012,2.152,2.152,0,0,1,1.359.448" transform="translate(-1728.047 -1445.878)"/></g></g></g><path class="o" d="M1719.266,1441.868a23.578,23.578,0,0,1,3.765.335,7.23,7.23,0,0,0-2.615.7,25.134,25.134,0,0,0-3.268,2.562,15.582,15.582,0,0,1-3.09,2.166,3.457,3.457,0,0,1-1.263.33,4.948,4.948,0,0,0,.472-1.448,3.969,3.969,0,0,0-.4-2.542,13.349,13.349,0,0,1,4.768-2A11.651,11.651,0,0,1,1719.266,1441.868Z" transform="translate(-1712.796 -1441.868)"/><g class="d" transform="translate(13.238 1.348)"><g class="af"><g class="d"><path class="m" d="M1741.638,1444.805l.946.785c.055.046.106.093.164.141l-.945-.785c-.058-.048-.11-.1-.165-.141" transform="translate(-1741.638 -1444.805)"/></g></g></g><g class="d" transform="translate(11.007 4.81)"><g class="ag"><g class="d"><path class="m" d="M1738.41,1453.063l.946.785a3.7,3.7,0,0,1-1.634-.715l-.946-.785a3.7,3.7,0,0,0,1.634.715" transform="translate(-1736.776 -1452.348)"/></g></g></g><g class="d" transform="translate(12.504 1.562)"><g class="ah"><g class="d" transform="translate(0)"><path class="l" d="M1741.766,1445.271l.945.785a5.317,5.317,0,0,0-.368.573l-.945-.785a5.181,5.181,0,0,1,.367-.573" transform="translate(-1740.775 -1445.271)"/><path class="k" d="M1740.663,1446.519l.945.785a4.985,4.985,0,0,0-.566,1.628,4.442,4.442,0,0,0-.055.851l-.946-.785a4.535,4.535,0,0,1,.055-.851,4.979,4.979,0,0,1,.567-1.628" transform="translate(-1740.039 -1445.946)"/><path class="l" d="M1740.044,1451.921l.946.785a4,4,0,0,0,.134.911l-.945-.785a4,4,0,0,1-.134-.911" transform="translate(-1740.042 -1448.869)"/></g></g></g><g transform="translate(7 0.751)"><path class="o" d="M1731.778,1443.505a4.021,4.021,0,0,1,.465.026c1.924.229,1.887.482,2.3.785a5.074,5.074,0,0,0-.934,2.2,4.213,4.213,0,0,0,.079,1.763,3.68,3.68,0,0,1-1.661-.738c-.687-.583-1.647-1.824-2.327-2.445a2.121,2.121,0,0,0-1.421-.5,1.845,1.845,0,0,0-.232.012A8.594,8.594,0,0,1,1731.778,1443.505Z" transform="translate(-1728.047 -1443.505)"/></g></g><g class="d" transform="translate(0.127 22.889)"><g class="d" transform="translate(0.879 0.547)"><g class="ai"><g class="d"><path class="f" d="M1703.842,1492.926l.946.785a2.316,2.316,0,0,1,.421.458l-.945-.786a2.355,2.355,0,0,0-.421-.458" transform="translate(-1699.734 -1492.926)"/><path class="g" d="M1704.76,1493.924l.945.785a2.6,2.6,0,0,1,.455,1.423l-.945-.785a2.611,2.611,0,0,0-.455-1.423" transform="translate(-1700.23 -1493.466)"/><path class="h" d="M1705.234,1497.025l.946.785a3.119,3.119,0,0,1-.039.592,3.522,3.522,0,0,1-.4,1.149l-.945-.785a3.52,3.52,0,0,0,.4-1.149,3.116,3.116,0,0,0,.039-.592" transform="translate(-1700.25 -1495.144)"/><path class="g" d="M1703.455,1500.818l.945.785a3.8,3.8,0,0,1-1.137,1.266l-.945-.785a3.81,3.81,0,0,0,1.137-1.266" transform="translate(-1698.909 -1497.196)"/><path class="f" d="M1698.3,1503.576l.945.785a3.221,3.221,0,0,1-1.838.609,2.426,2.426,0,0,1-1.571-.547l-.945-.785a2.426,2.426,0,0,0,1.571.547,3.223,3.223,0,0,0,1.838-.609" transform="translate(-1694.891 -1498.688)"/></g></g></g><path class="i" d="M1696.39,1491.735a2.46,2.46,0,0,1,2.41,3.02,3.611,3.611,0,0,1-3.375,3.024,2.463,2.463,0,0,1-2.41-3.024A3.606,3.606,0,0,1,1696.39,1491.735Z" transform="translate(-1692.976 -1491.735)"/></g><g class="d" transform="translate(6.159 23.568)"><g class="d" transform="translate(0 4.53)"><g class="aj"><g class="d"><path class="m" d="M1706.208,1503.154l.945.785c-.028-.023-.057-.046-.089-.07l-.945-.785c.032.024.061.047.089.07" transform="translate(-1706.119 -1503.084)"/></g></g></g><g class="d" transform="translate(2.512 1.304)"><g class="ak"><g class="d"><path class="m" d="M1711.592,1496.056l.946.785c.687.582,1.647,1.824,2.331,2.449l.06.052-.945-.785-.06-.052c-.684-.625-1.644-1.867-2.331-2.45" transform="translate(-1711.592 -1496.056)"/></g></g></g><g class="d" transform="translate(0.264 4.243)"><g class="al"><g class="d"><path class="m" d="M1712.922,1502.459l.946.785a8.579,8.579,0,0,1-3.723,1.1,4.075,4.075,0,0,1-.473-.027c-1.438-.168-1.779-.354-2.031-.564l-.946-.785c.252.21.593.4,2.031.564a4.03,4.03,0,0,0,.473.027,8.577,8.577,0,0,0,3.723-1.1" transform="translate(-1706.695 -1502.459)"/></g></g></g><g transform="translate(0 0.571)"><path class="o" d="M1706.969,1494.458a3.7,3.7,0,0,1,1.661.734c.687.582,1.647,1.824,2.331,2.45a2.128,2.128,0,0,0,1.423.5,1.849,1.849,0,0,0,.225-.011,8.576,8.576,0,0,1-3.723,1.1,4.006,4.006,0,0,1-.473-.027c-1.925-.225-1.883-.481-2.3-.784a5.1,5.1,0,0,0,.93-2.2A4.2,4.2,0,0,0,1706.969,1494.458Z" transform="translate(-1706.119 -1494.458)"/></g><g class="d" transform="translate(12.965)"><g class="am"><g class="d" transform="translate(0)"><path class="k" d="M1734.892,1493.215l.945.785a5.038,5.038,0,0,0-.469,1.448,4.453,4.453,0,0,0-.055.848l-.946-.785a4.5,4.5,0,0,1,.055-.848,5.048,5.048,0,0,1,.469-1.448" transform="translate(-1734.366 -1493.215)"/><path class="l" d="M1734.371,1498.216l.946.785a3.755,3.755,0,0,0,.451,1.695l-.945-.785a3.755,3.755,0,0,1-.451-1.7" transform="translate(-1734.369 -1495.921)"/></g></g></g><g class="d" transform="translate(3.257 3.991)"><g class="an"><g class="d"><path class="m" d="M1723.376,1501.909l.946.785a13.387,13.387,0,0,1-4.771,2,11.7,11.7,0,0,1-1.626.1,23.505,23.505,0,0,1-3.765-.335l-.946-.785a23.513,23.513,0,0,0,3.765.335,11.661,11.661,0,0,0,1.626-.1,13.377,13.377,0,0,0,4.771-2" transform="translate(-1713.214 -1501.909)"/></g></g></g><g transform="translate(3.257)"><path class="o" d="M1723.449,1493.215a5.048,5.048,0,0,0-.469,1.448,3.948,3.948,0,0,0,.4,2.543,13.383,13.383,0,0,1-4.771,2,11.718,11.718,0,0,1-1.626.1,23.513,23.513,0,0,1-3.765-.335,7.19,7.19,0,0,0,2.615-.7,25.816,25.816,0,0,0,3.268-2.562,15.655,15.655,0,0,1,3.089-2.166A3.466,3.466,0,0,1,1723.449,1493.215Z" transform="translate(-1713.214 -1493.215)"/></g></g><g class="d" transform="translate(22.887 0.731)"><g class="d" transform="translate(0.879 0.547)"><g class="ao"><g class="d"><path class="f" d="M1753.422,1444.652l.946.785a2.332,2.332,0,0,1,.421.458l-.946-.785a2.331,2.331,0,0,0-.421-.459" transform="translate(-1749.317 -1444.652)"/><path class="g" d="M1754.339,1445.651l.946.785a2.606,2.606,0,0,1,.455,1.423l-.946-.785a2.6,2.6,0,0,0-.455-1.423" transform="translate(-1749.812 -1445.192)"/><path class="h" d="M1754.814,1448.751l.946.785a3.168,3.168,0,0,1-.039.592,3.519,3.519,0,0,1-.4,1.149l-.945-.785a3.518,3.518,0,0,0,.4-1.149,3.117,3.117,0,0,0,.039-.592" transform="translate(-1749.833 -1446.87)"/><path class="g" d="M1753.035,1452.544l.945.785a3.8,3.8,0,0,1-1.137,1.266l-.946-.785a3.807,3.807,0,0,0,1.138-1.266" transform="translate(-1748.491 -1448.922)"/><path class="f" d="M1747.883,1455.3l.946.785a3.222,3.222,0,0,1-1.838.609,2.419,2.419,0,0,1-1.568-.545l-.946-.785a2.424,2.424,0,0,0,1.568.545,3.22,3.22,0,0,0,1.837-.609" transform="translate(-1744.477 -1450.414)"/></g></g></g><path class="i" d="M1745.974,1443.461a2.46,2.46,0,0,1,2.41,3.02,3.61,3.61,0,0,1-3.375,3.024,2.461,2.461,0,0,1-2.406-3.024A3.6,3.6,0,0,1,1745.974,1443.461Z" transform="translate(-1742.563 -1443.461)"/></g><g class="d" transform="translate(22.189 7.191)"><g class="d" transform="translate(3.75 7.48)"><g class="ap"><g class="d"><path class="l" d="M1750.957,1473.831l.945.785a7.75,7.75,0,0,1,.531,2.539l-.946-.785a7.743,7.743,0,0,0-.531-2.539" transform="translate(-1750.156 -1473.831)"/><path class="k" d="M1751.146,1479.362l.946.785a5.769,5.769,0,0,1-.178,1.669,8.479,8.479,0,0,1-.645,1.855l-.945-.785a8.449,8.449,0,0,0,.645-1.856,5.755,5.755,0,0,0,.178-1.669" transform="translate(-1749.814 -1476.823)"/><path class="l" d="M1749.722,1487.041l.945.785a4.632,4.632,0,0,1-.509.675l-.945-.785a4.647,4.647,0,0,0,.51-.676" transform="translate(-1749.213 -1480.978)"/></g></g></g><g transform="translate(1.581)"><path class="o" d="M1748.416,1457.534a10.51,10.51,0,0,1,1.174,4.65,24.946,24.946,0,0,1-1.129,5.679,6.764,6.764,0,0,0-.251-2.616,16.581,16.581,0,0,0-1.977-2.993,10.388,10.388,0,0,1-1.615-2.865,3.24,3.24,0,0,1-.113-1.269,3.611,3.611,0,0,0,1.345.252A4.53,4.53,0,0,0,1748.416,1457.534Z" transform="translate(-1744.485 -1457.534)"/></g><g class="d" transform="translate(5.511)"><g class="aq"><g class="d"><path class="l" d="M1753.048,1457.534l.945.785a10.778,10.778,0,0,1,1.173,4.245l-.945-.785a10.8,10.8,0,0,0-1.172-4.245" transform="translate(-1753.048 -1457.534)"/><path class="k" d="M1754.273,1466.783l.945.785c0,.135.005.269,0,.405a24.94,24.94,0,0,1-1.129,5.679l-.945-.785a24.957,24.957,0,0,0,1.129-5.679q.005-.2,0-.4" transform="translate(-1753.101 -1462.538)"/></g></g></g><g class="d" transform="translate(0 13.613)"><g class="ar"><g class="d"><path class="m" d="M1744.792,1487.8l.946.785a3.469,3.469,0,0,0-2-.606,4.309,4.309,0,0,0-1.746.377l-.945-.785a4.3,4.3,0,0,1,1.745-.377,3.469,3.469,0,0,1,2,.606" transform="translate(-1741.042 -1487.193)"/></g></g></g><g transform="translate(0 7.48)"><path class="o" d="M1745.593,1473.831a7.2,7.2,0,0,1,.353,4.208c-.542,2.046-.788,2.05-1.154,2.531a3.469,3.469,0,0,0-2-.606,4.3,4.3,0,0,0-1.745.377,5.687,5.687,0,0,1,1-1.859c.691-.815,2.069-2.031,2.8-2.846A3.016,3.016,0,0,0,1745.593,1473.831Z" transform="translate(-1741.042 -1473.831)"/></g></g><g class="d" transform="translate(20.341 21.992)"><g class="d" transform="translate(0.877 0.547)"><g class="as"><g class="d"><path class="f" d="M1747.871,1490.972l.945.785a2.344,2.344,0,0,1,.422.459l-.946-.785a2.3,2.3,0,0,0-.421-.458" transform="translate(-1743.765 -1490.972)"/><path class="g" d="M1748.789,1491.971l.946.785a2.618,2.618,0,0,1,.456,1.427l-.945-.785a2.616,2.616,0,0,0-.457-1.427" transform="translate(-1744.262 -1491.512)"/><path class="h" d="M1749.267,1495.079l.945.785a3.125,3.125,0,0,1-.039.592,3.521,3.521,0,0,1-.4,1.147l-.946-.785a3.513,3.513,0,0,0,.4-1.147,3.188,3.188,0,0,0,.039-.592" transform="translate(-1744.283 -1493.194)"/><path class="g" d="M1747.491,1498.869l.946.785a3.794,3.794,0,0,1-1.135,1.263l-.946-.785a3.782,3.782,0,0,0,1.135-1.263" transform="translate(-1742.946 -1495.245)"/><path class="f" d="M1742.336,1501.621l.945.785a3.226,3.226,0,0,1-1.84.61,2.424,2.424,0,0,1-1.57-.546l-.945-.785a2.421,2.421,0,0,0,1.57.546,3.226,3.226,0,0,0,1.84-.609" transform="translate(-1738.926 -1496.734)"/></g></g></g><path class="i" d="M1740.427,1489.781a2.463,2.463,0,0,1,2.41,3.024,3.607,3.607,0,0,1-3.375,3.02,2.458,2.458,0,0,1-2.407-3.02A3.607,3.607,0,0,1,1740.427,1489.781Z" transform="translate(-1737.016 -1489.781)"/></g></g><path class="at" d="M1693.437,1527.715v-12.646h4.127a4.113,4.113,0,0,1,1.395.207,2.32,2.32,0,0,1,.925.586,2.248,2.248,0,0,1,.512.908,4.045,4.045,0,0,1,.157,1.155,6.492,6.492,0,0,1-.124,1.362,2.831,2.831,0,0,1-.372.949,1.849,1.849,0,0,1-.61.594,2.742,2.742,0,0,1-.826.313,2.4,2.4,0,0,1,1.676.685,2.635,2.635,0,0,1,.619,1.907,4.6,4.6,0,0,1-.817,3.029,3.277,3.277,0,0,1-2.617.95Zm3.533-1.089a1.686,1.686,0,0,0,1.411-.578,3.038,3.038,0,0,0,.454-1.865,7.334,7.334,0,0,0-.074-1.139,2.121,2.121,0,0,0-.248-.751.981.981,0,0,0-.47-.413,1.9,1.9,0,0,0-.727-.123h-1.832v4.87Zm.2-5.86a1.215,1.215,0,0,0,1.123-.57,3.351,3.351,0,0,0,.346-1.709,3.514,3.514,0,0,0-.322-1.775,1.219,1.219,0,0,0-1.114-.5h-1.717v4.556Zm8.188.924a2.176,2.176,0,0,0,.834-.141,1.245,1.245,0,0,0,.561-.47,2.294,2.294,0,0,0,.322-.875,7.811,7.811,0,0,0,.1-1.354,8.435,8.435,0,0,0-.082-1.3,2.367,2.367,0,0,0-.256-.809.937.937,0,0,0-.454-.413,1.832,1.832,0,0,0-.693-.115h-1.618v5.481Zm-3.335,6.026v-12.646h3.962a5.073,5.073,0,0,1,1.519.2,2.195,2.195,0,0,1,1.56,1.593,5.133,5.133,0,0,1,.174,1.412,10.731,10.731,0,0,1-.182,2.154,3.225,3.225,0,0,1-.611,1.4,2.377,2.377,0,0,1-1.13.759,5.642,5.642,0,0,1-1.742.231h-1.5v3.757c.009.908-.828,1.125-2.047,1.146Zm10.219-12.646v9.839a2.225,2.225,0,0,1-.4,1.494,1.725,1.725,0,0,1-1.345.454,1.547,1.547,0,0,1-1.263-.454,1.415,1.415,0,0,1-.238-.292c-.435-.624-1.261-.2-1.051.357a2.32,2.32,0,0,0,.5.752,3.291,3.291,0,0,0,2.4.726q3.433,0,3.434-3.153v-8.413c-.047-.963-1.333-1.369-2.031-1.31Zm4.086,10.508a2.086,2.086,0,0,0,.553.635,2.243,2.243,0,0,0,1.4.429,2.091,2.091,0,0,0,.76-.14,1.934,1.934,0,0,0,.635-.4,1.817,1.817,0,0,0,.43-.627,2.131,2.131,0,0,0,.156-.833,2.1,2.1,0,0,0-.116-.727,1.99,1.99,0,0,0-.313-.561,2.651,2.651,0,0,0-.47-.455q-.273-.205-.586-.421-.71-.462-1.312-.9a6.657,6.657,0,0,1-1.048-.933,3.927,3.927,0,0,1-.7-1.1,3.637,3.637,0,0,1-.255-1.428,3.692,3.692,0,0,1,.223-1.3,2.87,2.87,0,0,1,.66-1.032,3.09,3.09,0,0,1,1.065-.685,3.885,3.885,0,0,1,1.436-.248,3.294,3.294,0,0,1,1.816.487,2.382,2.382,0,0,1,1.009,1.316c.182.368-.756.821-1.041.264a1.65,1.65,0,0,0-.438-.49,1.76,1.76,0,0,0-1.081-.338,1.858,1.858,0,0,0-1.362.479,1.813,1.813,0,0,0-.487,1.354,1.911,1.911,0,0,0,.371,1.205,4.246,4.246,0,0,0,.925.866,12.42,12.42,0,0,0,1.2.743,7.123,7.123,0,0,1,1.205.826,4.121,4.121,0,0,1,.925,1.131,3.333,3.333,0,0,1,.371,1.651,3.832,3.832,0,0,1-.264,1.437,3.233,3.233,0,0,1-.759,1.139,3.5,3.5,0,0,1-1.214.751,4.562,4.562,0,0,1-1.626.272,3.669,3.669,0,0,1-2.055-.578,3.239,3.239,0,0,1-1.1-1.226C1714.9,1525.526,1716.01,1525,1716.326,1525.577Z" transform="translate(-1693.099 -1481.354)"/></svg>