<svg xmlns="http://www.w3.org/2000/svg" xmlns:xlink="http://www.w3.org/1999/xlink" width="34.137" height="43.927" viewBox="0 0 34.137 43.927"><defs><style>.a{fill:none;}.b{opacity:0.8;}.c{fill:#424242;opacity:0.5;}.d{isolation:isolate;}.e{clip-path:url(#a);}.f{fill:#8a5a15;}.g{clip-path:url(#b);}.h{fill:#855714;}.i{clip-path:url(#c);}.j{fill:#835614;}.k{fill:#faa425;}.l{clip-path:url(#d);}.m{fill:url(#e);}</style><clipPath id="a"><path class="a" d="M1908.677,1717.04l-.1.093-1.2-2.1.1-.092Z" transform="translate(-1907.376 -1714.94)"/></clipPath><clipPath id="b"><path class="a" d="M1935.294,1708.793l1.205,2.1a7.377,7.377,0,0,1,.489,1.047l-1.205-2.1A7.273,7.273,0,0,0,1935.294,1708.793Z" transform="translate(-1935.294 -1708.793)"/></clipPath><clipPath id="c"><path class="a" d="M1887.441,1741l1.2,2.1c-1.321-2.3-7.065-3.9-9.18-7.591l-1.2-2.1C1880.376,1737.094,1886.119,1738.693,1887.441,1741Z" transform="translate(-1878.261 -1733.407)"/></clipPath><clipPath id="d"><path class="a" d="M1915.859,1711.074l1.205,2.1c.056,8.909-13.784,13.857-17.392,18.024l-1.205-2.1C1902.076,1724.93,1915.915,1719.983,1915.859,1711.074Z" transform="translate(-1898.467 -1711.074)"/></clipPath><linearGradient id="e" y1="0.5" x2="1" y2="0.5" gradientUnits="objectBoundingBox"><stop offset="0" stop-color="#ffa726"/><stop offset="0" stop-color="#c3bb31"/><stop offset="0" stop-color="#3adf41"/><stop offset="0.614" stop-color="#32b07c"/><stop offset="1" stop-color="#2e979e"/></linearGradient></defs><g class="b" transform="translate(2.633 38.457)"><ellipse class="c" cx="14.491" cy="2.735" rx="14.491" ry="2.735"/></g><g transform="translate(3.064 0)"><g class="d"><g class="d" transform="translate(14.149 4.985)"><g class="e"><g class="d"><path class="f" d="M1907.472,1714.94l1.2,2.1-.1.093-1.2-2.1.1-.092" transform="translate(-1907.376 -1714.94)"/></g></g></g><g class="d" transform="translate(26.964 2.164)"><g class="g"><g class="d"><path class="h" d="M1935.294,1708.793l1.205,2.1a7.377,7.377,0,0,1,.489,1.047l-1.205-2.1a7.273,7.273,0,0,0-.489-1.047" transform="translate(-1935.294 -1708.793)"/></g></g></g><g class="d" transform="translate(0.786 13.462)"><g class="i"><g class="d"><path class="h" d="M1897.836,1749.357l1.2,2.1a3.134,3.134,0,0,0-.36-.5l-1.206-2.1a3.161,3.161,0,0,1,.36.5" transform="translate(-1888.656 -1741.767)"/><path class="f" d="M1888.044,1741.847l1.205,2.1c-1.575-1.809-5.7-3.286-8-5.949l-1.2-2.1c2.3,2.664,6.427,4.14,8,5.949" transform="translate(-1879.224 -1734.754)"/><path class="h" d="M1879.079,1734.55l1.2,2.1a7.372,7.372,0,0,1-.818-1.143l-1.2-2.1a7.357,7.357,0,0,0,.818,1.143" transform="translate(-1878.261 -1733.407)"/></g></g></g><g transform="translate(10.06 5.078)"><path class="j" d="M1902.556,1715.141l1.2,2.1-4.089,16.157-1.205-2.1Z" transform="translate(-1898.467 -1715.141)"/></g><g transform="translate(0 1.823)"><path class="k" d="M1884.383,1708.1c3.637-.447,6.037,2.608,6.411,3.118l-.1.092-4.089,16.157c-1.631-3.524-13.741-5.288-8.943-14.793C1880.175,1709.556,1882.453,1708.333,1884.383,1708.1Z" transform="translate(-1876.549 -1708.051)"/></g><g class="d" transform="translate(10.06 3.211)"><g class="l"><g class="d"><path class="h" d="M1932.268,1711.074l1.205,2.1c.018,2.873-1.408,5.334-3.471,7.489l-1.205-2.1c2.062-2.155,3.489-4.616,3.471-7.488" transform="translate(-1914.876 -1711.074)"/><path class="f" d="M1912.682,1727.389l1.205,2.1c-4.2,4.385-11.022,7.506-13.672,10.263l-1.2-2.1c2.65-2.757,9.477-5.878,13.672-10.263" transform="translate(-1898.761 -1719.901)"/><path class="h" d="M1898.716,1749.749l1.2,2.1q-.131.136-.249.272l-1.205-2.1c.078-.09.162-.181.249-.272" transform="translate(-1898.467 -1731.998)"/></g></g></g><g transform="translate(10.06)"><path class="k" d="M1911.136,1704.12c1.931-.237,3.707.489,4.723,3.169.056,8.909-13.783,13.856-17.392,18.024l4.089-16.157.1-.092C1903.332,1708.416,1907.506,1704.566,1911.136,1704.12Z" transform="translate(-1898.467 -1704.078)"/></g></g></g><g transform="translate(0 17.856)"><path class="m" d="M1877.877,1764.157v-.575c0-.044,0-.089,0-.133.017-.24.018-1.584-1.765-3.2-.052-.047-.1-.1-.151-.149l-4.134-4.5-.459-.5a2.4,2.4,0,0,1-.455-.719,4.23,4.23,0,0,1-.295-1.589c0-1.258-.593-7.4-.675-8.246-.006-.055-.012-.108-.021-.162-.07-.422-.364-2.693,1.851-.378a2.42,2.42,0,0,1,.5.8,21.756,21.756,0,0,1,1.519,6.5,2.539,2.539,0,0,0,.489,1.375l1.43,1.925a3.928,3.928,0,0,0,2.719,1.188c1.539.147-.73-2.527-1.75-3.657a2.456,2.456,0,0,1-.636-1.723c.031-.868.563-1.57,3.028.346a18.209,18.209,0,0,1,3.613,3.709,8.842,8.842,0,0,1,1.626,5.088l.046,5.7a1.365,1.365,0,0,1-1.434,1.4c-.671-.033-1.843-.067-2.889-.092A2.322,2.322,0,0,1,1877.877,1764.157Z" transform="translate(-1869.873 -1742.981)"/><path class="m" d="M1919.165,1764.157v-.575c0-.044,0-.089,0-.133-.016-.24-.018-1.584,1.765-3.2.052-.047.1-.1.151-.149l4.134-4.5.459-.5a2.4,2.4,0,0,0,.455-.719,4.22,4.22,0,0,0,.295-1.589c0-1.258.593-7.4.676-8.246.005-.055.012-.108.021-.162.07-.422.364-2.693-1.851-.378a2.421,2.421,0,0,0-.5.8,21.751,21.751,0,0,0-1.519,6.5,2.546,2.546,0,0,1-.489,1.375l-1.431,1.925a3.926,3.926,0,0,1-2.718,1.188c-1.539.147.73-2.527,1.75-3.657a2.456,2.456,0,0,0,.636-1.723c-.031-.868-.562-1.57-3.028.346a18.188,18.188,0,0,0-3.613,3.709,8.838,8.838,0,0,0-1.627,5.088l-.047,5.7a1.366,1.366,0,0,0,1.435,1.4c.67-.033,1.842-.067,2.889-.092A2.322,2.322,0,0,0,1919.165,1764.157Z" transform="translate(-1893.032 -1742.981)"/></g></svg>