<svg xmlns="http://www.w3.org/2000/svg" xmlns:xlink="http://www.w3.org/1999/xlink" width="33.603" height="47.001" viewBox="0 0 33.603 47.001"><defs><style>.a{fill:none;}.b{opacity:0.8;}.c{fill:#424242;opacity:0.5;}.d{isolation:isolate;}.e{fill:#936116;}.f{fill:#956116;}.g{clip-path:url(#a);}.h{fill:#855714;}.i{fill:#8a5a15;}.j{clip-path:url(#b);}.k{fill:#8f5e15;}.l{fill:#946116;}.m{fill:#825513;}.n{fill:#fba425;}.o{fill:#905e15;}.p{clip-path:url(#c);}.q{clip-path:url(#d);}.r{clip-path:url(#e);}.s{clip-path:url(#f);}.t{clip-path:url(#g);}.u{clip-path:url(#h);}.v{clip-path:url(#i);}.w{clip-path:url(#j);}.x{clip-path:url(#k);}.y{clip-path:url(#l);}.z{clip-path:url(#m);}.aa{clip-path:url(#n);}.ab{clip-path:url(#o);}.ac{fill:#fff;}.ad{fill:url(#p);}</style><clipPath id="a"><path class="a" d="M1895.46,976.451l1.328,1.049a1.367,1.367,0,0,0-.986-.166l-1.328-1.049A1.364,1.364,0,0,1,1895.46,976.451Z" transform="translate(-1894.474 -976.268)"/></clipPath><clipPath id="b"><path class="a" d="M1898.2,974.023l1.328,1.049.024.019a1.662,1.662,0,0,1,.4,1.838,3.586,3.586,0,0,1-.791,1.522,4.548,4.548,0,0,1-1.487,1.075l-1.328-1.049a4.539,4.539,0,0,0,1.487-1.075,3.586,3.586,0,0,0,.791-1.521,1.661,1.661,0,0,0-.4-1.838Z" transform="translate(-1896.344 -974.023)"/></clipPath><clipPath id="c"><path class="a" d="M1909.422,979.138l1.328,1.049a.913.913,0,0,0-.681-.144,1.838,1.838,0,0,0-1.352.744l-1.328-1.049a1.837,1.837,0,0,1,1.352-.744A.913.913,0,0,1,1909.422,979.138Z" transform="translate(-1907.389 -978.985)"/></clipPath><clipPath id="d"><path class="a" d="M1907.482,987.765l-1.328-1.049a.678.678,0,0,1-.228-.352l1.328,1.049A.682.682,0,0,0,1907.482,987.765Z" transform="translate(-1905.926 -986.364)"/></clipPath><clipPath id="e"><path class="a" d="M1915.3,976.508l1.328,1.049a1.354,1.354,0,0,1,.321.367l-1.328-1.049A1.354,1.354,0,0,0,1915.3,976.508Z" transform="translate(-1915.299 -976.508)"/></clipPath><clipPath id="f"><path class="a" d="M1917.518,973.289l1.328,1.049a2.056,2.056,0,0,0-.931-.391.432.432,0,0,1-.2-.082l-1.328-1.049a.43.43,0,0,0,.2.082A2.058,2.058,0,0,1,1917.518,973.289Z" transform="translate(-1916.385 -972.816)"/></clipPath><clipPath id="g"><path class="a" d="M1924.651,966.538l1.328,1.049a3.914,3.914,0,0,0-1.258-.655.838.838,0,0,1-.272-.14l-1.328-1.049a.817.817,0,0,0,.273.14A3.928,3.928,0,0,1,1924.651,966.538Z" transform="translate(-1923.121 -965.744)"/></clipPath><clipPath id="h"><path class="a" d="M1916,977.308l1.328,1.049a3.114,3.114,0,0,1,.09,2.355l-1.328-1.049A3.113,3.113,0,0,0,1916,977.308Z" transform="translate(-1915.998 -977.308)"/></clipPath><clipPath id="i"><path class="a" d="M1931.287,957.164l1.328,1.049a7.273,7.273,0,0,0-2.934-1.359.8.8,0,0,1-.322-.147l-1.328-1.049a.785.785,0,0,0,.322.148A7.283,7.283,0,0,1,1931.287,957.164Z" transform="translate(-1928.031 -955.658)"/></clipPath><clipPath id="j"><path class="a" d="M1906.97,986.953l-1.328-1.049a1.747,1.747,0,0,0,1.3.284,3.5,3.5,0,0,0,2.184-1.1,5.306,5.306,0,0,0,1.332-2.458l1.328,1.049a5.3,5.3,0,0,1-1.332,2.457,3.5,3.5,0,0,1-2.184,1.1A1.745,1.745,0,0,1,1906.97,986.953Z" transform="translate(-1905.642 -982.629)"/></clipPath><clipPath id="k"><path class="a" d="M1921.01,981.217l-1.328-1.049a.474.474,0,0,0,.3.087l1.328,1.049A.477.477,0,0,1,1921.01,981.217Z" transform="translate(-1919.682 -980.168)"/></clipPath><clipPath id="l"><path class="a" d="M1921.1,971.244l1.328,1.049c.89.7,1.08,1.948.43,3.414a1.507,1.507,0,0,1-1.1.765.832.832,0,0,1-.09.005l-1.328-1.049a.865.865,0,0,0,.09,0,1.51,1.51,0,0,0,1.1-.765C1922.177,973.192,1921.986,971.947,1921.1,971.244Z" transform="translate(-1920.334 -971.244)"/></clipPath><clipPath id="m"><path class="a" d="M1930.6,980.541l-1.328-1.049a.842.842,0,0,0,.431.167l1.328,1.049A.845.845,0,0,1,1930.6,980.541Z" transform="translate(-1929.27 -979.492)"/></clipPath><clipPath id="n"><path class="a" d="M1930.473,963.213l1.328,1.049c1.758,1.389,2.366,3.8,1.491,6.483a1.836,1.836,0,0,1-1.478,1.157,1.261,1.261,0,0,1-.276,0l-1.328-1.049a1.227,1.227,0,0,0,.276,0,1.835,1.835,0,0,0,1.477-1.157C1932.839,967.008,1932.231,964.6,1930.473,963.213Z" transform="translate(-1930.21 -963.213)"/></clipPath><clipPath id="o"><path class="a" d="M1939.331,954.68l1.328,1.049c2.93,2.314,3.828,6.428,2.079,10.962a1.9,1.9,0,0,1-1.484,1.132,1.231,1.231,0,0,1-.273,0,.845.845,0,0,1-.43-.168l-1.328-1.049a.838.838,0,0,0,.43.167,1.245,1.245,0,0,0,.274,0,1.905,1.905,0,0,0,1.484-1.132C1943.159,961.108,1942.261,956.994,1939.331,954.68Z" transform="translate(-1939.223 -954.68)"/></clipPath><linearGradient id="p" y1="0.5" x2="1" y2="0.5" gradientUnits="objectBoundingBox"><stop offset="0" stop-color="#ffa726"/><stop offset="0" stop-color="#c3bb31"/><stop offset="0" stop-color="#3adf5a"/><stop offset="0.512" stop-color="#33b87e"/><stop offset="1" stop-color="#2e979e"/></linearGradient></defs><g class="b" transform="translate(0 41.531)"><ellipse class="c" cx="14.491" cy="2.735" rx="14.491" ry="2.735"/></g><g transform="translate(3.367 0)"><g class="d" transform="translate(0 10.127)"><g transform="translate(3.09 1.646)"><path class="e" d="M1890.342,976.657l1.328,1.049-.663,2.6-1.328-1.049Z" transform="translate(-1889.679 -976.657)"/></g><g transform="translate(3.753 1.485)"><path class="f" d="M1892.661,976.3l1.328,1.049-1.538.162-1.328-1.049Z" transform="translate(-1891.123 -976.305)"/></g><g class="d" transform="translate(5.291 1.468)"><g class="g"><g class="d" transform="translate(0 0)"><path class="h" d="M1896.291,976.506l1.328,1.049a.781.781,0,0,0-.281-.135l-1.328-1.049a.765.765,0,0,1,.282.135" transform="translate(-1895.304 -976.324)"/><path class="i" d="M1895.178,976.315l1.328,1.049a1.971,1.971,0,0,0-.7-.03l-1.328-1.049a1.96,1.96,0,0,1,.7.03" transform="translate(-1894.474 -976.268)"/></g></g></g><g transform="translate(2.722 5.532)"><path class="f" d="M1890.4,985.122l1.328,1.049-1.528.161-1.328-1.049Z" transform="translate(-1888.876 -985.122)"/></g><g transform="translate(0 8.864)"><path class="f" d="M1884.859,992.383l1.328,1.049-1.913.2-1.328-1.049Z" transform="translate(-1882.946 -992.383)"/></g><g transform="translate(1.913 5.692)"><path class="e" d="M1887.923,985.472l1.328,1.049-.808,3.172-1.328-1.049Z" transform="translate(-1887.115 -985.472)"/></g><g class="d" transform="translate(6.15 0.437)"><g class="j"><g class="d"><path class="h" d="M1900.382,974.023l1.328,1.049.023.019a1.575,1.575,0,0,1,.443,1.654l-1.328-1.049a1.576,1.576,0,0,0-.443-1.654l-.023-.019" transform="translate(-1898.529 -974.023)"/><path class="i" d="M1901.039,977.668l1.328,1.049c-.012.06-.026.121-.042.183a3.874,3.874,0,0,1-.263.727l-1.328-1.049a3.88,3.88,0,0,0,.262-.727c.016-.062.03-.124.042-.184" transform="translate(-1898.719 -975.995)"/><path class="k" d="M1900.006,979.652l1.328,1.049a3.45,3.45,0,0,1-.528.795c-.029.033-.059.066-.091.1l-1.328-1.049c.031-.032.061-.065.09-.1a3.462,3.462,0,0,0,.529-.8" transform="translate(-1897.99 -977.068)"/><path class="l" d="M1898.319,981.6l1.328,1.049a4.274,4.274,0,0,1-.906.715l-1.328-1.049a4.277,4.277,0,0,0,.906-.715" transform="translate(-1896.922 -978.121)"/><path class="k" d="M1896.834,983.156l1.328,1.049q-.231.139-.49.262l-1.328-1.049q.259-.122.49-.261" transform="translate(-1896.344 -978.964)"/></g></g></g><g transform="translate(6.149 4.891)"><path class="m" d="M1896.343,983.725l1.328,1.049,1.108,3.33-1.328-1.049Z" transform="translate(-1896.343 -983.725)"/></g><g transform="translate(7.236 8.221)"><path class="e" d="M1898.732,990.981l1.328,1.049-.021.084-1.328-1.049Z" transform="translate(-1898.71 -990.981)"/></g><path class="n" d="M1889.1,977.961l1.108,3.33-.022.084-2.052.216-.933-2.989-1.528.161-.808,3.172-1.914.2,2.208-8.663,3.451-.363a3.2,3.2,0,0,1,2.367.417,1.661,1.661,0,0,1,.4,1.838,3.589,3.589,0,0,1-.791,1.522A4.539,4.539,0,0,1,1889.1,977.961Zm-.311-1.267a1.773,1.773,0,0,0,.636-.985.959.959,0,0,0-.127-.923,1.223,1.223,0,0,0-1.056-.23l-1.538.162-.663,2.6,1.544-.163a2.273,2.273,0,0,0,1.2-.461" transform="translate(-1882.946 -973.07)"/><g transform="translate(5.183 8.305)"><path class="f" d="M1896.291,991.164l1.328,1.049-2.053.216-1.328-1.049Z" transform="translate(-1894.238 -991.164)"/></g></g><g class="d" transform="translate(7.586)"><g transform="translate(3.885 11.71)"><path class="o" d="M1908.038,976.519l1.328,1.049-.1.623-1.328-1.049Z" transform="translate(-1907.939 -976.519)"/></g><g transform="translate(2.962 13.595)"><path class="e" d="M1906.6,980.625l1.328,1.049-.672,2.634-1.328-1.049Z" transform="translate(-1905.926 -980.625)"/></g><g class="d" transform="translate(3.633 12.842)"><g class="p"><g class="d" transform="translate(0 0)"><path class="h" d="M1911.531,979.177l1.328,1.049a.676.676,0,0,0-.243-.12l-1.328-1.049a.669.669,0,0,1,.244.12" transform="translate(-1909.498 -979.024)"/><path class="i" d="M1910.691,979.018l1.328,1.049a1.208,1.208,0,0,0-.437-.024l-.068.008L1910.186,979l.068-.008a1.193,1.193,0,0,1,.437.024" transform="translate(-1908.902 -978.985)"/><path class="k" d="M1909.288,979.022l1.328,1.049a1.964,1.964,0,0,0-.762.256l-1.328-1.049a1.962,1.962,0,0,1,.762-.257" transform="translate(-1908.004 -979.005)"/><path class="l" d="M1908.09,979.581l1.328,1.049a1.729,1.729,0,0,0-.37.3l-1.328-1.049a1.729,1.729,0,0,1,.37-.3" transform="translate(-1907.568 -979.307)"/><path class="k" d="M1907.541,980.23l1.328,1.049a1.929,1.929,0,0,0-.152.182l-1.328-1.049a1.869,1.869,0,0,1,.152-.181" transform="translate(-1907.389 -979.658)"/></g></g></g><g class="d" transform="translate(2.962 16.229)"><g class="q"><g class="d"><path class="h" d="M1905.926,986.364l1.328,1.049a.682.682,0,0,0,.228.352l-1.328-1.049a.678.678,0,0,1-.228-.352" transform="translate(-1905.926 -986.364)"/></g></g></g><g class="d" transform="translate(7.264 11.705)"><g class="r"><g class="d"><path class="h" d="M1915.3,976.508l1.328,1.049a1.354,1.354,0,0,1,.321.367l-1.328-1.049a1.354,1.354,0,0,0-.321-.367" transform="translate(-1915.299 -976.508)"/></g></g></g><g class="d" transform="translate(7.762 10.011)"><g class="s"><g class="d"><path class="h" d="M1918.031,973.446l1.328,1.049a1.931,1.931,0,0,0-.7-.339l-1.328-1.049a1.917,1.917,0,0,1,.7.339" transform="translate(-1916.898 -972.974)"/><path class="i" d="M1916.988,973.031l1.328,1.049c-.075-.02-.153-.038-.233-.052a.552.552,0,0,1-.059-.012l-1.328-1.049a.553.553,0,0,0,.058.012c.081.014.159.031.234.052" transform="translate(-1916.553 -972.898)"/><path class="h" d="M1916.528,972.885l1.328,1.049a.4.4,0,0,1-.143-.069l-1.328-1.049a.4.4,0,0,0,.143.069" transform="translate(-1916.385 -972.816)"/></g></g></g><g transform="translate(1.845 17.576)"><path class="e" d="M1904.267,989.3l1.328,1.049-.773,3.033-1.328-1.049Z" transform="translate(-1903.494 -989.297)"/></g><g transform="translate(0 20.608)"><path class="f" d="M1901.319,995.9l1.328,1.049-1.845.194-1.328-1.049Z" transform="translate(-1899.474 -995.905)"/></g><g class="d" transform="translate(10.854 6.765)"><g class="t"><g class="d"><path class="h" d="M1924.651,966.538l1.328,1.049a3.914,3.914,0,0,0-1.258-.655.838.838,0,0,1-.272-.14l-1.328-1.049a.817.817,0,0,0,.273.14,3.928,3.928,0,0,1,1.258.655" transform="translate(-1923.121 -965.744)"/></g></g></g><g class="d" transform="translate(7.585 12.073)"><g class="u"><g class="d"><path class="h" d="M1916,977.308l1.328,1.049a2.815,2.815,0,0,1,.169,2.007l-1.328-1.049a2.814,2.814,0,0,0-.17-2.007" transform="translate(-1915.998 -977.308)"/><path class="i" d="M1916.273,981.68l1.328,1.049c-.023.113-.049.228-.079.348l-1.328-1.049q.046-.179.08-.348" transform="translate(-1916.104 -979.673)"/></g></g></g><g transform="translate(7.652 14.427)"><path class="e" d="M1916.167,982.438l1.328,1.049-.022.088-1.328-1.049Z" transform="translate(-1916.145 -982.438)"/></g><g class="d" transform="translate(13.108 2.135)"><g class="v"><g class="d"><path class="h" d="M1932.085,957.443l1.328,1.049a7.14,7.14,0,0,0-2.578-1.27l-1.328-1.049a7.155,7.155,0,0,1,2.578,1.27" transform="translate(-1928.83 -955.937)"/><path class="i" d="M1929.039,956.057l1.328,1.049c-.117-.032-.236-.062-.356-.089l-.041-.01-1.328-1.049.041.01q.18.041.356.089" transform="translate(-1928.362 -955.82)"/><path class="h" d="M1928.311,955.8l1.328,1.049a.778.778,0,0,1-.281-.137l-1.328-1.049a.77.77,0,0,0,.28.138" transform="translate(-1928.031 -955.658)"/></g></g></g><g transform="translate(0 11.381)"><path class="n" d="M1907.058,976.492a3.112,3.112,0,0,1,.09,2.355l-.022.088a5.3,5.3,0,0,1-1.333,2.458,3.5,3.5,0,0,1-2.184,1.1,1.581,1.581,0,0,1-1.517-.5l-.773,3.033-1.845.194,2.271-8.912,1.713-.18-.1.623a3.267,3.267,0,0,1,1.939-.934A1.662,1.662,0,0,1,1907.058,976.492Zm-3.578,4.666q1.316-.138,1.832-2.154a2.071,2.071,0,0,0,.013-1.351.763.763,0,0,0-.867-.382,1.837,1.837,0,0,0-1.352.744l-.671,2.634c.118.4.466.571,1.045.51" transform="translate(-1899.474 -975.801)"/></g><g class="d" transform="translate(2.831 14.515)"><g class="w"><g class="d"><path class="i" d="M1915.664,982.629l1.328,1.049a6.039,6.039,0,0,1-.408,1.134l-1.328-1.049a6.017,6.017,0,0,0,.409-1.134" transform="translate(-1910.843 -982.629)"/><path class="k" d="M1914.227,985.1l1.328,1.049a4.965,4.965,0,0,1-.873,1.271l-1.328-1.049a4.947,4.947,0,0,0,.873-1.271" transform="translate(-1909.814 -983.966)"/><path class="l" d="M1912.35,987.868l1.328,1.049-.052.053a3.994,3.994,0,0,1-.8.64l-1.328-1.049a3.974,3.974,0,0,0,.8-.64l.051-.053" transform="translate(-1908.811 -985.463)"/><path class="k" d="M1909.982,989.379l1.328,1.049a3.328,3.328,0,0,1-1.288.45l-1.328-1.049a3.324,3.324,0,0,0,1.287-.45" transform="translate(-1907.294 -986.281)"/><path class="i" d="M1907.611,990.318l1.328,1.049-.1.011a2.248,2.248,0,0,1-.823-.047l-1.328-1.049a2.26,2.26,0,0,0,.823.047l.1-.011" transform="translate(-1906.21 -986.77)"/><path class="h" d="M1906.124,990l1.328,1.049a1.322,1.322,0,0,1-.482-.238l-1.328-1.049a1.336,1.336,0,0,0,.482.238" transform="translate(-1905.642 -986.49)"/></g></g></g><g class="d" transform="translate(9.275 13.385)"><g class="x"><g class="d"><path class="i" d="M1920.145,980.335l1.328,1.049a.635.635,0,0,1-.161-.02l-1.328-1.049a.613.613,0,0,0,.16.02" transform="translate(-1919.846 -980.248)"/><path class="h" d="M1919.821,980.235l1.328,1.049a.38.38,0,0,1-.139-.067l-1.328-1.049a.378.378,0,0,0,.139.067" transform="translate(-1919.682 -980.168)"/></g></g></g><g transform="translate(7.646 8.726)"><path class="n" d="M1917.48,970.025c1.959.324,2.677,1.933,1.774,3.968a1.51,1.51,0,0,1-1.1.765.869.869,0,0,1-.09,0c-.362,0-.5-.25-.362-.581.62-1.432.12-2.558-1.25-2.8-.324-.051-.412-.334-.2-.669a1.565,1.565,0,0,1,1.049-.693A.689.689,0,0,1,1917.48,970.025Z" transform="translate(-1916.133 -970.017)"/></g><g class="d" transform="translate(9.575 9.289)"><g class="y"><g class="d"><path class="h" d="M1921.995,971.244l1.328,1.049a2.352,2.352,0,0,1,.748,2.436l-1.328-1.049a2.35,2.35,0,0,0-.748-2.435" transform="translate(-1921.233 -971.244)"/><path class="i" d="M1923.233,976.55l1.328,1.049a4.7,4.7,0,0,1-.318.978l-.013.029-1.328-1.049.014-.029a4.683,4.683,0,0,0,.318-.978" transform="translate(-1921.723 -974.115)"/><path class="k" d="M1922.678,978.744l1.328,1.049a1.075,1.075,0,0,1-.19.267l-1.328-1.049a1.059,1.059,0,0,0,.19-.266" transform="translate(-1921.499 -975.302)"/><path class="l" d="M1922.09,979.324l1.328,1.049a1.651,1.651,0,0,1-.337.267l-1.329-1.049a1.629,1.629,0,0,0,.338-.268" transform="translate(-1921.101 -975.615)"/><path class="k" d="M1921.122,979.907l1.328,1.049a1.441,1.441,0,0,1-.534.2l-1.328-1.049a1.446,1.446,0,0,0,.534-.2" transform="translate(-1920.471 -975.931)"/><path class="i" d="M1920.451,980.341l1.328,1.049-.027,0a.864.864,0,0,1-.09.005l-1.328-1.049a.834.834,0,0,0,.09,0l.027,0" transform="translate(-1920.334 -976.166)"/></g></g></g><g class="d" transform="translate(13.676 13.075)"><g class="z"><g class="d"><path class="i" d="M1930.034,979.822l1.328,1.049a1.007,1.007,0,0,1-.149-.028l-1.328-1.049a1.034,1.034,0,0,0,.149.028" transform="translate(-1929.603 -979.655)"/><path class="h" d="M1929.552,979.631l1.328,1.049a.791.791,0,0,1-.282-.139l-1.328-1.049a.786.786,0,0,0,.282.139" transform="translate(-1929.27 -979.492)"/></g></g></g><g class="d" transform="translate(14.108 5.603)"><g class="aa"><g class="d"><path class="h" d="M1930.782,963.213l1.329,1.049a5.41,5.41,0,0,1,1.743,5.523l-1.328-1.049a5.408,5.408,0,0,0-1.744-5.522" transform="translate(-1930.519 -963.213)"/><path class="i" d="M1934.2,975.244l1.328,1.049a8.469,8.469,0,0,1-.252.96,1.3,1.3,0,0,1-.07.173l-1.328-1.049a1.276,1.276,0,0,0,.069-.174,8.313,8.313,0,0,0,.253-.96" transform="translate(-1932.195 -969.722)"/><path class="k" d="M1933.547,977.715l1.328,1.049a1.6,1.6,0,0,1-.283.4l-1.328-1.049a1.606,1.606,0,0,0,.283-.4" transform="translate(-1931.862 -971.059)"/><path class="l" d="M1932.777,978.593l1.328,1.049a1.965,1.965,0,0,1-.413.331l-1.328-1.049a1.983,1.983,0,0,0,.414-.331" transform="translate(-1931.375 -971.534)"/><path class="k" d="M1931.569,979.314l1.328,1.049a1.782,1.782,0,0,1-.673.245l-1.328-1.049a1.782,1.782,0,0,0,.673-.245" transform="translate(-1930.581 -971.924)"/><path class="i" d="M1930.525,979.847l1.328,1.049-.039.005a1.257,1.257,0,0,1-.276,0l-1.328-1.049a1.227,1.227,0,0,0,.276,0l.039,0" transform="translate(-1930.21 -972.212)"/></g></g></g><g transform="translate(10.582 4.625)"><path class="n" d="M1924.491,961.122c3.1.945,4.448,3.947,3.317,7.42a1.836,1.836,0,0,1-1.477,1.157,1.241,1.241,0,0,1-.276,0,.778.778,0,0,1-.644-1.108c.768-2.445-.171-4.546-2.337-5.23a.81.81,0,0,1-.415-1.238,1.926,1.926,0,0,1,1.422-1.035A1.04,1.04,0,0,1,1924.491,961.122Z" transform="translate(-1922.529 -961.082)"/></g><g transform="translate(12.846)"><path class="n" d="M1929.406,951.035c5.6,1.291,7.969,6.582,5.64,12.62a1.905,1.905,0,0,1-1.484,1.132,1.239,1.239,0,0,1-.274,0,.782.782,0,0,1-.617-1.163c1.914-4.951-.029-9.293-4.628-10.334-.546-.121-.739-.663-.451-1.249a1.92,1.92,0,0,1,1.43-1.027A1.14,1.14,0,0,1,1929.406,951.035Z" transform="translate(-1927.46 -951.006)"/></g><g class="d" transform="translate(18.245 1.686)"><g class="ab"><g class="d"><path class="h" d="M1939.458,954.68l1.328,1.049c2.432,1.921,3.465,5.083,2.744,8.7l-1.328-1.049c.721-3.614-.312-6.775-2.744-8.7" transform="translate(-1939.35 -954.68)"/><path class="i" d="M1944.6,973.627l1.328,1.049a13.781,13.781,0,0,1-.665,2.266c-.014.038-.031.075-.048.111L1943.882,976c.017-.037.034-.073.048-.111a13.847,13.847,0,0,0,.665-2.266" transform="translate(-1941.744 -964.93)"/><path class="k" d="M1943.522,978.8l1.328,1.049a1.73,1.73,0,0,1-.305.435l-1.328-1.049a1.717,1.717,0,0,0,.306-.435" transform="translate(-1941.383 -967.732)"/><path class="l" d="M1942.717,979.753l1.328,1.049a2.055,2.055,0,0,1-.424.339l-1.328-1.049a2.023,2.023,0,0,0,.424-.338" transform="translate(-1940.884 -968.245)"/><path class="k" d="M1941.506,980.49l1.328,1.049a1.782,1.782,0,0,1-.667.243l-1.328-1.049a1.766,1.766,0,0,0,.667-.243" transform="translate(-1940.097 -968.643)"/><path class="i" d="M1940.3,980.992l1.328,1.049-.039,0a1.231,1.231,0,0,1-.273,0,.991.991,0,0,1-.145-.028l-1.328-1.049a.943.943,0,0,0,.145.027,1.241,1.241,0,0,0,.274,0l.038,0" transform="translate(-1939.559 -968.902)"/><path class="h" d="M1939.508,980.8l1.328,1.049a.8.8,0,0,1-.285-.14l-1.328-1.049a.79.79,0,0,0,.285.14" transform="translate(-1939.223 -968.737)"/></g></g></g></g></g><rect class="ac" width="23.722" height="15.815" transform="translate(2.335 25.892)"/><path class="ad" d="M1902.649,1001.921h-20.7a2.568,2.568,0,0,0-2.575,2.588l-.013,15.529a2.579,2.579,0,0,0,2.588,2.588h20.7a2.579,2.579,0,0,0,2.588-2.588v-15.529A2.579,2.579,0,0,0,1902.649,1001.921Zm0,18.116h-20.7v-7.764h20.7Zm0-12.94h-20.7v-2.588h20.7Z" transform="translate(-1877.637 -978.551)"/></svg>