<svg xmlns="http://www.w3.org/2000/svg" xmlns:xlink="http://www.w3.org/1999/xlink" width="33.727" height="47.22" viewBox="0 0 33.727 47.22"><defs><style>.a{fill:none;}.b{opacity:0.8;}.c{fill:#424242;opacity:0.5;}.d{isolation:isolate;}.e{fill:#805413;}.f{fill:#825513;}.g{fill:#815513;}.h{fill:#828282;}.i{clip-path:url(#a);}.j{fill:#855714;}.k{fill:gray;}.l{fill:#815413;}.m{fill:#818181;}.n{fill:#f7f7f7;}.o{clip-path:url(#b);}.p{fill:#858585;}.q{clip-path:url(#c);}.r{clip-path:url(#d);}.s{clip-path:url(#e);}.t{clip-path:url(#f);}.u{fill:#f7a225;}.v{clip-path:url(#g);}.w{clip-path:url(#h);}.x{clip-path:url(#i);}.y{clip-path:url(#j);}.z{clip-path:url(#k);}.aa{clip-path:url(#l);}.ab{clip-path:url(#m);}.ac{clip-path:url(#n);}.ad{clip-path:url(#o);}.ae{clip-path:url(#p);}.af{clip-path:url(#q);}.ag{clip-path:url(#r);}.ah{fill:#fff;}.ai{fill:url(#s);}</style><clipPath id="a"><path class="a" d="M1880.907,2009.536l-.822-.783a1.508,1.508,0,0,0,1.08.405l.822.783A1.508,1.508,0,0,1,1880.907,2009.536Z" transform="translate(-1880.086 -2008.753)"/></clipPath><clipPath id="b"><path class="a" d="M1930.7,1974.949a1.262,1.262,0,0,0-1.187,1.09l-.822-.783a1.262,1.262,0,0,1,1.187-1.09Z" transform="translate(-1928.695 -1974.166)"/></clipPath><clipPath id="c"><path class="a" d="M1917.891,1986.629a.945.945,0,0,0,.271.811l-.822-.783a.942.942,0,0,1-.271-.811l.822.783-.822-.783a1.266,1.266,0,0,1,1.19-1.09l.822.783A1.266,1.266,0,0,0,1917.891,1986.629Z" transform="translate(-1917.061 -1984.756)"/></clipPath><clipPath id="d"><path class="a" d="M1932.762,1975.2a.92.92,0,0,0-.659-.247l-.1-.091-.1-.1-.106-.1-.108-.1-.107-.1-.106-.1-.1-.1-.1-.091a.918.918,0,0,1,.659.247Z" transform="translate(-1931.281 -1974.166)"/></clipPath><clipPath id="e"><path class="a" d="M1918.492,1989.679l-.822-.783a.918.918,0,0,0,.658.246l.822.783A.917.917,0,0,1,1918.492,1989.679Z" transform="translate(-1917.67 -1988.896)"/></clipPath><clipPath id="f"><path class="a" d="M1915.288,1998.637l-.012-.012-.013-.012-.013-.013-.013-.013-.014-.013-.013-.012-.013-.013-.012-.011-.084-.08-.089-.085-.093-.088-.094-.09-.359-.342a6.682,6.682,0,0,1-.485-.9l.822.783A6.762,6.762,0,0,0,1915.288,1998.637Z" transform="translate(-1913.982 -1996.953)"/></clipPath><clipPath id="g"><path class="a" d="M1916.034,1999.963a6.537,6.537,0,0,0,.692.861l-.822-.783a6.515,6.515,0,0,1-.693-.861C1915.459,1999.415,1915.814,1999.7,1916.034,1999.963Z" transform="translate(-1915.212 -1999.18)"/></clipPath><clipPath id="h"><path class="a" d="M1916.721,2001.056l.822.783.09.092-.822-.783Z" transform="translate(-1916.721 -2001.056)"/></clipPath><clipPath id="i"><path class="a" d="M1917.738,2002.039c.041.042.083.083.126.124l-.822-.783c-.043-.041-.085-.082-.126-.124C1917.163,2001.491,1917.495,2001.8,1917.738,2002.039Z" transform="translate(-1916.916 -2001.256)"/></clipPath><clipPath id="j"><path class="a" d="M1928.931,1974.648l.822.783a7.018,7.018,0,0,1,2.019,6.031,9.43,9.43,0,0,1-8.863,8.141,7.069,7.069,0,0,1-3.448-.8,6.489,6.489,0,0,1-1.448-1.04l-.821-.783a6.488,6.488,0,0,0,1.448,1.041,7.072,7.072,0,0,0,3.448.795,9.43,9.43,0,0,0,8.863-8.141A7.019,7.019,0,0,0,1928.931,1974.648Z" transform="translate(-1917.191 -1974.648)"/></clipPath><clipPath id="k"><path class="a" d="M1932.717,1974.7l.822.783a.939.939,0,0,1,.27.807l-.822-.783A.94.94,0,0,0,1932.717,1974.7Z" transform="translate(-1932.717 -1974.704)"/></clipPath><clipPath id="l"><path class="a" d="M1914.092,1995.769a6.907,6.907,0,0,0,.327.9l-.822-.783a6.962,6.962,0,0,1-.327-.9A4.817,4.817,0,0,1,1914.092,1995.769Z" transform="translate(-1913.27 -1994.986)"/></clipPath><clipPath id="m"><path class="a" d="M1915.859,1999.7l.08.122-.822-.783c-.027-.04-.054-.081-.08-.121l.718.684A1.178,1.178,0,0,1,1915.859,1999.7Z" transform="translate(-1915.038 -1998.915)"/></clipPath><clipPath id="n"><path class="a" d="M1927.245,1998.96l-.822-.783a.946.946,0,0,1-.27-.813l.822.783A.944.944,0,0,0,1927.245,1998.96Z" transform="translate(-1926.144 -1997.365)"/></clipPath><clipPath id="o"><path class="a" d="M1917.873,2005.149l.822.783a2.083,2.083,0,0,1-1.957,1.8l-.822-.783A2.083,2.083,0,0,0,1917.873,2005.149Z" transform="translate(-1915.917 -2005.149)"/></clipPath><clipPath id="p"><path class="a" d="M1940.865,1984.651l.822.783a.918.918,0,0,0-.659-.247l-.821-.783A.918.918,0,0,1,1940.865,1984.651Z" transform="translate(-1940.206 -1984.404)"/></clipPath><clipPath id="q"><path class="a" d="M1927.573,1998.918l-.822-.783a.914.914,0,0,0,.655.245,1.267,1.267,0,0,0,1.192-1.094l.822.783a1.267,1.267,0,0,1-1.191,1.094A.914.914,0,0,1,1927.573,1998.918Z" transform="translate(-1926.751 -1997.286)"/></clipPath><clipPath id="r"><path class="a" d="M1940.557,1984.942l.821.783a.938.938,0,0,1,.271.806,1.267,1.267,0,0,1-1.191,1.094l-.822-.783a1.268,1.268,0,0,0,1.191-1.094A.941.941,0,0,0,1940.557,1984.942Z" transform="translate(-1939.637 -1984.942)"/></clipPath><linearGradient id="s" y1="0.5" x2="1" y2="0.5" gradientUnits="objectBoundingBox"><stop offset="0" stop-color="#ffa726"/><stop offset="0" stop-color="#c3bb31"/><stop offset="0" stop-color="#3adf5a"/><stop offset="0.512" stop-color="#33b87e"/><stop offset="1" stop-color="#2e979e"/></linearGradient></defs><g class="b" transform="translate(0 41.75)"><ellipse class="c" cx="14.491" cy="2.735" rx="14.491" ry="2.735"/></g><g transform="translate(1.595 0)"><g class="d"><g transform="translate(3.375 12.244)"><path class="e" d="M1887.526,1997.322l.822.783-1.087.677-.822-.783Z" transform="translate(-1886.439 -1997.322)"/></g><g transform="translate(2.497 14.185)"><path class="f" d="M1884.684,2001.55l.822.783-.159,1.309-.822-.783Z" transform="translate(-1884.525 -2001.55)"/></g><g transform="translate(3.375 12.921)"><path class="f" d="M1886.439,1998.8l.822.783,1,1.61-.822-.783Z" transform="translate(-1886.439 -1998.797)"/></g><g transform="translate(2.656 14.185)"><path class="e" d="M1886.577,2001.92l.822.783-1.7-.37-.822-.783Z" transform="translate(-1884.872 -2001.55)"/></g><g transform="translate(4.361 14.531)"><path class="g" d="M1888.6,2002.305l.822.783-.014.023-.822-.783Z" transform="translate(-1888.586 -2002.305)"/></g><g transform="translate(4.462 12.244)"><path class="h" d="M1888.807,1997.322l.822.783.391,1.969-.822-.783Z" transform="translate(-1888.807 -1997.322)"/></g><g transform="translate(4.876 12.221)"><path class="f" d="M1890.6,1997.273l.822.783-.888,1.991-.822-.783Z" transform="translate(-1889.708 -1997.273)"/></g><g transform="translate(4.853 14.213)"><path class="e" d="M1889.681,2001.611l.822.783h-.023l-.822-.783Z" transform="translate(-1889.658 -2001.611)"/></g><g class="d" transform="translate(0.46 17.491)"><g class="i"><g class="d"><path class="j" d="M1881.166,2009.158l.822.783a1.508,1.508,0,0,1-1.081-.405l-.822-.783a1.508,1.508,0,0,0,1.08.405" transform="translate(-1880.086 -2008.753)"/></g></g></g><g transform="translate(2.497 15.086)"><path class="k" d="M1886.347,2003.514l.822.783-1.822.407-.822-.783Z" transform="translate(-1884.525 -2003.514)"/></g><g transform="translate(4.316 15.086)"><path class="f" d="M1888.491,2003.514l.822.783,0,.027-.822-.783Z" transform="translate(-1888.488 -2003.514)"/></g><g transform="translate(2.91 15.113)"><path class="l" d="M1886.83,2003.573l.822.783-1.406,1.636-.822-.783Z" transform="translate(-1885.424 -2003.573)"/></g><g transform="translate(5.764 12.221)"><path class="e" d="M1892.556,1997.9l.822.783-.913-.627-.822-.783Z" transform="translate(-1891.643 -1997.273)"/></g><g transform="translate(5.259 12.849)"><path class="m" d="M1891.961,1998.64l.822.783-1.417,1.667-.822-.783Z" transform="translate(-1890.543 -1998.64)"/></g><g transform="translate(5.259 14.516)"><path class="h" d="M1890.543,2002.272l.822.783,0,.039-.822-.783Z" transform="translate(-1890.543 -2002.272)"/></g><g transform="translate(4.697 15.389)"><path class="k" d="M1889.343,2004.175l.822.783-.025.012-.822-.783Z" transform="translate(-1889.318 -2004.175)"/></g><g transform="translate(5.174 15.083)"><path class="h" d="M1890.374,2003.507l.822.783-.016.039-.822-.783Z" transform="translate(-1890.358 -2003.507)"/></g><g transform="translate(3.8 15.401)"><path class="h" d="M1888.261,2004.2l.822.783-.9,2-.822-.783Z" transform="translate(-1887.364 -2004.201)"/></g><g transform="translate(2.91 16.749)"><path class="k" d="M1886.315,2007.792l.822.783-.891-.655-.822-.783Z" transform="translate(-1885.424 -2007.137)"/></g><g transform="translate(5.262 14.108)"><path class="e" d="M1892.4,2001.384l.822.783-1.85.446-.822-.783Z" transform="translate(-1890.55 -2001.384)"/></g><g transform="translate(8.509 12.156)"><path class="e" d="M1898.71,1997.13l.822.783-1.087.677-.822-.783Z" transform="translate(-1897.623 -1997.13)"/></g><g transform="translate(6.953 14.108)"><path class="h" d="M1894.392,2001.384l.822.783-.159,1.308-.822-.783Z" transform="translate(-1894.233 -2001.384)"/></g><g transform="translate(5.19 15.083)"><path class="k" d="M1892.156,2003.841l.822.783-1.763-.334-.822-.783Z" transform="translate(-1890.393 -2003.507)"/></g><g transform="translate(4.722 15.389)"><path class="f" d="M1889.372,2004.175l.822.783.4,1.992-.822-.783Z" transform="translate(-1889.372 -2004.175)"/></g><g transform="translate(5.174 15.122)"><path class="h" d="M1890.358,2003.592l.822.783,1.035,1.571-.822-.783Z" transform="translate(-1890.358 -2003.592)"/></g><g transform="translate(2.497 12.221)"><path class="n" d="M1887.792,1997.273l.913.628-1.418,1.667,0,.039,1.85-.446-.159,1.309-1.763-.334-.016.039,1.035,1.571-1.084.689-.4-1.992-.024.012-.9,2-.891-.655,1.406-1.636,0-.027-1.822.407.159-1.308,1.7.37.014-.024-1-1.61,1.087-.677.391,1.969h.023Z" transform="translate(-1884.525 -1997.273)"/></g><g transform="translate(5.125 16.693)"><path class="k" d="M1891.335,2007.014l.822.783-1.085.689-.822-.783Z" transform="translate(-1890.25 -2007.014)"/></g><g transform="translate(7.63 14.097)"><path class="f" d="M1895.868,2001.359l.822.783-.159,1.309-.822-.783Z" transform="translate(-1895.709 -2001.359)"/></g><g transform="translate(8.509 12.833)"><path class="f" d="M1897.623,1998.605l.822.783,1,1.61-.822-.783Z" transform="translate(-1897.623 -1998.605)"/></g><g transform="translate(9.494 14.443)"><path class="g" d="M1899.784,2002.114l.822.783-.014.023-.822-.783Z" transform="translate(-1899.769 -2002.114)"/></g><g transform="translate(7.79 14.097)"><path class="e" d="M1897.76,2001.729l.822.783-1.7-.37-.822-.783Z" transform="translate(-1896.056 -2001.359)"/></g><g transform="translate(9.596 12.156)"><path class="h" d="M1899.991,1997.13l.822.783.391,1.969-.822-.783Z" transform="translate(-1899.991 -1997.13)"/></g><g transform="translate(10.009 12.134)"><path class="f" d="M1901.776,1997.082l.822.783-.884,1.991-.822-.783Z" transform="translate(-1900.892 -1997.082)"/></g><g transform="translate(9.986 14.125)"><path class="e" d="M1900.865,2001.419l.822.783h-.023l-.822-.783Z" transform="translate(-1900.842 -2001.419)"/></g><g transform="translate(7.63 14.998)"><path class="k" d="M1897.531,2003.323l.822.783-1.822.407-.822-.783Z" transform="translate(-1895.709 -2003.323)"/></g><g transform="translate(9.449 14.998)"><path class="f" d="M1899.675,2003.323l.822.783,0,.027-.822-.783Z" transform="translate(-1899.671 -2003.323)"/></g><g transform="translate(8.043 15.025)"><path class="l" d="M1898.014,2003.382l.822.783-1.406,1.636-.822-.783Z" transform="translate(-1896.608 -2003.382)"/></g><g transform="translate(10.893 12.134)"><path class="e" d="M1903.735,1997.709l.822.783-.917-.628-.822-.783Z" transform="translate(-1902.818 -1997.082)"/></g><g transform="translate(10.389 12.761)"><path class="m" d="M1903.141,1998.448l.822.783-1.422,1.667-.822-.783Z" transform="translate(-1901.719 -1998.448)"/></g><g transform="translate(10.389 14.428)"><path class="h" d="M1901.719,2002.081l.822.783.007.038-.822-.783Z" transform="translate(-1901.719 -2002.081)"/></g><g transform="translate(9.83 15.301)"><path class="k" d="M1900.527,2003.983l.822.783-.025.012-.822-.783Z" transform="translate(-1900.502 -2003.983)"/></g><g transform="translate(10.308 14.995)"><path class="h" d="M1901.554,2003.316l.822.783-.012.039-.822-.783Z" transform="translate(-1901.542 -2003.316)"/></g><g transform="translate(8.043 16.661)"><path class="k" d="M1897.5,2007.6l.822.783-.891-.655-.822-.783Z" transform="translate(-1896.608 -2006.946)"/></g><g transform="translate(8.934 15.313)"><path class="h" d="M1899.445,2004.009l.822.783-.9,2-.822-.783Z" transform="translate(-1898.548 -2004.009)"/></g><g class="d" transform="translate(22.771 1.615)"><g class="o"><g class="d" transform="translate(0 0)"><path class="p" d="M1930.541,1974.413l.822.783a.92.92,0,0,0-.659-.247,1.262,1.262,0,0,0-1.187,1.09l-.822-.783a1.262,1.262,0,0,1,1.187-1.089.919.919,0,0,1,.659.247" transform="translate(-1928.695 -1974.166)"/></g></g></g><g transform="translate(10.396 14.02)"><path class="e" d="M1903.583,2001.193l.822.783-1.85.446-.822-.783Z" transform="translate(-1901.734 -2001.193)"/></g><g class="d" transform="translate(17.431 6.476)"><g class="q"><g class="d"><path class="p" d="M1918.26,1984.756l.822.783a1.266,1.266,0,0,0-1.191,1.09.944.944,0,0,0,.271.811l-.822-.783a.942.942,0,0,1-.271-.811,1.266,1.266,0,0,1,1.19-1.09" transform="translate(-1917.061 -1984.756)"/></g></g></g><g transform="translate(13.642 12.068)"><path class="e" d="M1909.893,1996.938l.822.783-1.087.677-.822-.783Z" transform="translate(-1908.806 -1996.938)"/></g><g class="d" transform="translate(23.958 1.615)"><g class="r"><g class="d" transform="translate(-1.187)"><path class="p" d="M1930.541,1974.413l.822.783a.92.92,0,0,0-.659-.247,1.262,1.262,0,0,0-1.187,1.09l-.822-.783a1.262,1.262,0,0,1,1.187-1.089.919.919,0,0,1,.659.247" transform="translate(-1928.695 -1974.166)"/></g></g></g><g class="d" transform="translate(17.71 8.376)"><g class="s"><g class="d"><path class="j" d="M1918.328,1989.143l.822.783a.917.917,0,0,1-.658-.247l-.822-.783a.918.918,0,0,0,.658.246" transform="translate(-1917.67 -1988.896)"/></g></g></g><g transform="translate(12.086 14.02)"><path class="h" d="M1905.576,2001.193l.822.783-.159,1.308-.822-.783Z" transform="translate(-1905.417 -2001.193)"/></g><g transform="translate(10.32 14.995)"><path class="k" d="M1903.335,2003.65l.822.783-1.766-.334-.822-.783Z" transform="translate(-1901.569 -2003.316)"/></g><g transform="translate(9.855 15.301)"><path class="f" d="M1900.555,2003.983l.822.783.4,1.992-.822-.783Z" transform="translate(-1900.555 -2003.983)"/></g><g transform="translate(10.308 15.034)"><path class="h" d="M1901.542,2003.4l.822.783,1.035,1.571-.822-.783Z" transform="translate(-1901.542 -2003.401)"/></g><g transform="translate(10.258 16.605)"><path class="k" d="M1902.519,2006.823l.822.783-1.085.689-.822-.783Z" transform="translate(-1901.434 -2006.823)"/></g><g transform="translate(12.764 14.009)"><path class="f" d="M1907.052,2001.167l.822.783-.159,1.308-.822-.783Z" transform="translate(-1906.893 -2001.167)"/></g><g transform="translate(12.923 14.009)"><path class="e" d="M1908.959,2001.514l.822.783-1.719-.346-.822-.783Z" transform="translate(-1907.24 -2001.167)"/></g><g transform="translate(14.729 12.068)"><path class="h" d="M1911.175,1996.938l.822.783.391,1.969-.822-.783Z" transform="translate(-1911.175 -1996.938)"/></g><g transform="translate(12.764 14.91)"><path class="k" d="M1908.715,2003.131l.822.783-1.822.407-.822-.783Z" transform="translate(-1906.893 -2003.131)"/></g><g transform="translate(13.176 14.91)"><path class="l" d="M1909.2,2003.131l.822.783-1.409,1.663-.822-.783Z" transform="translate(-1907.792 -2003.131)"/></g><g transform="translate(15.143 12.074)"><path class="f" d="M1912.951,1996.953l.822.783-.875,1.962-.822-.783Z" transform="translate(-1912.076 -1996.953)"/></g><g transform="translate(15.522 13.097)"><path class="m" d="M1913.963,1999.18l.822.783-1.06,1.243-.822-.783Z" transform="translate(-1912.903 -1999.18)"/></g><g class="d" transform="translate(16.018 12.075)"><g class="t"><g class="d"><path class="p" d="M1913.982,1996.953l.822.783a6.689,6.689,0,0,0,.565,1.022l-.822-.783a6.724,6.724,0,0,1-.565-1.022" transform="translate(-1913.982 -1996.953)"/></g></g></g><g transform="translate(15.522 13.097)"><path class="u" d="M1912.91,2000.462l-.007-.039,1.06-1.244a6.515,6.515,0,0,0,.693.861Z" transform="translate(-1912.903 -1999.18)"/></g><g transform="translate(15.522 14.34)"><path class="h" d="M1912.9,2001.889l.822.783.007.039-.822-.783Z" transform="translate(-1912.903 -2001.889)"/></g><g transform="translate(15.441 14.907)"><path class="h" d="M1912.738,2003.124l.822.783-.012.039-.822-.783Z" transform="translate(-1912.725 -2003.124)"/></g><g transform="translate(13.176 16.573)"><path class="k" d="M1908.682,2007.409l.822.783-.891-.655-.822-.783Z" transform="translate(-1907.792 -2006.754)"/></g><g transform="translate(14.067 15.225)"><path class="h" d="M1910.629,2003.817l.822.783-.9,2-.822-.783Z" transform="translate(-1909.732 -2003.817)"/></g><g class="d" transform="translate(16.582 13.097)"><g class="v"><g class="d"><path class="j" d="M1915.212,1999.18l.822.783a6.537,6.537,0,0,0,.692.861l-.822-.783a6.515,6.515,0,0,1-.693-.861" transform="translate(-1915.212 -1999.18)"/></g></g></g><g transform="translate(15.529 13.958)"><path class="e" d="M1914.663,2001.056l.822.783-1.746.421-.822-.783Z" transform="translate(-1912.917 -2001.056)"/></g><g class="d" transform="translate(17.275 13.958)"><g class="w"><g class="d"><path class="p" d="M1916.721,2001.056l.822.783.09.092-.822-.783-.09-.092" transform="translate(-1916.721 -2001.056)"/></g></g></g><g transform="translate(17.219 14.05)"><path class="h" d="M1916.746,2001.256l.822.783-.145,1.191-.822-.783Z" transform="translate(-1916.601 -2001.256)"/></g><g class="d" transform="translate(17.364 14.05)"><g class="x"><g class="d"><path class="j" d="M1916.916,2001.256l.822.783c.041.042.083.083.126.124l-.822-.783c-.043-.041-.085-.082-.126-.124" transform="translate(-1916.916 -2001.256)"/></g></g></g><g transform="translate(15.453 14.907)"><path class="k" d="M1914.519,2003.458l.822.783-1.766-.334-.822-.783Z" transform="translate(-1912.753 -2003.124)"/></g><g transform="translate(14.964 15.225)"><path class="f" d="M1911.686,2003.817l.822.783.427,1.98-.822-.783Z" transform="translate(-1911.686 -2003.817)"/></g><g transform="translate(15.391 16.517)"><path class="k" d="M1913.7,2006.631l.822.783-1.084.689-.822-.783Z" transform="translate(-1912.617 -2006.631)"/></g><g transform="translate(15.441 14.946)"><path class="h" d="M1912.725,2003.209l.822.783,1.035,1.571-.822-.783Z" transform="translate(-1912.725 -2003.209)"/></g><g class="d" transform="translate(17.49 1.837)"><g class="y"><g class="d"><path class="p" d="M1928.931,1974.648l.822.783a7.018,7.018,0,0,1,2.019,6.031,9.43,9.43,0,0,1-8.863,8.141,7.069,7.069,0,0,1-3.448-.8,6.489,6.489,0,0,1-1.448-1.04l-.821-.783a6.488,6.488,0,0,0,1.448,1.041,7.072,7.072,0,0,0,3.448.795,9.43,9.43,0,0,0,8.863-8.141,7.019,7.019,0,0,0-2.019-6.031" transform="translate(-1917.191 -1974.648)"/></g></g></g><g transform="translate(0 11.172)"><path class="u" d="M1896.449,1997.864a6.493,6.493,0,0,0,1.574,1.164l-.076.623a2.082,2.082,0,0,1-1.956,1.8l-15.366.263a1.491,1.491,0,0,1-1.526-1.736l.36-2.962a2.083,2.083,0,0,1,1.957-1.8l13.36-.229a6.961,6.961,0,0,0,.327.9l-.875,1.962-.414-1.969-1.087.677,1,1.61-1.719-.346-.159,1.309,1.822-.407-1.409,1.663.89.655.9-2,.428,1.98,1.084-.689-1.035-1.571,1.779.3Zm-5.278,1.279.159-1.308-1.85.446-.007-.038,1.422-1.668-.917-.627-.884,1.991h-.023l-.391-1.969-1.087.677,1,1.61-.014.024-1.7-.37-.159,1.308,1.822-.407,0,.027-1.406,1.636.89.655.9-2,.024-.012.4,1.992,1.085-.688-1.035-1.571.012-.039,1.766.334m-5.133.088.159-1.308-1.85.446,0-.039,1.418-1.667-.913-.627-.888,1.991h-.023l-.391-1.969-1.087.677,1,1.61-.014.023-1.7-.37-.159,1.309,1.822-.407,0,.027-1.406,1.636.891.655.9-2,.025-.012.4,1.993,1.084-.689-1.035-1.57.016-.039,1.763.334" transform="translate(-1879.085 -1994.986)"/></g><g transform="translate(7.63 12.134)"><path class="n" d="M1898.972,1997.082l.917.628-1.421,1.667.007.039,1.85-.446-.159,1.308-1.766-.334-.012.039,1.035,1.571-1.085.689-.4-1.992-.024.012-.9,2-.891-.655,1.406-1.636,0-.027-1.822.407.159-1.308,1.7.37.014-.023-1-1.61,1.087-.677.391,1.969h.023Z" transform="translate(-1895.709 -1997.082)"/></g><g class="d" transform="translate(24.617 1.862)"><g class="z"><g class="d"><path class="j" d="M1932.717,1974.7l.822.783a.939.939,0,0,1,.27.807l-.822-.783a.94.94,0,0,0-.271-.807" transform="translate(-1932.717 -1974.704)"/></g></g></g><g class="d" transform="translate(15.691 11.172)"><g class="aa"><g class="d"><path class="j" d="M1913.27,1994.986l.822.783a6.907,6.907,0,0,0,.327.9l-.822-.783a6.962,6.962,0,0,1-.327-.9" transform="translate(-1913.27 -1994.986)"/></g></g></g><g transform="translate(13.642 12.745)"><path class="f" d="M1908.806,1998.414l.822.783,1,1.61-.822-.783Z" transform="translate(-1908.806 -1998.414)"/></g><g transform="translate(18.63 6.413)"><path class="k" d="M1923.363,1984.618l.822.783-3.69.063-.822-.783Z" transform="translate(-1919.673 -1984.618)"/></g><g transform="translate(22.32 2.705)"><path class="h" d="M1928.164,1976.54l.822.783-.451,3.708-.822-.783Z" transform="translate(-1927.713 -1976.54)"/></g><g class="d" transform="translate(16.502 12.975)"><g class="ab"><g class="d" transform="translate(-0.485 -0.901)"><path class="p" d="M1913.982,1996.953l.822.783a6.689,6.689,0,0,0,.565,1.022l-.822-.783a6.724,6.724,0,0,1-.565-1.022" transform="translate(-1913.982 -1996.953)"/></g></g></g><g transform="translate(14.964 15.213)"><path class="k" d="M1911.711,2003.791l.822.783-.024.012-.822-.783Z" transform="translate(-1911.686 -2003.791)"/></g><g transform="translate(18.368 8.56)"><path class="e" d="M1922.794,1989.3l.822.783-3.69.063-.822-.783Z" transform="translate(-1919.104 -1989.296)"/></g><g transform="translate(22.32 6.377)"><path class="e" d="M1929.829,1984.539l.822.783-2.117.036-.822-.783Z" transform="translate(-1927.713 -1984.539)"/></g><g transform="translate(22.32 1.615)"><path class="u" d="M1929.351,1974.166a.906.906,0,0,1,.93,1.053l-.451,3.708-2.117.036.451-3.708A1.262,1.262,0,0,1,1929.351,1974.166Z" transform="translate(-1927.713 -1974.166)"/></g><g transform="translate(24.437 2.669)"><path class="f" d="M1932.776,1976.461l.822.783-.451,3.708-.822-.783Z" transform="translate(-1932.325 -1976.461)"/></g><g transform="translate(12.764 12.068)"><path class="n" d="M1908.858,1996.938l.391,1.97h.023l.875-1.962a6.676,6.676,0,0,0,.564,1.022l-1.06,1.243.007.039,1.745-.421.09.092-.145,1.192-1.766-.334-.012.039,1.035,1.571-1.084.689-.4-1.992-.024.012-.9,2-.891-.655,1.406-1.636,0-.027-1.822.407.159-1.309,1.7.37.015-.023-1-1.61Z" transform="translate(-1906.893 -1996.938)"/></g><g transform="translate(22.059 8.524)"><path class="e" d="M1929.26,1989.217l.822.783-2.117.036-.822-.783Z" transform="translate(-1927.143 -1989.217)"/></g><g transform="translate(21.608 8.56)"><path class="h" d="M1926.612,1989.3l.822.783-.451,3.7-.822-.783Z" transform="translate(-1926.162 -1989.296)"/></g><g transform="translate(1.54 17.633)"><path class="e" d="M1897.806,2009.063l.822.783-15.366.263-.822-.783Z" transform="translate(-1882.44 -2009.063)"/></g><g transform="translate(18.862 15.214)"><path class="f" d="M1920.255,2003.792l.822.783-.076.623-.822-.783Z" transform="translate(-1920.18 -2003.792)"/></g><g transform="translate(24.437 6.315)"><path class="k" d="M1935.942,1984.4l.822.783-3.617.062-.822-.783Z" transform="translate(-1932.325 -1984.404)"/></g><g class="d" transform="translate(21.6 12.264)"><g class="ac"><g class="d"><path class="p" d="M1926.152,1997.365l.822.783a.944.944,0,0,0,.271.812l-.822-.783a.946.946,0,0,1-.27-.813" transform="translate(-1926.144 -1997.365)"/></g></g></g><g class="d" transform="translate(16.906 15.836)"><g class="ad"><g class="d"><path class="j" d="M1917.873,2005.149l.822.783a2.083,2.083,0,0,1-1.957,1.8l-.822-.783a2.083,2.083,0,0,0,1.956-1.8" transform="translate(-1915.917 -2005.149)"/></g></g></g><g class="d" transform="translate(28.054 6.314)"><g class="ae"><g class="d"><path class="p" d="M1940.865,1984.651l.822.783a.918.918,0,0,0-.659-.247l-.821-.783a.918.918,0,0,1,.659.247" transform="translate(-1940.206 -1984.404)"/></g></g></g><g transform="translate(23.725 8.524)"><path class="f" d="M1931.224,1989.217l.822.783-.451,3.7-.822-.783Z" transform="translate(-1930.774 -1989.217)"/></g><g transform="translate(24.175 8.462)"><path class="e" d="M1935.373,1989.082l.822.783-3.617.062-.822-.783Z" transform="translate(-1931.755 -1989.082)"/></g><g class="d" transform="translate(21.878 12.227)"><g class="af"><g class="d"><path class="j" d="M1928.6,1997.286l.822.783a1.267,1.267,0,0,1-1.191,1.094.914.914,0,0,1-.655-.245l-.822-.783a.914.914,0,0,0,.655.245,1.267,1.267,0,0,0,1.192-1.094" transform="translate(-1926.751 -1997.286)"/></g></g></g><g transform="translate(21.6 8.524)"><path class="u" d="M1926.152,1992.957l.45-3.7,2.117-.036-.45,3.7a1.267,1.267,0,0,1-1.192,1.094A.9.9,0,0,1,1926.152,1992.957Z" transform="translate(-1926.144 -1989.217)"/></g><g class="d" transform="translate(27.793 6.562)"><g class="ag"><g class="d"><path class="j" d="M1940.557,1984.942l.821.783a.938.938,0,0,1,.271.806,1.267,1.267,0,0,1-1.191,1.094l-.822-.783a1.268,1.268,0,0,0,1.191-1.094.941.941,0,0,0-.271-.807" transform="translate(-1939.637 -1984.942)"/></g></g></g><g transform="translate(17.431 6.314)"><path class="u" d="M1927.685,1984.4a.906.906,0,0,1,.93,1.053,1.267,1.267,0,0,1-1.191,1.094l-3.618.062-2.117.036-3.69.063a.907.907,0,0,1-.93-1.057,1.265,1.265,0,0,1,1.191-1.09l3.691-.063,2.117-.036Z" transform="translate(-1917.061 -1984.404)"/></g><g transform="translate(15.41)"><path class="n" d="M1921.582,1970.648a6.751,6.751,0,0,1,6.916,7.867,9.43,9.43,0,0,1-8.864,8.141,7.07,7.07,0,0,1-3.448-.795,6.485,6.485,0,0,1-1.574-1.164l-.09-.092a6.542,6.542,0,0,1-.693-.861,6.73,6.73,0,0,1-.564-1.022,6.989,6.989,0,0,1-.327-.9,7.655,7.655,0,0,1-.22-3.033A9.429,9.429,0,0,1,1921.582,1970.648Zm3.459,8.461a1.267,1.267,0,0,0,1.191-1.094.906.906,0,0,0-.93-1.054l-3.617.062.451-3.708a.906.906,0,0,0-.93-1.054,1.262,1.262,0,0,0-1.187,1.09l-.451,3.708-3.69.063a1.266,1.266,0,0,0-1.19,1.09.907.907,0,0,0,.929,1.057l3.69-.063-.45,3.7a.9.9,0,0,0,.925,1.057,1.267,1.267,0,0,0,1.192-1.094l.45-3.7,3.618-.062" transform="translate(-1912.659 -1970.647)"/></g></g></g><rect class="ah" width="21.841" height="17.342" transform="translate(3.365 25.73)"/><path class="ai" d="M1902.2,2022.554h-20.7a2.568,2.568,0,0,0-2.575,2.589l-.013,15.529a2.579,2.579,0,0,0,2.588,2.588h20.7a2.579,2.579,0,0,0,2.589-2.588v-15.529A2.58,2.58,0,0,0,1902.2,2022.554Zm0,18.117h-20.7v-7.764h20.7Zm0-12.94h-20.7v-2.588h20.7Z" transform="translate(-1877.396 -1998.729)"/></svg>