<svg xmlns="http://www.w3.org/2000/svg" xmlns:xlink="http://www.w3.org/1999/xlink" width="33.682" height="56.161" viewBox="0 0 33.682 56.161"><defs><style>.a{fill:#424242;opacity:0.5;}.b{fill:#fff;}.c{fill:url(#a);}.d{fill:url(#e);}.e{fill:url(#f);}.f{fill:none;stroke:#33b674;stroke-miterlimit:10;stroke-width:2px;}.g{fill:#ffa726;}</style><linearGradient id="a" y1="0.5" x2="1" y2="0.5" gradientUnits="objectBoundingBox"><stop offset="0" stop-color="#ffa726"/><stop offset="0" stop-color="#c3bb31"/><stop offset="0" stop-color="#3adf41"/><stop offset="0.614" stop-color="#32b07c"/><stop offset="1" stop-color="#2e979e"/></linearGradient><linearGradient id="e" x1="0" y1="0.5" x2="1" y2="0.5" xlink:href="#a"/><linearGradient id="f" x1="0" y1="0.5" x2="1" y2="0.5" xlink:href="#a"/></defs><g transform="translate(-139.129 -367.182)"><ellipse class="a" cx="15.681" cy="2.96" rx="15.681" ry="2.96" transform="translate(141.449 417.424)"/><g transform="translate(139.129 401.681)"><path class="b" d="M299.664,2197.426s-3.879,3.5-4.453,8.339a.657.657,0,0,0,.318.644l2.735,1.61a.731.731,0,0,1,.082.058.8.8,0,0,0,1.364-.355,20.127,20.127,0,0,1,4.126-7.5l.024-.027a.773.773,0,0,0-.226-1.287c-.882-.539-2.606-1.48-2.827-1.6l-.035-.021A.89.89,0,0,0,299.664,2197.426Z" transform="translate(-295.207 -2196.193)"/><g transform="translate(5.753 3.942)"><path class="b" d="M334.268,2228.089c2.049.07,1.991-1.409,1.991-1.409l-2.248-1.543Z" transform="translate(-320.491 -2214.22)"/><path class="b" d="M333.693,2221.5l2.248,1.542c2.445.128,1.618-2.264,1.618-2.264l-4.18-2.871Z" transform="translate(-320.173 -2210.58)"/><path class="b" d="M325.633,2210.925l-5.962-3.889-2.574-3.481a2.448,2.448,0,0,0-2.969.2,4.25,4.25,0,0,1-3.819.3c-1.631,1.49-2.679,4.634-3.307,6.049s.34,1.965.34,1.965l1.118.8s9.592,5.307,10.523,5.633c1.025.081,1.584-1.479,1.584-1.479l-1.921-1.13,1.921,1.13-.257-2.952-.977-.67.977.67-.313-3.592,4.18,2.871.023.017s1.386.3,1.875-.652A1.6,1.6,0,0,0,325.633,2210.925Z" transform="translate(-306.79 -2203.157)"/></g><g transform="translate(7.081 0)"><path class="c" d="M348.239,2195.416a13.979,13.979,0,0,1,4.894,7.3.611.611,0,0,1-.234.625l-2.379,1.744a.592.592,0,0,0-.071.061.744.744,0,0,1-1.295-.2,18.7,18.7,0,0,0-4.514-6.551l-.025-.022a.719.719,0,0,1,.089-1.211c.765-.581,2.272-1.611,2.465-1.743l.03-.022A.827.827,0,0,1,348.239,2195.416Z" transform="translate(-327.007 -2195.219)"/><path class="c" d="M332.784,2210.894a7.61,7.61,0,0,0,1.812-1.367,5.037,5.037,0,0,1,1.519-1.117s-1.572-4-4-5.31a2.709,2.709,0,0,1-1.467.157,29.916,29.916,0,0,0-4.349-.28c-.751.122-1.555-.174-2.55.594a4.047,4.047,0,0,1-1.537.594.938.938,0,0,0-.821.873,6.123,6.123,0,0,1-.751,1.887s-.541,1.589,1.223,1.1a2.22,2.22,0,0,0,1.572-1.38,2.313,2.313,0,0,1,2.847.139C327.033,2207.413,332.784,2210.894,332.784,2210.894Z" transform="translate(-315.05 -2199.109)"/><path class="c" d="M324.417,2231.195a1.6,1.6,0,0,1-2.063.085,1.293,1.293,0,0,1-.363-1.953s.687-.567,1.839.157.831,1.176.831,1.176A1.422,1.422,0,0,1,324.417,2231.195Z" transform="translate(-315.614 -2212.28)"/><path class="c" d="M319.168,2228.555a1.607,1.607,0,0,1-2.028.042,1.215,1.215,0,0,1-.334-1.871s.682-.528,1.806.187.8,1.138.8,1.138A1.332,1.332,0,0,1,319.168,2228.555Z" transform="translate(-313.001 -2210.982)"/><path class="d" d="M314.282,2226.254a1.327,1.327,0,0,1-1.7-.109,1.053,1.053,0,0,1-.133-1.619s.61-.4,1.493.287.582,1.028.582,1.028A1.15,1.15,0,0,1,314.282,2226.254Z" transform="translate(-310.8 -2209.912)"/><path class="e" d="M311.012,2223.756a.937.937,0,0,1-1.2-.039.744.744,0,0,1-.13-1.14s.422-.3,1.061.169.435.713.435.713A.82.82,0,0,1,311.012,2223.756Z" transform="translate(-309.464 -2208.942)"/></g></g><g transform="translate(141.079 368.196)"><path class="f" d="M299.635,2127.808h22.632s4.914.279,4.914,4.592v22.263h-8.608a8.212,8.212,0,0,0-6.312,2.678c-2.583,2.957-7.066,3.166-7.066,3.166v-5.6s-6.061.974-6.061-4.418V2127.8Z" transform="translate(-299.133 -2127.801)"/><path class="g" d="M331.527,2151.546a5.119,5.119,0,0,0,3.352-8.828l.019-.016a2.188,2.188,0,0,0,.482-1.927,6.466,6.466,0,0,1-3.233.6,5.12,5.12,0,1,0-.619,10.175Zm-.073-2.456a2.681,2.681,0,1,1,2.588-2.77A2.681,2.681,0,0,1,331.455,2149.09Z" transform="translate(-312.773 -2134.331)"/><path class="b" d="M313.4,2141.453a5.12,5.12,0,0,0-5.028,6.085,6.462,6.462,0,0,1-.486,3.251,2.188,2.188,0,0,0,1.91-.547.239.239,0,0,0,.015-.02,5.12,5.12,0,1,0,3.59-8.77Zm-.018,7.812a2.681,2.681,0,1,1,2.681-2.681A2.681,2.681,0,0,1,313.382,2149.265Z" transform="translate(-303.539 -2134.672)"/></g></g></svg>