<svg xmlns="http://www.w3.org/2000/svg" xmlns:xlink="http://www.w3.org/1999/xlink" width="32.454" height="48.605" viewBox="0 0 32.454 48.605"><defs><style>.a{fill:none;}.b{opacity:0.8;}.c{fill:#424242;opacity:0.5;}.d{fill:#fff;}.e{fill:url(#a);}.f{isolation:isolate;}.g{clip-path:url(#b);}.h{fill:#856200;}.i{fill:#846100;}.j{clip-path:url(#c);}.k{fill:#8a6600;}.l{fill:#8f6900;}.m{fill:#946d00;}.n{fill:#f9b700;}.o{clip-path:url(#d);}.p{clip-path:url(#e);}.q{clip-path:url(#f);}.r{clip-path:url(#g);}.s{clip-path:url(#h);}.t{clip-path:url(#i);}</style><linearGradient id="a" x1="-0.127" y1="0.196" x2="1.127" y2="0.804" gradientUnits="objectBoundingBox"><stop offset="0" stop-color="#ffa726"/><stop offset="0" stop-color="#c3bb31"/><stop offset="0" stop-color="#3adf41"/><stop offset="0.614" stop-color="#32b07c"/><stop offset="1" stop-color="#2e979e"/></linearGradient><clipPath id="b"><path class="a" d="M1749.749,713.19l.717,1.158a1.773,1.773,0,0,1,.239,1.107l-.717-1.158A1.777,1.777,0,0,0,1749.749,713.19Z" transform="translate(-1749.749 -713.19)"/></clipPath><clipPath id="c"><path class="a" d="M1740.863,741.622l-.717-1.158a1.555,1.555,0,0,0,1.527.708,2.512,2.512,0,0,0,2.136-2.21l.717,1.158a2.511,2.511,0,0,1-2.136,2.21A1.555,1.555,0,0,1,1740.863,741.622Z" transform="translate(-1740.146 -738.962)"/></clipPath><clipPath id="d"><path class="a" d="M1762.529,703.081l.717,1.158a1.41,1.41,0,0,1,.2.883l-.718-1.158A1.411,1.411,0,0,0,1762.529,703.081Z" transform="translate(-1762.529 -703.081)"/></clipPath><clipPath id="e"><path class="a" d="M1752.546,740.749l-.717-1.158a1.619,1.619,0,0,0,1.592.683,2.361,2.361,0,0,0,2.113-1.961l.717,1.158a2.361,2.361,0,0,1-2.113,1.961A1.619,1.619,0,0,1,1752.546,740.749Z" transform="translate(-1751.829 -738.313)"/></clipPath><clipPath id="f"><path class="a" d="M1735.8,721.333l.717,1.158a3.252,3.252,0,0,1,.38,1.989l-.717-1.158A3.251,3.251,0,0,0,1735.8,721.333Z" transform="translate(-1735.799 -721.333)"/></clipPath><clipPath id="g"><path class="a" d="M1728.508,741.859l-.717-1.158a1.353,1.353,0,0,0,1.3.714c1.08-.109,2.071-1.494,2.218-3.1l.717,1.158c-.147,1.606-1.138,2.991-2.218,3.1A1.354,1.354,0,0,1,1728.508,741.859Z" transform="translate(-1727.791 -738.316)"/></clipPath><clipPath id="h"><path class="a" d="M1723.329,735.766l.717,1.158a.884.884,0,0,1,.129.556l-.717-1.158A.884.884,0,0,0,1723.329,735.766Z" transform="translate(-1723.329 -735.766)"/></clipPath><clipPath id="i"><path class="a" d="M1715.563,745.005l-.718-1.158a1.753,1.753,0,0,0,1.7.607c1.08-.109,2.007-.806,2.076-1.554l.718,1.158c-.069.748-1,1.445-2.076,1.554A1.752,1.752,0,0,1,1715.563,745.005Z" transform="translate(-1714.845 -742.9)"/></clipPath></defs><g class="b" transform="translate(0 43.135)"><ellipse class="c" cx="14.491" cy="2.735" rx="14.491" ry="2.735"/></g><rect class="d" width="17.778" height="28.685" transform="translate(5.6 13.971)"/><path class="e" d="M1719.04,723.1h-13.114a4.912,4.912,0,0,0-4.918,4.918v26.228a4.911,4.911,0,0,0,4.918,4.918h13.114a4.911,4.911,0,0,0,4.918-4.918V728.018A4.911,4.911,0,0,0,1719.04,723.1Zm-4.1,32.786h-4.918a.82.82,0,0,1,0-1.64h4.918a.82.82,0,0,1,0,1.64Zm5.738-4.918h-16.393v-22.95h16.393Z" transform="translate(-1697.713 -713.218)"/><g transform="translate(9.514 0)"><g class="f" transform="translate(11.497 4.617)"><g class="f" transform="translate(4.657 0.716)"><g class="g"><g class="f"><path class="h" d="M1749.749,713.19l.717,1.158a1.773,1.773,0,0,1,.239,1.107l-.717-1.158a1.777,1.777,0,0,0-.239-1.107" transform="translate(-1749.749 -713.19)"/></g></g></g><g transform="translate(3.912 1.823)"><path class="i" d="M1749.11,715.6l.718,1.158-.984,10.722-.717-1.158Z" transform="translate(-1748.126 -715.602)"/></g><g class="f" transform="translate(0.249 12.545)"><g class="j"><g class="f"><path class="h" d="M1747.768,738.962l.718,1.158a2.382,2.382,0,0,1-.3.95l-.717-1.158a2.384,2.384,0,0,0,.3-.95" transform="translate(-1744.106 -738.962)"/><path class="k" d="M1746.968,741.031l.717,1.158a2.65,2.65,0,0,1-.422.556l-.717-1.158a2.649,2.649,0,0,0,.422-.556" transform="translate(-1743.609 -740.081)"/><path class="l" d="M1745.83,742.242l.717,1.158a2.544,2.544,0,0,1-.608.455l-.718-1.158a2.544,2.544,0,0,0,.608-.455" transform="translate(-1742.892 -740.737)"/><path class="m" d="M1743.959,743.233l.717,1.158a2.18,2.18,0,0,1-.8.25,1.89,1.89,0,0,1-.269.008l-.717-1.158a1.909,1.909,0,0,0,.269-.008,2.183,2.183,0,0,0,.8-.25" transform="translate(-1741.629 -741.273)"/><path class="l" d="M1742.18,743.631l.717,1.158a1.622,1.622,0,0,1-.6-.138l-.717-1.158a1.631,1.631,0,0,0,.6.138" transform="translate(-1740.922 -741.413)"/><path class="k" d="M1741.062,743.138l.717,1.158a1.483,1.483,0,0,1-.44-.3l-.718-1.158a1.48,1.48,0,0,0,.44.3" transform="translate(-1740.404 -741.058)"/><path class="h" d="M1740.364,742.511l.718,1.158a1.482,1.482,0,0,1-.219-.276l-.717-1.158a1.508,1.508,0,0,0,.218.276" transform="translate(-1740.146 -740.733)"/></g></g></g><path class="n" d="M1742.732,711.639a1.577,1.577,0,0,1,1.767,1.813l-.984,10.722a2.512,2.512,0,0,1-2.136,2.21,1.579,1.579,0,0,1-1.767-1.817l.984-10.723A2.506,2.506,0,0,1,1742.732,711.639Z" transform="translate(-1739.604 -711.63)"/></g><g class="f" transform="translate(16.904)"><g class="f" transform="translate(5.115 0.693)"><g class="o"><g class="f"><path class="h" d="M1762.529,703.081l.717,1.158a1.41,1.41,0,0,1,.2.883l-.718-1.158a1.411,1.411,0,0,0-.2-.883" transform="translate(-1762.529 -703.081)"/></g></g></g><g transform="translate(3.909 1.576)"><path class="i" d="M1761.3,705.005l.717,1.158-1.4,15.288-.717-1.158Z" transform="translate(-1759.901 -705.005)"/></g><g class="f" transform="translate(0.204 16.864)"><g class="p"><g class="f"><path class="h" d="M1759.617,738.313l.717,1.158a1.874,1.874,0,0,1-.241.748l-.718-1.159a1.868,1.868,0,0,0,.241-.747" transform="translate(-1755.912 -738.313)"/><path class="k" d="M1758.938,739.941l.718,1.159a2.312,2.312,0,0,1-.371.487l-.718-1.158a2.308,2.308,0,0,0,.371-.487" transform="translate(-1755.474 -739.194)"/><path class="l" d="M1757.851,741l.718,1.158a2.538,2.538,0,0,1-.607.451l-.717-1.158a2.536,2.536,0,0,0,.607-.451" transform="translate(-1754.758 -739.768)"/><path class="m" d="M1755.827,741.986l.717,1.158a2.417,2.417,0,0,1-.894.275,2.064,2.064,0,0,1-.308.009l-.718-1.158a2.144,2.144,0,0,0,.309-.009,2.416,2.416,0,0,0,.894-.275" transform="translate(-1753.342 -740.3)"/><path class="l" d="M1753.857,742.43l.717,1.158a1.782,1.782,0,0,1-.651-.149l-.717-1.158a1.779,1.779,0,0,0,.651.149" transform="translate(-1752.574 -740.46)"/><path class="k" d="M1752.692,741.932l.717,1.158a1.473,1.473,0,0,1-.436-.3l-.717-1.158a1.47,1.47,0,0,0,.436.3" transform="translate(-1752.06 -740.11)"/><path class="h" d="M1752.025,741.345l.717,1.158a1.373,1.373,0,0,1-.2-.246l-.717-1.158a1.331,1.331,0,0,0,.2.246" transform="translate(-1751.829 -739.82)"/></g></g></g><path class="n" d="M1754.907,701.582a1.484,1.484,0,0,1,1.79,1.565l-1.4,15.288a2.361,2.361,0,0,1-2.113,1.961,1.486,1.486,0,0,1-1.789-1.569l1.4-15.288A2.358,2.358,0,0,1,1754.907,701.582Z" transform="translate(-1751.384 -701.571)"/></g><g class="f" transform="translate(5.676 8.35)"><g class="f" transform="translate(4.075 0.721)"><g class="q"><g class="f"><path class="h" d="M1735.8,721.333l.717,1.158a3.252,3.252,0,0,1,.38,1.989l-.717-1.158a3.251,3.251,0,0,0-.38-1.989" transform="translate(-1735.799 -721.333)"/></g></g></g><g transform="translate(3.921 2.71)"><path class="i" d="M1736,725.667l.717,1.158-.533,5.806-.718-1.158Z" transform="translate(-1735.465 -725.667)"/></g><g class="f" transform="translate(0.399 8.516)"><g class="r"><g class="f"><path class="h" d="M1734.821,738.316l.717,1.158a4.472,4.472,0,0,1-.547,1.777l-.717-1.158a4.48,4.48,0,0,0,.547-1.777" transform="translate(-1731.298 -738.316)"/><path class="k" d="M1733.642,742.188l.718,1.158a3.412,3.412,0,0,1-.536.719l-.718-1.158a3.392,3.392,0,0,0,.536-.719" transform="translate(-1730.667 -740.411)"/><path class="l" d="M1732.454,743.755l.718,1.158a2.325,2.325,0,0,1-.554.42l-.717-1.159a2.317,2.317,0,0,0,.553-.42" transform="translate(-1730.015 -741.258)"/><path class="m" d="M1730.994,744.67l.718,1.158a1.573,1.573,0,0,1-.582.183,1.287,1.287,0,0,1-.187.006l-.718-1.158a1.28,1.28,0,0,0,.187-.005,1.574,1.574,0,0,0,.582-.183" transform="translate(-1729.108 -741.754)"/><path class="l" d="M1729.693,744.956l.718,1.158a1.212,1.212,0,0,1-.452-.107l-.718-1.158a1.21,1.21,0,0,0,.452.106" transform="translate(-1728.575 -741.85)"/><path class="k" d="M1728.76,744.514l.718,1.158a1.378,1.378,0,0,1-.408-.285l-.717-1.158a1.385,1.385,0,0,0,.407.285" transform="translate(-1728.095 -741.515)"/><path class="h" d="M1728.049,743.842l.718,1.158a1.787,1.787,0,0,1-.258-.329l-.717-1.158a1.786,1.786,0,0,0,.258.329" transform="translate(-1727.791 -741.128)"/></g></g></g><path class="n" d="M1729.691,719.77c1.079-.109,1.833,1.1,1.685,2.7l-.533,5.806c-.147,1.606-1.138,2.991-2.218,3.1s-1.833-1.1-1.685-2.707l.533-5.806C1727.62,721.26,1728.611,719.878,1729.691,719.77Z" transform="translate(-1726.922 -719.763)"/></g><g class="f" transform="translate(0 15.076)"><g class="f" transform="translate(4.027 0.62)"><g class="s"><g class="f"><path class="h" d="M1723.329,735.766l.717,1.158a.884.884,0,0,1,.129.556l-.717-1.158a.884.884,0,0,0-.129-.556" transform="translate(-1723.329 -735.766)"/></g></g></g><g transform="translate(3.907 1.176)"><path class="i" d="M1723.316,736.977l.717,1.158-.249,2.719-.718-1.158Z" transform="translate(-1723.067 -736.977)"/></g><g class="f" transform="translate(0.133 3.894)"><g class="t"><g class="f"><path class="h" d="M1722.89,742.9l.717,1.158a1.146,1.146,0,0,1-.15.459l-.718-1.158a1.152,1.152,0,0,0,.15-.459" transform="translate(-1719.116 -742.9)"/><path class="k" d="M1722.422,743.9l.717,1.158a1.653,1.653,0,0,1-.27.351l-.717-1.158a1.665,1.665,0,0,0,.27-.351" transform="translate(-1718.798 -743.441)"/><path class="l" d="M1721.48,744.664l.717,1.158a2.373,2.373,0,0,1-.571.417l-.718-1.158a2.385,2.385,0,0,0,.571-.417" transform="translate(-1718.126 -743.854)"/><path class="m" d="M1719.166,745.573l.717,1.158a2.956,2.956,0,0,1-1.085.327,2.73,2.73,0,0,1-.393.012l-.717-1.158a2.721,2.721,0,0,0,.393-.012,2.953,2.953,0,0,0,1.086-.327" transform="translate(-1716.383 -744.346)"/><path class="l" d="M1716.794,746.114l.717,1.158a2.081,2.081,0,0,1-.758-.168l-.717-1.158a2.073,2.073,0,0,0,.758.168" transform="translate(-1715.489 -744.547)"/><path class="k" d="M1715.566,745.631l.717,1.158a1.348,1.348,0,0,1-.4-.267l-.717-1.158a1.334,1.334,0,0,0,.4.267" transform="translate(-1715.019 -744.233)"/><path class="h" d="M1714.993,745.147l.717,1.158a.991.991,0,0,1-.147-.184l-.718-1.158a1.009,1.009,0,0,0,.148.184" transform="translate(-1714.845 -744.016)"/></g></g></g><path class="n" d="M1716.885,734.43c1.08-.109,1.9.41,1.827,1.161l-.249,2.719c-.069.748-1,1.445-2.076,1.554s-1.9-.414-1.827-1.161l.25-2.719C1714.878,735.233,1715.805,734.539,1716.885,734.43Z" transform="translate(-1714.555 -734.416)"/></g></g></svg>