<svg xmlns="http://www.w3.org/2000/svg" xmlns:xlink="http://www.w3.org/1999/xlink" width="33.518" height="49.139" viewBox="0 0 33.518 49.139"><defs><style>.a{fill:none;}.b{opacity:0.8;}.c{fill:#424242;opacity:0.5;}.d{fill:#e3f1fc;}.e{fill:url(#a);}.f{fill:#1b7f43;}.g{fill:#fff;}.h{isolation:isolate;}.i{clip-path:url(#b);}.j{fill:#855714;}.k{fill:#8b5b15;}.l{clip-path:url(#c);}.m{fill:#8a5b15;}.n{clip-path:url(#d);}.o{clip-path:url(#e);}.p{clip-path:url(#f);}.q{fill:#858585;}.r{clip-path:url(#g);}.s{clip-path:url(#h);}.t{clip-path:url(#i);}.u{fill:#885914;}.v{clip-path:url(#j);}.w{clip-path:url(#k);}.x{fill:#888;}.y{clip-path:url(#l);}.z{fill:#8b8b8b;}.aa{fill:#fefefe;}.ab{clip-path:url(#m);}.ac{clip-path:url(#n);}.ad{clip-path:url(#o);}.ae{clip-path:url(#p);}.af{clip-path:url(#q);}.ag{clip-path:url(#r);}.ah{clip-path:url(#s);}.ai{clip-path:url(#t);}.aj{clip-path:url(#u);}.ak{clip-path:url(#v);}.al{clip-path:url(#w);}.am{clip-path:url(#x);}.an{clip-path:url(#y);}.ao{clip-path:url(#z);}.ap{clip-path:url(#aa);}.aq{clip-path:url(#ab);}.ar{clip-path:url(#ac);}.as{clip-path:url(#ad);}.at{clip-path:url(#ae);}.au{clip-path:url(#af);}.av{clip-path:url(#ag);}.aw{clip-path:url(#ah);}.ax{clip-path:url(#ai);}.ay{clip-path:url(#aj);}.az{clip-path:url(#ak);}.ba{clip-path:url(#al);}.bb{clip-path:url(#am);}.bc{clip-path:url(#an);}.bd{clip-path:url(#ao);}.be{clip-path:url(#ap);}.bf{clip-path:url(#aq);}.bg{clip-path:url(#ar);}.bh{clip-path:url(#as);}.bi{clip-path:url(#at);}.bj{clip-path:url(#au);}.bk{clip-path:url(#av);}.bl{clip-path:url(#aw);}.bm{clip-path:url(#ax);}.bn{clip-path:url(#ay);}.bo{clip-path:url(#az);}.bp{clip-path:url(#ba);}.bq{clip-path:url(#bb);}.br{clip-path:url(#bc);}.bs{clip-path:url(#bd);}.bt{clip-path:url(#be);}.bu{clip-path:url(#bf);}.bv{clip-path:url(#bg);}.bw{clip-path:url(#bh);}.bx{clip-path:url(#bi);}.by{clip-path:url(#bj);}.bz{clip-path:url(#bk);}.ca{clip-path:url(#bl);}.cb{fill:#fea626;}.cc{clip-path:url(#bm);}.cd{clip-path:url(#bn);}.ce{clip-path:url(#bo);}</style><linearGradient id="a" y1="0.5" x2="1" y2="0.5" gradientUnits="objectBoundingBox"><stop offset="0" stop-color="#ffa726"/><stop offset="0" stop-color="#c3bb31"/><stop offset="0" stop-color="#3adf41"/><stop offset="0.614" stop-color="#32b07c"/><stop offset="1" stop-color="#2e979e"/></linearGradient><clipPath id="b"><path class="a" d="M1707.283,1972l.9,1.02a.667.667,0,0,0-.251-.033.831.831,0,0,0-.673.431l-.9-1.019a.831.831,0,0,1,.673-.431A.664.664,0,0,1,1707.283,1972Z" transform="translate(-1706.36 -1971.963)"/></clipPath><clipPath id="c"><path class="a" d="M1704.156,1980.307l-.9-1.02a.567.567,0,0,1-.05-.651l.9,1.02A.567.567,0,0,0,1704.156,1980.307Z" transform="translate(-1703.128 -1978.636)"/></clipPath><clipPath id="d"><path class="a" d="M1701.686,1984.173l.9,1.019a.368.368,0,0,0-.137-.018.523.523,0,0,0-.414.276l-.9-1.02a.523.523,0,0,1,.414-.275A.36.36,0,0,1,1701.686,1984.173Z" transform="translate(-1701.135 -1984.155)"/></clipPath><clipPath id="e"><path class="a" d="M1701.887,1986.389l-.9-1.019a.354.354,0,0,1-.021-.408l.9,1.019A.354.354,0,0,0,1701.887,1986.389Z" transform="translate(-1700.912 -1984.962)"/></clipPath><clipPath id="f"><path class="a" d="M1701.976,1986.87l-.9-1.019a.3.3,0,0,0,.13.085l.9,1.019A.3.3,0,0,1,1701.976,1986.87Z" transform="translate(-1701.076 -1985.851)"/></clipPath><clipPath id="g"><path class="a" d="M1698.68,1990.018l.9,1.019a.512.512,0,0,0-.2-.027.764.764,0,0,0-.6.4l-.9-1.019a.763.763,0,0,1,.6-.4A.515.515,0,0,1,1698.68,1990.018Z" transform="translate(-1697.876 -1989.99)"/></clipPath><clipPath id="h"><path class="a" d="M1695.96,1997a.523.523,0,0,0,.032.6l-.9-1.019a.523.523,0,0,1-.033-.6Z" transform="translate(-1694.984 -1995.979)"/></clipPath><clipPath id="i"><path class="a" d="M1696.122,1998.3l-.9-1.019a.438.438,0,0,0,.19.124l.9,1.019A.432.432,0,0,1,1696.122,1998.3Z" transform="translate(-1695.222 -1997.278)"/></clipPath><clipPath id="j"><path class="a" d="M1709.508,1987.37a.293.293,0,0,0-.13-.085l-.9-1.02a.3.3,0,0,1,.13.085Z" transform="translate(-1708.479 -1986.265)"/></clipPath><clipPath id="k"><path class="a" d="M1693.922,1998.913l.9,1.02a.5.5,0,0,0-.187-.023.719.719,0,0,0-.57.376l-.9-1.02a.718.718,0,0,1,.569-.376A.506.506,0,0,1,1693.922,1998.913Z" transform="translate(-1693.166 -1998.889)"/></clipPath><clipPath id="l"><path class="a" d="M1708.762,1986.451l.9,1.019a.354.354,0,0,1,.022.408l-.9-1.019A.353.353,0,0,0,1708.762,1986.451Z" transform="translate(-1708.762 -1986.451)"/></clipPath><clipPath id="m"><path class="a" d="M1708.055,1987.537l.9,1.02a.521.521,0,0,1-.417.278.361.361,0,0,1-.135-.017l-.9-1.019a.362.362,0,0,0,.135.017A.52.52,0,0,0,1708.055,1987.537Z" transform="translate(-1707.503 -1987.537)"/></clipPath><clipPath id="n"><path class="a" d="M1706.094,1993a.438.438,0,0,0-.19-.124l-.795-.9-.105-.119a.436.436,0,0,1,.19.124Z" transform="translate(-1705.004 -1991.859)"/></clipPath><clipPath id="o"><path class="a" d="M1710.5,1987.14l.9,1.02a.367.367,0,0,0-.138-.018.528.528,0,0,0-.417.276l-.9-1.019a.527.527,0,0,1,.417-.276A.368.368,0,0,1,1710.5,1987.14Z" transform="translate(-1709.947 -1987.122)"/></clipPath><clipPath id="p"><path class="a" d="M1710.7,1989.353l-.9-1.02a.361.361,0,0,1-.022-.413l.9,1.02A.36.36,0,0,0,1710.7,1989.353Z" transform="translate(-1709.726 -1987.921)"/></clipPath><clipPath id="q"><path class="a" d="M1691.173,2006a.489.489,0,0,0,.031.558l-.9-1.019a.489.489,0,0,1-.031-.558Z" transform="translate(-1690.202 -2004.981)"/></clipPath><clipPath id="r"><path class="a" d="M1710.791,1989.839l-.9-1.02a.3.3,0,0,0,.129.084l.9,1.02A.3.3,0,0,1,1710.791,1989.839Z" transform="translate(-1709.891 -1988.82)"/></clipPath><clipPath id="s"><path class="a" d="M1705.419,1992.129l.9,1.02a.517.517,0,0,1,.033.592l-.9-1.019A.519.519,0,0,0,1705.419,1992.129Z" transform="translate(-1705.419 -1992.129)"/></clipPath><clipPath id="t"><path class="a" d="M1691.326,2007.217l-.9-1.019a.4.4,0,0,0,.177.115l.9,1.02A.4.4,0,0,1,1691.326,2007.217Z" transform="translate(-1690.426 -2006.197)"/></clipPath><clipPath id="u"><path class="a" d="M1685.586,2011.428l-.9-1.019a1.362,1.362,0,0,0,.59.385l.9,1.019A1.357,1.357,0,0,1,1685.586,2011.428Z" transform="translate(-1684.686 -2010.409)"/></clipPath><clipPath id="v"><path class="a" d="M1707.6,1993.055l.9,1.019a.609.609,0,0,0-.229-.03.858.858,0,0,0-.683.454l-.9-1.019a.86.86,0,0,1,.683-.454A.61.61,0,0,1,1707.6,1993.055Z" transform="translate(-1706.684 -1993.024)"/></clipPath><clipPath id="w"><path class="a" d="M1701.816,1998.542l.9,1.019a.757.757,0,0,1-.6.4.529.529,0,0,1-.2-.025l-.9-1.019a.533.533,0,0,0,.2.025A.758.758,0,0,0,1701.816,1998.542Z" transform="translate(-1701.012 -1998.542)"/></clipPath><clipPath id="x"><path class="a" d="M1700.5,2000.915l.9,1.019a.4.4,0,0,0-.178-.115l-.9-1.02A.405.405,0,0,1,1700.5,2000.915Z" transform="translate(-1700.327 -2000.799)"/></clipPath><clipPath id="y"><path class="a" d="M1700.713,2001.051l.9,1.019a.488.488,0,0,1,.031.558l-.9-1.02A.488.488,0,0,0,1700.713,2001.051Z" transform="translate(-1700.713 -2001.051)"/></clipPath><clipPath id="z"><path class="a" d="M1704.959,2000.505l-.9-1.02a.589.589,0,0,1-.034-.677l.9,1.019A.589.589,0,0,0,1704.959,2000.505Z" transform="translate(-1703.937 -1998.809)"/></clipPath><clipPath id="aa"><path class="a" d="M1705.1,2001.3l-.9-1.019a.494.494,0,0,0,.218.141l.9,1.019A.492.492,0,0,1,1705.1,2001.3Z" transform="translate(-1704.205 -2000.283)"/></clipPath><clipPath id="ab"><path class="a" d="M1718.33,1990.335a.291.291,0,0,0-.131-.084l-.9-1.019a.29.29,0,0,1,.131.084Z" transform="translate(-1717.3 -1989.232)"/></clipPath><clipPath id="ac"><path class="a" d="M1702.857,2002l.9,1.019a.639.639,0,0,0-.239-.031.91.91,0,0,0-.727.483l-.9-1.019a.909.909,0,0,1,.727-.483A.637.637,0,0,1,1702.857,2002Z" transform="translate(-1701.891 -2001.964)"/></clipPath><clipPath id="ad"><path class="a" d="M1717.585,1989.415l.9,1.02a.358.358,0,0,1,.021.409l-.9-1.019A.358.358,0,0,0,1717.585,1989.415Z" transform="translate(-1717.585 -1989.415)"/></clipPath><clipPath id="ae"><path class="a" d="M1697.086,2007.536l.9,1.019a.718.718,0,0,1-.568.377.5.5,0,0,1-.185-.024l-.9-1.019a.5.5,0,0,0,.185.023A.717.717,0,0,0,1697.086,2007.536Z" transform="translate(-1696.333 -2007.536)"/></clipPath><clipPath id="af"><path class="a" d="M1716.872,1990.5l.9,1.019a.526.526,0,0,1-.417.276.37.37,0,0,1-.138-.018l-.9-1.019a.378.378,0,0,0,.138.018A.528.528,0,0,0,1716.872,1990.5Z" transform="translate(-1716.317 -1990.504)"/></clipPath><clipPath id="ag"><path class="a" d="M1714.854,1995.95a.5.5,0,0,0-.213-.14l-.45-.51-.345-.391-.105-.119a.5.5,0,0,1,.213.14Z" transform="translate(-1713.741 -1994.791)"/></clipPath><clipPath id="ah"><path class="a" d="M1719.319,1990.107l.9,1.019a.374.374,0,0,0-.137-.018.522.522,0,0,0-.414.276l-.9-1.019a.523.523,0,0,1,.414-.276A.377.377,0,0,1,1719.319,1990.107Z" transform="translate(-1718.768 -1990.089)"/></clipPath><clipPath id="ai"><path class="a" d="M1719.5,1991.907a.359.359,0,0,0,.022.412l-.9-1.019a.359.359,0,0,1-.022-.412Z" transform="translate(-1718.547 -1990.888)"/></clipPath><clipPath id="aj"><path class="a" d="M1719.612,1992.805l-.9-1.02a.3.3,0,0,0,.129.085l.9,1.02A.3.3,0,0,1,1719.612,1992.805Z" transform="translate(-1718.712 -1991.786)"/></clipPath><clipPath id="ak"><path class="a" d="M1700.247,2009.387l-.9-1.019a.625.625,0,0,1-.037-.719l.9,1.019A.626.626,0,0,0,1700.247,2009.387Z" transform="translate(-1699.216 -2007.648)"/></clipPath><clipPath id="al"><path class="a" d="M1732.285,1980.151l.9,1.019a.545.545,0,0,0-.234-.153l-.9-1.019A.547.547,0,0,1,1732.285,1980.151Z" transform="translate(-1732.051 -1979.998)"/></clipPath><clipPath id="am"><path class="a" d="M1714.205,1995.1l.9,1.019a.6.6,0,0,1,.039.681l-.9-1.019A.6.6,0,0,0,1714.205,1995.1Z" transform="translate(-1714.205 -1995.096)"/></clipPath><clipPath id="an"><path class="a" d="M1700.4,2010.234l-.9-1.019a.525.525,0,0,0,.225.149l.9,1.019A.525.525,0,0,1,1700.4,2010.234Z" transform="translate(-1699.503 -2009.215)"/></clipPath><clipPath id="ao"><path class="a" d="M1716.679,1996.05l.9,1.019a.647.647,0,0,0-.243-.031.937.937,0,0,0-.746.5l-.9-1.02a.937.937,0,0,1,.747-.5A.648.648,0,0,1,1716.679,1996.05Z" transform="translate(-1715.689 -1996.018)"/></clipPath><clipPath id="ap"><path class="a" d="M1710.661,2001.365l.9,1.019a.865.865,0,0,1-.688.456.613.613,0,0,1-.225-.028l-.9-1.02a.609.609,0,0,0,.225.029A.864.864,0,0,0,1710.661,2001.365Z" transform="translate(-1709.748 -2001.365)"/></clipPath><clipPath id="aq"><path class="a" d="M1709.145,2003.839l.9,1.02a.512.512,0,0,0-.228-.148l-.9-1.02A.514.514,0,0,1,1709.145,2003.839Z" transform="translate(-1708.916 -2003.691)"/></clipPath><clipPath id="ar"><path class="a" d="M1737.685,1976.457l.9,1.019a1.422,1.422,0,0,1,.121,1.636l-.9-1.019A1.423,1.423,0,0,0,1737.685,1976.457Z" transform="translate(-1737.685 -1976.457)"/></clipPath><clipPath id="as"><path class="a" d="M1709.414,2004.014l.9,1.019a.627.627,0,0,1,.039.716l-.9-1.019A.627.627,0,0,0,1709.414,2004.014Z" transform="translate(-1709.414 -2004.014)"/></clipPath><clipPath id="at"><path class="a" d="M1712.965,2003.184l.9,1.02a.131.131,0,0,0-.048-.006.174.174,0,0,0-.141.093l-.9-1.019a.174.174,0,0,1,.141-.094A.126.126,0,0,1,1712.965,2003.184Z" transform="translate(-1712.776 -2003.178)"/></clipPath><clipPath id="au"><path class="a" d="M1713.432,2004.969l-.9-1.019a.122.122,0,0,1-.009-.139l.9,1.019A.122.122,0,0,0,1713.432,2004.969Z" transform="translate(-1712.507 -2003.81)"/></clipPath><clipPath id="av"><path class="a" d="M1713.463,2005.133l-.9-1.019a.1.1,0,0,0,.046.03l.9,1.019A.1.1,0,0,1,1713.463,2005.133Z" transform="translate(-1712.564 -2004.113)"/></clipPath><clipPath id="aw"><path class="a" d="M1726.243,1992.276l.9,1.02a.3.3,0,0,0-.129-.084l-.9-1.019A.3.3,0,0,1,1726.243,1992.276Z" transform="translate(-1726.114 -1992.191)"/></clipPath><clipPath id="ax"><path class="a" d="M1711.821,2005.33l.9,1.019a.136.136,0,0,0-.05-.006.176.176,0,0,0-.143.1l-.9-1.019a.175.175,0,0,1,.143-.1A.149.149,0,0,1,1711.821,2005.33Z" transform="translate(-1711.628 -2005.324)"/></clipPath><clipPath id="ay"><path class="a" d="M1712.287,2007.118l-.9-1.019a.124.124,0,0,1-.01-.142l.9,1.02A.123.123,0,0,0,1712.287,2007.118Z" transform="translate(-1711.36 -2005.956)"/></clipPath><clipPath id="az"><path class="a" d="M1712.32,2007.286l-.9-1.02a.113.113,0,0,0,.044.031l.9,1.019A.113.113,0,0,1,1712.32,2007.286Z" transform="translate(-1711.42 -2006.266)"/></clipPath><clipPath id="ba"><path class="a" d="M1726.4,1992.375l.9,1.02a.36.36,0,0,1,.022.412l-.9-1.019A.361.361,0,0,0,1726.4,1992.375Z" transform="translate(-1726.395 -1992.375)"/></clipPath><clipPath id="bb"><path class="a" d="M1705.89,2010.211l.9,1.019a.911.911,0,0,1-.724.481.628.628,0,0,1-.241-.032l-.9-1.02a.637.637,0,0,0,.241.032A.911.911,0,0,0,1705.89,2010.211Z" transform="translate(-1704.925 -2010.211)"/></clipPath><clipPath id="bc"><path class="a" d="M1725.689,1993.471l.9,1.02a.522.522,0,0,1-.414.276.364.364,0,0,1-.137-.018l-.9-1.02a.367.367,0,0,0,.137.019A.523.523,0,0,0,1725.689,1993.471Z" transform="translate(-1725.138 -1993.471)"/></clipPath><clipPath id="bd"><path class="a" d="M1722.008,1997.564l.9,1.019a.54.54,0,0,0-.233-.153l-.9-1.02A.546.546,0,0,1,1722.008,1997.564Z" transform="translate(-1721.775 -1997.41)"/></clipPath><clipPath id="be"><path class="a" d="M1722.282,1997.744l.9,1.019a.644.644,0,0,1,.041.736l-.9-1.019A.644.644,0,0,0,1722.282,1997.744Z" transform="translate(-1722.282 -1997.744)"/></clipPath><clipPath id="bf"><path class="a" d="M1709.337,2012.335l-.9-1.019a.649.649,0,0,1-.041-.74l.9,1.019A.649.649,0,0,0,1709.337,2012.335Z" transform="translate(-1708.302 -2010.576)"/></clipPath><clipPath id="bg"><path class="a" d="M1709.5,2013.206l-.9-1.019a.521.521,0,0,0,.229.15l.9,1.019A.521.521,0,0,1,1709.5,2013.206Z" transform="translate(-1708.597 -2012.187)"/></clipPath><clipPath id="bh"><path class="a" d="M1718.784,2005.085l.9,1.019a.109.109,0,0,0-.045-.03l-.9-1.019A.11.11,0,0,1,1718.784,2005.085Z" transform="translate(-1718.74 -2005.055)"/></clipPath><clipPath id="bi"><path class="a" d="M1718.837,2005.121l.9,1.02a.124.124,0,0,1,.01.142l-.9-1.019A.125.125,0,0,0,1718.837,2005.121Z" transform="translate(-1718.837 -2005.121)"/></clipPath><clipPath id="bj"><path class="a" d="M1718.406,2005.851l.9,1.019a.18.18,0,0,1-.144.1.125.125,0,0,1-.045-.005l-.9-1.02a.124.124,0,0,0,.046.006A.181.181,0,0,0,1718.406,2005.851Z" transform="translate(-1718.216 -2005.851)"/></clipPath><clipPath id="bk"><path class="a" d="M1717.645,2007.236l.9,1.02a.1.1,0,0,0-.045-.029l-.9-1.019A.1.1,0,0,1,1717.645,2007.236Z" transform="translate(-1717.6 -2007.208)"/></clipPath><clipPath id="bl"><path class="a" d="M1717.7,2007.27l.9,1.02a.124.124,0,0,1,.006.141l-.9-1.019A.124.124,0,0,0,1717.7,2007.27Z" transform="translate(-1717.697 -2007.27)"/></clipPath><clipPath id="bm"><path class="a" d="M1717.262,2008l.9,1.02a.18.18,0,0,1-.144.094.13.13,0,0,1-.049-.006l-.9-1.02a.131.131,0,0,0,.049.006A.179.179,0,0,0,1717.262,2008Z" transform="translate(-1717.069 -2008.004)"/></clipPath><clipPath id="bn"><path class="a" d="M1714.021,2012.823l.9,1.019a.937.937,0,0,1-.748.5.664.664,0,0,1-.245-.031l-.9-1.019a.675.675,0,0,0,.245.031A.94.94,0,0,0,1714.021,2012.823Z" transform="translate(-1713.027 -2012.823)"/></clipPath><clipPath id="bo"><path class="a" d="M1714.965,2018.03l.9,1.02a2.1,2.1,0,0,1-1.7,1.085,1.682,1.682,0,0,1-.626-.081l-.9-1.02a1.674,1.674,0,0,0,.626.081A2.1,2.1,0,0,0,1714.965,2018.03Z" transform="translate(-1712.643 -2018.03)"/></clipPath></defs><g class="b" transform="translate(4.517 43.669)"><ellipse class="c" cx="14.491" cy="2.735" rx="14.491" ry="2.735"/></g><path class="d" d="M1741.23,2056.629c-.214,2.042-2.558,3.65-5.5,3.65h-.036a6.885,6.885,0,0,0,3.916-1.158A3.592,3.592,0,0,0,1741.23,2056.629Z" transform="translate(-1711.961 -2015.244)"/><g transform="translate(6.183 16.322)"><path class="e" d="M1718.6,2002.026a6.9,6.9,0,0,0-3.954,1.159,3.486,3.486,0,0,0-1.637,2.8v21.064h5.517v1.54a3.487,3.487,0,0,0,1.636,2.8,7.2,7.2,0,0,0,7.831,0,3.6,3.6,0,0,0,1.62-2.492,3.017,3.017,0,0,0,.016-.3v-22.6c0-2.184.492-3.954,3.577-3.954Z" transform="translate(-1705.87 -2002.026)"/><path class="f" d="M1711.747,2060.868a3.487,3.487,0,0,1-1.636-2.8v-1.54h-6.249l-.006,0,0,0h-1.287l-.007,0-.009,0h-5.092v1.54a3.486,3.486,0,0,0,1.636,2.8,6.9,6.9,0,0,0,3.951,1.158h12.617A6.887,6.887,0,0,1,1711.747,2060.868Z" transform="translate(-1697.458 -2031.514)"/><g transform="translate(8.759 7.775)"><rect class="g" width="7.689" height="1.171" rx="0.586" transform="translate(2.843)"/><rect class="g" width="4.254" height="1.171" rx="0.586" transform="translate(8.187 14.146)"/><g transform="translate(0 5.103)"><rect class="g" width="12.468" height="1.171" rx="0.586"/><rect class="g" width="12.468" height="1.171" rx="0.586" transform="translate(0 1.988)"/><rect class="g" width="12.468" height="1.171" rx="0.586" transform="translate(0 3.976)"/></g></g></g><g transform="translate(0)"><g class="h"><g class="h" transform="translate(10.269 2.523)"><g class="i"><g class="h"><path class="j" d="M1707.283,1972l.9,1.02a.667.667,0,0,0-.251-.033.831.831,0,0,0-.673.431l-.9-1.019a.831.831,0,0,1,.673-.431.664.664,0,0,1,.251.032" transform="translate(-1706.36 -1971.963)"/></g></g></g><g transform="translate(8.865 2.956)"><path class="k" d="M1704.7,1972.906l.9,1.019-1.4,2.63-.9-1.02Z" transform="translate(-1703.3 -1972.906)"/></g><g class="h" transform="translate(8.786 5.586)"><g class="l"><g class="h"><path class="j" d="M1703.207,1978.636l.9,1.02a.567.567,0,0,0,.049.651l-.9-1.02a.567.567,0,0,1-.05-.651" transform="translate(-1703.128 -1978.636)"/></g></g></g><g transform="translate(7.822 8.396)"><path class="m" d="M1701.077,1984.757l.9,1.019-.048.094-.9-1.019Z" transform="translate(-1701.029 -1984.757)"/></g><g class="h" transform="translate(7.871 8.119)"><g class="n"><g class="h"><path class="j" d="M1701.686,1984.173l.9,1.019a.368.368,0,0,0-.137-.018.523.523,0,0,0-.414.276l-.9-1.02a.523.523,0,0,1,.414-.275.36.36,0,0,1,.137.018" transform="translate(-1701.135 -1984.155)"/></g></g></g><g class="h" transform="translate(7.769 8.49)"><g class="o"><g class="h"><path class="j" d="M1700.966,1984.962l.9,1.019a.354.354,0,0,0,.022.408l-.9-1.019a.354.354,0,0,1-.021-.408" transform="translate(-1700.912 -1984.962)"/></g></g></g><g class="h" transform="translate(7.844 8.898)"><g class="p"><g class="h"><path class="q" d="M1701.206,1985.936l.9,1.019a.3.3,0,0,1-.13-.085l-.9-1.019a.3.3,0,0,0,.13.085" transform="translate(-1701.076 -1985.851)"/></g></g></g><g class="h" transform="translate(6.375 10.798)"><g class="r"><g class="h"><path class="j" d="M1698.68,1990.018l.9,1.019a.512.512,0,0,0-.2-.027.764.764,0,0,0-.6.4l-.9-1.019a.763.763,0,0,1,.6-.4.515.515,0,0,1,.2.027" transform="translate(-1697.876 -1989.99)"/></g></g></g><g transform="translate(5.124 11.199)"><path class="k" d="M1696.4,1990.865l.9,1.019-1.251,2.347-.9-1.019Z" transform="translate(-1695.151 -1990.865)"/></g><g class="h" transform="translate(5.048 13.547)"><g class="s"><g class="h"><path class="j" d="M1695.061,1995.979l.9,1.019a.523.523,0,0,0,.032.6l-.9-1.019a.523.523,0,0,1-.033-.6" transform="translate(-1694.984 -1995.979)"/></g></g></g><g class="h" transform="translate(5.157 14.143)"><g class="t"><g class="h"><path class="q" d="M1695.412,1997.4l.9,1.019a.432.432,0,0,1-.19-.124l-.9-1.019a.438.438,0,0,0,.19.124" transform="translate(-1695.222 -1997.278)"/></g></g></g><g transform="translate(8.422 8.138)"><path class="u" d="M1705.155,1985.145l.9,1.019-2.82-.95-.9-1.02Z" transform="translate(-1702.335 -1984.195)"/></g><g class="h" transform="translate(11.242 9.088)"><g class="v"><g class="h"><path class="j" d="M1708.609,1986.35l.9,1.02a.293.293,0,0,0-.13-.085l-.9-1.02a.3.3,0,0,1,.13.085" transform="translate(-1708.479 -1986.265)"/></g></g></g><g class="h" transform="translate(4.213 14.882)"><g class="w"><g class="h"><path class="j" d="M1693.922,1998.913l.9,1.02a.5.5,0,0,0-.187-.023.719.719,0,0,0-.57.376l-.9-1.02a.718.718,0,0,1,.569-.376.506.506,0,0,1,.187.023" transform="translate(-1693.166 -1998.889)"/></g></g></g><g transform="translate(7.974 8.983)"><path class="x" d="M1704.179,1986.987l.9,1.019-2.82-.95-.9-1.02Z" transform="translate(-1701.359 -1986.036)"/></g><g class="h" transform="translate(11.372 9.173)"><g class="y"><g class="h"><path class="q" d="M1708.762,1986.451l.9,1.019a.354.354,0,0,1,.022.408l-.9-1.019a.353.353,0,0,0-.022-.408" transform="translate(-1708.762 -1986.451)"/></g></g></g><g transform="translate(11.345 9.581)"><path class="z" d="M1708.753,1987.34l.9,1.02-.048.091-.9-1.019Z" transform="translate(-1708.705 -1987.34)"/></g><g transform="translate(7.769 8.119)"><path class="aa" d="M1701.428,1984.155a.36.36,0,0,1,.137.018l2.82.95a.328.328,0,0,1,.152.493l-.048.091a.52.52,0,0,1-.417.278.365.365,0,0,1-.135-.016l-2.82-.95a.328.328,0,0,1-.152-.493l.049-.095A.522.522,0,0,1,1701.428,1984.155Z" transform="translate(-1700.912 -1984.155)"/></g><g class="h" transform="translate(10.794 9.672)"><g class="ab"><g class="h"><path class="q" d="M1708.055,1987.537l.9,1.02a.521.521,0,0,1-.417.278.361.361,0,0,1-.135-.017l-.9-1.019a.362.362,0,0,0,.135.017.52.52,0,0,0,.417-.278" transform="translate(-1707.503 -1987.537)"/></g></g></g><g transform="translate(7.179 10.825)"><path class="u" d="M1702.1,1990.881l.9,1.019-2.467-.83-.9-1.019Z" transform="translate(-1699.628 -1990.05)"/></g><g transform="translate(2.924 15.26)"><path class="k" d="M1691.647,1999.712l.9,1.019-1.289,2.419-.9-1.019Z" transform="translate(-1690.358 -1999.712)"/></g><g transform="translate(11.868 9.757)"><path class="k" d="M1709.891,1987.724l.9,1.02-.048.091-.9-1.02Z" transform="translate(-1709.843 -1987.724)"/></g><g class="h" transform="translate(9.647 11.656)"><g class="ac"><g class="h"><path class="j" d="M1705.194,1991.983l.9,1.019a.435.435,0,0,0-.19-.124l-.9-1.019a.436.436,0,0,1,.19.124" transform="translate(-1705.004 -1991.859)"/></g></g></g><g class="h" transform="translate(11.916 9.481)"><g class="ad"><g class="h"><path class="j" d="M1710.5,1987.14l.9,1.02a.367.367,0,0,0-.138-.018.528.528,0,0,0-.417.276l-.9-1.019a.527.527,0,0,1,.417-.276.368.368,0,0,1,.138.018" transform="translate(-1709.947 -1987.122)"/></g></g></g><g class="h" transform="translate(11.814 9.848)"><g class="ae"><g class="h"><path class="j" d="M1709.78,1987.921l.9,1.02a.36.36,0,0,0,.022.413l-.9-1.02a.361.361,0,0,1-.022-.413" transform="translate(-1709.726 -1987.921)"/></g></g></g><g class="h" transform="translate(2.853 17.678)"><g class="af"><g class="h"><path class="j" d="M1690.274,2004.981l.9,1.019a.489.489,0,0,0,.031.558l-.9-1.019a.489.489,0,0,1-.031-.558" transform="translate(-1690.202 -2004.981)"/></g></g></g><g class="h" transform="translate(11.89 10.261)"><g class="ag"><g class="h"><path class="q" d="M1710.02,1988.9l.9,1.02a.3.3,0,0,1-.129-.084l-.9-1.02a.3.3,0,0,0,.129.084" transform="translate(-1709.891 -1988.82)"/></g></g></g><g class="h" transform="translate(9.837 11.78)"><g class="ah"><g class="h"><path class="q" d="M1705.419,1992.129l.9,1.019a.519.519,0,0,1,.033.593l-.9-1.019a.519.519,0,0,0-.033-.593" transform="translate(-1705.419 -1992.129)"/></g></g></g><g class="h" transform="translate(2.956 18.237)"><g class="ai"><g class="h"><path class="q" d="M1690.6,2006.312l.9,1.02a.4.4,0,0,1-.177-.115l-.9-1.019a.4.4,0,0,0,.177.115" transform="translate(-1690.426 -2006.197)"/></g></g></g><g class="h" transform="translate(0.321 20.17)"><g class="aj"><g class="h"><path class="j" d="M1685.276,2010.794l.9,1.019a1.357,1.357,0,0,1-.59-.385l-.9-1.019a1.362,1.362,0,0,0,.59.385" transform="translate(-1684.686 -2010.409)"/></g></g></g><g transform="translate(5.347 14.267)"><path class="x" d="M1698.1,1998.379l.9,1.019-2.467-.83-.9-1.019Z" transform="translate(-1695.636 -1997.548)"/></g><g class="h" transform="translate(10.418 12.19)"><g class="ak"><g class="h"><path class="j" d="M1707.6,1993.055l.9,1.019a.609.609,0,0,0-.229-.03.858.858,0,0,0-.683.454l-.9-1.019a.86.86,0,0,1,.683-.454.61.61,0,0,1,.229.03" transform="translate(-1706.684 -1993.024)"/></g></g></g><g transform="translate(8.619 12.372)"><path class="z" d="M1704.016,1993.42l.9,1.019-1.252,2.351-.9-1.019Z" transform="translate(-1702.764 -1993.42)"/></g><g transform="translate(4.969 14.907)"><path class="u" d="M1697.344,1999.794l.9,1.019-2.531-.852-.9-1.019Z" transform="translate(-1694.813 -1998.942)"/></g><g transform="translate(5.048 10.798)"><path class="aa" d="M1696.915,1989.991a.515.515,0,0,1,.2.027l2.467.83a.477.477,0,0,1,.224.716l-1.252,2.351a.757.757,0,0,1-.6.4.529.529,0,0,1-.2-.025l-2.467-.83a.48.48,0,0,1-.223-.72l1.251-2.347A.764.764,0,0,1,1696.915,1989.991Z" transform="translate(-1694.984 -1989.99)"/></g><g class="h" transform="translate(7.814 14.723)"><g class="al"><g class="h"><path class="q" d="M1701.816,1998.542l.9,1.019a.757.757,0,0,1-.6.4.529.529,0,0,1-.2-.025l-.9-1.019a.533.533,0,0,0,.2.025.758.758,0,0,0,.6-.4" transform="translate(-1701.012 -1998.542)"/></g></g></g><g class="h" transform="translate(7.5 15.759)"><g class="am"><g class="h"><path class="j" d="M1700.5,2000.915l.9,1.019a.4.4,0,0,0-.178-.115l-.9-1.02a.405.405,0,0,1,.177.116" transform="translate(-1700.327 -2000.799)"/></g></g></g><g transform="translate(9.246 12.646)"><path class="k" d="M1705.3,1994.016l.9,1.019-1.172,2.2-.9-1.019Z" transform="translate(-1704.131 -1994.016)"/></g><g class="h" transform="translate(7.677 15.875)"><g class="an"><g class="h"><path class="q" d="M1700.713,2001.051l.9,1.019a.488.488,0,0,1,.031.558l-.9-1.02a.488.488,0,0,0-.031-.558" transform="translate(-1700.713 -2001.051)"/></g></g></g><g class="h" transform="translate(9.157 14.846)"><g class="ao"><g class="h"><path class="j" d="M1704.026,1998.809l.9,1.019a.589.589,0,0,0,.034.677l-.9-1.02a.589.589,0,0,1-.034-.677" transform="translate(-1703.937 -1998.809)"/></g></g></g><g transform="translate(12.471 9.5)"><path class="u" d="M1713.976,1988.112l.9,1.02-2.82-.95-.9-1.019Z" transform="translate(-1711.156 -1987.162)"/></g><g class="h" transform="translate(9.28 15.522)"><g class="ap"><g class="h"><path class="q" d="M1704.423,2000.424l.9,1.019a.492.492,0,0,1-.218-.141l-.9-1.019a.494.494,0,0,0,.218.141" transform="translate(-1704.205 -2000.283)"/></g></g></g><g class="h" transform="translate(15.291 10.45)"><g class="aq"><g class="h"><path class="j" d="M1717.431,1989.316l.9,1.019a.291.291,0,0,0-.131-.084l-.9-1.019a.29.29,0,0,1,.131.084" transform="translate(-1717.3 -1989.232)"/></g></g></g><g transform="translate(3.133 18.352)"><path class="x" d="M1693.346,2007.3l.9,1.02-2.535-.852-.9-1.02Z" transform="translate(-1690.812 -2006.448)"/></g><g transform="translate(12.019 10.345)"><path class="x" d="M1712.992,1989.95l.9,1.02-2.821-.946-.9-1.02Z" transform="translate(-1710.172 -1989.004)"/></g><g class="h" transform="translate(8.218 16.294)"><g class="ar"><g class="h"><path class="j" d="M1702.857,2002l.9,1.019a.639.639,0,0,0-.239-.031.91.91,0,0,0-.727.483l-.9-1.019a.909.909,0,0,1,.727-.483.637.637,0,0,1,.239.031" transform="translate(-1701.891 -2001.964)"/></g></g></g><g transform="translate(6.419 16.432)"><path class="z" d="M1699.261,2002.266l.9,1.019-1.289,2.419-.9-1.02Z" transform="translate(-1697.973 -2002.266)"/></g><g class="h" transform="translate(15.421 10.534)"><g class="as"><g class="h"><path class="q" d="M1717.585,1989.415l.9,1.02a.358.358,0,0,1,.021.409l-.9-1.019a.358.358,0,0,0-.021-.41" transform="translate(-1717.585 -1989.415)"/></g></g></g><g transform="translate(15.394 10.943)"><path class="z" d="M1717.574,1990.307l.9,1.02-.048.09-.9-1.019Z" transform="translate(-1717.526 -1990.307)"/></g><g class="h" transform="translate(5.667 18.851)"><g class="at"><g class="h"><path class="q" d="M1697.086,2007.536l.9,1.019a.718.718,0,0,1-.568.377.5.5,0,0,1-.185-.024l-.9-1.019a.5.5,0,0,0,.185.023.717.717,0,0,0,.568-.376" transform="translate(-1696.333 -2007.536)"/></g></g></g><g transform="translate(2.853 14.882)"><path class="aa" d="M1692.132,1998.89a.508.508,0,0,1,.187.023l2.531.852a.449.449,0,0,1,.208.673l-1.288,2.419a.717.717,0,0,1-.568.376.5.5,0,0,1-.185-.023l-2.534-.852a.449.449,0,0,1-.208-.673l1.289-2.419A.719.719,0,0,1,1692.132,1998.89Z" transform="translate(-1690.202 -1998.889)"/></g><g class="h" transform="translate(14.839 11.034)"><g class="au"><g class="h"><path class="q" d="M1716.872,1990.5l.9,1.019a.526.526,0,0,1-.417.276.37.37,0,0,1-.138-.018l-.9-1.019a.378.378,0,0,0,.138.018.528.528,0,0,0,.417-.276" transform="translate(-1716.317 -1990.504)"/></g></g></g><g transform="translate(11.331 12.222)"><path class="u" d="M1711,1993.872l.9,1.019-2.327-.779-.9-1.019Z" transform="translate(-1708.672 -1993.093)"/></g><g transform="translate(7.085 16.778)"><path class="k" d="M1700.555,2003.019l.9,1.02-1.134,2.125-.9-1.02Z" transform="translate(-1699.422 -2003.019)"/></g><g transform="translate(15.917 11.119)"><path class="k" d="M1718.712,1990.691l.9,1.019-.048.091-.9-1.019Z" transform="translate(-1718.664 -1990.691)"/></g><g class="h" transform="translate(13.657 13.001)"><g class="av"><g class="h"><path class="j" d="M1713.954,1994.931l.9,1.019a.5.5,0,0,0-.213-.14l-.9-1.019a.5.5,0,0,1,.213.14" transform="translate(-1713.741 -1994.791)"/></g></g></g><g class="h" transform="translate(15.964 10.843)"><g class="aw"><g class="h"><path class="j" d="M1719.319,1990.107l.9,1.019a.374.374,0,0,0-.137-.018.522.522,0,0,0-.414.276l-.9-1.019a.523.523,0,0,1,.414-.276.377.377,0,0,1,.137.018" transform="translate(-1718.768 -1990.089)"/></g></g></g><g transform="translate(11.193 2.557)"><path class="u" d="M1719.241,1975.69l.9,1.019-10.869-3.654-.9-1.019Z" transform="translate(-1708.372 -1972.036)"/></g><g class="h" transform="translate(15.863 11.21)"><g class="ax"><g class="h"><path class="j" d="M1718.6,1990.888l.9,1.02a.359.359,0,0,0,.022.412l-.9-1.019a.359.359,0,0,1-.022-.412" transform="translate(-1718.547 -1990.888)"/></g></g></g><g class="h" transform="translate(15.939 11.622)"><g class="ay"><g class="h"><path class="q" d="M1718.841,1991.871l.9,1.02a.3.3,0,0,1-.129-.085l-.9-1.02a.3.3,0,0,0,.129.085" transform="translate(-1718.712 -1991.786)"/></g></g></g><g class="h" transform="translate(6.99 18.903)"><g class="az"><g class="h"><path class="j" d="M1699.311,2007.648l.9,1.019a.626.626,0,0,0,.037.719l-.9-1.019a.625.625,0,0,1-.037-.719" transform="translate(-1699.216 -2007.648)"/></g></g></g><g class="h" transform="translate(22.061 6.211)"><g class="ba"><g class="h"><path class="j" d="M1732.285,1980.151l.9,1.019a.545.545,0,0,0-.234-.153l-.9-1.019a.547.547,0,0,1,.234.153" transform="translate(-1732.051 -1979.998)"/></g></g></g><g class="h" transform="translate(13.87 13.141)"><g class="bb"><g class="h"><path class="q" d="M1714.205,1995.1l.9,1.019a.6.6,0,0,1,.039.681l-.9-1.019a.6.6,0,0,0-.039-.681" transform="translate(-1714.205 -1995.096)"/></g></g></g><g class="h" transform="translate(7.122 19.622)"><g class="bc"><g class="h"><path class="q" d="M1699.728,2009.364l.9,1.019a.525.525,0,0,1-.225-.149l-.9-1.019a.525.525,0,0,0,.225.149" transform="translate(-1699.503 -2009.215)"/></g></g></g><g transform="translate(9.498 15.663)"><path class="x" d="M1707.006,2001.374l.9,1.02-2.326-.783-.9-1.019Z" transform="translate(-1704.68 -2000.59)"/></g><g transform="translate(9.184 16.325)"><path class="u" d="M1706.254,2002.794l.9,1.019-2.259-.761-.9-1.019Z" transform="translate(-1703.995 -2002.033)"/></g><g transform="translate(12.738 13.822)"><path class="z" d="M1712.909,1996.58l.9,1.019-1.171,2.2-.9-1.019Z" transform="translate(-1711.738 -1996.58)"/></g><g class="h" transform="translate(14.551 13.564)"><g class="bd"><g class="h"><path class="j" d="M1716.679,1996.05l.9,1.019a.647.647,0,0,0-.243-.031.937.937,0,0,0-.746.5l-.9-1.02a.937.937,0,0,1,.747-.5.648.648,0,0,1,.243.031" transform="translate(-1715.689 -1996.018)"/></g></g></g><g transform="translate(9.157 12.19)"><path class="aa" d="M1705.881,1993.025a.61.61,0,0,1,.229.03l2.327.78a.55.55,0,0,1,.252.821l-1.171,2.2a.863.863,0,0,1-.688.456.607.607,0,0,1-.225-.028l-2.326-.783a.541.541,0,0,1-.252-.818l1.172-2.2A.86.86,0,0,1,1705.881,1993.025Z" transform="translate(-1703.937 -1993.024)"/></g><g class="h" transform="translate(11.824 16.019)"><g class="be"><g class="h"><path class="q" d="M1710.661,2001.365l.9,1.019a.865.865,0,0,1-.688.456.613.613,0,0,1-.225-.028l-.9-1.02a.609.609,0,0,0,.225.029.864.864,0,0,0,.688-.456" transform="translate(-1709.748 -2001.365)"/></g></g></g><g class="h" transform="translate(11.442 17.086)"><g class="bf"><g class="h"><path class="j" d="M1709.145,2003.839l.9,1.02a.512.512,0,0,0-.228-.148l-.9-1.02a.514.514,0,0,1,.229.148" transform="translate(-1708.916 -2003.691)"/></g></g></g><g class="h" transform="translate(24.647 4.586)"><g class="bg"><g class="h"><path class="j" d="M1737.685,1976.457l.9,1.019a1.422,1.422,0,0,1,.121,1.636l-.9-1.019a1.423,1.423,0,0,0-.121-1.636" transform="translate(-1737.685 -1976.457)"/></g></g></g><g class="h" transform="translate(11.671 17.235)"><g class="bh"><g class="h"><path class="q" d="M1709.414,2004.014l.9,1.019a.627.627,0,0,1,.039.716l-.9-1.019a.627.627,0,0,0-.039-.716" transform="translate(-1709.414 -2004.014)"/></g></g></g><g transform="translate(10.575 17.951)"><path class="z" d="M1708.161,2005.574l.9,1.019-1.134,2.128-.9-1.019Z" transform="translate(-1707.027 -2005.574)"/></g><g transform="translate(11.255 14.062)"><path class="k" d="M1711.8,1997.1l.9,1.019-3.3,6.185-.9-1.02Z" transform="translate(-1708.508 -1997.101)"/></g><g class="h" transform="translate(13.214 16.851)"><g class="bi"><g class="h"><path class="q" d="M1712.965,2003.184l.9,1.02a.131.131,0,0,0-.048-.006.174.174,0,0,0-.141.093l-.9-1.019a.174.174,0,0,1,.141-.094.126.126,0,0,1,.048.006" transform="translate(-1712.776 -2003.178)"/></g></g></g><g transform="translate(13.108 16.944)"><path class="z" d="M1712.651,2003.382l.9,1.02-.106.2-.9-1.019Z" transform="translate(-1712.545 -2003.382)"/></g><g class="h" transform="translate(13.091 17.141)"><g class="bj"><g class="h"><path class="q" d="M1712.524,2003.81l.9,1.019a.122.122,0,0,0,.008.139l-.9-1.019a.122.122,0,0,1-.009-.139" transform="translate(-1712.507 -2003.81)"/></g></g></g><g transform="translate(16.516 10.862)"><path class="u" d="M1722.79,1991.076l.9,1.02-2.821-.946-.9-1.02Z" transform="translate(-1719.969 -1990.129)"/></g><g class="h" transform="translate(13.117 17.28)"><g class="bk"><g class="h"><path class="j" d="M1712.61,2004.143l.9,1.019a.1.1,0,0,1-.046-.03l-.9-1.019a.1.1,0,0,0,.046.03" transform="translate(-1712.564 -2004.113)"/></g></g></g><g transform="translate(7.347 19.771)"><path class="x" d="M1702.257,2010.3l.9,1.019-2.263-.757-.9-1.02Z" transform="translate(-1699.994 -2009.539)"/></g><g class="h" transform="translate(19.336 11.808)"><g class="bl"><g class="h"><path class="j" d="M1726.243,1992.276l.9,1.02a.3.3,0,0,0-.129-.084l-.9-1.019a.3.3,0,0,1,.129.084" transform="translate(-1726.114 -1992.191)"/></g></g></g><g class="h" transform="translate(12.687 17.836)"><g class="bm"><g class="h"><path class="q" d="M1711.821,2005.33l.9,1.019a.136.136,0,0,0-.05-.006.176.176,0,0,0-.143.1l-.9-1.019a.175.175,0,0,1,.143-.1.149.149,0,0,1,.05.006" transform="translate(-1711.628 -2005.324)"/></g></g></g><g transform="translate(12.582 17.933)"><path class="z" d="M1711.5,2005.536l.9,1.02-.105.193-.9-1.019Z" transform="translate(-1711.398 -2005.536)"/></g><g transform="translate(16.067 11.707)"><path class="x" d="M1721.813,1992.917l.9,1.02-2.821-.946-.9-1.02Z" transform="translate(-1718.992 -1991.971)"/></g><g class="h" transform="translate(12.564 18.126)"><g class="bn"><g class="h"><path class="q" d="M1711.377,2005.956l.9,1.02a.123.123,0,0,0,.01.142l-.9-1.019a.124.124,0,0,1-.01-.142" transform="translate(-1711.36 -2005.956)"/></g></g></g><g class="h" transform="translate(12.592 18.268)"><g class="bo"><g class="h"><path class="j" d="M1711.464,2006.3l.9,1.019a.113.113,0,0,1-.044-.03l-.9-1.02a.113.113,0,0,0,.044.031" transform="translate(-1711.42 -2006.266)"/></g></g></g><g class="h" transform="translate(19.465 11.892)"><g class="bp"><g class="h"><path class="q" d="M1726.4,1992.375l.9,1.02a.36.36,0,0,1,.022.412l-.9-1.019a.361.361,0,0,0-.022-.413" transform="translate(-1726.395 -1992.375)"/></g></g></g><g transform="translate(15.541 13.597)"><path class="u" d="M1719.649,1996.695l.9,1.019-1.8-.607-.9-1.02Z" transform="translate(-1717.845 -1996.088)"/></g><g transform="translate(19.439 12.305)"><path class="z" d="M1726.387,1993.274l.9,1.02-.048.09-.9-1.02Z" transform="translate(-1726.339 -1993.274)"/></g><g class="h" transform="translate(9.611 20.079)"><g class="bq"><g class="h"><path class="q" d="M1705.89,2010.211l.9,1.019a.911.911,0,0,1-.724.481.628.628,0,0,1-.241-.032l-.9-1.02a.637.637,0,0,0,.241.032.911.911,0,0,0,.724-.481" transform="translate(-1704.925 -2010.211)"/></g></g></g><g transform="translate(6.99 16.294)"><path class="aa" d="M1701.17,2001.965a.638.638,0,0,1,.239.031l2.259.761a.575.575,0,0,1,.267.864l-1.134,2.128a.911.911,0,0,1-.724.481.633.633,0,0,1-.241-.032l-2.263-.757a.577.577,0,0,1-.262-.868l1.133-2.125A.91.91,0,0,1,1701.17,2001.965Z" transform="translate(-1699.216 -2001.964)"/></g><g transform="translate(15.863 10.843)"><path class="aa" d="M1719.063,1990.089a.373.373,0,0,1,.137.018l2.821.947a.331.331,0,0,1,.151.5l-.048.09a.523.523,0,0,1-.414.276.367.367,0,0,1-.137-.018l-2.821-.946a.332.332,0,0,1-.151-.5l.048-.09A.523.523,0,0,1,1719.063,1990.089Z" transform="translate(-1718.547 -1990.089)"/></g><g class="h" transform="translate(18.888 12.395)"><g class="br"><g class="h"><path class="q" d="M1725.689,1993.471l.9,1.02a.522.522,0,0,1-.414.276.364.364,0,0,1-.137-.018l-.9-1.02a.367.367,0,0,0,.137.019.523.523,0,0,0,.414-.276" transform="translate(-1725.138 -1993.471)"/></g></g></g><g class="h" transform="translate(17.345 14.203)"><g class="bs"><g class="h"><path class="j" d="M1722.008,1997.564l.9,1.019a.54.54,0,0,0-.233-.153l-.9-1.02a.546.546,0,0,1,.233.154" transform="translate(-1721.775 -1997.41)"/></g></g></g><g class="h" transform="translate(17.577 14.357)"><g class="bt"><g class="h"><path class="q" d="M1722.282,1997.744l.9,1.019a.644.644,0,0,1,.041.736l-.9-1.019a.644.644,0,0,0-.041-.736" transform="translate(-1722.282 -1997.744)"/></g></g></g><g class="h" transform="translate(11.161 20.247)"><g class="bu"><g class="h"><path class="j" d="M1708.4,2010.576l.9,1.019a.649.649,0,0,0,.041.74l-.9-1.019a.649.649,0,0,1-.041-.74" transform="translate(-1708.302 -2010.576)"/></g></g></g><g class="h" transform="translate(11.296 20.986)"><g class="bv"><g class="h"><path class="q" d="M1708.826,2012.337l.9,1.019a.521.521,0,0,1-.229-.15l-.9-1.019a.521.521,0,0,0,.229.15" transform="translate(-1708.597 -2012.187)"/></g></g></g><g transform="translate(13.403 16.857)"><path class="x" d="M1715.736,2004.047l.9,1.019-2.549-.855-.9-1.02Z" transform="translate(-1713.187 -2003.192)"/></g><g class="h" transform="translate(15.952 17.712)"><g class="bw"><g class="h"><path class="q" d="M1718.784,2005.085l.9,1.019a.109.109,0,0,0-.045-.03l-.9-1.019a.11.11,0,0,1,.045.03" transform="translate(-1718.74 -2005.055)"/></g></g></g><g class="h" transform="translate(15.996 17.743)"><g class="bx"><g class="h"><path class="j" d="M1718.837,2005.121l.9,1.02a.124.124,0,0,1,.01.142l-.9-1.019a.125.125,0,0,0-.01-.142" transform="translate(-1718.837 -2005.121)"/></g></g></g><g transform="translate(13.163 17.31)"><path class="u" d="M1715.212,2005.037l.9,1.02-2.548-.859-.9-1.02Z" transform="translate(-1712.664 -2004.178)"/></g><g transform="translate(15.901 17.885)"><path class="k" d="M1718.734,2005.431l.9,1.019-.105.193-.9-1.019Z" transform="translate(-1718.629 -2005.431)"/></g><g class="h" transform="translate(15.711 18.078)"><g class="by"><g class="h"><path class="j" d="M1718.406,2005.851l.9,1.019a.18.18,0,0,1-.144.1.125.125,0,0,1-.045-.005l-.9-1.02a.124.124,0,0,0,.046.006.181.181,0,0,0,.144-.1" transform="translate(-1718.216 -2005.851)"/></g></g></g><g transform="translate(12.88 17.842)"><path class="x" d="M1714.6,2006.2l.9,1.019-2.548-.859-.9-1.019Z" transform="translate(-1712.049 -2005.337)"/></g><g class="h" transform="translate(15.428 18.701)"><g class="bz"><g class="h"><path class="q" d="M1717.645,2007.236l.9,1.02a.1.1,0,0,0-.045-.029l-.9-1.019a.1.1,0,0,1,.045.028" transform="translate(-1717.6 -2007.208)"/></g></g></g><g class="h" transform="translate(15.473 18.729)"><g class="ca"><g class="h"><path class="j" d="M1717.7,2007.27l.9,1.02a.124.124,0,0,1,.006.141l-.9-1.019a.124.124,0,0,0-.006-.141" transform="translate(-1717.697 -2007.27)"/></g></g></g><g transform="translate(12.636 18.299)"><path class="u" d="M1714.065,2007.187l.9,1.019-2.549-.855-.9-1.019Z" transform="translate(-1711.516 -2006.332)"/></g><g transform="translate(15.377 18.87)"><path class="m" d="M1717.591,2007.577l.9,1.02-.1.2-.9-1.019Z" transform="translate(-1717.489 -2007.577)"/></g><g transform="translate(12.564 17.836)"><path class="cb" d="M1711.626,2005.324a.148.148,0,0,1,.05.006l2.548.859a.112.112,0,0,1,.051.169l-.1.2a.178.178,0,0,1-.144.094.127.127,0,0,1-.049-.006l-2.549-.855a.117.117,0,0,1-.054-.173l.106-.193A.175.175,0,0,1,1711.626,2005.324Z" transform="translate(-1711.36 -2005.324)"/></g><g class="h" transform="translate(15.185 19.066)"><g class="cc"><g class="h"><path class="j" d="M1717.262,2008l.9,1.02a.18.18,0,0,1-.144.094.13.13,0,0,1-.049-.006l-.9-1.02a.131.131,0,0,0,.049.006.179.179,0,0,0,.144-.094" transform="translate(-1717.069 -2008.004)"/></g></g></g><g transform="translate(11.525 21.136)"><path class="x" d="M1710.9,2013.121l.9,1.02-1.8-.607-.9-1.02Z" transform="translate(-1709.097 -2012.514)"/></g><g transform="translate(14.323 15.093)"><path class="z" d="M1718.487,1999.348l.9,1.02-3.3,6.185-.9-1.019Z" transform="translate(-1715.192 -1999.348)"/></g><g class="h" transform="translate(13.329 21.278)"><g class="cd"><g class="h"><path class="q" d="M1714.021,2012.823l.9,1.019a.937.937,0,0,1-.748.5.664.664,0,0,1-.245-.031l-.9-1.019a.675.675,0,0,0,.245.031.94.94,0,0,0,.749-.5" transform="translate(-1713.027 -2012.823)"/></g></g></g><g transform="translate(11.161 13.564)"><path class="aa" d="M1714.486,1996.657a.594.594,0,0,1,.274.89l-3.3,6.185a.94.94,0,0,1-.749.5.67.67,0,0,1-.245-.031l-1.8-.607a.6.6,0,0,1-.271-.89l3.3-6.185a.937.937,0,0,1,.747-.5.647.647,0,0,1,.243.031Zm-1.865,4.667a.112.112,0,0,0-.051-.169l-2.548-.859a.153.153,0,0,0-.05-.006.175.175,0,0,0-.143.1l-.105.193a.117.117,0,0,0,.054.172l2.549.855a.125.125,0,0,0,.049.006.178.178,0,0,0,.144-.093l.1-.2m.526-.985a.117.117,0,0,0-.054-.173l-2.549-.855a.129.129,0,0,0-.048-.006.175.175,0,0,0-.141.094l-.106.2a.113.113,0,0,0,.054.169l2.548.859a.13.13,0,0,0,.045.005.179.179,0,0,0,.144-.1l.105-.193" transform="translate(-1708.302 -1996.018)"/></g><path class="cb" d="M1708.041,1970.665a1.361,1.361,0,0,1,.713,2.022l-9.292,17.446a2.1,2.1,0,0,1-1.7,1.084,1.674,1.674,0,0,1-.626-.081l-12.242-4.117a1.36,1.36,0,0,1-.71-2.022l9.292-17.446a2.091,2.091,0,0,1,1.695-1.085,1.7,1.7,0,0,1,.628.081Zm-1.709,2.816a.543.543,0,0,0-.284-.8l-10.869-3.654a.661.661,0,0,0-.25-.033.831.831,0,0,0-.673.431l-1.4,2.63a.543.543,0,0,0,.284.8l10.869,3.654a.661.661,0,0,0,.251.033.831.831,0,0,0,.673-.432l1.4-2.63m-4.727,8.077a.594.594,0,0,0-.274-.89l-1.8-.607a.649.649,0,0,0-.243-.031.938.938,0,0,0-.747.5l-3.3,6.185a.6.6,0,0,0,.271.89l1.8.607a.668.668,0,0,0,.245.031.939.939,0,0,0,.749-.5l3.3-6.185m-11.767,4.134a.717.717,0,0,0,.568-.376l1.288-2.419a.449.449,0,0,0-.208-.673l-2.531-.852a.507.507,0,0,0-.187-.023.717.717,0,0,0-.569.376l-1.289,2.419a.448.448,0,0,0,.208.673l2.534.853a.491.491,0,0,0,.185.023m-.727-5.681a.48.48,0,0,0,.223.72l2.467.83a.536.536,0,0,0,.2.025.758.758,0,0,0,.6-.4l1.251-2.351a.478.478,0,0,0-.223-.717l-2.467-.83a.522.522,0,0,0-.2-.027.765.765,0,0,0-.6.4l-1.251,2.348m8.533-.545-2.327-.78a.608.608,0,0,0-.229-.03.859.859,0,0,0-.683.454l-1.172,2.2a.541.541,0,0,0,.252.817l2.326.784a.613.613,0,0,0,.226.028.864.864,0,0,0,.688-.456l1.171-2.2a.55.55,0,0,0-.251-.821m-3.806,7.558a.91.91,0,0,0,.724-.481l1.134-2.128a.575.575,0,0,0-.267-.864l-2.259-.761a.636.636,0,0,0-.239-.031.909.909,0,0,0-.726.484l-1.133,2.124a.577.577,0,0,0,.262.868l2.263.757a.63.63,0,0,0,.241.032m-2.029-12.07a.328.328,0,0,0,.151.493l2.82.95a.362.362,0,0,0,.135.016.52.52,0,0,0,.417-.278l.048-.09a.328.328,0,0,0-.151-.493l-2.82-.95a.362.362,0,0,0-.137-.018.521.521,0,0,0-.414.275l-.049.094m4.045,1.358a.332.332,0,0,0,.151.5l2.821.946a.372.372,0,0,0,.138.018.527.527,0,0,0,.417-.276l.048-.09a.327.327,0,0,0-.151-.493l-2.82-.95a.362.362,0,0,0-.138-.018.528.528,0,0,0-.417.276l-.048.09m7.619,2.457a.332.332,0,0,0-.151-.5l-2.82-.946a.372.372,0,0,0-.137-.018.523.523,0,0,0-.414.276l-.048.09a.332.332,0,0,0,.151.5l2.821.946a.364.364,0,0,0,.137.019.523.523,0,0,0,.414-.276l.048-.09" transform="translate(-1683.987 -1966.465)"/><g transform="translate(11.814 9.481)"><path class="aa" d="M1710.245,1987.122a.367.367,0,0,1,.138.018l2.82.95a.327.327,0,0,1,.151.493l-.048.091a.527.527,0,0,1-.417.276.373.373,0,0,1-.138-.018l-2.821-.946a.332.332,0,0,1-.15-.5l.048-.09A.528.528,0,0,1,1710.245,1987.122Z" transform="translate(-1709.726 -1987.122)"/></g><g transform="translate(13.091 16.851)"><path class="cb" d="M1712.771,2003.178a.137.137,0,0,1,.048.006l2.549.855a.117.117,0,0,1,.054.173l-.105.193a.18.18,0,0,1-.144.1.129.129,0,0,1-.045-.006l-2.548-.859a.113.113,0,0,1-.055-.169l.106-.2A.174.174,0,0,1,1712.771,2003.178Z" transform="translate(-1712.507 -2003.178)"/></g><g transform="translate(0.911 20.555)"><path class="u" d="M1698.214,2015.365l.9,1.019-12.242-4.117-.9-1.019Z" transform="translate(-1685.972 -2011.248)"/></g><g transform="translate(15.476 6.223)"><path class="k" d="M1727,1980.022l.9,1.02-9.292,17.445-.9-1.02Z" transform="translate(-1717.703 -1980.022)"/></g><g class="h" transform="translate(13.153 23.668)"><g class="ce"><g class="h"><path class="j" d="M1714.965,2018.03l.9,1.02a2.1,2.1,0,0,1-1.7,1.085,1.682,1.682,0,0,1-.626-.081l-.9-1.02a1.674,1.674,0,0,0,.626.081,2.1,2.1,0,0,0,1.7-1.085" transform="translate(-1712.643 -2018.03)"/></g></g></g></g></g></svg>