<svg xmlns="http://www.w3.org/2000/svg" xmlns:xlink="http://www.w3.org/1999/xlink" width="40.585" height="48.226" viewBox="0 0 40.585 48.226"><defs><style>.a{fill:none;}.b{opacity:0.8;}.c{fill:#424242;opacity:0.5;}.d{fill:url(#a);}.e{fill:#fff;}.f{isolation:isolate;}.g{clip-path:url(#e);}.h{fill:#855714;}.i{clip-path:url(#f);}.j{clip-path:url(#g);}.k{clip-path:url(#h);}.l{clip-path:url(#i);}.m{fill:#858585;}.n{clip-path:url(#j);}.o{fill:#fefefe;}.p{clip-path:url(#k);}.q{fill:#fea626;}.r{clip-path:url(#l);}</style><linearGradient id="a" y1="0.5" x2="1" y2="0.5" gradientUnits="objectBoundingBox"><stop offset="0" stop-color="#ffa726"/><stop offset="0" stop-color="#c3bb31"/><stop offset="0" stop-color="#3adf41"/><stop offset="0.614" stop-color="#32b07c"/><stop offset="1" stop-color="#2e979e"/></linearGradient><clipPath id="e"><path class="a" d="M1567.007,1712.657a10.812,10.812,0,0,0-1.2,2.065l-1.539-1.763a10.8,10.8,0,0,1,1.2-2.065Z" transform="translate(-1564.263 -1710.894)"/></clipPath><clipPath id="f"><path class="a" d="M1568.447,1712.666a.025.025,0,0,0-.021-.009l-1.36-1.557-.18-.206a.023.023,0,0,1,.022.008Z" transform="translate(-1566.886 -1710.894)"/></clipPath><clipPath id="g"><path class="a" d="M1544.766,1727.177l-1.539-1.763a5.985,5.985,0,0,0,3.538,1.612l1.539,1.764A5.983,5.983,0,0,1,1544.766,1727.177Z" transform="translate(-1543.227 -1725.414)"/></clipPath><clipPath id="h"><path class="a" d="M1556.706,1726.372c-1.366.865-1.38,1.126-1.315,1.2l-1.539-1.764c-.065-.074-.051-.334,1.315-1.2Z" transform="translate(-1553.832 -1724.608)"/></clipPath><clipPath id="i"><path class="a" d="M1555.414,1728.986l-1.539-1.764a.093.093,0,0,0,.044.028l1.539,1.764A.1.1,0,0,1,1555.414,1728.986Z" transform="translate(-1553.875 -1727.222)"/></clipPath><clipPath id="j"><path class="a" d="M1561.732,1717.157a11.332,11.332,0,0,1-3.452,4.23l-1.54-1.764a11.334,11.334,0,0,0,3.453-4.229h0l.179.206.19.218.2.227.2.231.2.231.2.227.191.219.18.205Z" transform="translate(-1556.741 -1715.393)"/></clipPath><clipPath id="k"><path class="a" d="M1559.921,1710.912l1.539,1.764a7.323,7.323,0,0,1-.652,2.34c-1.62,4.648-4.671,5.12-5.213,5.168-.055.005-.083.005-.084.005l-1.539-1.764s.029,0,.083-.005c.543-.048,3.593-.52,5.214-5.168A7.337,7.337,0,0,0,1559.921,1710.912Z" transform="translate(-1553.972 -1710.912)"/></clipPath><clipPath id="l"><path class="a" d="M1558.338,1691.862l1.539,1.763c.211.819,4.215,16.374-4.821,17.165a9.757,9.757,0,0,1-2.581-.152l-1.539-1.764a9.724,9.724,0,0,0,2.581.152C1562.552,1708.236,1558.548,1692.681,1558.338,1691.862Z" transform="translate(-1550.935 -1691.862)"/></clipPath></defs><g class="b" transform="translate(0.012 42.756)"><ellipse class="c" cx="20.287" cy="2.735" rx="20.287" ry="2.735"/></g><g transform="translate(0 21.258)"><path class="d" d="M1484.419,1762.82v-17.587s.292-7.1,10.5-7.055c0,0-4.415.894-4.457,7.055s0,17.587,0,17.587Z" transform="translate(-1484.419 -1738.177)"/><path class="d" d="M1528.291,1762.82v-17.587s-.292-7.1-10.5-7.055c0,0,4.415.894,4.457,7.055s0,17.587,0,17.587Z" transform="translate(-1502.476 -1738.177)"/><path class="d" d="M1544.118,1762.82v-17.587s-.292-7.1-10.5-7.055c0,0,4.415.894,4.457,7.055s0,17.587,0,17.587Z" transform="translate(-1511.038 -1738.177)"/><path class="d" d="M1560.03,1763.123v-17.587s-.292-7.1-10.5-7.055c0,0,4.415.894,4.457,7.055s0,17.587,0,17.587Z" transform="translate(-1519.647 -1738.342)"/><ellipse class="e" cx="5.059" cy="6.035" rx="5.059" ry="6.035" transform="translate(7.944 0.563)"/></g><g transform="translate(26.332 0)"><g class="f"><g class="f" transform="translate(10.316 8.736)"><g class="g"><g class="f" transform="translate(-3.453)"><path class="h" d="M1561.4,1710.894l1.539,1.763a10.837,10.837,0,0,0-1.2,2.066,11.331,11.331,0,0,1-3.452,4.23l-1.54-1.764a11.333,11.333,0,0,0,3.453-4.229,10.8,10.8,0,0,1,1.2-2.065" transform="translate(-1556.741 -1710.894)"/></g></g></g><g class="f" transform="translate(11.52 8.735)"><g class="i"><g class="f"><path class="h" d="M1566.908,1710.9l1.539,1.764a.025.025,0,0,0-.021-.009l-1.54-1.763a.023.023,0,0,1,.022.008" transform="translate(-1566.886 -1710.894)"/></g></g></g><g class="f" transform="translate(0.661 15.4)"><g class="j"><g class="f"><path class="h" d="M1546.765,1727.026l1.539,1.764a5.983,5.983,0,0,1-3.538-1.613l-1.539-1.763a5.985,5.985,0,0,0,3.538,1.612" transform="translate(-1543.227 -1725.414)"/></g></g></g><g class="f" transform="translate(5.528 15.03)"><g class="k"><g class="f"><path class="h" d="M1555.167,1724.608l1.539,1.764c-1.366.865-1.38,1.126-1.315,1.2l-1.539-1.764c-.065-.074-.051-.334,1.315-1.2" transform="translate(-1553.832 -1724.608)"/></g></g></g><g class="f" transform="translate(5.548 16.23)"><g class="l"><g class="f"><path class="m" d="M1553.919,1727.25l1.539,1.764a.1.1,0,0,1-.044-.027l-1.539-1.764a.093.093,0,0,0,.044.028" transform="translate(-1553.875 -1727.222)"/></g></g></g><g class="f" transform="translate(6.864 10.801)"><g class="n"><g class="f" transform="translate(0 -2.065)"><path class="h" d="M1561.4,1710.894l1.539,1.763a10.837,10.837,0,0,0-1.2,2.066,11.331,11.331,0,0,1-3.452,4.23l-1.54-1.764a11.333,11.333,0,0,0,3.453-4.229,10.8,10.8,0,0,1,1.2-2.065" transform="translate(-1556.741 -1710.894)"/></g></g></g><g transform="translate(5.528 8.735)"><path class="o" d="M1559.824,1710.894c.11-.01-.008.564-.63,2.349-1.62,4.648-4.671,5.12-5.214,5.168-.055,0-.082.005-.083.005-.023-.007-.455-.134,1.271-1.227a11.334,11.334,0,0,0,3.453-4.23A10.8,10.8,0,0,1,1559.824,1710.894Z" transform="translate(-1553.832 -1710.894)"/></g><g class="f" transform="translate(5.593 8.744)"><g class="p"><g class="f"><path class="m" d="M1559.921,1710.912l1.539,1.764a7.323,7.323,0,0,1-.652,2.34c-1.62,4.648-4.671,5.12-5.213,5.168-.055.005-.083.005-.084.005l-1.539-1.764s.029,0,.083-.005c.543-.048,3.593-.52,5.214-5.168a7.337,7.337,0,0,0,.652-2.34" transform="translate(-1553.972 -1710.912)"/></g></g></g><path class="q" d="M1553.389,1691.862c.21.818,4.214,16.374-4.822,17.164a9.724,9.724,0,0,1-2.581-.152C1533.624,1706.636,1552.4,1692.6,1553.389,1691.862Zm-.712,11.084c.623-1.785.74-2.358.63-2.349a10.8,10.8,0,0,0-1.2,2.065,11.338,11.338,0,0,1-3.453,4.23c-1.725,1.093-1.294,1.22-1.271,1.227,0,0,.029,0,.084-.005.543-.047,3.593-.52,5.213-5.168" transform="translate(-1541.787 -1691.862)"/><g class="f" transform="translate(4.199)"><g class="r"><g class="f"><path class="h" d="M1558.338,1691.862l1.539,1.763c.211.819,4.215,16.374-4.821,17.165a9.757,9.757,0,0,1-2.581-.152l-1.539-1.764a9.724,9.724,0,0,0,2.581.152c9.036-.79,5.032-16.346,4.821-17.164" transform="translate(-1550.935 -1691.862)"/></g></g></g></g></g></svg>