<svg xmlns="http://www.w3.org/2000/svg" xmlns:xlink="http://www.w3.org/1999/xlink" width="30.801" height="48.622" viewBox="0 0 30.801 48.622"><defs><style>.a{fill:none;}.b{opacity:0.8;}.c{fill:#424242;opacity:0.5;}.d{isolation:isolate;}.e{clip-path:url(#a);}.f{fill:#855714;}.g{clip-path:url(#b);}.h{clip-path:url(#c);}.i{fill:#fba425;}.j{clip-path:url(#d);}.k{clip-path:url(#e);}.l{clip-path:url(#f);}.m{clip-path:url(#g);}.n{clip-path:url(#h);}.o{clip-path:url(#i);}.p{clip-path:url(#j);}.q{clip-path:url(#k);}.r{clip-path:url(#l);}.s{clip-path:url(#m);}.t{clip-path:url(#n);}.u{clip-path:url(#o);}.v{clip-path:url(#p);}.w{clip-path:url(#q);}.x{fill:url(#r);}</style><clipPath id="a"><path class="a" d="M1710.411,1714.407l1.522,1.178c-5.606,2.3-6.737,5.335-6.8,5.495l-1.522-1.177C1703.674,1719.742,1704.8,1716.71,1710.411,1714.407Z" transform="translate(-1703.614 -1714.407)"/></clipPath><clipPath id="b"><path class="a" d="M1730.124,1702.043l1.522,1.178a1.311,1.311,0,0,1,.551,1.45l-1.522-1.178A1.31,1.31,0,0,0,1730.124,1702.043Z" transform="translate(-1730.124 -1702.043)"/></clipPath><clipPath id="c"><path class="a" d="M1706.459,1739.137l-1.522-1.178a5.525,5.525,0,0,1-1.978-2.976l1.522,1.178A5.524,5.524,0,0,0,1706.459,1739.137Z" transform="translate(-1702.959 -1734.983)"/></clipPath><clipPath id="d"><path class="a" d="M1724.345,1705.2l1.522,1.178c0,.134,0,2.682-5.922,4.225l-1.522-1.178C1724.343,1707.885,1724.345,1705.337,1724.345,1705.2Z" transform="translate(-1718.423 -1705.203)"/></clipPath><clipPath id="e"><path class="a" d="M1735.832,1702.943l1.522,1.178a9.57,9.57,0,0,0-5.844-1.537l-.107.006-1.522-1.178.108-.006A9.571,9.571,0,0,1,1735.832,1702.943Z" transform="translate(-1729.88 -1701.394)"/></clipPath><clipPath id="f"><path class="a" d="M1709.538,1734.714l-1.522-1.178c.224.174.49.369.806.59a4.937,4.937,0,0,0,3.046.664,9.871,9.871,0,0,0,2.156-.354l1.522,1.178a9.878,9.878,0,0,1-2.155.355,4.944,4.944,0,0,1-3.047-.665C1710.028,1735.083,1709.762,1734.887,1709.538,1734.714Z" transform="translate(-1708.016 -1733.536)"/></clipPath><clipPath id="g"><path class="a" d="M1719.8,1729.116l1.522,1.178a2.342,2.342,0,0,0,.408,2.929l-1.522-1.178A2.343,2.343,0,0,1,1719.8,1729.116Z" transform="translate(-1719.452 -1729.116)"/></clipPath><clipPath id="h"><path class="a" d="M1707.481,1750.2l-1.522-1.178a7.739,7.739,0,0,0,3,1.329l1.522,1.178A7.735,7.735,0,0,1,1707.481,1750.2Z" transform="translate(-1705.959 -1749.027)"/></clipPath><clipPath id="i"><path class="a" d="M1721.661,1744.392l-1.522-1.178c.033.026.067.051.1.076l1.522,1.178C1721.728,1744.443,1721.694,1744.418,1721.661,1744.392Z" transform="translate(-1720.139 -1743.214)"/></clipPath><clipPath id="j"><path class="a" d="M1743.514,1696.659l1.521,1.177c2.764,2.139,1.6,6.216,1.516,6.511l-1.522-1.178C1745.114,1702.875,1746.278,1698.8,1743.514,1696.659Z" transform="translate(-1743.514 -1696.659)"/></clipPath><clipPath id="k"><path class="a" d="M1741.013,1712.366l1.522,1.178a6.38,6.38,0,0,1,1.432,1.566l-1.522-1.178A6.376,6.376,0,0,0,1741.013,1712.366Z" transform="translate(-1741.013 -1712.366)"/></clipPath><clipPath id="l"><path class="a" d="M1731.193,1715.778l1.522,1.178c-.043.094-.866,1.88-5.575,3.445s-5.367,2.622-5.4,2.677l-1.522-1.178c.035-.055.692-1.109,5.4-2.677S1731.15,1715.872,1731.193,1715.778Z" transform="translate(-1720.216 -1715.778)"/></clipPath><clipPath id="m"><path class="a" d="M1720.247,1748.838l-1.522-1.178c-.223-.172-1.906-1.567-.017-3.47l1.522,1.178C1718.34,1747.271,1720.024,1748.666,1720.247,1748.838Z" transform="translate(-1717.821 -1744.19)"/></clipPath><clipPath id="n"><path class="a" d="M1715.857,1751.782l1.522,1.178c-.064,0-1.29.068-3.372.064l-1.522-1.178C1714.568,1751.849,1715.793,1751.785,1715.857,1751.782Z" transform="translate(-1712.485 -1751.782)"/></clipPath><clipPath id="o"><path class="a" d="M1727.328,1737.222l1.522,1.178a30.657,30.657,0,0,0-6.968,2.826l-1.522-1.178A30.672,30.672,0,0,1,1727.328,1737.222Z" transform="translate(-1720.361 -1737.222)"/></clipPath><clipPath id="p"><path class="a" d="M1746.016,1719.719l1.522,1.178a6.19,6.19,0,0,1-.128,2.934l-1.522-1.178A6.191,6.191,0,0,0,1746.016,1719.719Z" transform="translate(-1745.888 -1719.719)"/></clipPath><clipPath id="q"><path class="a" d="M1740.29,1726.111l1.522,1.178a9.248,9.248,0,0,1-4.749,5.1l-1.522-1.178A9.242,9.242,0,0,0,1740.29,1726.111Z" transform="translate(-1735.541 -1726.111)"/></clipPath><linearGradient id="r" y1="0.5" x2="1" y2="0.5" gradientUnits="objectBoundingBox"><stop offset="0" stop-color="#ffa726"/><stop offset="0" stop-color="#c3bb31"/><stop offset="0" stop-color="#3adf41"/><stop offset="0.614" stop-color="#32b07c"/><stop offset="1" stop-color="#2e979e"/></linearGradient></defs><g class="b" transform="translate(0.824 43.152)"><ellipse class="c" cx="14.825" cy="2.735" rx="14.825" ry="2.735"/></g><g transform="translate(4.538 0)"><g class="d"><g class="d" transform="translate(0.777 9.436)"><g class="e"><g class="d"><path class="f" d="M1710.411,1714.407l1.522,1.178c-5.606,2.3-6.737,5.335-6.8,5.495l-1.522-1.177c.06-.16,1.191-3.192,6.8-5.5" transform="translate(-1703.614 -1714.407)"/></g></g></g><g class="d" transform="translate(12.945 3.761)"><g class="g"><g class="d"><path class="f" d="M1730.124,1702.043l1.522,1.178a1.311,1.311,0,0,1,.551,1.45l-1.522-1.178a1.31,1.31,0,0,0-.551-1.45" transform="translate(-1730.124 -1702.043)"/></g></g></g><g class="d" transform="translate(0.477 18.88)"><g class="h"><g class="d"><path class="f" d="M1702.959,1734.983l1.522,1.178a5.524,5.524,0,0,0,1.978,2.975l-1.522-1.178a5.525,5.525,0,0,1-1.978-2.976" transform="translate(-1702.959 -1734.983)"/></g></g></g><g transform="translate(0.7 3.618)"><path class="i" d="M1715.484,1701.732a1.362,1.362,0,0,1,.758,1.593c0,.134,0,2.682-5.922,4.225-5.606,2.3-6.738,5.335-6.8,5.5-.62-3.233,2.61-7.425,5.547-8.225A26.822,26.822,0,0,0,1715.484,1701.732Z" transform="translate(-1703.446 -1701.732)"/></g><g class="d" transform="translate(7.574 5.211)"><g class="j"><g class="d"><path class="f" d="M1724.345,1705.2l1.522,1.178c0,.134,0,2.682-5.922,4.225l-1.522-1.178c5.919-1.543,5.922-4.09,5.922-4.224" transform="translate(-1718.423 -1705.203)"/></g></g></g><g class="d" transform="translate(12.833 3.463)"><g class="k"><g class="d"><path class="f" d="M1735.832,1702.943l1.522,1.178a9.57,9.57,0,0,0-5.844-1.537l-.107.006-1.522-1.178.108-.006a9.571,9.571,0,0,1,5.844,1.537" transform="translate(-1729.88 -1701.394)"/></g></g></g><g class="d" transform="translate(2.798 18.216)"><g class="l"><g class="d"><path class="f" d="M1714.024,1734.437l1.522,1.178a9.878,9.878,0,0,1-2.155.355,4.944,4.944,0,0,1-3.047-.665c-.316-.22-.583-.416-.807-.59l-1.522-1.178c.224.174.49.369.806.59a4.937,4.937,0,0,0,3.046.664,9.871,9.871,0,0,0,2.156-.354" transform="translate(-1708.016 -1733.536)"/></g></g></g><g class="d" transform="translate(8.047 16.187)"><g class="m"><g class="d"><path class="f" d="M1719.8,1729.116l1.522,1.178a2.342,2.342,0,0,0,.408,2.929l-1.522-1.178a2.343,2.343,0,0,1-.409-2.929" transform="translate(-1719.452 -1729.116)"/></g></g></g><g class="d" transform="translate(1.854 25.326)"><g class="n"><g class="d"><path class="f" d="M1708.954,1750.356l1.522,1.178a7.735,7.735,0,0,1-3-1.329l-1.522-1.178a7.739,7.739,0,0,0,3,1.329" transform="translate(-1705.959 -1749.027)"/></g></g></g><g class="d" transform="translate(8.362 22.658)"><g class="o"><g class="d"><path class="f" d="M1720.241,1743.29l1.522,1.178c-.035-.025-.069-.05-.1-.075l-1.522-1.178c.033.026.067.051.1.076" transform="translate(-1720.139 -1743.214)"/></g></g></g><g class="d" transform="translate(19.091 1.289)"><g class="p"><g class="d"><path class="f" d="M1743.514,1696.659l1.521,1.177c2.764,2.139,1.6,6.216,1.516,6.511l-1.522-1.178c.084-.295,1.248-4.372-1.516-6.511" transform="translate(-1743.514 -1696.659)"/></g></g></g><g transform="translate(12.833)"><path class="i" d="M1730.552,1693.873c9.463-.5,7.219,7.364,7.1,7.778-1.156-4.495-6.816-4.371-7.666-4.326l-.108.007c2.049-1.954.467-3.366.384-3.441Z" transform="translate(-1729.88 -1693.85)"/></g><g class="d" transform="translate(17.943 8.499)"><g class="q"><g class="d"><path class="f" d="M1741.013,1712.366l1.522,1.178a6.38,6.38,0,0,1,1.432,1.566l-1.522-1.178a6.376,6.376,0,0,0-1.432-1.566" transform="translate(-1741.013 -1712.366)"/></g></g></g><g transform="translate(1.607 7.189)"><path class="i" d="M1717.288,1709.523a6.422,6.422,0,0,1,5.9,2.865c-.043.094-.866,1.88-5.576,3.445s-5.367,2.622-5.4,2.677a2.343,2.343,0,0,0,.409,2.929,9.875,9.875,0,0,1-2.156.354,4.938,4.938,0,0,1-3.046-.665c-1.876-1.309-1.991-1.75-2-1.773.061-.117,1.225-2.342,6.286-4.038s5.195-3.446,5.2-3.538a2.226,2.226,0,0,0-.584-2.138A5.771,5.771,0,0,1,1717.288,1709.523Z" transform="translate(-1705.422 -1709.513)"/></g><g class="d" transform="translate(8.397 10.065)"><g class="r"><g class="d"><path class="f" d="M1731.193,1715.778l1.522,1.178c-.043.094-.866,1.88-5.575,3.445s-5.367,2.622-5.4,2.677l-1.522-1.178c.035-.055.692-1.109,5.4-2.677s5.532-3.351,5.575-3.445" transform="translate(-1720.216 -1715.778)"/></g></g></g><g class="d" transform="translate(7.298 23.106)"><g class="s"><g class="d"><path class="f" d="M1718.708,1744.19l1.522,1.178c-1.89,1.9-.205,3.3.017,3.47l-1.522-1.178c-.223-.172-1.906-1.567-.017-3.47" transform="translate(-1717.821 -1744.19)"/></g></g></g><g transform="translate(0 18.88)"><path class="i" d="M1702.4,1734.983a6.219,6.219,0,0,0,4.584,4.23,9.8,9.8,0,0,0,2.3.048c.472-.025.808-.051.826-.052-1.966,1.981-.064,3.41.036,3.485-.064,0-1.29.067-3.372.064C1699.958,1741.148,1702.275,1735.292,1702.4,1734.983Z" transform="translate(-1701.921 -1734.983)"/></g><g class="d" transform="translate(4.849 26.59)"><g class="t"><g class="d"><path class="f" d="M1715.857,1751.782l1.522,1.178c-.064,0-1.29.068-3.372.064l-1.522-1.178c2.083,0,3.308-.061,3.372-.064" transform="translate(-1712.485 -1751.782)"/></g></g></g><g class="d" transform="translate(8.464 19.908)"><g class="u"><g class="d"><path class="f" d="M1727.328,1737.222l1.522,1.178a30.657,30.657,0,0,0-6.968,2.826l-1.522-1.178a30.672,30.672,0,0,1,6.968-2.826" transform="translate(-1720.361 -1737.222)"/></g></g></g><g class="d" transform="translate(20.181 11.874)"><g class="v"><g class="d"><path class="f" d="M1746.016,1719.719l1.522,1.178a6.19,6.19,0,0,1-.128,2.934l-1.522-1.178a6.191,6.191,0,0,0,.128-2.934" transform="translate(-1745.888 -1719.719)"/></g></g></g><g transform="translate(7.622 11.874)"><path class="i" d="M1731.213,1719.719a6.189,6.189,0,0,1-.128,2.934,9.244,9.244,0,0,1-4.749,5.1,30.641,30.641,0,0,0-6.967,2.826,1.872,1.872,0,0,1-.455-2.682c.041-.065.807-1.294,5.917-2.992S1731.149,1719.893,1731.213,1719.719Z" transform="translate(-1718.526 -1719.719)"/></g><g class="d" transform="translate(15.432 14.808)"><g class="w"><g class="d"><path class="f" d="M1740.29,1726.111l1.522,1.178a9.248,9.248,0,0,1-4.749,5.1l-1.522-1.178a9.242,9.242,0,0,0,4.749-5.1" transform="translate(-1735.541 -1726.111)"/></g></g></g></g></g><g transform="translate(0 29.258)"><path class="x" d="M1697.714,1758.2a4.38,4.38,0,0,0-2.918,1.3,2.128,2.128,0,0,0-2.763-1.019c.387.294.3,1.114.3,1.114s.016,11.126,0,13.286c.454,2.055,2.841,1.6,2.841,1.6-.236-.14-.188-1.019-.188-1.019v-3.669a3.666,3.666,0,0,0,3.953.315s2.92-1.51,2.888-6.111S1699.315,1758.268,1697.714,1758.2Zm1.051,8.586s-.754,1.476-1.9,1.527a2.507,2.507,0,0,1-1.914-1v-5.847a2.3,2.3,0,0,1,1.978-1.036,1.693,1.693,0,0,1,1.82,1.37C1699.236,1763.378,1698.766,1766.785,1698.766,1766.785Z" transform="translate(-1692.033 -1757.92)"/><path class="x" d="M1734.654,1769.439c-.042-.351,0-9.506,0-9.506s-.083-1.873-2.553-2.224a4.8,4.8,0,0,0-3.41,1.5,2.716,2.716,0,0,0-3.013-1.592c-2.385.234-3.117,1.077-3.117,1.077a5.509,5.509,0,0,0-3.369-.914c-1.82.187-4.184.726-4.289,4.121s2.323,3.395,2.323,3.395-2.051.633-1.967,1.99.5,1.592,1.862,1.873c1.423.117,4.865-.292,4.865,1.78s-4.844,2.763-6.476-.738a2.472,2.472,0,0,0-.722,2.494c.533,1.335,2.668,1.932,2.668,1.932s6.905,1.264,7.25-3.547-5.838-3.9-5.838-3.9-1.443-.176.534-1.51c0,0,4.488.14,4.6-3.495a3.208,3.208,0,0,0-.518-2.2s2.134-1.229,2.668.756v8.042s.581,1.265,3.091,1.6a3.39,3.39,0,0,1-.376-.939v-8.028s2.484-2.294,3.028-.632v8.008s.544,1.522,3.181,1.522A2.52,2.52,0,0,1,1734.654,1769.439Zm-15.139-5.5a2.081,2.081,0,1,1,1.894-2.072A1.989,1.989,0,0,1,1719.515,1763.937Z" transform="translate(-1704.271 -1757.594)"/></g></svg>