<svg xmlns="http://www.w3.org/2000/svg" xmlns:xlink="http://www.w3.org/1999/xlink" width="37.32" height="46.939" viewBox="0 0 37.32 46.939"><defs><style>.a{fill:none;}.b{opacity:0.8;}.c{fill:#424242;opacity:0.5;}.d{fill:#fff;}.e{fill:url(#a);}.f{isolation:isolate;}.g{clip-path:url(#b);}.h{fill:#855714;}.i{fill:#8a5a15;}.j{fill:#8f5e15;}.k{clip-path:url(#c);}.l{clip-path:url(#d);}.m{fill:#9d6717;}.n{fill:#8b5b15;}.o{clip-path:url(#e);}.p{clip-path:url(#f);}.q{clip-path:url(#g);}.r{clip-path:url(#h);}.s{fill:#976317;}.t{fill:#fda526;}.u{clip-path:url(#i);}</style><linearGradient id="a" x1="-0.127" y1="0.196" x2="1.127" y2="0.804" gradientUnits="objectBoundingBox"><stop offset="0" stop-color="#ffa726"/><stop offset="0" stop-color="#c3bb31"/><stop offset="0" stop-color="#3adf41"/><stop offset="0.614" stop-color="#32b07c"/><stop offset="1" stop-color="#2e979e"/></linearGradient><clipPath id="b"><path class="a" d="M1920.978,719.337l-1.192-.824a.868.868,0,0,1-.316-.875,1.36,1.36,0,0,1,1.134-1.136l1.192.824a1.359,1.359,0,0,0-1.133,1.135A.868.868,0,0,0,1920.978,719.337Z" transform="translate(-1919.455 -716.502)"/></clipPath><clipPath id="c"><path class="a" d="M1919.886,726.319l-1.193-.824a.863.863,0,0,1-.316-.871,1.359,1.359,0,0,1,1.134-1.139l1.193.824a1.36,1.36,0,0,0-1.134,1.139A.863.863,0,0,0,1919.886,726.319Z" transform="translate(-1918.363 -723.484)"/></clipPath><clipPath id="d"><path class="a" d="M1918.794,733.3l-1.193-.824a.867.867,0,0,1-.316-.875,1.359,1.359,0,0,1,1.134-1.139l1.192.824a1.359,1.359,0,0,0-1.134,1.139A.868.868,0,0,0,1918.794,733.3Z" transform="translate(-1917.271 -730.466)"/></clipPath><clipPath id="e"><path class="a" d="M1932.887,729.677l1.193.824a.745.745,0,0,0-.484-.124l-1.193-.824A.742.742,0,0,1,1932.887,729.677Z" transform="translate(-1932.404 -729.55)"/></clipPath><clipPath id="f"><path class="a" d="M1943.488,715.106l1.192.824a.744.744,0,0,0-.484-.124l-1.193-.824A.746.746,0,0,1,1943.488,715.106Z" transform="translate(-1943.004 -714.979)"/></clipPath><clipPath id="g"><path class="a" d="M1942.4,722.088l1.193.824a.745.745,0,0,0-.484-.124l-1.193-.824A.742.742,0,0,1,1942.4,722.088Z" transform="translate(-1941.913 -721.961)"/></clipPath><clipPath id="h"><path class="a" d="M1952.88,705.75l1.192.824a1.734,1.734,0,0,1,.632,1.751l-1.193-.824A1.736,1.736,0,0,0,1952.88,705.75Z" transform="translate(-1952.88 -705.75)"/></clipPath><clipPath id="i"><path class="a" d="M1947.217,737.5l1.193.824a2.72,2.72,0,0,1-2.268,2.279l-1.193-.824A2.72,2.72,0,0,0,1947.217,737.5Z" transform="translate(-1944.949 -737.501)"/></clipPath></defs><g class="b" transform="translate(0 41.469)"><ellipse class="c" cx="14.491" cy="2.735" rx="14.491" ry="2.735"/></g><rect class="d" width="17.778" height="28.685" transform="translate(5.437 12.306)"/><path class="e" d="M1899.634,723.1H1886.52a4.912,4.912,0,0,0-4.918,4.918v26.228a4.911,4.911,0,0,0,4.918,4.918h13.114a4.911,4.911,0,0,0,4.918-4.918V728.018A4.911,4.911,0,0,0,1899.634,723.1Zm-4.1,32.786h-4.918a.82.82,0,0,1,0-1.64h4.918a.82.82,0,0,1,0,1.64Zm5.737-4.918h-16.393v-22.95h16.393Z" transform="translate(-1878.852 -714.883)"/><g transform="translate(13.769 0)"><g class="f"><g class="f" transform="translate(6.355 5.188)"><g class="g"><g class="f" transform="translate(0)"><path class="h" d="M1921.812,716.5l1.192.824a.9.9,0,0,0-.122.017l-1.193-.824a.922.922,0,0,1,.122-.017" transform="translate(-1920.664 -716.502)"/><path class="i" d="M1921.185,716.539l1.193.824a1.151,1.151,0,0,0-.429.192l-1.192-.824a1.155,1.155,0,0,1,.428-.192" transform="translate(-1920.159 -716.522)"/><path class="j" d="M1920.113,716.958l1.193.824a1.456,1.456,0,0,0-.546.76l-1.192-.824a1.456,1.456,0,0,1,.545-.76" transform="translate(-1919.516 -716.749)"/><path class="i" d="M1919.507,718.615l1.192.824a1.27,1.27,0,0,0-.037.166,1.093,1.093,0,0,0-.007.3l-1.193-.824a1.106,1.106,0,0,1,.007-.3,1.387,1.387,0,0,1,.038-.166" transform="translate(-1919.455 -717.645)"/><path class="h" d="M1919.471,719.638l1.193.824a.794.794,0,0,0,.323.572l-1.193-.824a.791.791,0,0,1-.323-.571" transform="translate(-1919.464 -718.199)"/></g></g></g><g class="f" transform="translate(5.854 8.393)"><g class="k"><g class="f" transform="translate(0)"><path class="h" d="M1920.72,723.484l1.193.824a.946.946,0,0,0-.122.017l-1.193-.824a.93.93,0,0,1,.122-.017" transform="translate(-1919.573 -723.484)"/><path class="i" d="M1920.094,723.521l1.193.824a1.142,1.142,0,0,0-.428.192l-1.193-.824a1.14,1.14,0,0,1,.428-.192" transform="translate(-1919.068 -723.504)"/><path class="j" d="M1919.022,723.939l1.192.824a1.467,1.467,0,0,0-.546.763l-1.192-.824a1.461,1.461,0,0,1,.546-.763" transform="translate(-1918.424 -723.73)"/><path class="i" d="M1918.415,725.6l1.193.824a1.279,1.279,0,0,0-.038.168,1.1,1.1,0,0,0-.007.3l-1.193-.824a1.121,1.121,0,0,1,.007-.3,1.28,1.28,0,0,1,.038-.167" transform="translate(-1918.363 -724.629)"/><path class="h" d="M1918.378,726.622l1.193.824a.789.789,0,0,0,.323.57l-1.193-.824a.791.791,0,0,1-.324-.57" transform="translate(-1918.371 -725.182)"/></g></g></g><g class="f" transform="translate(5.353 11.597)"><g class="l"><g class="f" transform="translate(0)"><path class="h" d="M1919.63,730.466l1.192.824a.91.91,0,0,0-.122.017l-1.192-.824a.91.91,0,0,1,.122-.017" transform="translate(-1918.481 -730.466)"/><path class="i" d="M1919,730.5l1.193.824a1.14,1.14,0,0,0-.428.192l-1.192-.824a1.139,1.139,0,0,1,.428-.192" transform="translate(-1917.976 -730.486)"/><path class="j" d="M1917.931,730.921l1.193.824a1.463,1.463,0,0,0-.546.763l-1.192-.824a1.46,1.46,0,0,1,.546-.763" transform="translate(-1917.333 -730.712)"/><path class="i" d="M1917.323,732.583l1.193.824a1.307,1.307,0,0,0-.038.168,1.127,1.127,0,0,0-.007.3l-1.193-.824a1.1,1.1,0,0,1,.007-.3,1.269,1.269,0,0,1,.038-.167" transform="translate(-1917.271 -731.611)"/><path class="h" d="M1917.287,733.61l1.192.824a.794.794,0,0,0,.323.571l-1.193-.824a.791.791,0,0,1-.323-.571" transform="translate(-1917.28 -732.167)"/></g></g></g><g transform="translate(0 18.08)"><path class="m" d="M1910.141,744.59l1.193.824-4.532,4.553-1.193-.824Z" transform="translate(-1905.609 -744.59)"/></g><g transform="translate(6.501 11.179)"><path class="n" d="M1925.57,729.555l1.193.824-5.8.418-1.193-.824Z" transform="translate(-1919.773 -729.555)"/></g><g transform="translate(7.503 4.491)"><path class="n" d="M1931.617,714.984l1.192.824-9.661.7-1.193-.824Z" transform="translate(-1921.956 -714.984)"/></g><g class="f" transform="translate(12.299 11.177)"><g class="o"><g class="f"><path class="h" d="M1932.887,729.677l1.193.824a.745.745,0,0,0-.484-.124l-1.193-.824a.742.742,0,0,1,.483.124" transform="translate(-1932.404 -729.55)"/></g></g></g><g class="f" transform="translate(17.164 4.489)"><g class="p"><g class="f"><path class="h" d="M1943.488,715.106l1.192.824a.744.744,0,0,0-.484-.124l-1.193-.824a.746.746,0,0,1,.484.124" transform="translate(-1943.004 -714.979)"/></g></g></g><g transform="translate(7.002 7.696)"><path class="n" d="M1930.525,721.966l1.193.824-9.661.7-1.193-.824Z" transform="translate(-1920.864 -721.966)"/></g><g class="f" transform="translate(16.663 7.694)"><g class="q"><g class="f"><path class="h" d="M1942.4,722.088l1.193.824a.745.745,0,0,0-.484-.124l-1.193-.824a.742.742,0,0,1,.483.124" transform="translate(-1941.913 -721.961)"/></g></g></g><g class="f" transform="translate(21.697 0.253)"><g class="r"><g class="f"><path class="h" d="M1952.88,705.75l1.192.824a1.584,1.584,0,0,1,.647,1.143l-1.193-.824a1.584,1.584,0,0,0-.646-1.143" transform="translate(-1952.88 -705.75)"/><path class="i" d="M1954.271,708.24l1.193.824a2.236,2.236,0,0,1-.015.608l-1.193-.824a2.2,2.2,0,0,0,.014-.608" transform="translate(-1953.625 -707.097)"/></g></g></g><g transform="translate(4.532 17.105)"><path class="n" d="M1929.008,742.465l1.193.824-13.525.975-1.193-.824Z" transform="translate(-1915.483 -742.465)"/></g><g transform="translate(20.325 2.004)"><path class="s" d="M1951.895,709.565l1.193.824-2,12.822-1.193-.824Z" transform="translate(-1949.89 -709.565)"/></g><path class="t" d="M1926.339,705.2a1.57,1.57,0,0,1,1.6,2l-2,12.822a2.72,2.72,0,0,1-2.268,2.279l-13.525.975-4.532,4.552,3.017-19.236a2.708,2.708,0,0,1,2.257-2.277Zm-4.4,9.827a1.36,1.36,0,0,0,1.134-1.136.785.785,0,0,0-.8-1l-9.661.7a1.359,1.359,0,0,0-1.134,1.139.784.784,0,0,0,.8,1l9.661-.7m.5-3.2a1.36,1.36,0,0,0,1.134-1.139.784.784,0,0,0-.8-1l-9.661.7a1.36,1.36,0,0,0-1.134,1.135.786.786,0,0,0,.8,1l9.661-.7m-4.866,6.692a1.36,1.36,0,0,0,1.134-1.139.785.785,0,0,0-.8-1l-5.8.418a1.359,1.359,0,0,0-1.134,1.139.785.785,0,0,0,.8,1l5.8-.418" transform="translate(-1905.609 -705.199)"/><g class="f" transform="translate(18.057 14.826)"><g class="u"><g class="f"><path class="i" d="M1949.8,737.5l1.193.824a2.563,2.563,0,0,1-.076.335l-1.192-.824a2.649,2.649,0,0,0,.075-.335" transform="translate(-1947.533 -737.501)"/><path class="j" d="M1948.438,738.23l1.193.824a2.921,2.921,0,0,1-1.092,1.526l-1.193-.824a2.922,2.922,0,0,0,1.092-1.526" transform="translate(-1946.246 -737.895)"/><path class="i" d="M1946.336,741.555l1.193.824a2.293,2.293,0,0,1-.856.384l-1.193-.824a2.3,2.3,0,0,0,.856-.384" transform="translate(-1945.236 -739.694)"/><path class="h" d="M1945.193,742.391l1.193.824a1.94,1.94,0,0,1-.244.034l-1.193-.824a1.9,1.9,0,0,0,.244-.034" transform="translate(-1944.949 -740.146)"/></g></g></g></g></g></svg>