<svg xmlns="http://www.w3.org/2000/svg" xmlns:xlink="http://www.w3.org/1999/xlink" width="33.314" height="47.98" viewBox="0 0 33.314 47.98"><defs><style>.a{fill:none;}.b{opacity:0.8;}.c{fill:#424242;opacity:0.5;}.d{isolation:isolate;}.e{clip-path:url(#a);}.f{fill:#855714;}.g{clip-path:url(#b);}.h{clip-path:url(#c);}.i{clip-path:url(#d);}.j{clip-path:url(#e);}.k{clip-path:url(#f);}.l{clip-path:url(#g);}.m{clip-path:url(#h);}.n{clip-path:url(#i);}.o{clip-path:url(#j);}.p{clip-path:url(#k);}.q{clip-path:url(#l);}.r{fill:#858585;}.s{clip-path:url(#m);}.t{fill:#fcfcfc;}.u{clip-path:url(#n);}.v{clip-path:url(#o);}.w{clip-path:url(#p);}.x{clip-path:url(#q);}.y{fill:#fca526;}.z{clip-path:url(#r);}.aa{fill:url(#s);}</style><clipPath id="a"><path class="a" d="M1903.924,1449.052l.74.785a2.576,2.576,0,0,1,.371,1.625c.054,2.492.091,3.059.092,3.089l-.74-.785c0-.03-.038-.6-.092-3.089A2.572,2.572,0,0,0,1903.924,1449.052Z" transform="translate(-1903.924 -1449.052)"/></clipPath><clipPath id="b"><path class="a" d="M1919.7,1443.217l.74.785a1.667,1.667,0,0,1,.265,1.148l-.74-.785A1.663,1.663,0,0,0,1919.7,1443.217Z" transform="translate(-1919.696 -1443.217)"/></clipPath><clipPath id="c"><path class="a" d="M1905.876,1460.545l-.74-.784a.952.952,0,0,1-.2-.44l.74.785A.958.958,0,0,0,1905.876,1460.545Z" transform="translate(-1904.935 -1459.32)"/></clipPath><clipPath id="d"><path class="a" d="M1897.12,1469.422l.74.785a10.814,10.814,0,0,0,.787,2.612l-.74-.785A10.847,10.847,0,0,1,1897.12,1469.422Z" transform="translate(-1897.12 -1469.422)"/></clipPath><clipPath id="e"><path class="a" d="M1918.962,1445.719l.74.785a49.266,49.266,0,0,1-1.113,5.619l-.739-.785A49.2,49.2,0,0,0,1918.962,1445.719Z" transform="translate(-1917.85 -1445.719)"/></clipPath><clipPath id="f"><path class="a" d="M1918.717,1459.772l-.74-.785c-.251-.267-.158-.979-.152-1.026l.739.785C1918.558,1458.792,1918.465,1459.5,1918.717,1459.772Z" transform="translate(-1917.803 -1457.961)"/></clipPath><clipPath id="g"><path class="a" d="M1937.069,1446.621l.74.785c.213.225.227.7-.117,1.575l-.74-.785C1937.3,1447.326,1937.282,1446.846,1937.069,1446.621Z" transform="translate(-1936.952 -1446.621)"/></clipPath><clipPath id="h"><path class="a" d="M1890.444,1484.99l-.74-.785a4.658,4.658,0,0,1-1.24-3.584,6.452,6.452,0,0,1,4.753-5.509l.74.785a6.453,6.453,0,0,0-4.754,5.509A4.661,4.661,0,0,0,1890.444,1484.99Z" transform="translate(-1888.451 -1475.112)"/></clipPath><clipPath id="i"><path class="a" d="M1906.277,1470.579l.74.785a8.04,8.04,0,0,0-6.365-2.4,9.838,9.838,0,0,0-2.791.563l-.74-.785a9.862,9.862,0,0,1,2.792-.563A8.038,8.038,0,0,1,1906.277,1470.579Z" transform="translate(-1897.12 -1468.166)"/></clipPath><clipPath id="j"><path class="a" d="M1932.212,1450.053l.74.785c-1.169,2.038-3.879,5.834-4.021,6.035l-.74-.785C1928.333,1455.888,1931.042,1452.091,1932.212,1450.053Z" transform="translate(-1928.19 -1450.053)"/></clipPath><clipPath id="k"><path class="a" d="M1927.9,1465.571l-.74-.784c-.342-.362.377-1.514.422-1.587l.74.785C1928.279,1464.057,1927.561,1465.209,1927.9,1465.571Z" transform="translate(-1927.071 -1463.2)"/></clipPath><clipPath id="l"><path class="a" d="M1904.717,1483.559l-.74-.785a11.257,11.257,0,0,0,4.1,2.8l.739.785A11.256,11.256,0,0,1,1904.717,1483.559Z" transform="translate(-1903.977 -1482.774)"/></clipPath><clipPath id="m"><path class="a" d="M1910.846,1477.98l.74.785a4.668,4.668,0,0,1,1.241,3.59,5.356,5.356,0,0,1-.3,1.405l-.739-.784a5.355,5.355,0,0,0,.3-1.406A4.666,4.666,0,0,0,1910.846,1477.98Z" transform="translate(-1910.846 -1477.98)"/></clipPath><clipPath id="n"><path class="a" d="M1945.729,1460.043l.74.785c.216.229.174.674-.506,1.506l-.74-.785C1945.9,1460.717,1945.945,1460.273,1945.729,1460.043Z" transform="translate(-1945.223 -1460.043)"/></clipPath><clipPath id="o"><path class="a" d="M1926.693,1480.126l-.74-.785c-.61-.647.818-1.679.916-1.75l.74.785C1927.51,1478.447,1926.083,1479.479,1926.693,1480.126Z" transform="translate(-1925.802 -1477.591)"/></clipPath><clipPath id="p"><path class="a" d="M1935.973,1463.325l.74.785c-2.167,2.145-7.563,6.328-7.847,6.548l-.74-.785C1928.41,1469.653,1933.806,1465.47,1935.973,1463.325Z" transform="translate(-1928.126 -1463.325)"/></clipPath><clipPath id="q"><path class="a" d="M1887.411,1495.772l-.739-.784a8.03,8.03,0,0,0,6.357,2.4,10.37,10.37,0,0,0,9.084-6.782l.739.785a10.37,10.37,0,0,1-9.084,6.782A8.029,8.029,0,0,1,1887.411,1495.772Z" transform="translate(-1886.672 -1490.604)"/></clipPath><clipPath id="r"><path class="a" d="M1928.664,1483.8l.74.784c.39.42.873,1.252-1.016,2.081a16.416,16.416,0,0,1-5.162,1.085,14.961,14.961,0,0,1-2.172-.04l-.74-.785a14.965,14.965,0,0,0,2.173.04,16.417,16.417,0,0,0,5.161-1.085C1929.538,1485.047,1929.054,1484.215,1928.664,1483.8Z" transform="translate(-1920.314 -1483.795)"/></clipPath><linearGradient id="s" x1="-0.026" y1="0.592" x2="1.04" y2="0.592" gradientUnits="objectBoundingBox"><stop offset="0" stop-color="#ffa726"/><stop offset="0" stop-color="#c3bb31"/><stop offset="0" stop-color="#3adf41"/><stop offset="0.614" stop-color="#32b07c"/><stop offset="1" stop-color="#2e979e"/></linearGradient></defs><g class="b" transform="translate(0 42.511)"><ellipse class="c" cx="14.491" cy="2.735" rx="14.491" ry="2.735"/></g><g transform="translate(3.104 0)"><g class="d"><g class="d" transform="translate(9.892 2.828)"><g class="e"><g class="d"><path class="f" d="M1903.924,1449.052l.74.785a2.576,2.576,0,0,1,.371,1.625c.054,2.492.091,3.059.092,3.089l-.74-.785c0-.03-.038-.6-.092-3.089a2.572,2.572,0,0,0-.372-1.624" transform="translate(-1903.924 -1449.052)"/></g></g></g><g class="d" transform="translate(17.131 0.15)"><g class="g"><g class="d"><path class="f" d="M1919.7,1443.217l.74.785a1.667,1.667,0,0,1,.265,1.148l-.74-.785a1.663,1.663,0,0,0-.265-1.148" transform="translate(-1919.696 -1443.217)"/></g></g></g><g class="d" transform="translate(10.356 7.541)"><g class="h"><g class="d"><path class="f" d="M1904.935,1459.32l.74.785a.958.958,0,0,0,.2.439l-.74-.784a.952.952,0,0,1-.2-.44" transform="translate(-1904.935 -1459.32)"/></g></g></g><g class="d" transform="translate(6.769 12.178)"><g class="i"><g class="d"><path class="f" d="M1897.12,1469.422l.74.785a10.814,10.814,0,0,0,.787,2.612l-.74-.785a10.847,10.847,0,0,1-.787-2.612" transform="translate(-1897.12 -1469.422)"/></g></g></g><g class="d" transform="translate(16.284 1.298)"><g class="j"><g class="d"><path class="f" d="M1918.962,1445.719l.74.785a49.266,49.266,0,0,1-1.113,5.619l-.739-.785a49.2,49.2,0,0,0,1.112-5.619" transform="translate(-1917.85 -1445.719)"/></g></g></g><g class="d" transform="translate(16.262 6.917)"><g class="k"><g class="d"><path class="f" d="M1917.824,1457.961l.739.785c-.006.046-.1.759.153,1.026l-.74-.785c-.251-.267-.158-.979-.152-1.026" transform="translate(-1917.803 -1457.961)"/></g></g></g><g class="d" transform="translate(25.052 1.712)"><g class="l"><g class="d"><path class="f" d="M1937.069,1446.621l.74.785c.213.225.227.7-.117,1.575l-.74-.785c.344-.871.33-1.35.117-1.575" transform="translate(-1936.952 -1446.621)"/></g></g></g><g class="d" transform="translate(2.79 14.789)"><g class="m"><g class="d"><path class="f" d="M1893.217,1475.112l.74.785a6.453,6.453,0,0,0-4.754,5.509,4.661,4.661,0,0,0,1.24,3.584l-.74-.785a4.658,4.658,0,0,1-1.24-3.584,6.452,6.452,0,0,1,4.753-5.509" transform="translate(-1888.451 -1475.112)"/></g></g></g><g class="d" transform="translate(6.769 11.601)"><g class="n"><g class="d"><path class="f" d="M1906.277,1470.579l.74.785a8.04,8.04,0,0,0-6.365-2.4,9.838,9.838,0,0,0-2.791.563l-.74-.785a9.862,9.862,0,0,1,2.792-.563,8.038,8.038,0,0,1,6.365,2.4" transform="translate(-1897.12 -1468.166)"/></g></g></g><g class="d" transform="translate(21.03 3.287)"><g class="o"><g class="d"><path class="f" d="M1932.212,1450.053l.74.785c-1.169,2.038-3.879,5.834-4.021,6.035l-.74-.785c.143-.2,2.853-4,4.022-6.034" transform="translate(-1928.19 -1450.053)"/></g></g></g><g class="d" transform="translate(20.517 9.322)"><g class="p"><g class="d"><path class="f" d="M1927.585,1463.2l.74.785c-.046.072-.764,1.224-.422,1.586l-.74-.784c-.342-.362.377-1.514.422-1.587" transform="translate(-1927.071 -1463.2)"/></g></g></g><g class="d" transform="translate(9.917 18.306)"><g class="q"><g class="d"><path class="r" d="M1908.075,1485.569l.739.785a11.256,11.256,0,0,1-4.1-2.795l-.74-.785a11.257,11.257,0,0,0,4.1,2.8" transform="translate(-1903.977 -1482.774)"/></g></g></g><g class="d" transform="translate(13.069 16.106)"><g class="s"><g class="d"><path class="r" d="M1910.846,1477.98l.74.785a4.668,4.668,0,0,1,1.241,3.59,5.356,5.356,0,0,1-.3,1.405l-.739-.784a5.355,5.355,0,0,0,.3-1.406,4.666,4.666,0,0,0-1.241-3.59" transform="translate(-1910.846 -1477.98)"/></g></g></g><g transform="translate(7.556 14.549)"><path class="t" d="M1900.227,1474.6a4.83,4.83,0,0,1,5.361,5.137,5.359,5.359,0,0,1-.3,1.406,11.433,11.433,0,0,1-4.75-3.544,12.485,12.485,0,0,1-1.708-2.768A6.321,6.321,0,0,1,1900.227,1474.6Z" transform="translate(-1898.835 -1474.59)"/></g><g class="d" transform="translate(28.848 7.873)"><g class="u"><g class="d"><path class="f" d="M1945.729,1460.043l.74.785c.216.229.174.674-.506,1.506l-.74-.785c.68-.833.722-1.277.506-1.506" transform="translate(-1945.223 -1460.043)"/></g></g></g><g class="d" transform="translate(19.934 15.927)"><g class="v"><g class="d"><path class="f" d="M1926.869,1477.591l.74.785c-.1.071-1.525,1.1-.916,1.75l-.74-.785c-.61-.647.818-1.679.916-1.75" transform="translate(-1925.802 -1477.591)"/></g></g></g><g class="d" transform="translate(21.001 9.379)"><g class="w"><g class="d"><path class="f" d="M1935.973,1463.325l.74.785c-2.167,2.145-7.563,6.328-7.847,6.548l-.74-.785c.284-.22,5.68-4.4,7.847-6.548" transform="translate(-1928.126 -1463.325)"/></g></g></g><g class="d" transform="translate(1.974 21.9)"><g class="x"><g class="d"><path class="f" d="M1902.114,1490.6l.739.785a10.37,10.37,0,0,1-9.084,6.782,8.029,8.029,0,0,1-6.357-2.4l-.739-.784a8.03,8.03,0,0,0,6.357,2.4,10.37,10.37,0,0,0,9.084-6.782" transform="translate(-1886.672 -1490.604)"/></g></g></g><g transform="translate(0 12.178)"><path class="y" d="M1889.141,1469.422a10.848,10.848,0,0,0,.787,2.612,6.453,6.453,0,0,0-4.753,5.509,4.831,4.831,0,0,0,5.361,5.133,6.666,6.666,0,0,0,5.85-4.331,12.272,12.272,0,0,0,3.4.8,10.37,10.37,0,0,1-9.084,6.783c-4.931.259-8.649-3.355-8.309-8.065A10.053,10.053,0,0,1,1889.141,1469.422Z" transform="translate(-1882.372 -1469.422)"/></g><g transform="translate(6.624)"><path class="y" d="M1906.923,1442.892c.371-.019.667.279.654,1.3a49.113,49.113,0,0,1-1.112,5.619c-.007.058-.151,1.155.411,1.125.214-.011.531-.194,1-.678,1.7-1.753,4.916-5.065,5.971-5.538a2.916,2.916,0,0,1,.973-.279c.608-.032.957.369.414,1.739-1.169,2.038-3.879,5.835-4.022,6.034-.054.087-1.09,1.748-.057,1.694a2.962,2.962,0,0,0,1.032-.339,49.992,49.992,0,0,1,5.863-2.96,3.818,3.818,0,0,1,.529-.065c.714-.037,1.755.13.451,1.728-2.167,2.145-7.563,6.328-7.847,6.548-.13.094-2.6,1.878.443,2.213,3.082.047,3.933.211,4.322.635s.873,1.252-1.017,2.081a16.417,16.417,0,0,1-5.161,1.085,14.961,14.961,0,0,1-2.172-.041,8.748,8.748,0,0,0,.462-2.218c.34-4.718-3.382-8.327-8.316-8.068a9.862,9.862,0,0,0-2.792.563,12.653,12.653,0,0,1,2.457-9.335.62.62,0,0,1,.348-.15c.288-.015.656.265.69,1.76.054,2.492.09,3.059.092,3.089s.1.584.5.564c.266-.014.665-.308,1.252-1.254,1.45-2.335,3.165-5.786,3.255-5.968C1905.579,1443.732,1906.327,1442.923,1906.923,1442.892Z" transform="translate(-1896.805 -1442.891)"/></g><g class="d" transform="translate(17.415 18.775)"><g class="z"><g class="d"><path class="f" d="M1928.664,1483.8l.74.784c.39.42.873,1.252-1.016,2.081a16.416,16.416,0,0,1-5.162,1.085,14.961,14.961,0,0,1-2.172-.04l-.74-.785a14.965,14.965,0,0,0,2.173.04,16.417,16.417,0,0,0,5.161-1.085c1.89-.829,1.406-1.661,1.017-2.08" transform="translate(-1920.314 -1483.795)"/></g></g></g></g></g><path class="aa" d="M1879.451,1516.948l-.817,1.953a2.428,2.428,0,0,0,1.392,3.235,20.8,20.8,0,0,0,25.445-10.436,2.429,2.429,0,0,0-1.281-3.281l-1.953-.817a2.45,2.45,0,0,0-3.083,1.059l-1.517,2.708a2.436,2.436,0,0,0-.131,2.12l1.215,2.963a18.412,18.412,0,0,1-10.552,4.328l-1.208-2.946a2.435,2.435,0,0,0-1.583-1.418l-3-.872A2.425,2.425,0,0,0,1879.451,1516.948Z" transform="translate(-1877.142 -1477.797)"/></svg>