<svg xmlns="http://www.w3.org/2000/svg" xmlns:xlink="http://www.w3.org/1999/xlink" width="37.848" height="47.165" viewBox="0 0 37.848 47.165"><defs><style>.a{fill:none;}.b{opacity:0.8;}.c{fill:#424242;opacity:0.5;}.d{fill:#fff;}.e{fill:url(#a);}.f{isolation:isolate;}.g{clip-path:url(#b);}.h{fill:#855714;}.i{fill:#8a5a15;}.j{fill:#8f5e15;}.k{fill:#946116;}.l{clip-path:url(#c);}.m{fill:#ac711a;}.n{clip-path:url(#d);}.o{fill:#996417;}.p{fill:#9e6818;}.q{clip-path:url(#e);}.r{fill:#b3751b;}.s{fill:#f39f24;}</style><linearGradient id="a" y1="0.5" x2="1" y2="0.5" gradientUnits="objectBoundingBox"><stop offset="0" stop-color="#ffa726"/><stop offset="0" stop-color="#c3bb31"/><stop offset="0" stop-color="#3adf5a"/><stop offset="0.512" stop-color="#33b87e"/><stop offset="1" stop-color="#2e979e"/></linearGradient><clipPath id="b"><path class="a" d="M1570.444,950.918l1.224,1.186c.292.284.17.959.162,1l-1.224-1.186C1570.615,951.877,1570.737,951.2,1570.444,950.918Z" transform="translate(-1570.444 -950.918)"/></clipPath><clipPath id="c"><path class="a" d="M1538.834,991.548l-1.224-1.187a.734.734,0,0,0,.185.128l1.224,1.186A.728.728,0,0,1,1538.834,991.548Z" transform="translate(-1537.61 -990.362)"/></clipPath><clipPath id="d"><path class="a" d="M1574.292,974.317l1.224,1.186c.434.42.036,1.187.012,1.232l-1.224-1.187C1574.328,975.5,1574.726,974.738,1574.292,974.317Z" transform="translate(-1574.292 -974.317)"/></clipPath><clipPath id="e"><path class="a" d="M1543.206,1014.634l-1.223-1.187a.533.533,0,0,0,.381.137,1.837,1.837,0,0,0,.732-.19l1.223,1.187a1.834,1.834,0,0,1-.733.19A.534.534,0,0,1,1543.206,1014.634Z" transform="translate(-1541.983 -1013.395)"/></clipPath></defs><g class="b" transform="translate(0 41.695)"><ellipse class="c" cx="14.491" cy="2.735" rx="14.491" ry="2.735"/></g><rect class="d" width="23.722" height="27.812" transform="translate(2.874 14.059)"/><path class="e" d="M1522.292,970.941h-22.268c-1.361,0-2.474,1.75-2.474,3.889v27.223c0,2.139,1.114,3.889,2.474,3.889h22.268c1.361,0,2.474-1.75,2.474-3.889V974.83C1524.766,972.691,1523.652,970.941,1522.292,970.941Zm0,31.112h-22.268V974.83h22.268Zm-7.765-16.945h-11.084a1.636,1.636,0,0,1-1.636-1.636v-3.758a1.636,1.636,0,0,1,1.636-1.636h11.084a1.636,1.636,0,0,1,1.637,1.636v3.758A1.636,1.636,0,0,1,1514.527,985.108Zm-9.355,3.126a1.611,1.611,0,1,1-1.606-1.733A1.673,1.673,0,0,1,1505.172,988.234Zm5.4,0a1.611,1.611,0,1,1-1.607-1.733A1.674,1.674,0,0,1,1510.571,988.234Zm5.358,0a1.611,1.611,0,1,1-1.606-1.733A1.673,1.673,0,0,1,1515.929,988.234Zm-10.757,5.736a1.611,1.611,0,1,1-1.606-1.733A1.673,1.673,0,0,1,1505.172,993.97Zm5.4,0a1.611,1.611,0,1,1-1.607-1.733A1.673,1.673,0,0,1,1510.571,993.97Zm5.358,0a1.611,1.611,0,1,1-1.606-1.733A1.673,1.673,0,0,1,1515.929,993.97Zm-10.757,5.207a1.611,1.611,0,1,1-1.606-1.733A1.673,1.673,0,0,1,1505.172,999.177Zm5.4,0a1.611,1.611,0,1,1-1.607-1.733A1.673,1.673,0,0,1,1510.571,999.177Zm5.358,0a1.611,1.611,0,1,1-1.606-1.733A1.673,1.673,0,0,1,1515.929,999.177Z" transform="translate(-1496.35 -961.627)"/><g transform="translate(19.406 0)"><g class="f"><g class="f" transform="translate(15.252 0.124)"><g class="g"><g class="f"><path class="h" d="M1570.444,950.918l1.224,1.186a.565.565,0,0,1,.133.218l-1.223-1.186a.557.557,0,0,0-.134-.218" transform="translate(-1570.444 -950.918)"/><path class="i" d="M1570.735,951.393l1.223,1.186a1.109,1.109,0,0,1,.054.259l-1.224-1.187a1.077,1.077,0,0,0-.054-.258" transform="translate(-1570.601 -951.175)"/><path class="j" d="M1570.85,951.956l1.224,1.186a1.927,1.927,0,0,1,0,.354l-1.223-1.187a1.951,1.951,0,0,0,0-.353" transform="translate(-1570.663 -951.48)"/><path class="k" d="M1570.821,952.726l1.223,1.186c-.008.094-.02.161-.022.173L1570.8,952.9c0-.013.014-.079.023-.173" transform="translate(-1570.635 -951.896)"/></g></g></g><g class="f" transform="translate(0.181 18.229)"><g class="l"><g class="f"><path class="h" d="M1537.8,990.49l1.224,1.186a.728.728,0,0,1-.185-.128l-1.224-1.187a.734.734,0,0,0,.185.128" transform="translate(-1537.61 -990.362)"/></g></g></g><g transform="translate(11.728 1.127)"><path class="m" d="M1566.453,953.1l1.223,1.187-3.686,9.5-1.223-1.186Z" transform="translate(-1562.767 -953.104)"/></g><g transform="translate(0.367 18.357)"><path class="j" d="M1543.393,990.767l1.224,1.186-5.379-.126-1.223-1.187Z" transform="translate(-1538.014 -990.641)"/></g><g class="f" transform="translate(17.018 10.864)"><g class="n"><g class="f"><path class="h" d="M1574.292,974.317l1.224,1.186a.635.635,0,0,1,.156.243l-1.224-1.186a.633.633,0,0,0-.156-.243" transform="translate(-1574.292 -974.317)"/><path class="i" d="M1574.633,974.847l1.224,1.186a.771.771,0,0,1,.04.187l-1.223-1.186a.743.743,0,0,0-.041-.187" transform="translate(-1574.476 -974.604)"/><path class="j" d="M1574.721,975.254l1.223,1.187a1,1,0,0,1,0,.194l-1.223-1.186a1,1,0,0,0,0-.194" transform="translate(-1574.524 -974.824)"/><path class="k" d="M1574.671,975.677l1.223,1.186a1.418,1.418,0,0,1-.042.234l-1.223-1.187a1.472,1.472,0,0,0,.042-.234" transform="translate(-1574.474 -975.053)"/><path class="o" d="M1574.5,976.187l1.223,1.186a1.9,1.9,0,0,1-.107.3l-1.223-1.187a1.91,1.91,0,0,0,.107-.3" transform="translate(-1574.348 -975.329)"/><path class="p" d="M1574.353,976.844l1.223,1.187c-.018.039-.031.065-.035.072l-1.224-1.186c0-.007.017-.033.035-.073" transform="translate(-1574.306 -975.684)"/></g></g></g><g class="f" transform="translate(2.188 28.801)"><g class="q"><g class="f"><path class="k" d="M1544.094,1013.4l1.223,1.187q-.143.063-.266.1l-1.223-1.186c.082-.028.171-.061.266-.1" transform="translate(-1542.981 -1013.395)"/><path class="j" d="M1543.5,1013.621l1.223,1.186a1.862,1.862,0,0,1-.277.071l-1.224-1.187a1.87,1.87,0,0,0,.277-.07" transform="translate(-1542.654 -1013.517)"/><path class="i" d="M1542.968,1013.774l1.224,1.187a1.094,1.094,0,0,1-.19.016h-.028l-1.224-1.187h.028a1.1,1.1,0,0,0,.189-.016" transform="translate(-1542.398 -1013.6)"/><path class="h" d="M1542.335,1013.646l1.224,1.187a.522.522,0,0,1-.352-.136l-1.223-1.187a.518.518,0,0,0,.352.136" transform="translate(-1541.983 -1013.457)"/></g></g></g><g transform="translate(3.301 12.097)"><path class="r" d="M1558.137,977l1.223,1.186-13.729,16.7-1.224-1.186Z" transform="translate(-1544.408 -977.002)"/></g><path class="s" d="M1552.142,950.648c.691.01.5,1.071.488,1.127l-3.686,9.5,5.038.071c.813.338.292,1.341.264,1.394l-13.729,16.7a1.836,1.836,0,0,1-.732.19c-.774-.011-.508-1.008-.495-1.06l3.671-9.447-5.378-.126c-.757-.373-.112-1.388-.078-1.441l13.611-16.474A1.941,1.941,0,0,1,1552.142,950.648Z" transform="translate(-1537.216 -950.648)"/></g></g></svg>