<svg xmlns="http://www.w3.org/2000/svg" xmlns:xlink="http://www.w3.org/1999/xlink" width="29.52" height="45.559" viewBox="0 0 29.52 45.559"><defs><style>.a,.cf{fill:none;}.b{opacity:0.8;}.c{fill:#424242;opacity:0.5;}.d{isolation:isolate;}.e{clip-path:url(#a);}.f{fill:#855714;}.g{clip-path:url(#b);}.h{clip-path:url(#c);}.i{clip-path:url(#d);}.j{clip-path:url(#e);}.k{clip-path:url(#f);}.l{clip-path:url(#g);}.m{clip-path:url(#h);}.n{clip-path:url(#i);}.o{clip-path:url(#j);}.p{clip-path:url(#k);}.q{clip-path:url(#l);}.r{clip-path:url(#m);}.s{clip-path:url(#n);}.t{clip-path:url(#o);}.u{fill:#858585;}.v{clip-path:url(#p);}.w{clip-path:url(#q);}.x{clip-path:url(#r);}.y{clip-path:url(#s);}.z{clip-path:url(#t);}.aa{clip-path:url(#u);}.ab{clip-path:url(#v);}.ac{clip-path:url(#w);}.ad{fill:#8a5b15;}.ae{clip-path:url(#x);}.af{fill:#805413;}.ag{clip-path:url(#y);}.ah{fill:gray;}.ai{clip-path:url(#z);}.aj{clip-path:url(#aa);}.ak{fill:#8a8a8a;}.al{clip-path:url(#ab);}.am{clip-path:url(#ac);}.an{clip-path:url(#ad);}.ao{clip-path:url(#ae);}.ap{clip-path:url(#af);}.aq{clip-path:url(#ag);}.ar{fill:#fcfcfc;}.as{clip-path:url(#ah);}.at{clip-path:url(#ai);}.au{clip-path:url(#aj);}.av{clip-path:url(#ak);}.aw{clip-path:url(#al);}.ax{clip-path:url(#am);}.ay{clip-path:url(#an);}.az{clip-path:url(#ao);}.ba{clip-path:url(#ap);}.bb{clip-path:url(#aq);}.bc{clip-path:url(#ar);}.bd{clip-path:url(#as);}.be{clip-path:url(#at);}.bf{clip-path:url(#au);}.bg{clip-path:url(#av);}.bh{clip-path:url(#aw);}.bi{clip-path:url(#ax);}.bj{clip-path:url(#ay);}.bk{clip-path:url(#az);}.bl{clip-path:url(#ba);}.bm{clip-path:url(#bb);}.bn{clip-path:url(#bc);}.bo{clip-path:url(#bd);}.bp{clip-path:url(#be);}.bq{clip-path:url(#bf);}.br{clip-path:url(#bg);}.bs{clip-path:url(#bh);}.bt{clip-path:url(#bi);}.bu{clip-path:url(#bj);}.bv{clip-path:url(#bk);}.bw{clip-path:url(#bl);}.bx{clip-path:url(#bm);}.by{clip-path:url(#bn);}.bz{clip-path:url(#bo);}.ca{clip-path:url(#bp);}.cb{fill:#fca526;}.cc{clip-path:url(#bq);}.cd{clip-path:url(#br);}.ce{fill:url(#bs);}.cf{stroke:#fff;stroke-linecap:round;stroke-miterlimit:10;}.cg{fill:#fff;}</style><clipPath id="a"><path class="a" d="M1498.326,1213.93l1.137.759a.232.232,0,0,0-.172-.033l-1.138-.759A.233.233,0,0,1,1498.326,1213.93Z" transform="translate(-1498.154 -1213.893)"/></clipPath><clipPath id="b"><path class="a" d="M1498.241,1216.211l1.137.76a.237.237,0,0,0-.175-.034l-1.137-.76A.238.238,0,0,1,1498.241,1216.211Z" transform="translate(-1498.066 -1216.173)"/></clipPath><clipPath id="c"><path class="a" d="M1498.154,1218.492l1.138.759a.242.242,0,0,0-.177-.034l-1.137-.759A.242.242,0,0,1,1498.154,1218.492Z" transform="translate(-1497.977 -1218.454)"/></clipPath><clipPath id="d"><path class="a" d="M1498.064,1220.764l1.138.759a.237.237,0,0,0-.176-.033l-1.138-.759A.236.236,0,0,1,1498.064,1220.764Z" transform="translate(-1497.888 -1220.727)"/></clipPath><clipPath id="e"><path class="a" d="M1499.262,1221.856l1.138.759a1.454,1.454,0,0,0-.842-.239l-1.137-.759A1.454,1.454,0,0,1,1499.262,1221.856Z" transform="translate(-1498.42 -1221.618)"/></clipPath><clipPath id="f"><path class="a" d="M1497.63,1232.15l1.138.759a.243.243,0,0,0-.178-.033l-1.138-.759A.242.242,0,0,1,1497.63,1232.15Z" transform="translate(-1497.452 -1232.113)"/></clipPath><clipPath id="g"><path class="a" d="M1506.3,1221.638a1.713,1.713,0,0,0-.483.611l-1.138-.759a1.712,1.712,0,0,1,.483-.611Z" transform="translate(-1504.68 -1220.879)"/></clipPath><clipPath id="h"><path class="a" d="M1505.585,1222.969a1.926,1.926,0,0,0-.2.776l-1.138-.759a1.933,1.933,0,0,1,.2-.776Z" transform="translate(-1504.25 -1222.21)"/></clipPath><clipPath id="i"><path class="a" d="M1507.545,1220.976a1.5,1.5,0,0,0-.674.3l-1.137-.759a1.5,1.5,0,0,1,.674-.3Z" transform="translate(-1505.733 -1220.217)"/></clipPath><clipPath id="j"><path class="a" d="M1497.544,1234.421l1.138.759a.234.234,0,0,0-.172-.033l-1.137-.759A.233.233,0,0,1,1497.544,1234.421Z" transform="translate(-1497.372 -1234.384)"/></clipPath><clipPath id="k"><path class="a" d="M1497.457,1236.7l1.137.759a.236.236,0,0,0-.174-.032l-1.137-.76A.238.238,0,0,1,1497.457,1236.7Z" transform="translate(-1497.283 -1236.664)"/></clipPath><clipPath id="l"><path class="a" d="M1505.385,1224.659a1.312,1.312,0,0,0,.269.963l-1.138-.759a1.314,1.314,0,0,1-.269-.963Z" transform="translate(-1504.246 -1223.9)"/></clipPath><clipPath id="m"><path class="a" d="M1509.009,1221.04a1.03,1.03,0,0,0-.67-.087l-1.138-.759a1.031,1.031,0,0,1,.67.087Z" transform="translate(-1507.201 -1220.174)"/></clipPath><clipPath id="n"><path class="a" d="M1509.872,1221.21c-.024-.016-.049-.031-.074-.044l-1.138-.76c.026.014.051.028.074.045Z" transform="translate(-1508.66 -1220.406)"/></clipPath><clipPath id="o"><path class="a" d="M1506.752,1221.71l1.137.759a.369.369,0,0,0-.278-.05.569.569,0,0,0-.389.289,1.2,1.2,0,0,0-.173.6.829.829,0,0,0,.126.529.38.38,0,0,0,.1.1l-1.137-.759a.381.381,0,0,1-.1-.1.832.832,0,0,1-.125-.529,1.2,1.2,0,0,1,.173-.6.571.571,0,0,1,.389-.289A.368.368,0,0,1,1506.752,1221.71Z" transform="translate(-1505.911 -1221.653)"/></clipPath><clipPath id="p"><path class="a" d="M1508.88,1222.536a.424.424,0,0,1,.111.112l-1.138-.759a.428.428,0,0,0-.111-.113Z" transform="translate(-1507.743 -1221.777)"/></clipPath><clipPath id="q"><path class="a" d="M1505.973,1226.757a.762.762,0,0,0,.147.128l-1.137-.759a.748.748,0,0,1-.147-.128l.569.38.075.05.148.1.214.142A1.462,1.462,0,0,1,1505.973,1226.757Z" transform="translate(-1504.835 -1225.998)"/></clipPath><clipPath id="r"><path class="a" d="M1507.577,1225.747l-.033-.019-1.138-.759.033.019Z" transform="translate(-1506.407 -1224.968)"/></clipPath><clipPath id="s"><path class="a" d="M1497.364,1238.974l1.138.759a.229.229,0,0,0-.17-.033l-1.138-.759A.227.227,0,0,1,1497.364,1238.974Z" transform="translate(-1497.194 -1238.937)"/></clipPath><clipPath id="t"><path class="a" d="M1507.879,1225.8a.412.412,0,0,1-.263-.03l-1.137-.759a.413.413,0,0,0,.263.029Z" transform="translate(-1506.479 -1225.01)"/></clipPath><clipPath id="u"><path class="a" d="M1509.122,1222.781a1.05,1.05,0,0,1,.122.621l-1.137-.759a1.048,1.048,0,0,0-.122-.622l.569.38.222.149.144.1.069.046A.966.966,0,0,1,1509.122,1222.781Z" transform="translate(-1507.984 -1222.022)"/></clipPath><clipPath id="v"><path class="a" d="M1508.822,1220.5l1.137.759a1.019,1.019,0,0,1,.365.468l-1.138-.759A1.013,1.013,0,0,0,1508.822,1220.5Z" transform="translate(-1508.822 -1220.503)"/></clipPath><clipPath id="w"><path class="a" d="M1508.512,1225.486a.621.621,0,0,1-.323.159l-1.137-.759a.624.624,0,0,0,.323-.159Z" transform="translate(-1507.051 -1224.727)"/></clipPath><clipPath id="x"><path class="a" d="M1507.969,1224.113l1.137.759a.877.877,0,0,1-.214.282l-1.137-.759A.885.885,0,0,0,1507.969,1224.113Z" transform="translate(-1507.755 -1224.113)"/></clipPath><clipPath id="y"><path class="a" d="M1506.293,1226.649l-1.138-.759a.881.881,0,0,0,.66.107,1.191,1.191,0,0,0,.711-.437l1.138.759a1.2,1.2,0,0,1-.712.437A.883.883,0,0,1,1506.293,1226.649Z" transform="translate(-1505.155 -1225.56)"/></clipPath><clipPath id="z"><path class="a" d="M1509.617,1221.523l1.138.759a1.992,1.992,0,0,1,.134.849l-1.138-.759A1.992,1.992,0,0,0,1509.617,1221.523Z" transform="translate(-1509.617 -1221.523)"/></clipPath><clipPath id="aa"><path class="a" d="M1513.088,1220.465a1.684,1.684,0,0,0-.484.611l-1.137-.759a1.678,1.678,0,0,1,.483-.611Z" transform="translate(-1511.467 -1219.706)"/></clipPath><clipPath id="ab"><path class="a" d="M1506.819,1225.56l1.138.759a1.3,1.3,0,0,1-1.122,1.2l-1.138-.759A1.3,1.3,0,0,0,1506.819,1225.56Z" transform="translate(-1505.697 -1225.56)"/></clipPath><clipPath id="ac"><path class="a" d="M1512.372,1221.8a1.935,1.935,0,0,0-.2.776l-1.137-.759a1.926,1.926,0,0,1,.2-.776Z" transform="translate(-1511.037 -1221.037)"/></clipPath><clipPath id="ad"><path class="a" d="M1520.186,1211.623a.269.269,0,0,0-.209.246l-1.138-.759a.27.27,0,0,1,.209-.247h0l1.137.759Z" transform="translate(-1518.839 -1210.864)"/></clipPath><clipPath id="ae"><path class="a" d="M1514.331,1219.8a1.5,1.5,0,0,0-.674.3l-1.138-.759a1.5,1.5,0,0,1,.674-.3Z" transform="translate(-1512.519 -1219.044)"/></clipPath><clipPath id="af"><path class="a" d="M1520.549,1211.643a.158.158,0,0,0-.117-.023l-1.137-.759a.157.157,0,0,1,.117.023Z" transform="translate(-1519.295 -1210.858)"/></clipPath><clipPath id="ag"><path class="a" d="M1519.549,1210.914l1.138.759a.173.173,0,0,1,.072.155l-1.138-.759A.174.174,0,0,0,1519.549,1210.914Z" transform="translate(-1519.549 -1210.914)"/></clipPath><clipPath id="ah"><path class="a" d="M1507.609,1224.034l1.138.759a2.989,2.989,0,0,1-.544,1.711,2.257,2.257,0,0,1-1.387.867l-1.138-.759a2.254,2.254,0,0,0,1.387-.866A2.985,2.985,0,0,0,1507.609,1224.034Z" transform="translate(-1505.678 -1224.034)"/></clipPath><clipPath id="ai"><path class="a" d="M1512.172,1223.486a1.314,1.314,0,0,0,.268.963l-1.137-.759a1.311,1.311,0,0,1-.269-.963Z" transform="translate(-1511.032 -1222.727)"/></clipPath><clipPath id="aj"><path class="a" d="M1515.8,1219.867a1.029,1.029,0,0,0-.669-.087l-1.138-.759a1.031,1.031,0,0,1,.67.087Z" transform="translate(-1513.988 -1219.001)"/></clipPath><clipPath id="ak"><path class="a" d="M1516.653,1220.033c-.022-.015-.045-.028-.069-.041l-1.137-.759c.023.013.046.027.068.042Z" transform="translate(-1515.447 -1219.233)"/></clipPath><clipPath id="al"><path class="a" d="M1513.536,1220.536l1.137.76a.37.37,0,0,0-.279-.049.566.566,0,0,0-.385.288,1.2,1.2,0,0,0-.172.6.829.829,0,0,0,.125.529l-1.137-.759a.825.825,0,0,1-.125-.529,1.186,1.186,0,0,1,.172-.6.566.566,0,0,1,.385-.289A.374.374,0,0,1,1513.536,1220.536Z" transform="translate(-1512.699 -1220.48)"/></clipPath><clipPath id="am"><path class="a" d="M1515.661,1221.361a.413.413,0,0,1,.11.114l-1.138-.759a.4.4,0,0,0-.11-.114Z" transform="translate(-1514.524 -1220.602)"/></clipPath><clipPath id="an"><path class="a" d="M1512.76,1225.584a.776.776,0,0,0,.148.13l-1.137-.76a.778.778,0,0,1-.148-.13l.569.38.075.05.074.05.146.1.141.094A1.315,1.315,0,0,1,1512.76,1225.584Z" transform="translate(-1511.622 -1224.825)"/></clipPath><clipPath id="ao"><path class="a" d="M1514.211,1224.436l-1.138-.759a.371.371,0,0,1-.1-.1l1.137.759A.365.365,0,0,0,1514.211,1224.436Z" transform="translate(-1512.974 -1223.575)"/></clipPath><clipPath id="ap"><path class="a" d="M1514.763,1220.85l1.138.759a1.021,1.021,0,0,1,.125.621l-1.138-.759A1.019,1.019,0,0,0,1514.763,1220.85Z" transform="translate(-1514.763 -1220.85)"/></clipPath><clipPath id="aq"><path class="a" d="M1515.6,1219.323l1.138.759a1.028,1.028,0,0,1,.37.471l-1.137-.759A1.028,1.028,0,0,0,1515.6,1219.323Z" transform="translate(-1515.596 -1219.323)"/></clipPath><clipPath id="ar"><path class="a" d="M1514.328,1224.424l-1.138-.759a.4.4,0,0,0,.3.048.622.622,0,0,0,.323-.159l1.137.759a.622.622,0,0,1-.323.159A.4.4,0,0,1,1514.328,1224.424Z" transform="translate(-1513.19 -1223.554)"/></clipPath><clipPath id="as"><path class="a" d="M1514.756,1222.94l1.137.759a.885.885,0,0,1-.214.282l-1.137-.759A.9.9,0,0,0,1514.756,1222.94Z" transform="translate(-1514.542 -1222.94)"/></clipPath><clipPath id="at"><path class="a" d="M1513.081,1225.477l-1.137-.76a.873.873,0,0,0,.658.106,1.194,1.194,0,0,0,.712-.436l1.137.759a1.192,1.192,0,0,1-.711.437A.88.88,0,0,1,1513.081,1225.477Z" transform="translate(-1511.944 -1224.387)"/></clipPath><clipPath id="au"><path class="a" d="M1516.4,1220.35l1.137.759a2,2,0,0,1,.131.849l-1.137-.759A2,2,0,0,0,1516.4,1220.35Z" transform="translate(-1516.404 -1220.35)"/></clipPath><clipPath id="av"><path class="a" d="M1513.606,1224.387l1.137.759a1.305,1.305,0,0,1-1.122,1.2l-1.137-.759A1.306,1.306,0,0,0,1513.606,1224.387Z" transform="translate(-1512.484 -1224.387)"/></clipPath><clipPath id="aw"><path class="a" d="M1514.392,1222.862l1.137.76a2.979,2.979,0,0,1-.54,1.71,2.265,2.265,0,0,1-1.387.866l-1.137-.759a2.261,2.261,0,0,0,1.386-.867A2.982,2.982,0,0,0,1514.392,1222.862Z" transform="translate(-1512.465 -1222.862)"/></clipPath><clipPath id="ax"><path class="a" d="M1523.231,1215.761a.523.523,0,0,0,.217.471l-1.138-.759a.524.524,0,0,1-.216-.47l1.137.759-1.137-.759h0a.8.8,0,0,1,.623-.742l1.137.759A.8.8,0,0,0,1523.231,1215.761Z" transform="translate(-1522.093 -1214.26)"/></clipPath><clipPath id="ay"><path class="a" d="M1523.7,1217.661l-1.138-.759a.486.486,0,0,0,.357.069l1.138.759A.484.484,0,0,1,1523.7,1217.661Z" transform="translate(-1522.565 -1216.902)"/></clipPath><clipPath id="az"><path class="a" d="M1523.021,1221.144a.524.524,0,0,0,.217.47l-1.137-.759a.524.524,0,0,1-.217-.471l1.137.759-1.137-.759h0a.805.805,0,0,1,.623-.742l1.138.759A.8.8,0,0,0,1523.021,1221.144Z" transform="translate(-1521.883 -1219.643)"/></clipPath><clipPath id="ba"><path class="a" d="M1523.493,1223.044l-1.137-.759a.484.484,0,0,0,.357.069l1.137.759A.485.485,0,0,1,1523.493,1223.044Z" transform="translate(-1522.356 -1222.285)"/></clipPath><clipPath id="bb"><path class="a" d="M1519.116,1234.246a.174.174,0,0,0,.072.158l-1.138-.759a.175.175,0,0,1-.072-.158Z" transform="translate(-1517.979 -1233.487)"/></clipPath><clipPath id="bc"><path class="a" d="M1519.274,1234.324l-1.138-.759a.16.16,0,0,0,.12.023.269.269,0,0,0,.206-.249l1.137.759a.269.269,0,0,1-.206.249A.161.161,0,0,1,1519.274,1234.324Z" transform="translate(-1518.136 -1233.338)"/></clipPath><clipPath id="bd"><path class="a" d="M1545.16,1211.453c-.047-.01-.093-.062-.133-.089l-.436-.291-.569-.38a.485.485,0,0,1,.359.069l1.138.759A.486.486,0,0,0,1545.16,1211.453Z" transform="translate(-1544.023 -1210.685)"/></clipPath><clipPath id="be"><path class="a" d="M1544.323,1210.854l1.138.759a.518.518,0,0,1,.214.466.809.809,0,0,1-.623.746l-1.138-.76a.808.808,0,0,0,.624-.746A.518.518,0,0,0,1544.323,1210.854Z" transform="translate(-1543.914 -1210.854)"/></clipPath><clipPath id="bf"><path class="a" d="M1544.951,1216.837c-.023,0-.046-.03-.066-.044l-.137-.091-.144-.1-.073-.049-.149-.1-.569-.38a.489.489,0,0,1,.359.069l1.137.759A.488.488,0,0,0,1544.951,1216.837Z" transform="translate(-1543.813 -1216.069)"/></clipPath><clipPath id="bg"><path class="a" d="M1544.114,1216.237l1.137.759a.521.521,0,0,1,.215.467.809.809,0,0,1-.624.746l-1.138-.759a.808.808,0,0,0,.624-.746A.518.518,0,0,0,1544.114,1216.237Z" transform="translate(-1543.704 -1216.237)"/></clipPath><clipPath id="bh"><path class="a" d="M1557.4,1203.228l-1.137-.759a.268.268,0,0,1-.107-.243l1.137.759A.268.268,0,0,0,1557.4,1203.228Z" transform="translate(-1556.159 -1202.226)"/></clipPath><clipPath id="bi"><path class="a" d="M1557.321,1205.091l-1.137-.759a.26.26,0,0,1-.106-.232.394.394,0,0,1,.3-.366l1.137.759a.394.394,0,0,0-.3.366A.259.259,0,0,0,1557.321,1205.091Z" transform="translate(-1556.077 -1203.734)"/></clipPath><clipPath id="bj"><path class="a" d="M1557.231,1207.366l-1.137-.759a.251.251,0,0,1-.1-.227.4.4,0,0,1,.3-.366l1.137.759a.4.4,0,0,0-.3.366A.253.253,0,0,0,1557.231,1207.366Z" transform="translate(-1555.988 -1206.014)"/></clipPath><clipPath id="bk"><path class="a" d="M1557.144,1209.642l-1.137-.759a.258.258,0,0,1-.107-.231.4.4,0,0,1,.306-.367l1.138.76a.4.4,0,0,0-.307.366A.259.259,0,0,0,1557.144,1209.642Z" transform="translate(-1555.9 -1208.285)"/></clipPath><clipPath id="bl"><path class="a" d="M1554.27,1216.079l-1.138-.759a1.6,1.6,0,0,1-.663-1.441,2.525,2.525,0,0,1,1.567-2.194l1.138.759a2.524,2.524,0,0,0-1.567,2.194A1.6,1.6,0,0,0,1554.27,1216.079Z" transform="translate(-1552.468 -1211.685)"/></clipPath><clipPath id="bm"><path class="a" d="M1556.706,1221.266l-1.137-.759a.252.252,0,0,1-.1-.227.357.357,0,0,1,.045-.161l1.138.76a.349.349,0,0,0-.046.161A.251.251,0,0,0,1556.706,1221.266Z" transform="translate(-1555.464 -1220.119)"/></clipPath><clipPath id="bn"><path class="a" d="M1556.619,1223.305l-1.138-.759a.256.256,0,0,1-.105-.231.4.4,0,0,1,.306-.363l1.137.759a.4.4,0,0,0-.306.363A.256.256,0,0,0,1556.619,1223.305Z" transform="translate(-1555.375 -1221.952)"/></clipPath><clipPath id="bo"><path class="a" d="M1556.529,1225.578l-1.138-.759a.253.253,0,0,1-.1-.227.4.4,0,0,1,.306-.366l1.138.759a.4.4,0,0,0-.307.366A.252.252,0,0,0,1556.529,1225.578Z" transform="translate(-1555.286 -1224.225)"/></clipPath><clipPath id="bp"><path class="a" d="M1556.442,1227.858l-1.138-.759a.254.254,0,0,1-.106-.227.4.4,0,0,1,.306-.367l1.138.759a.4.4,0,0,0-.306.367A.252.252,0,0,0,1556.442,1227.858Z" transform="translate(-1555.198 -1226.505)"/></clipPath><clipPath id="bq"><path class="a" d="M1556.117,1210.566l1.138.759a.4.4,0,0,0-.306.367.28.28,0,0,0,.033.147l-1.138-.759a.286.286,0,0,1-.034-.147A.4.4,0,0,1,1556.117,1210.566Z" transform="translate(-1555.811 -1210.566)"/></clipPath><clipPath id="br"><path class="a" d="M1555.42,1228.778l1.137.759a.4.4,0,0,0-.3.366l-1.138-.759A.4.4,0,0,1,1555.42,1228.778Z" transform="translate(-1555.117 -1228.778)"/></clipPath><linearGradient id="bs" y1="0.5" x2="1" y2="0.5" gradientUnits="objectBoundingBox"><stop offset="0" stop-color="#ffa726"/><stop offset="0" stop-color="#c3bb31"/><stop offset="0" stop-color="#3adf41"/><stop offset="0.614" stop-color="#32b07c"/><stop offset="1" stop-color="#2e979e"/></linearGradient></defs><g class="b" transform="translate(0 40.089)"><ellipse class="c" cx="14.491" cy="2.735" rx="14.491" ry="2.735"/></g><g transform="translate(1.036 0)"><g class="d"><g class="d" transform="translate(0.441 5.355)"><g class="e"><g class="d"><path class="f" d="M1498.326,1213.93l1.138.759a.234.234,0,0,0-.172-.033l-1.138-.759a.233.233,0,0,1,.172.033" transform="translate(-1498.154 -1213.893)"/></g></g></g><g class="d" transform="translate(0.4 6.402)"><g class="g"><g class="d"><path class="f" d="M1498.241,1216.211l1.137.759a.238.238,0,0,0-.175-.034l-1.137-.76a.238.238,0,0,1,.175.034" transform="translate(-1498.066 -1216.173)"/></g></g></g><g class="d" transform="translate(0.359 7.449)"><g class="h"><g class="d"><path class="f" d="M1498.154,1218.492l1.138.759a.242.242,0,0,0-.177-.034l-1.137-.759a.242.242,0,0,1,.177.034" transform="translate(-1497.977 -1218.454)"/></g></g></g><g class="d" transform="translate(0.319 8.492)"><g class="i"><g class="d"><path class="f" d="M1498.064,1220.764l1.138.759a.237.237,0,0,0-.176-.033l-1.138-.759a.236.236,0,0,1,.176.033" transform="translate(-1497.888 -1220.727)"/></g></g></g><g class="d" transform="translate(0.563 8.901)"><g class="j"><g class="d"><path class="f" d="M1499.262,1221.856l1.138.759a1.454,1.454,0,0,0-.842-.239l-1.137-.759a1.454,1.454,0,0,1,.842.239" transform="translate(-1498.42 -1221.618)"/></g></g></g><g class="d" transform="translate(0.118 13.718)"><g class="k"><g class="d"><path class="f" d="M1497.63,1232.15l1.138.759a.243.243,0,0,0-.178-.033l-1.138-.759a.242.242,0,0,1,.178.033" transform="translate(-1497.452 -1232.113)"/></g></g></g><g class="d" transform="translate(3.436 8.562)"><g class="l"><g class="d" transform="translate(-0.199 -0.324)"><path class="f" d="M1506.346,1220.325l1.138.759c-.024-.016-.049-.031-.074-.044a1.03,1.03,0,0,0-.67-.087,1.5,1.5,0,0,0-.674.3,1.713,1.713,0,0,0-.483.611,1.925,1.925,0,0,0-.2.776,1.312,1.312,0,0,0,.269.963.749.749,0,0,0,.146.128l-1.137-.759a.753.753,0,0,1-.147-.129,1.313,1.313,0,0,1-.269-.963,1.937,1.937,0,0,1,.2-.776,1.714,1.714,0,0,1,.483-.611,1.5,1.5,0,0,1,.674-.3,1.031,1.031,0,0,1,.67.087c.026.014.051.029.074.045" transform="translate(-1504.246 -1220.174)"/></g></g></g><g class="d" transform="translate(3.239 9.173)"><g class="m"><g class="d" transform="translate(-0.002 -0.934)"><path class="f" d="M1506.346,1220.325l1.138.759c-.024-.016-.049-.031-.074-.044a1.03,1.03,0,0,0-.67-.087,1.5,1.5,0,0,0-.674.3,1.713,1.713,0,0,0-.483.611,1.925,1.925,0,0,0-.2.776,1.312,1.312,0,0,0,.269.963.749.749,0,0,0,.146.128l-1.137-.759a.753.753,0,0,1-.147-.129,1.313,1.313,0,0,1-.269-.963,1.937,1.937,0,0,1,.2-.776,1.714,1.714,0,0,1,.483-.611,1.5,1.5,0,0,1,.674-.3,1.031,1.031,0,0,1,.67.087c.026.014.051.029.074.045" transform="translate(-1504.246 -1220.174)"/></g></g></g><g class="d" transform="translate(3.919 8.258)"><g class="n"><g class="d" transform="translate(-0.683 -0.02)"><path class="f" d="M1506.346,1220.325l1.138.759c-.024-.016-.049-.031-.074-.044a1.03,1.03,0,0,0-.67-.087,1.5,1.5,0,0,0-.674.3,1.713,1.713,0,0,0-.483.611,1.925,1.925,0,0,0-.2.776,1.312,1.312,0,0,0,.269.963.749.749,0,0,0,.146.128l-1.137-.759a.753.753,0,0,1-.147-.129,1.313,1.313,0,0,1-.269-.963,1.937,1.937,0,0,1,.2-.776,1.714,1.714,0,0,1,.483-.611,1.5,1.5,0,0,1,.674-.3,1.031,1.031,0,0,1,.67.087c.026.014.051.029.074.045" transform="translate(-1504.246 -1220.174)"/></g></g></g><g class="d" transform="translate(0.082 14.76)"><g class="o"><g class="d"><path class="f" d="M1497.544,1234.421l1.138.759a.234.234,0,0,0-.172-.033l-1.137-.759a.233.233,0,0,1,.172.033" transform="translate(-1497.372 -1234.384)"/></g></g></g><g class="d" transform="translate(0.041 15.807)"><g class="p"><g class="d"><path class="f" d="M1497.457,1236.7l1.137.759a.236.236,0,0,0-.174-.032l-1.137-.76a.238.238,0,0,1,.174.033" transform="translate(-1497.283 -1236.664)"/></g></g></g><g class="d" transform="translate(3.237 9.948)"><g class="q"><g class="d" transform="translate(0 -1.71)"><path class="f" d="M1506.346,1220.325l1.138.759c-.024-.016-.049-.031-.074-.044a1.03,1.03,0,0,0-.67-.087,1.5,1.5,0,0,0-.674.3,1.713,1.713,0,0,0-.483.611,1.925,1.925,0,0,0-.2.776,1.312,1.312,0,0,0,.269.963.749.749,0,0,0,.146.128l-1.137-.759a.753.753,0,0,1-.147-.129,1.313,1.313,0,0,1-.269-.963,1.937,1.937,0,0,1,.2-.776,1.714,1.714,0,0,1,.483-.611,1.5,1.5,0,0,1,.674-.3,1.031,1.031,0,0,1,.67.087c.026.014.051.029.074.045" transform="translate(-1504.246 -1220.174)"/></g></g></g><g class="d" transform="translate(4.593 8.238)"><g class="r"><g class="d" transform="translate(-1.356)"><path class="f" d="M1506.346,1220.325l1.138.759c-.024-.016-.049-.031-.074-.044a1.03,1.03,0,0,0-.67-.087,1.5,1.5,0,0,0-.674.3,1.713,1.713,0,0,0-.483.611,1.925,1.925,0,0,0-.2.776,1.312,1.312,0,0,0,.269.963.749.749,0,0,0,.146.128l-1.137-.759a.753.753,0,0,1-.147-.129,1.313,1.313,0,0,1-.269-.963,1.937,1.937,0,0,1,.2-.776,1.714,1.714,0,0,1,.483-.611,1.5,1.5,0,0,1,.674-.3,1.031,1.031,0,0,1,.67.087c.026.014.051.029.074.045" transform="translate(-1504.246 -1220.174)"/></g></g></g><g class="d" transform="translate(5.263 8.345)"><g class="s"><g class="d" transform="translate(-2.026 -0.106)"><path class="f" d="M1506.346,1220.325l1.138.759c-.024-.016-.049-.031-.074-.044a1.03,1.03,0,0,0-.67-.087,1.5,1.5,0,0,0-.674.3,1.713,1.713,0,0,0-.483.611,1.925,1.925,0,0,0-.2.776,1.312,1.312,0,0,0,.269.963.749.749,0,0,0,.146.128l-1.137-.759a.753.753,0,0,1-.147-.129,1.313,1.313,0,0,1-.269-.963,1.937,1.937,0,0,1,.2-.776,1.714,1.714,0,0,1,.483-.611,1.5,1.5,0,0,1,.674-.3,1.031,1.031,0,0,1,.67.087c.026.014.051.029.074.045" transform="translate(-1504.246 -1220.174)"/></g></g></g><g class="d" transform="translate(4.001 8.917)"><g class="t"><g class="d"><path class="u" d="M1506.752,1221.71l1.137.759a.369.369,0,0,0-.278-.05.569.569,0,0,0-.389.289,1.2,1.2,0,0,0-.173.6.829.829,0,0,0,.126.529.38.38,0,0,0,.1.1l-1.137-.759a.381.381,0,0,1-.1-.1.832.832,0,0,1-.125-.529,1.2,1.2,0,0,1,.173-.6.571.571,0,0,1,.389-.289.368.368,0,0,1,.278.05" transform="translate(-1505.911 -1221.653)"/></g></g></g><g class="d" transform="translate(4.842 8.974)"><g class="v"><g class="d"><path class="f" d="M1507.743,1221.777l1.137.759a.424.424,0,0,1,.111.112,1.051,1.051,0,0,1,.121.622l-1.137-.759a1.05,1.05,0,0,0-.122-.621.421.421,0,0,0-.111-.113" transform="translate(-1507.743 -1221.777)"/></g></g></g><g class="d" transform="translate(3.507 10.911)"><g class="w"><g class="d" transform="translate(-0.27 -2.673)"><path class="f" d="M1506.346,1220.325l1.138.759c-.024-.016-.049-.031-.074-.044a1.03,1.03,0,0,0-.67-.087,1.5,1.5,0,0,0-.674.3,1.713,1.713,0,0,0-.483.611,1.925,1.925,0,0,0-.2.776,1.312,1.312,0,0,0,.269.963.749.749,0,0,0,.146.128l-1.137-.759a.753.753,0,0,1-.147-.129,1.313,1.313,0,0,1-.269-.963,1.937,1.937,0,0,1,.2-.776,1.714,1.714,0,0,1,.483-.611,1.5,1.5,0,0,1,.674-.3,1.031,1.031,0,0,1,.67.087c.026.014.051.029.074.045" transform="translate(-1504.246 -1220.174)"/></g></g></g><g class="d" transform="translate(4.229 10.438)"><g class="x"><g class="d" transform="translate(0 -0.111)"><path class="f" d="M1507.026,1224.727l1.137.759a.621.621,0,0,1-.323.159.393.393,0,0,1-.3-.049l-1.138-.759a.4.4,0,0,0,.3.049.625.625,0,0,0,.323-.159" transform="translate(-1506.407 -1224.727)"/></g></g></g><g class="d" transform="translate(0 16.85)"><g class="y"><g class="d"><path class="f" d="M1497.364,1238.974l1.138.759a.229.229,0,0,0-.17-.033l-1.138-.759a.227.227,0,0,1,.17.032" transform="translate(-1497.194 -1238.937)"/></g></g></g><g class="d" transform="translate(4.262 10.458)"><g class="z"><g class="d" transform="translate(-0.033 -0.13)"><path class="f" d="M1507.026,1224.727l1.137.759a.621.621,0,0,1-.323.159.393.393,0,0,1-.3-.049l-1.138-.759a.4.4,0,0,0,.3.049.625.625,0,0,0,.323-.159" transform="translate(-1506.407 -1224.727)"/></g></g></g><g class="d" transform="translate(4.953 9.086)"><g class="aa"><g class="d" transform="translate(-0.111 -0.112)"><path class="f" d="M1507.743,1221.777l1.137.759a.424.424,0,0,1,.111.112,1.051,1.051,0,0,1,.121.622l-1.137-.759a1.05,1.05,0,0,0-.122-.621.421.421,0,0,0-.111-.113" transform="translate(-1507.743 -1221.777)"/></g></g></g><g class="d" transform="translate(5.337 8.389)"><g class="ab"><g class="d"><path class="u" d="M1508.822,1220.5l1.137.759a1.019,1.019,0,0,1,.365.468l-1.138-.759a1.013,1.013,0,0,0-.365-.468" transform="translate(-1508.822 -1220.503)"/></g></g></g><g class="d" transform="translate(4.524 10.328)"><g class="ac"><g class="d" transform="translate(-0.296)"><path class="f" d="M1507.026,1224.727l1.137.759a.621.621,0,0,1-.323.159.393.393,0,0,1-.3-.049l-1.138-.759a.4.4,0,0,0,.3.049.625.625,0,0,0,.323-.159" transform="translate(-1506.407 -1224.727)"/></g></g></g><g transform="translate(5.061 9.708)"><path class="ad" d="M1508.234,1223.375l1.137.759-.013.339-1.138-.759Z" transform="translate(-1508.221 -1223.375)"/></g><g class="d" transform="translate(4.847 10.046)"><g class="ae"><g class="d"><path class="f" d="M1507.969,1224.113l1.137.759a.877.877,0,0,1-.214.282l-1.137-.759a.885.885,0,0,0,.214-.282" transform="translate(-1507.755 -1224.113)"/></g></g></g><g transform="translate(3.734 11.906)"><path class="af" d="M1505.5,1228.164l1.138.759-.169.033-1.138-.759Z" transform="translate(-1505.33 -1228.164)"/></g><g transform="translate(3.708 11.939)"><path class="ad" d="M1505.3,1228.236l1.138.759-.027.685-1.138-.759Z" transform="translate(-1505.272 -1228.236)"/></g><g class="d" transform="translate(3.654 10.71)"><g class="ag"><g class="d"><path class="u" d="M1506.526,1225.56l1.138.759a1.2,1.2,0,0,1-.712.437.883.883,0,0,1-.659-.107l-1.138-.759a.881.881,0,0,0,.66.107,1.191,1.191,0,0,0,.711-.437" transform="translate(-1505.155 -1225.56)"/></g></g></g><g transform="translate(3.708 12.588)"><path class="ah" d="M1505.458,1229.65l1.137.759-.186.036-1.138-.759Z" transform="translate(-1505.272 -1229.65)"/></g><g class="d" transform="translate(5.702 8.857)"><g class="ai"><g class="d"><path class="u" d="M1509.617,1221.523l1.138.759a1.992,1.992,0,0,1,.134.849l-1.138-.759a1.992,1.992,0,0,0-.135-.849" transform="translate(-1509.617 -1221.523)"/></g></g></g><g class="d" transform="translate(6.551 8.023)"><g class="aj"><g class="d" transform="translate(-0.199 -0.324)"><path class="f" d="M1513.127,1219.149l1.138.759c-.022-.015-.045-.029-.069-.041a1.029,1.029,0,0,0-.669-.087,1.5,1.5,0,0,0-.674.3,1.681,1.681,0,0,0-.484.611,1.934,1.934,0,0,0-.2.776,1.314,1.314,0,0,0,.268.963.787.787,0,0,0,.148.13l-1.137-.76a.756.756,0,0,1-.148-.13,1.31,1.31,0,0,1-.269-.963,1.932,1.932,0,0,1,.2-.776,1.682,1.682,0,0,1,.483-.611,1.5,1.5,0,0,1,.674-.3,1.03,1.03,0,0,1,.67.087c.023.013.047.027.068.041" transform="translate(-1511.032 -1219.001)"/></g></g></g><g transform="translate(5.825 9.706)"><path class="ak" d="M1509.9,1223.372l1.137.759-.012.3-1.137-.759Z" transform="translate(-1509.884 -1223.372)"/></g><g class="d" transform="translate(3.903 10.71)"><g class="al"><g class="d"><path class="f" d="M1506.819,1225.56l1.138.759a1.3,1.3,0,0,1-1.122,1.2l-1.138-.759a1.3,1.3,0,0,0,1.122-1.2" transform="translate(-1505.697 -1225.56)"/></g></g></g><g class="d" transform="translate(6.354 8.634)"><g class="am"><g class="d" transform="translate(-0.002 -0.934)"><path class="f" d="M1513.127,1219.149l1.138.759c-.022-.015-.045-.029-.069-.041a1.029,1.029,0,0,0-.669-.087,1.5,1.5,0,0,0-.674.3,1.681,1.681,0,0,0-.484.611,1.934,1.934,0,0,0-.2.776,1.314,1.314,0,0,0,.268.963.787.787,0,0,0,.148.13l-1.137-.76a.756.756,0,0,1-.148-.13,1.31,1.31,0,0,1-.269-.963,1.932,1.932,0,0,1,.2-.776,1.682,1.682,0,0,1,.483-.611,1.5,1.5,0,0,1,.674-.3,1.03,1.03,0,0,1,.67.087c.023.013.047.027.068.041" transform="translate(-1511.032 -1219.001)"/></g></g></g><g class="d" transform="translate(9.935 3.965)"><g class="an"><g class="d" transform="translate(0 -0.003)"><path class="f" d="M1519.165,1210.884l1.138.759a.158.158,0,0,0-.117-.023.269.269,0,0,0-.209.247l-1.138-.759a.27.27,0,0,1,.209-.246.156.156,0,0,1,.116.023" transform="translate(-1518.839 -1210.858)"/></g></g></g><g class="d" transform="translate(7.034 7.719)"><g class="ao"><g class="d" transform="translate(-0.682 -0.02)"><path class="f" d="M1513.127,1219.149l1.138.759c-.022-.015-.045-.029-.069-.041a1.029,1.029,0,0,0-.669-.087,1.5,1.5,0,0,0-.674.3,1.681,1.681,0,0,0-.484.611,1.934,1.934,0,0,0-.2.776,1.314,1.314,0,0,0,.268.963.787.787,0,0,0,.148.13l-1.137-.76a.756.756,0,0,1-.148-.13,1.31,1.31,0,0,1-.269-.963,1.932,1.932,0,0,1,.2-.776,1.682,1.682,0,0,1,.483-.611,1.5,1.5,0,0,1,.674-.3,1.03,1.03,0,0,1,.67.087c.023.013.047.027.068.041" transform="translate(-1511.032 -1219.001)"/></g></g></g><g class="d" transform="translate(10.144 3.962)"><g class="ap"><g class="d" transform="translate(-0.209)"><path class="f" d="M1519.165,1210.884l1.138.759a.158.158,0,0,0-.117-.023.269.269,0,0,0-.209.247l-1.138-.759a.27.27,0,0,1,.209-.246.156.156,0,0,1,.116.023" transform="translate(-1518.839 -1210.858)"/></g></g></g><g class="d" transform="translate(10.261 3.988)"><g class="aq"><g class="d"><path class="u" d="M1519.549,1210.914l1.138.759a.173.173,0,0,1,.072.155l-1.138-.759a.174.174,0,0,0-.072-.155" transform="translate(-1519.549 -1210.914)"/></g></g></g><g transform="translate(3.237 8.238)"><path class="ar" d="M1506.711,1220.793a2,2,0,0,1,.135.849l-.012.3a2.987,2.987,0,0,1-.544,1.711,2.255,2.255,0,0,1-1.387.867l-.186.036.027-.685.169-.033a1.3,1.3,0,0,0,1.122-1.2,1.192,1.192,0,0,1-.711.436.821.821,0,0,1-.806-.235,1.313,1.313,0,0,1-.269-.963,1.937,1.937,0,0,1,.2-.776,1.714,1.714,0,0,1,.483-.611,1.5,1.5,0,0,1,.674-.3,1.031,1.031,0,0,1,.67.087A.98.98,0,0,1,1506.711,1220.793Zm-.641,1.189.013-.338a1.052,1.052,0,0,0-.122-.622.364.364,0,0,0-.389-.162.572.572,0,0,0-.389.289,1.2,1.2,0,0,0-.173.6.83.83,0,0,0,.125.529.367.367,0,0,0,.4.15.624.624,0,0,0,.323-.159.88.88,0,0,0,.214-.282" transform="translate(-1504.246 -1220.174)"/></g><g class="d" transform="translate(3.894 10.01)"><g class="as"><g class="d"><path class="u" d="M1507.609,1224.034l1.138.759a2.989,2.989,0,0,1-.544,1.711,2.257,2.257,0,0,1-1.387.867l-1.138-.759a2.254,2.254,0,0,0,1.387-.866,2.985,2.985,0,0,0,.544-1.711" transform="translate(-1505.678 -1224.034)"/></g></g></g><g class="d" transform="translate(6.352 9.41)"><g class="at"><g class="d" transform="translate(0 -1.71)"><path class="f" d="M1513.127,1219.149l1.138.759c-.022-.015-.045-.029-.069-.041a1.029,1.029,0,0,0-.669-.087,1.5,1.5,0,0,0-.674.3,1.681,1.681,0,0,0-.484.611,1.934,1.934,0,0,0-.2.776,1.314,1.314,0,0,0,.268.963.787.787,0,0,0,.148.13l-1.137-.76a.756.756,0,0,1-.148-.13,1.31,1.31,0,0,1-.269-.963,1.932,1.932,0,0,1,.2-.776,1.682,1.682,0,0,1,.483-.611,1.5,1.5,0,0,1,.674-.3,1.03,1.03,0,0,1,.67.087c.023.013.047.027.068.041" transform="translate(-1511.032 -1219.001)"/></g></g></g><g class="d" transform="translate(7.708 7.7)"><g class="au"><g class="d" transform="translate(-1.357)"><path class="f" d="M1513.127,1219.149l1.138.759c-.022-.015-.045-.029-.069-.041a1.029,1.029,0,0,0-.669-.087,1.5,1.5,0,0,0-.674.3,1.681,1.681,0,0,0-.484.611,1.934,1.934,0,0,0-.2.776,1.314,1.314,0,0,0,.268.963.787.787,0,0,0,.148.13l-1.137-.76a.756.756,0,0,1-.148-.13,1.31,1.31,0,0,1-.269-.963,1.932,1.932,0,0,1,.2-.776,1.682,1.682,0,0,1,.483-.611,1.5,1.5,0,0,1,.674-.3,1.03,1.03,0,0,1,.67.087c.023.013.047.027.068.041" transform="translate(-1511.032 -1219.001)"/></g></g></g><g class="d" transform="translate(8.378 7.806)"><g class="av"><g class="d" transform="translate(-2.026 -0.106)"><path class="f" d="M1513.127,1219.149l1.138.759c-.022-.015-.045-.029-.069-.041a1.029,1.029,0,0,0-.669-.087,1.5,1.5,0,0,0-.674.3,1.681,1.681,0,0,0-.484.611,1.934,1.934,0,0,0-.2.776,1.314,1.314,0,0,0,.268.963.787.787,0,0,0,.148.13l-1.137-.76a.756.756,0,0,1-.148-.13,1.31,1.31,0,0,1-.269-.963,1.932,1.932,0,0,1,.2-.776,1.682,1.682,0,0,1,.483-.611,1.5,1.5,0,0,1,.674-.3,1.03,1.03,0,0,1,.67.087c.023.013.047.027.068.041" transform="translate(-1511.032 -1219.001)"/></g></g></g><g class="d" transform="translate(7.116 8.379)"><g class="aw"><g class="d"><path class="u" d="M1513.536,1220.536l1.137.76a.37.37,0,0,0-.279-.049.566.566,0,0,0-.385.288,1.2,1.2,0,0,0-.172.6.829.829,0,0,0,.125.529l-1.137-.759a.825.825,0,0,1-.125-.529,1.186,1.186,0,0,1,.172-.6.566.566,0,0,1,.385-.289.374.374,0,0,1,.279.048" transform="translate(-1512.699 -1220.48)"/></g></g></g><g class="d" transform="translate(7.954 8.435)"><g class="ax"><g class="d"><path class="f" d="M1514.524,1220.6l1.137.76a.4.4,0,0,1,.11.113l-1.138-.759a.4.4,0,0,0-.11-.114" transform="translate(-1514.524 -1220.602)"/></g></g></g><g class="d" transform="translate(6.622 10.373)"><g class="ay"><g class="d" transform="translate(-0.271 -2.673)"><path class="f" d="M1513.127,1219.149l1.138.759c-.022-.015-.045-.029-.069-.041a1.029,1.029,0,0,0-.669-.087,1.5,1.5,0,0,0-.674.3,1.681,1.681,0,0,0-.484.611,1.934,1.934,0,0,0-.2.776,1.314,1.314,0,0,0,.268.963.787.787,0,0,0,.148.13l-1.137-.76a.756.756,0,0,1-.148-.13,1.31,1.31,0,0,1-.269-.963,1.932,1.932,0,0,1,.2-.776,1.682,1.682,0,0,1,.483-.611,1.5,1.5,0,0,1,.674-.3,1.03,1.03,0,0,1,.67.087c.023.013.047.027.068.041" transform="translate(-1511.032 -1219.001)"/></g></g></g><g class="d" transform="translate(7.243 9.799)"><g class="az"><g class="d"><path class="u" d="M1512.974,1223.575l1.137.759a.365.365,0,0,0,.1.1l-1.138-.759a.371.371,0,0,1-.1-.1" transform="translate(-1512.974 -1223.575)"/></g></g></g><g class="d" transform="translate(8.064 8.548)"><g class="ba"><g class="d"><path class="f" d="M1514.763,1220.85l1.138.759a1.021,1.021,0,0,1,.125.621l-1.138-.759a1.019,1.019,0,0,0-.125-.621" transform="translate(-1514.763 -1220.85)"/></g></g></g><g class="d" transform="translate(8.446 7.847)"><g class="bb"><g class="d"><path class="u" d="M1515.6,1219.323l1.138.759a1.028,1.028,0,0,1,.37.471l-1.137-.759a1.028,1.028,0,0,0-.371-.471" transform="translate(-1515.596 -1219.323)"/></g></g></g><g class="d" transform="translate(7.342 9.789)"><g class="bc"><g class="d"><path class="f" d="M1513.81,1223.554l1.137.759a.622.622,0,0,1-.323.159.4.4,0,0,1-.3-.048l-1.138-.759a.4.4,0,0,0,.3.048.622.622,0,0,0,.323-.159" transform="translate(-1513.19 -1223.554)"/></g></g></g><g transform="translate(8.176 9.169)"><path class="ad" d="M1515.021,1222.2l1.138.759-.013.339-1.138-.759Z" transform="translate(-1515.008 -1222.202)"/></g><g class="d" transform="translate(7.963 9.508)"><g class="bd"><g class="d"><path class="f" d="M1514.756,1222.94l1.137.759a.885.885,0,0,1-.214.282l-1.137-.759a.9.9,0,0,0,.214-.282" transform="translate(-1514.542 -1222.94)"/></g></g></g><g transform="translate(6.849 11.367)"><path class="af" d="M1512.285,1226.991l1.138.759-.169.033-1.137-.759Z" transform="translate(-1512.117 -1226.991)"/></g><g transform="translate(6.823 11.4)"><path class="ad" d="M1512.085,1227.063l1.137.759-.027.685-1.137-.759Z" transform="translate(-1512.058 -1227.063)"/></g><g class="d" transform="translate(6.77 10.172)"><g class="be"><g class="d"><path class="u" d="M1513.314,1224.387l1.137.759a1.192,1.192,0,0,1-.711.437.88.88,0,0,1-.659-.106l-1.137-.76a.873.873,0,0,0,.658.106,1.194,1.194,0,0,0,.712-.436" transform="translate(-1511.944 -1224.387)"/></g></g></g><g transform="translate(6.823 12.049)"><path class="ah" d="M1512.245,1228.477l1.138.759-.187.036-1.137-.759Z" transform="translate(-1512.058 -1228.477)"/></g><g class="d" transform="translate(8.817 8.319)"><g class="bf"><g class="d"><path class="u" d="M1516.4,1220.35l1.137.759a2,2,0,0,1,.131.849l-1.137-.759a2,2,0,0,0-.131-.849" transform="translate(-1516.404 -1220.35)"/></g></g></g><g transform="translate(8.936 9.168)"><path class="ak" d="M1516.675,1222.2l1.138.759-.012.3-1.137-.759Z" transform="translate(-1516.663 -1222.2)"/></g><g class="d" transform="translate(7.018 10.172)"><g class="bg"><g class="d"><path class="f" d="M1513.606,1224.387l1.137.759a1.305,1.305,0,0,1-1.122,1.2l-1.137-.759a1.306,1.306,0,0,0,1.122-1.2" transform="translate(-1512.484 -1224.387)"/></g></g></g><g class="d" transform="translate(7.009 9.472)"><g class="bh"><g class="d"><path class="u" d="M1514.392,1222.862l1.137.76a2.979,2.979,0,0,1-.54,1.71,2.265,2.265,0,0,1-1.387.866l-1.137-.759a2.261,2.261,0,0,0,1.386-.867,2.982,2.982,0,0,0,.54-1.711" transform="translate(-1512.465 -1222.862)"/></g></g></g><g class="d" transform="translate(11.428 5.524)"><g class="bi"><g class="d"><path class="f" d="M1522.717,1214.26l1.137.759a.8.8,0,0,0-.623.742.523.523,0,0,0,.217.471l-1.138-.759a.524.524,0,0,1-.216-.47.8.8,0,0,1,.623-.742" transform="translate(-1522.093 -1214.26)"/></g></g></g><g class="d" transform="translate(11.645 6.736)"><g class="bj"><g class="d"><path class="u" d="M1522.922,1216.971l1.138.759a.484.484,0,0,1-.357-.069l-1.138-.759a.486.486,0,0,0,.357.069" transform="translate(-1522.565 -1216.902)"/></g></g></g><g class="d" transform="translate(11.332 7.994)"><g class="bk"><g class="d"><path class="f" d="M1522.507,1219.643l1.138.759a.8.8,0,0,0-.624.742.524.524,0,0,0,.217.47l-1.137-.759a.524.524,0,0,1-.217-.471.805.805,0,0,1,.623-.742" transform="translate(-1521.883 -1219.643)"/></g></g></g><g class="d" transform="translate(11.549 9.207)"><g class="bl"><g class="d"><path class="u" d="M1522.713,1222.354l1.137.759a.485.485,0,0,1-.357-.069l-1.137-.759a.484.484,0,0,0,.357.069" transform="translate(-1522.356 -1222.285)"/></g></g></g><g transform="translate(9.54 4.211)"><path class="ad" d="M1518.374,1211.4l1.138.759-.4,10.138-1.138-.759Z" transform="translate(-1517.979 -1211.401)"/></g><g class="d" transform="translate(9.54 14.349)"><g class="bm"><g class="d"><path class="f" d="M1517.979,1233.487l1.137.759a.174.174,0,0,0,.072.158l-1.138-.759a.175.175,0,0,1-.072-.158" transform="translate(-1517.979 -1233.487)"/></g></g></g><g transform="translate(9.938 4.142)"><path class="ak" d="M1519.241,1211.251l1.138.759-.4,10.137-1.137-.759Z" transform="translate(-1518.846 -1211.251)"/></g><g transform="translate(9.54 3.962)"><path class="ar" d="M1518.583,1210.861a.161.161,0,0,1,.189.178l-.395,10.138a.269.269,0,0,1-.206.249.163.163,0,0,1-.192-.181l.395-10.137A.269.269,0,0,1,1518.583,1210.861Z" transform="translate(-1517.979 -1210.858)"/></g><g class="d" transform="translate(9.612 14.28)"><g class="bn"><g class="d"><path class="u" d="M1518.462,1233.338l1.137.759a.269.269,0,0,1-.206.249.161.161,0,0,1-.12-.023l-1.138-.759a.16.16,0,0,0,.12.023.269.269,0,0,0,.206-.249" transform="translate(-1518.136 -1233.338)"/></g></g></g><g transform="translate(12.052 3.891)"><path class="af" d="M1532.894,1210.7l1.138.759-9.442,1.632-1.138-.759Z" transform="translate(-1523.452 -1210.704)"/></g><g class="d" transform="translate(21.494 3.883)"><g class="bo"><g class="d"><path class="f" d="M1544.382,1210.763l1.138.759a.486.486,0,0,0-.36-.069l-1.137-.759a.485.485,0,0,1,.359.069" transform="translate(-1544.023 -1210.685)"/></g></g></g><g transform="translate(12.002 5.173)"><path class="ah" d="M1532.785,1213.5l1.138.759-9.442,1.632-1.138-.759Z" transform="translate(-1523.343 -1213.496)"/></g><g class="d" transform="translate(21.444 3.96)"><g class="bp"><g class="d"><path class="u" d="M1544.323,1210.854l1.138.759a.518.518,0,0,1,.214.466.809.809,0,0,1-.623.746l-1.138-.76a.808.808,0,0,0,.624-.746.518.518,0,0,0-.215-.466" transform="translate(-1543.914 -1210.854)"/></g></g></g><g transform="translate(11.956 6.362)"><path class="af" d="M1532.684,1216.087l1.138.759-9.442,1.632-1.138-.759Z" transform="translate(-1523.242 -1216.087)"/></g><g class="d" transform="translate(21.398 6.354)"><g class="bq"><g class="d"><path class="f" d="M1544.172,1216.146l1.137.759a.488.488,0,0,0-.359-.069l-1.138-.759a.49.49,0,0,1,.359.069" transform="translate(-1543.813 -1216.069)"/></g></g></g><g transform="translate(11.906 7.644)"><path class="ah" d="M1532.575,1218.879l1.138.759-9.442,1.632-1.137-.759Z" transform="translate(-1523.134 -1218.879)"/></g><g class="d" transform="translate(21.348 6.431)"><g class="br"><g class="d"><path class="u" d="M1544.114,1216.237l1.137.759a.521.521,0,0,1,.215.467.809.809,0,0,1-.624.746l-1.138-.759a.808.808,0,0,0,.624-.746.518.518,0,0,0-.214-.467" transform="translate(-1543.704 -1216.237)"/></g></g></g><g transform="translate(11.332 6.354)"><path class="ar" d="M1531.949,1216.077a.484.484,0,0,1,.574.536.809.809,0,0,1-.624.746l-9.442,1.632a.486.486,0,0,1-.574-.539.8.8,0,0,1,.623-.742Z" transform="translate(-1521.883 -1216.069)"/></g><g class="d" transform="translate(27.065)"><g class="bs"><g class="d"><path class="f" d="M1556.16,1202.226l1.137.759a.268.268,0,0,0,.107.243l-1.137-.759a.268.268,0,0,1-.107-.243" transform="translate(-1556.159 -1202.226)"/></g></g></g><g class="d" transform="translate(27.027 0.692)"><g class="bt"><g class="d"><path class="f" d="M1556.38,1203.734l1.137.759a.394.394,0,0,0-.3.366.259.259,0,0,0,.106.232l-1.137-.759a.26.26,0,0,1-.106-.232.394.394,0,0,1,.3-.366" transform="translate(-1556.077 -1203.734)"/></g></g></g><g class="d" transform="translate(26.986 1.739)"><g class="bu"><g class="d"><path class="f" d="M1556.291,1206.014l1.137.759a.4.4,0,0,0-.3.366.253.253,0,0,0,.1.227l-1.137-.759a.251.251,0,0,1-.1-.227.4.4,0,0,1,.3-.366" transform="translate(-1555.988 -1206.014)"/></g></g></g><g class="d" transform="translate(26.945 2.781)"><g class="bv"><g class="d"><path class="f" d="M1556.206,1208.285l1.138.759a.4.4,0,0,0-.307.367.259.259,0,0,0,.107.231l-1.137-.759a.258.258,0,0,1-.107-.231.4.4,0,0,1,.306-.367" transform="translate(-1555.9 -1208.285)"/></g></g></g><g class="d" transform="translate(25.37 4.342)"><g class="bw"><g class="d"><path class="f" d="M1554.036,1211.685l1.138.759a2.524,2.524,0,0,0-1.567,2.194,1.6,1.6,0,0,0,.663,1.441l-1.138-.759a1.6,1.6,0,0,1-.663-1.441,2.525,2.525,0,0,1,1.567-2.194" transform="translate(-1552.468 -1211.685)"/></g></g></g><g class="d" transform="translate(26.745 8.213)"><g class="bx"><g class="d"><path class="f" d="M1555.509,1220.119l1.138.76a.349.349,0,0,0-.046.161.251.251,0,0,0,.1.227l-1.137-.759a.252.252,0,0,1-.1-.227.357.357,0,0,1,.045-.161" transform="translate(-1555.464 -1220.119)"/></g></g></g><g class="d" transform="translate(26.705 9.054)"><g class="by"><g class="d"><path class="f" d="M1555.682,1221.952l1.137.759a.4.4,0,0,0-.306.363.256.256,0,0,0,.106.231l-1.138-.759a.256.256,0,0,1-.105-.231.4.4,0,0,1,.306-.363" transform="translate(-1555.375 -1221.952)"/></g></g></g><g class="d" transform="translate(26.664 10.097)"><g class="bz"><g class="d"><path class="f" d="M1555.593,1224.225l1.138.759a.4.4,0,0,0-.307.366.252.252,0,0,0,.105.227l-1.138-.759a.253.253,0,0,1-.1-.227.4.4,0,0,1,.306-.366" transform="translate(-1555.286 -1224.225)"/></g></g></g><g class="d" transform="translate(26.623 11.144)"><g class="ca"><g class="d"><path class="f" d="M1555.5,1226.5l1.138.759a.4.4,0,0,0-.306.367.252.252,0,0,0,.106.227l-1.138-.759a.254.254,0,0,1-.106-.227.4.4,0,0,1,.306-.367" transform="translate(-1555.198 -1226.505)"/></g></g></g><path class="cb" d="M1524.205,1211.28a.394.394,0,0,0-.306.363.238.238,0,0,0,.281.265l-.016.416a.4.4,0,0,0-.306.366.237.237,0,0,0,.282.261l-.017.42a.4.4,0,0,0-.306.367.238.238,0,0,0,.281.261l-.016.416a.394.394,0,0,0-.3.366l-26.308,4.578a.24.24,0,0,0-.278-.277l.017-.416a.393.393,0,0,0,.3-.362.236.236,0,0,0-.278-.266l.016-.415a.394.394,0,0,0,.3-.366.237.237,0,0,0-.278-.265l.012-.415a.394.394,0,0,0,.306-.366.235.235,0,0,0-.282-.261l.017-.419a.4.4,0,0,0,.306-.363.26.26,0,0,0-.027-.133,2.525,2.525,0,0,0,1.654-2.228,1.5,1.5,0,0,0-1.505-1.678.325.325,0,0,0,.038-.14.238.238,0,0,0-.282-.265l.016-.416a.4.4,0,0,0,.307-.366.237.237,0,0,0-.282-.261l.016-.42a.393.393,0,0,0,.306-.363.239.239,0,0,0-.281-.265l.016-.416a.394.394,0,0,0,.3-.366.237.237,0,0,0-.278-.265l.017-.416a.39.39,0,0,0,.3-.362l26.305-4.581a.241.241,0,0,0,.281.276l-.016.416a.4.4,0,0,0-.3.366.237.237,0,0,0,.278.265l-.016.415a.4.4,0,0,0-.3.366.237.237,0,0,0,.282.261l-.017.415a.4.4,0,0,0-.306.367.24.24,0,0,0,.282.265l-.016.415a.4.4,0,0,0-.306.367.284.284,0,0,0,.034.147,2.525,2.525,0,0,0-1.567,2.193,1.5,1.5,0,0,0,1.419,1.677.361.361,0,0,0-.045.161.237.237,0,0,0,.282.261Zm-5.567-3.881a.808.808,0,0,0,.624-.746.484.484,0,0,0-.574-.535l-9.442,1.632a.8.8,0,0,0-.623.742.487.487,0,0,0,.573.539l9.442-1.632m-.1,2.471a.809.809,0,0,0,.624-.746.484.484,0,0,0-.574-.536l-9.442,1.632a.8.8,0,0,0-.623.742.486.486,0,0,0,.574.539l9.441-1.632m-15.523,2.366.012-.3a1.992,1.992,0,0,0-.135-.849.979.979,0,0,0-.439-.513,1.031,1.031,0,0,0-.67-.087,1.506,1.506,0,0,0-.674.3,1.716,1.716,0,0,0-.483.611,1.941,1.941,0,0,0-.2.776,1.314,1.314,0,0,0,.269.963.822.822,0,0,0,.806.235,1.19,1.19,0,0,0,.711-.437,1.3,1.3,0,0,1-1.122,1.2l-.169.033-.027.685.187-.036a2.255,2.255,0,0,0,1.387-.867,2.986,2.986,0,0,0,.544-1.711m3.111-.538.012-.3a2.006,2.006,0,0,0-.131-.849,1,1,0,0,0-.439-.513,1.031,1.031,0,0,0-.67-.087,1.5,1.5,0,0,0-.674.3,1.679,1.679,0,0,0-.483.611,1.929,1.929,0,0,0-.2.776,1.312,1.312,0,0,0,.268.963.816.816,0,0,0,.806.235,1.192,1.192,0,0,0,.711-.436,1.306,1.306,0,0,1-1.122,1.2l-.168.033-.027.685.187-.036a2.262,2.262,0,0,0,1.387-.867,2.982,2.982,0,0,0,.54-1.711m1,4.808.395-10.138a.161.161,0,0,0-.189-.177.269.269,0,0,0-.209.246l-.4,10.137a.163.163,0,0,0,.193.181.269.269,0,0,0,.206-.249" transform="translate(-1497.194 -1202.226)"/><g transform="translate(4.001 8.917)"><path class="cb" d="M1506.474,1221.66a.571.571,0,0,0-.389.289,1.2,1.2,0,0,0-.173.6.833.833,0,0,0,.125.529.367.367,0,0,0,.4.149.623.623,0,0,0,.323-.159.886.886,0,0,0,.214-.282l.013-.338a1.049,1.049,0,0,0-.122-.621A.363.363,0,0,0,1506.474,1221.66Z" transform="translate(-1505.911 -1221.653)"/></g><g transform="translate(7.116 8.379)"><path class="cb" d="M1513.257,1220.488a.358.358,0,0,1,.389.162,1.018,1.018,0,0,1,.125.621l-.013.339a.894.894,0,0,1-.214.282.621.621,0,0,1-.323.159.363.363,0,0,1-.4-.15.825.825,0,0,1-.125-.529,1.186,1.186,0,0,1,.172-.6A.566.566,0,0,1,1513.257,1220.488Z" transform="translate(-1512.699 -1220.48)"/></g><g transform="translate(6.352 7.7)"><path class="ar" d="M1513.5,1219.62a2,2,0,0,1,.131.849l-.012.3a2.984,2.984,0,0,1-.54,1.711,2.263,2.263,0,0,1-1.386.867l-.187.036.027-.685.168-.033a1.306,1.306,0,0,0,1.122-1.2,1.194,1.194,0,0,1-.711.436.816.816,0,0,1-.806-.235,1.31,1.31,0,0,1-.269-.963,1.932,1.932,0,0,1,.2-.776,1.682,1.682,0,0,1,.483-.611,1.5,1.5,0,0,1,.674-.3,1.03,1.03,0,0,1,.67.087A1,1,0,0,1,1513.5,1219.62Zm-.641,1.189.013-.339a1.02,1.02,0,0,0-.125-.621.357.357,0,0,0-.389-.162.566.566,0,0,0-.385.288,1.19,1.19,0,0,0-.172.6.826.826,0,0,0,.125.529.364.364,0,0,0,.4.15.622.622,0,0,0,.323-.159.889.889,0,0,0,.214-.282" transform="translate(-1511.032 -1219.001)"/></g><g transform="translate(11.428 3.883)"><path class="ar" d="M1532.159,1210.694a.484.484,0,0,1,.574.535.809.809,0,0,1-.624.746l-9.442,1.632a.487.487,0,0,1-.573-.54.8.8,0,0,1,.623-.742Z" transform="translate(-1522.093 -1210.686)"/></g><g transform="translate(27.33 0.276)"><path class="ad" d="M1556.753,1202.828l1.138.759-.016.416-1.138-.759Z" transform="translate(-1556.737 -1202.828)"/></g><g transform="translate(27.289 1.323)"><path class="ad" d="M1556.664,1205.109l1.137.759-.016.416-1.138-.759Z" transform="translate(-1556.648 -1205.109)"/></g><g transform="translate(27.252 2.366)"><path class="ad" d="M1556.583,1207.38l1.138.759-.016.416-1.138-.759Z" transform="translate(-1556.567 -1207.38)"/></g><g transform="translate(27.211 3.413)"><path class="ad" d="M1556.495,1209.661l1.137.759-.016.416-1.138-.759Z" transform="translate(-1556.479 -1209.661)"/></g><g class="d" transform="translate(26.905 3.828)"><g class="cc"><g class="d"><path class="f" d="M1556.117,1210.566l1.138.759a.4.4,0,0,0-.306.367.28.28,0,0,0,.033.147l-1.138-.759a.286.286,0,0,1-.034-.147.4.4,0,0,1,.306-.367" transform="translate(-1555.811 -1210.566)"/></g></g></g><g transform="translate(27.011 8.635)"><path class="ad" d="M1556.059,1221.038l1.137.759-.016.42-1.138-.759Z" transform="translate(-1556.043 -1221.038)"/></g><g transform="translate(26.971 9.682)"><path class="ad" d="M1555.97,1223.319l1.138.759-.016.416-1.137-.759Z" transform="translate(-1555.954 -1223.319)"/></g><g transform="translate(26.93 10.725)"><path class="ad" d="M1555.881,1225.591l1.138.759-.016.42-1.137-.759Z" transform="translate(-1555.865 -1225.591)"/></g><g transform="translate(0.278 12.553)"><path class="af" d="M1524.108,1229.575l1.138.759-26.309,4.578-1.138-.759Z" transform="translate(-1497.799 -1229.575)"/></g><g class="d" transform="translate(26.586 12.187)"><g class="cd"><g class="d"><path class="f" d="M1555.42,1228.778l1.137.759a.4.4,0,0,0-.3.366l-1.138-.759a.4.4,0,0,1,.3-.366" transform="translate(-1555.117 -1228.778)"/></g></g></g><g transform="translate(26.889 11.771)"><path class="ad" d="M1555.793,1227.872l1.137.759-.016.416-1.138-.759Z" transform="translate(-1555.777 -1227.872)"/></g></g></g><g transform="translate(0.286 16.107)"><g transform="translate(0 8.932)"><path class="ce" d="M1513.567,1268.034c.961,0,1.74.719,2.614,1.8.2.252.435.584.7.959,1.058,1.514,2.657,3.8,4.691,3.8h.008a1.533,1.533,0,0,0,1.259-.525c.825-.987.606-3.193.447-4.8l-.024-.244a34.154,34.154,0,0,0-1.8-7.647l-.044-.11c-.6-1.487-1.724-4.255-4.918-4.463a12.789,12.789,0,0,0-4.242.45,10.716,10.716,0,0,1-2.759.416,10.51,10.51,0,0,1-2.706-.4,12.822,12.822,0,0,0-4.294-.462c-3.2.208-4.317,2.977-4.918,4.465l-.045.108a34.141,34.141,0,0,0-1.8,7.649l-.024.244c-.16,1.611-.379,3.815.445,4.8a1.535,1.535,0,0,0,1.259.525c2.041,0,3.64-2.288,4.7-3.8.261-.375.494-.708.7-.96,1.022-1.264,1.925-2.024,3.118-1.738a14,14,0,0,0,7.132,0A2.172,2.172,0,0,1,1513.567,1268.034Z" transform="translate(-1495.56 -1256.777)"/></g><path class="cf" d="M1523.905,1246.973s-3.415-4.066,1.738-5.293,2.236-4.363,2.236-4.363" transform="translate(-1510.295 -1237.317)"/></g><g transform="translate(4.219 25.502)"><g transform="translate(13.138 4.938)"><path class="cg" d="M1534.086,1271.411a1.437,1.437,0,1,1,1.334-1.434A1.388,1.388,0,0,1,1534.086,1271.411Zm0-2.282a.85.85,0,1,0,.789.848A.821.821,0,0,0,1534.086,1269.13Z" transform="translate(-1532.753 -1268.544)"/></g><g transform="translate(6.952)"><path class="cg" d="M1524.168,1261.987h-3.948a.982.982,0,0,1-.943-1.014v-2.894a.3.3,0,0,1,.1-.229.258.258,0,0,1,.231-.056,8.768,8.768,0,0,0,5.166,0,.257.257,0,0,1,.231.056.3.3,0,0,1,.1.229v2.894A.982.982,0,0,1,1524.168,1261.987Zm-4.347-3.541v2.527a.415.415,0,0,0,.4.429h3.948a.416.416,0,0,0,.4-.429v-2.527a8.9,8.9,0,0,1-4.746,0Z" transform="translate(-1519.276 -1257.786)"/></g><g transform="translate(15.618 7.604)"><path class="cg" d="M1539.49,1277.219a1.437,1.437,0,1,1,1.334-1.434A1.389,1.389,0,0,1,1539.49,1277.219Zm0-2.282a.85.85,0,1,0,.789.848A.821.821,0,0,0,1539.49,1274.937Z" transform="translate(-1538.156 -1274.352)"/></g><g transform="translate(18.105 4.938)"><path class="cg" d="M1544.906,1271.411a1.437,1.437,0,1,1,1.333-1.434A1.388,1.388,0,0,1,1544.906,1271.411Zm0-2.282a.85.85,0,1,0,.789.848A.821.821,0,0,0,1544.906,1269.13Z" transform="translate(-1543.573 -1268.544)"/></g><g transform="translate(0 2.663)"><path class="cg" d="M1507.659,1271.006h-.159a1.276,1.276,0,0,1-1.226-1.318v-.988h-.919a1.276,1.276,0,0,1-1.226-1.318v-.17a1.276,1.276,0,0,1,1.226-1.318h.919v-.988a1.275,1.275,0,0,1,1.226-1.317h.159a1.275,1.275,0,0,1,1.226,1.317v.988h.919a1.276,1.276,0,0,1,1.226,1.318v.17a1.276,1.276,0,0,1-1.226,1.318h-.919v.988A1.276,1.276,0,0,1,1507.659,1271.006Zm-2.3-4.527a.71.71,0,0,0-.681.733v.17a.709.709,0,0,0,.681.732h1.192a.283.283,0,0,1,.273.293v1.281a.709.709,0,0,0,.681.732h.159a.709.709,0,0,0,.681-.732v-1.281a.284.284,0,0,1,.273-.293h1.191a.709.709,0,0,0,.681-.732v-.17a.709.709,0,0,0-.681-.733h-1.191a.283.283,0,0,1-.273-.292v-1.281a.709.709,0,0,0-.681-.732h-.159a.709.709,0,0,0-.681.732v1.281a.283.283,0,0,1-.273.292Z" transform="translate(-1504.129 -1263.588)"/></g><g transform="translate(15.618 2.273)"><path class="cg" d="M1539.49,1265.6a1.437,1.437,0,1,1,1.334-1.434A1.388,1.388,0,0,1,1539.49,1265.6Zm0-2.281a.85.85,0,1,0,.789.848A.821.821,0,0,0,1539.49,1263.323Z" transform="translate(-1538.156 -1262.737)"/></g></g></svg>