<svg xmlns="http://www.w3.org/2000/svg" xmlns:xlink="http://www.w3.org/1999/xlink" width="28.981" height="46.351" viewBox="0 0 28.981 46.351"><defs><style>.a{fill:none;}.b{opacity:0.8;}.c{fill:#424242;opacity:0.5;}.d{isolation:isolate;}.e{clip-path:url(#a);}.f{fill:#855714;}.g{fill:#8a5a15;}.h{fill:#8f5e15;}.i{fill:#fca526;}.j{clip-path:url(#b);}.k{clip-path:url(#c);}.l{clip-path:url(#d);}.m{fill:#815413;}.n{clip-path:url(#e);}.o{fill:#9d6717;}.p{clip-path:url(#f);}.q{fill:url(#g);}</style><clipPath id="a"><path class="a" d="M2095.36,968.252l.973,1.1a1.827,1.827,0,0,1-.474,2.425l-.974-1.1A1.826,1.826,0,0,0,2095.36,968.252Z" transform="translate(-2094.886 -968.252)"/></clipPath><clipPath id="b"><path class="a" d="M2062.783,975.325l-.973-1.1.04.043a1.4,1.4,0,0,0,1.178.377,2.388,2.388,0,0,0,1.14-.456,11.582,11.582,0,0,1,5.48-2.156,7.535,7.535,0,0,1,4.962,1.08,1.589,1.589,0,0,0,1.037.228,2.349,2.349,0,0,0,1.345-.643l.973,1.1a2.348,2.348,0,0,1-1.345.643,1.586,1.586,0,0,1-1.037-.228,7.534,7.534,0,0,0-4.962-1.08,11.586,11.586,0,0,0-5.479,2.156,2.391,2.391,0,0,1-1.14.457,1.4,1.4,0,0,1-1.178-.377Z" transform="translate(-2061.81 -971.98)"/></clipPath><clipPath id="c"><path class="a" d="M2077.7,959.667l.974,1.1a1.826,1.826,0,0,1-.443,2.459,2.388,2.388,0,0,1-1.356.644,1.466,1.466,0,0,1-1.083-.283,13.273,13.273,0,0,0-9.746-2.518,21.158,21.158,0,0,0-10.9,4.658,2.258,2.258,0,0,1-1.178.509,1.417,1.417,0,0,1-1.192-.388c-.014-.014-.027-.028-.04-.043l-.973-1.1q.018.021.04.043a1.42,1.42,0,0,0,1.193.388,2.263,2.263,0,0,0,1.178-.508,21.152,21.152,0,0,1,10.9-4.658,13.275,13.275,0,0,1,9.746,2.517,1.464,1.464,0,0,0,1.083.283,2.384,2.384,0,0,0,1.356-.644A1.825,1.825,0,0,0,2077.7,959.667Z" transform="translate(-2051.757 -959.667)"/></clipPath><clipPath id="d"><path class="a" d="M2072.093,983.956l-.974-1.1.027.029.974,1.1Z" transform="translate(-2071.119 -982.852)"/></clipPath><clipPath id="e"><path class="a" d="M2083.628,977.879l.973,1.1a1.3,1.3,0,0,1-.322,1.739l-.974-1.1A1.3,1.3,0,0,0,2083.628,977.879Z" transform="translate(-2083.306 -977.879)"/></clipPath><clipPath id="f"><path class="a" d="M2076.442,986.083l.973,1.1a1.69,1.69,0,0,1-.96.458,1.007,1.007,0,0,1-.844-.272l-.974-1.1a1.006,1.006,0,0,0,.844.272A1.686,1.686,0,0,0,2076.442,986.083Z" transform="translate(-2074.638 -986.083)"/></clipPath><linearGradient id="g" y1="0.5" x2="1" y2="0.5" gradientUnits="objectBoundingBox"><stop offset="0" stop-color="#ffa726"/><stop offset="0" stop-color="#c3bb31"/><stop offset="0" stop-color="#3adf5a"/><stop offset="0.512" stop-color="#33b87e"/><stop offset="1" stop-color="#2e979e"/></linearGradient></defs><g class="b" transform="translate(0 40.881)"><ellipse class="c" cx="14.491" cy="2.735" rx="14.491" ry="2.735"/></g><g transform="translate(1.021 0)"><g class="d"><g class="d" transform="translate(20.115 7.266)"><g class="e"><g class="d"><path class="f" d="M2095.919,968.252l.974,1.1a1.421,1.421,0,0,1,.2,1.4l-.974-1.1a1.419,1.419,0,0,0-.2-1.4" transform="translate(-2095.445 -968.252)"/><path class="g" d="M2095.867,971.3l.973,1.1a2.374,2.374,0,0,1-.406.742l-.973-1.1a2.374,2.374,0,0,0,.406-.742" transform="translate(-2095.198 -969.9)"/><path class="h" d="M2095.151,972.914l.973,1.1a2.666,2.666,0,0,1-.264.285l-.974-1.1a2.692,2.692,0,0,0,.265-.285" transform="translate(-2094.886 -970.774)"/></g></g></g><g transform="translate(4.608 5.44)"><path class="i" d="M2076.863,965.909c.785.521.634,1.788-.254,2.616a2.351,2.351,0,0,1-1.346.643,1.588,1.588,0,0,1-1.037-.228,7.535,7.535,0,0,0-4.962-1.08,11.582,11.582,0,0,0-5.48,2.156,2.388,2.388,0,0,1-1.14.456,1.4,1.4,0,0,1-1.178-.377,1.835,1.835,0,0,1,.578-2.66,16.28,16.28,0,0,1,7.786-3.092A10.508,10.508,0,0,1,2076.863,965.909Z" transform="translate(-2061.1 -964.274)"/></g><g class="d" transform="translate(4.934 8.977)"><g class="j"><g class="d" transform="translate(0 0)"><path class="h" d="M2093.45,973.535l.974,1.1a2.387,2.387,0,0,1-1.218.626l-.973-1.1a2.389,2.389,0,0,0,1.218-.626" transform="translate(-2078.269 -972.821)"/><path class="g" d="M2091.329,974.861l.974,1.1c-.042.007-.085.013-.128.017a1.723,1.723,0,0,1-.639-.049l-.973-1.1a1.731,1.731,0,0,0,.639.05c.042,0,.085-.01.127-.017" transform="translate(-2077.365 -973.521)"/><path class="f" d="M2087.882,973.62l.974,1.1a1.426,1.426,0,0,1-.4-.179,6.589,6.589,0,0,0-1.876-.847l-.973-1.1a6.615,6.615,0,0,1,1.876.847,1.411,1.411,0,0,0,.4.179" transform="translate(-2074.685 -972.313)"/><path class="g" d="M2081.221,972.262l.973,1.1a8.324,8.324,0,0,0-3.086-.234q-.316.033-.637.087l-.973-1.1c.213-.036.426-.065.637-.087a8.316,8.316,0,0,1,3.086.233" transform="translate(-2070.298 -971.979)"/><path class="h" d="M2070.6,972.276l.973,1.1a11.8,11.8,0,0,0-4.843,2.069,2.443,2.443,0,0,1-1.012.439l-.974-1.1a2.44,2.44,0,0,0,1.013-.439,11.79,11.79,0,0,1,4.843-2.069" transform="translate(-2063.396 -972.14)"/><path class="g" d="M2063.87,977.707l.974,1.1c-.042.007-.085.013-.128.017a1.647,1.647,0,0,1-.611-.046l-.973-1.1a1.648,1.648,0,0,0,.611.046c.042,0,.085-.01.127-.017" transform="translate(-2062.525 -975.062)"/><path class="f" d="M2062.417,977.237l.974,1.1a1.246,1.246,0,0,1-.567-.331l-.04-.043-.973-1.1.04.043a1.247,1.247,0,0,0,.567.331" transform="translate(-2061.81 -974.621)"/></g></g></g><g class="d" transform="translate(0.319 3.326)"><g class="k"><g class="d"><path class="f" d="M2108.269,959.667l.973,1.1a1.468,1.468,0,0,1,.217,1.448l-.974-1.1a1.467,1.467,0,0,0-.217-1.447" transform="translate(-2082.33 -959.667)"/><path class="g" d="M2108.273,962.82l.974,1.1a2.332,2.332,0,0,1-.4.729l-.973-1.1a2.34,2.34,0,0,0,.4-.729" transform="translate(-2082.117 -961.373)"/><path class="h" d="M2106.118,964.409l.973,1.1a2.651,2.651,0,0,1-.262.283,2.427,2.427,0,0,1-1.229.627l-.973-1.1a2.423,2.423,0,0,0,1.229-.627,2.641,2.641,0,0,0,.262-.282" transform="translate(-2080.36 -962.233)"/><path class="g" d="M2103.751,966.356l.973,1.1c-.043.007-.085.013-.127.017a1.657,1.657,0,0,1-.615-.047l-.974-1.1a1.664,1.664,0,0,0,.616.046c.042,0,.085-.01.127-.018" transform="translate(-2079.484 -963.27)"/><path class="f" d="M2097.549,963.577l.973,1.1a1.292,1.292,0,0,1-.467-.236,11.675,11.675,0,0,0-4.164-2.1l-.973-1.1a11.682,11.682,0,0,1,4.164,2.1,1.286,1.286,0,0,0,.467.237" transform="translate(-2074.025 -960.52)"/><path class="g" d="M2084.983,960.643l.974,1.1a15.063,15.063,0,0,0-5.581-.421q-.573.059-1.151.157l-.974-1.1q.578-.1,1.151-.156a15.053,15.053,0,0,1,5.581.421" transform="translate(-2066.091 -959.919)"/><path class="h" d="M2065.515,960.668l.974,1.1a21.506,21.506,0,0,0-9.75,4.5,2.3,2.3,0,0,1-1.055.492l-.973-1.1a2.3,2.3,0,0,0,1.055-.491,21.505,21.505,0,0,1,9.75-4.5" transform="translate(-2053.355 -960.209)"/><path class="g" d="M2053.845,971.511l.974,1.1c-.041.007-.083.013-.124.017a1.642,1.642,0,0,1-.61-.047l-.973-1.1a1.652,1.652,0,0,0,.611.046c.041,0,.083-.01.124-.017" transform="translate(-2052.49 -966.059)"/><path class="f" d="M2052.379,971.029l.973,1.1a1.269,1.269,0,0,1-.582-.341l-.04-.043-.973-1.1q.018.021.04.043a1.276,1.276,0,0,0,.582.341" transform="translate(-2051.757 -965.606)"/></g></g></g><path class="i" d="M2077.166,955.6a1.745,1.745,0,0,1-.289,2.6,2.383,2.383,0,0,1-1.356.644,1.466,1.466,0,0,1-1.083-.283,13.273,13.273,0,0,0-9.745-2.517,21.154,21.154,0,0,0-10.9,4.658,2.26,2.26,0,0,1-1.179.508,1.419,1.419,0,0,1-1.192-.388,1.842,1.842,0,0,1,.548-2.632,25.918,25.918,0,0,1,13.3-5.666A16.207,16.207,0,0,1,2077.166,955.6Z" transform="translate(-2051.061 -952.421)"/></g><g class="d" transform="translate(8.983 11.108)"><g class="d" transform="translate(0.223 2.86)"><g class="l"><g class="d"><path class="f" d="M2071.146,982.881l.974,1.1-.027-.029-.974-1.1.027.029" transform="translate(-2071.119 -982.852)"/></g></g></g><g transform="translate(0.25 2.889)"><path class="m" d="M2072.766,984.556l.973,1.1-1.588-1.64-.974-1.1Z" transform="translate(-2071.178 -982.916)"/></g><g class="d" transform="translate(5.817 0.577)"><g class="n"><g class="d"><path class="f" d="M2084.008,977.879l.973,1.1a1.036,1.036,0,0,1,.148,1.019l-.973-1.1a1.036,1.036,0,0,0-.148-1.018" transform="translate(-2083.686 -977.879)"/><path class="g" d="M2084,980.1l.973,1.1a1.67,1.67,0,0,1-.282.518l-.974-1.1a1.672,1.672,0,0,0,.283-.519" transform="translate(-2083.527 -979.079)"/><path class="h" d="M2083.493,981.227l.974,1.1a1.883,1.883,0,0,1-.187.2l-.974-1.1a1.891,1.891,0,0,0,.188-.2" transform="translate(-2083.306 -979.69)"/></g></g></g><g transform="translate(3.642 2.316)"><path class="o" d="M2080.743,981.667l.973,1.1-2.174,2.027-.974-1.1Z" transform="translate(-2078.568 -981.667)"/></g><g class="d" transform="translate(1.838 4.343)"><g class="p"><g class="d"><path class="h" d="M2077.542,986.083l.973,1.1a1.713,1.713,0,0,1-.87.445l-.974-1.1a1.713,1.713,0,0,0,.87-.445" transform="translate(-2075.739 -986.083)"/><path class="g" d="M2076.053,987.029l.974,1.1c-.03.005-.06.009-.09.012a1.177,1.177,0,0,1-.435-.033l-.974-1.1a1.172,1.172,0,0,0,.435.033c.03,0,.06-.007.09-.012" transform="translate(-2075.12 -986.584)"/><path class="f" d="M2075.047,986.727l.973,1.1a.9.9,0,0,1-.408-.239l-.974-1.1a.9.9,0,0,0,.409.239" transform="translate(-2074.638 -986.302)"/></g></g></g><path class="i" d="M2076.471,976.983c.708.306.675,1.3-.022,1.954l-2.174,2.027a1.688,1.688,0,0,1-.96.458,1,1,0,0,1-.844-.272l-1.588-1.64c-.509-.525-.206-1.551.587-2.012a6.8,6.8,0,0,1,2.6-.847A4.785,4.785,0,0,1,2076.471,976.983Z" transform="translate(-2070.633 -976.622)"/></g></g><path class="q" d="M2077.8,1006.361c-.382-4.526-2.509-10.634-11.507-10.361s-12.652,5.89-12.87,12.216,4.8,14.015,17.124,9.925l-.491-2.339s-14.452,5.174-13.633-8.623c2.127-10.525,13.2-11.234,17.778-4.963a9.252,9.252,0,0,1-.655,9.162s-3.218,2.508-3.163-2.29c.055-4.829.655-6.217.655-6.217s-6.871-4.8-10.688,3.49c-1.909,5.89,1.8,10.034,7.361,5.89,0,0,2.1,3.654,7.335.927A7.822,7.822,0,0,0,2077.8,1006.361Zm-10.362,3.354c-2.154,3.844-5.317,1.936-4.172-2.618s4.69-3.19,4.69-3.19Z" transform="translate(-2051.318 -975.993)"/></svg>