<svg xmlns="http://www.w3.org/2000/svg" width="135.788" height="40.063" viewBox="0 0 135.788 40.063"><defs><style>.a{fill:#a6a6a6;}.b{fill:#fff;}</style></defs><path class="a" d="M124.973,0,9.577,0,8.534.014A16.942,16.942,0,0,0,6.261.191,8.221,8.221,0,0,0,4.1.82,7.354,7.354,0,0,0,2.266,2,6.358,6.358,0,0,0,.929,3.623,6.088,6.088,0,0,0,.22,5.529a11.453,11.453,0,0,0-.2,2.005L0,8.459V31.61l.017.924a11.475,11.475,0,0,0,.2,2.005,6.149,6.149,0,0,0,.709,1.907,6.326,6.326,0,0,0,1.337,1.617A7.1,7.1,0,0,0,4.1,39.243a8.442,8.442,0,0,0,2.157.632,16.4,16.4,0,0,0,2.274.177l1.043.011H10.82l116.43-.011a16.921,16.921,0,0,0,2.27-.177,8.421,8.421,0,0,0,2.165-.632,7.181,7.181,0,0,0,1.835-1.18,6.509,6.509,0,0,0,1.341-1.617,6.062,6.062,0,0,0,.7-1.907,11.962,11.962,0,0,0,.21-2.005l0-.924.009-1.1-.012-22.978a11.945,11.945,0,0,0-.21-2.005,6.125,6.125,0,0,0-.7-1.906,7.027,7.027,0,0,0-3.176-2.8,8.46,8.46,0,0,0-2.164-.63A16.109,16.109,0,0,0,127.25.015L126.2,0Z"/><path d="M9.408,38.985c-.342,0-.685,0-1.026-.01a16.287,16.287,0,0,1-2.122-.163,7.319,7.319,0,0,1-1.88-.547,5.962,5.962,0,0,1-1.586-1.028,5.439,5.439,0,0,1-1.158-1.4,5.259,5.259,0,0,1-.616-1.656,10.909,10.909,0,0,1-.188-1.874L.815,31.4V8.33l.017-.894a11.1,11.1,0,0,1,.187-1.871,5.274,5.274,0,0,1,.616-1.66,5.443,5.443,0,0,1,1.152-1.4A6.471,6.471,0,0,1,4.38,1.487,7.243,7.243,0,0,1,6.256.942,16.167,16.167,0,0,1,8.384.777L9.408.766,127.076.777a15.891,15.891,0,0,1,2.11.162,7.352,7.352,0,0,1,1.9.548,6.008,6.008,0,0,1,2.741,2.418,5.288,5.288,0,0,1,.608,1.648,11.416,11.416,0,0,1,.2,1.885l0,.891.008,1.091-.012,22.915a11.036,11.036,0,0,1-.195,1.852,5.257,5.257,0,0,1-.613,1.667,5.575,5.575,0,0,1-1.153,1.384,6.182,6.182,0,0,1-1.588,1.022,7.27,7.27,0,0,1-1.893.549,16.256,16.256,0,0,1-2.122.163l-1.019.011-1.231,0-115.406,0Z" transform="translate(0.166 0.156)"/><g transform="translate(11.209 7.712)"><path class="b" d="M25.939,19.833a5.155,5.155,0,0,1,2.649-4.375A5.8,5.8,0,0,0,24.1,13.184c-1.887-.185-3.718,1.06-4.679,1.06-.98,0-2.462-1.04-4.056-1.009a6.042,6.042,0,0,0-5.028,2.875c-2.174,3.529-.554,8.714,1.529,11.566,1.042,1.4,2.259,2.956,3.854,2.89,1.56-.06,2.141-.932,4.022-.932,1.864,0,2.411.932,4.037.9,1.686-.024,2.726-1.4,3.733-2.812a11.27,11.27,0,0,0,1.706-3.259,5.045,5.045,0,0,1-3.282-4.636Zm-3.071-8.524a4.93,4.93,0,0,0,1.252-3.678A5.7,5.7,0,0,0,20.515,9.38a4.7,4.7,0,0,0-1.285,3.542,4.722,4.722,0,0,0,3.637-1.614Zm22.778,15.73h-5.32l-1.277,3.537H36.8l5.04-13.086h2.341l5.04,13.086H46.926l-1.277-3.537Zm-4.769-1.632h4.217l-2.079-5.741h-.058l-2.08,5.741Z" transform="translate(-9.308 -7.331)"/><g transform="translate(41.72 13.603)"><path class="b" d="M53.108,23.551c0,2.965-1.692,4.869-4.246,4.869a3.508,3.508,0,0,1-3.2-1.669H45.61v4.726H43.521v-12.7h2.023v1.586h.039a3.665,3.665,0,0,1,3.239-1.686c2.583,0,4.285,1.915,4.285,4.87Zm-2.147,0c0-1.932-1.065-3.2-2.689-3.2-1.6,0-2.67,1.3-2.67,3.2,0,1.922,1.072,3.209,2.67,3.209C49.9,26.76,50.961,25.5,50.961,23.551Z" transform="translate(-43.521 -18.677)"/></g><g transform="translate(53.062 13.603)"><path class="b" d="M62.409,23.551c0,2.965-1.692,4.869-4.246,4.869a3.508,3.508,0,0,1-3.2-1.669h-.048v4.726H52.822v-12.7h2.023v1.586h.039a3.665,3.665,0,0,1,3.239-1.686c2.583,0,4.285,1.915,4.285,4.87Zm-2.147,0c0-1.932-1.065-3.2-2.689-3.2-1.6,0-2.67,1.3-2.67,3.2,0,1.922,1.072,3.209,2.67,3.209C59.2,26.76,60.262,25.5,60.262,23.551Z" transform="translate(-52.822 -18.677)"/></g><path class="b" d="M73.8,26.93c.157,1.3,1.5,2.15,3.336,2.15,1.761,0,3.028-.853,3.028-2.023,0-1.016-.764-1.626-2.572-2.041l-1.809-.409c-2.563-.58-3.752-1.7-3.752-3.529,0-2.258,2.1-3.809,5.078-3.809,2.95,0,4.971,1.551,5.04,3.809H80.027c-.126-1.305-1.277-2.1-2.96-2.1s-2.834.8-2.834,1.958c0,.925.723,1.469,2.535,1.886l1.538.354c2.864.635,4.054,1.714,4.054,3.627,0,2.448-2.08,3.981-5.388,3.981-3.095,0-5.186-1.5-5.32-3.863H73.79Zm13.078-8.153v2.258h1.935v1.551H86.891v5.259c0,.819.388,1.2,1.238,1.2q.345-.005.688-.046v1.541a6.133,6.133,0,0,1-1.16.09c-2.047,0-2.864-.726-2.864-2.577V22.585H83.312V21.02h1.481V18.762h2.1Zm3.055,7.029a4.822,4.822,0,1,1,9.644,0,4.822,4.822,0,1,1-9.644,0Zm7.527,0c0-2.047-1.007-3.276-2.7-3.276s-2.7,1.225-2.7,3.276c0,2.067,1.006,3.273,2.7,3.273S97.461,27.873,97.461,25.807Zm3.849-4.771H103.3v1.611h.048a2.408,2.408,0,0,1,2.448-1.722,3.56,3.56,0,0,1,.715.072v1.83a3.138,3.138,0,0,0-.939-.118,2.189,2.189,0,0,0-1.626.626,1.9,1.9,0,0,0-.55,1.566v5.66h-2.089V21.035Zm14.837,6.738c-.281,1.732-2.08,2.92-4.384,2.92a4.473,4.473,0,0,1-4.8-4.841c0-2.993,1.847-4.934,4.7-4.934,2.816,0,4.586,1.814,4.586,4.706V26.3h-7.174v.118a2.38,2.38,0,0,0,.718,1.93,2.745,2.745,0,0,0,2.02.772,2.319,2.319,0,0,0,2.348-1.342h1.987Zm-7.061-2.847h5.088a2.215,2.215,0,0,0-.684-1.722,2.532,2.532,0,0,0-1.812-.7,2.665,2.665,0,0,0-1.834.7,2.372,2.372,0,0,0-.759,1.717ZM35.716,7.641a3.07,3.07,0,0,1,2.366.862,2.675,2.675,0,0,1,.789,2.262,2.881,2.881,0,0,1-3.155,3.164H33.293V7.641Zm-1.381,5.4H35.6a2.18,2.18,0,0,0,1.68-.637,1.9,1.9,0,0,0,.532-1.626,1.9,1.9,0,0,0-.541-1.614A2.19,2.19,0,0,0,35.6,8.528H34.335v4.51Z" transform="translate(-3.122 -7.331)"/><g transform="translate(36.057 1.767)"><path class="b" d="M38.9,11.307a2.2,2.2,0,0,1,1.122-2.124,2.565,2.565,0,0,1,2.529,0,2.207,2.207,0,0,1,1.122,2.124,2.208,2.208,0,0,1-1.12,2.128,2.534,2.534,0,0,1-2.531,0,2.2,2.2,0,0,1-1.12-2.128Zm3.745,0c0-1.028-.494-1.631-1.357-1.631s-1.357.6-1.357,1.631.489,1.633,1.357,1.633S42.649,12.338,42.649,11.307Z" transform="translate(-38.893 -8.849)"/></g><path class="b" d="M49.089,13.665H48.053L47.006,10.17h-.079l-1.042,3.495H44.859L43.464,8.92h1.012l.907,3.62h.075L46.5,8.92h.959l1.04,3.62h.079l.9-3.62h1Z" transform="translate(-1.826 -7.068)"/><g transform="translate(49.91 1.756)"><path class="b" d="M50.264,8.936h.961V9.69H51.3a1.533,1.533,0,0,1,1.51-.845,1.7,1.7,0,0,1,1.328.488,1.481,1.481,0,0,1,.424,1.278v3.071h-1V10.845c0-.762-.353-1.142-1.092-1.142a1.2,1.2,0,0,0-.9.341,1.048,1.048,0,0,0-.309.861v2.776h-1V8.936Z" transform="translate(-50.262 -8.84)"/></g><path class="b" d="M55.155,7.382h1v6.6h-1Zm2.387,4.225a2.219,2.219,0,0,1,1.122-2.124,2.565,2.565,0,0,1,2.529,0,2.207,2.207,0,0,1,1.122,2.124,2.21,2.21,0,0,1-1.12,2.128,2.534,2.534,0,0,1-2.531,0,2.2,2.2,0,0,1-1.12-2.128Zm3.733,0c0-1.028-.482-1.631-1.357-1.631s-1.357.6-1.357,1.631.489,1.633,1.357,1.633S61.275,12.637,61.275,11.607Zm2.093,1.031c0-.843.678-1.346,1.882-1.416l1.37-.075v-.409c0-.5-.353-.783-1.036-.783-.558,0-.944.193-1.055.527h-.967c.1-.815.92-1.325,2.068-1.325,1.269,0,1.985.592,1.985,1.594v3.242h-.961v-.667h-.079a1.733,1.733,0,0,1-1.52.745,1.594,1.594,0,0,1-1.18-.359,1.4,1.4,0,0,1-.507-1.061Zm3.254-.4v-.4l-1.236.075c-.7.045-1.012.265-1.012.684s.4.674.939.674a1.256,1.256,0,0,0,.891-.258,1.1,1.1,0,0,0,.42-.779Zm2.306-.626c0-1.5.823-2.449,2.1-2.449a1.7,1.7,0,0,1,1.554.831h.075V7.382h1v6.6H72.7v-.75h-.079a1.79,1.79,0,0,1-1.59.829c-1.289,0-2.1-.963-2.1-2.453Zm1.032,0c0,1.007.506,1.614,1.352,1.614s1.361-.6,1.361-1.608S72.147,10,71.313,10s-1.352.609-1.352,1.608Z" transform="translate(0.818 -7.382)"/><g transform="translate(78.768 1.767)"><path class="b" d="M73.95,11.307a2.2,2.2,0,0,1,1.122-2.124,2.565,2.565,0,0,1,2.529,0,2.207,2.207,0,0,1,1.122,2.124,2.208,2.208,0,0,1-1.12,2.128,2.534,2.534,0,0,1-2.531,0,2.2,2.2,0,0,1-1.12-2.128Zm3.745,0c0-1.028-.494-1.631-1.357-1.631s-1.357.6-1.357,1.631.489,1.633,1.357,1.633S77.7,12.338,77.7,11.307Z" transform="translate(-73.939 -8.849)"/></g><g transform="translate(84.96 1.756)"><path class="b" d="M79.025,8.936h.961V9.69h.075a1.533,1.533,0,0,1,1.51-.845,1.7,1.7,0,0,1,1.328.488,1.481,1.481,0,0,1,.424,1.278v3.071h-1V10.845c0-.762-.353-1.142-1.092-1.142a1.2,1.2,0,0,0-.9.341,1.048,1.048,0,0,0-.31.861v2.776h-1V8.936Z" transform="translate(-79.023 -8.84)"/></g><path class="b" d="M87.588,8.054v1.2h1.084v.789H87.588v2.44c0,.5.217.714.715.714a3.344,3.344,0,0,0,.381-.022v.78a3.581,3.581,0,0,1-.542.048c-1.11,0-1.566-.366-1.566-1.281V10.045h-.8V9.256h.8v-1.2h1Zm2.463-.672h.99V10h.079a1.574,1.574,0,0,1,1.541-.85,1.721,1.721,0,0,1,1.315.5,1.543,1.543,0,0,1,.428,1.269v3.062h-1V11.145c0-.759-.377-1.142-1.084-1.142a1.229,1.229,0,0,0-.936.324,1.073,1.073,0,0,0-.338.879v2.77h-1V7.382ZM100.229,12.7a2.058,2.058,0,0,1-2.192,1.373,2.371,2.371,0,0,1-1.774-.718,2.077,2.077,0,0,1-.566-1.732,2.1,2.1,0,0,1,.564-1.739,2.41,2.41,0,0,1,1.77-.741,2.145,2.145,0,0,1,2.258,2.392v.325H96.716v.052a1.205,1.205,0,0,0,.353.959,1.388,1.388,0,0,0,.995.4,1.241,1.241,0,0,0,1.2-.576h.961Zm-3.514-1.529h2.557a1.112,1.112,0,0,0-.332-.873,1.252,1.252,0,0,0-.913-.355,1.321,1.321,0,0,0-.932.355,1.184,1.184,0,0,0-.379.874Z" transform="translate(7.598 -7.382)"/></g></svg>