<svg xmlns="http://www.w3.org/2000/svg" width="26.717" height="26.717" viewBox="0 0 26.717 26.717"><defs><style>.a{fill:#1977f3;}.b{fill:#fefefe;}</style></defs><path class="a" d="M26.717,13.358a13.358,13.358,0,1,0-15.446,13.2V17.221H7.879V13.358h3.393V10.415c0-3.348,2-5.2,5.046-5.2a20.536,20.536,0,0,1,2.991.261V8.765H17.623a1.931,1.931,0,0,0-2.177,2.087v2.506h3.7l-.592,3.862H15.446v9.335A13.36,13.36,0,0,0,26.717,13.358Z"/><path class="b" d="M4204.68,2789l.592-3.862h-3.7v-2.506a1.931,1.931,0,0,1,2.177-2.087h1.685v-3.288a20.549,20.549,0,0,0-2.991-.261c-3.051,0-5.045,1.849-5.045,5.2v2.944H4194V2789h3.393v9.335a13.424,13.424,0,0,0,2.087.161,13.668,13.668,0,0,0,2.087-.161V2789Z" transform="translate(-4186.121 -2771.783)"/></svg>