<svg xmlns="http://www.w3.org/2000/svg" xmlns:xlink="http://www.w3.org/1999/xlink" width="135.323" height="39.63" viewBox="0 0 135.323 39.63"><defs><style>.a{fill:#a6a6a6;}.b,.c{fill:#fff;}.b{stroke:#fff;stroke-miterlimit:10;stroke-width:0.16px;}.d{fill:url(#a);}.e{fill:url(#b);}.f{fill:url(#c);}.g{fill:url(#d);}</style><linearGradient id="a" x1="1.501" y1="-6.195" x2="0.206" y2="-5.52" gradientUnits="objectBoundingBox"><stop offset="0" stop-color="#00a0ff"/><stop offset="0.007" stop-color="#00a1ff"/><stop offset="0.26" stop-color="#00beff"/><stop offset="0.512" stop-color="#00d2ff"/><stop offset="0.76" stop-color="#00dfff"/><stop offset="1" stop-color="#00e3ff"/></linearGradient><linearGradient id="b" x1="1.818" y1="-17.785" x2="-0.557" y2="-17.785" gradientUnits="objectBoundingBox"><stop offset="0" stop-color="#ffe000"/><stop offset="0.409" stop-color="#ffbd00"/><stop offset="0.775" stop-color="orange"/><stop offset="1" stop-color="#ff9c00"/></linearGradient><linearGradient id="c" x1="0.817" y1="-12.636" x2="-0.543" y2="-10.851" gradientUnits="objectBoundingBox"><stop offset="0" stop-color="#ff3a44"/><stop offset="1" stop-color="#c31162"/></linearGradient><linearGradient id="d" x1="-0.231" y1="-12.067" x2="0.377" y2="-11.269" gradientUnits="objectBoundingBox"><stop offset="0" stop-color="#32a071"/><stop offset="0.069" stop-color="#2da771"/><stop offset="0.476" stop-color="#15cf74"/><stop offset="0.801" stop-color="#06e775"/><stop offset="1" stop-color="#00f076"/></linearGradient></defs><g transform="translate(-9.754 -10.295)"><path d="M130.54,39.943H5.24A5,5,0,0,1,.228,34.989V5.267A5,5,0,0,1,5.24.314h125.3a5,5,0,0,1,5.011,4.953V34.99a5,5,0,0,1-5.012,4.954Z" transform="translate(9.526 9.981)"/><path class="a" d="M130.54,1.108a4.189,4.189,0,0,1,4.208,4.16V34.989a4.189,4.189,0,0,1-4.209,4.16H5.24a4.189,4.189,0,0,1-4.208-4.16V5.267A4.19,4.19,0,0,1,5.24,1.107h125.3m0-.793H5.24A5,5,0,0,0,.228,5.267V34.99A5,5,0,0,0,5.24,39.944h125.3a5,5,0,0,0,5.011-4.954V5.267A5,5,0,0,0,130.539.314Z" transform="translate(9.526 9.981)"/><path class="b" d="M47.759,10.462a2.69,2.69,0,0,1-.744,1.984,2.947,2.947,0,0,1-2.213.88,3.058,3.058,0,0,1-2.212-.89,2.986,2.986,0,0,1-.911-2.215A2.968,2.968,0,0,1,42.59,8.01a3.041,3.041,0,0,1,2.212-.9,3.187,3.187,0,0,1,1.234.251,2.452,2.452,0,0,1,.94.663l-.524.522a2.055,2.055,0,0,0-1.65-.7,2.309,2.309,0,0,0-1.644.658,2.268,2.268,0,0,0-.691,1.713,2.277,2.277,0,0,0,.691,1.717A2.331,2.331,0,0,0,44.8,12.6a2.3,2.3,0,0,0,1.679-.663,1.85,1.85,0,0,0,.5-1.2H44.8v-.715h2.912A2.006,2.006,0,0,1,47.759,10.462Zm4.62-2.482H49.643V9.863h2.466v.715H49.643v1.883h2.736v.729h-3.51V7.251h3.51Zm3.26,5.21h-.774V7.98H53.187V7.251h4.131V7.98H55.639Zm4.669,0V7.251h.773V13.19Zm4.2,0h-.769V7.98H62.055V7.251h4.137V7.98H64.508Zm9.5-.764a3.152,3.152,0,0,1-4.411,0,3.02,3.02,0,0,1-.886-2.2A3.021,3.021,0,0,1,69.6,8.015a3.14,3.14,0,0,1,4.406.005,3.01,3.01,0,0,1,.891,2.2A3.02,3.02,0,0,1,74.013,12.426Zm-3.838-.5a2.329,2.329,0,0,0,3.265,0,2.313,2.313,0,0,0,.67-1.707,2.314,2.314,0,0,0-.67-1.708,2.329,2.329,0,0,0-3.265,0,2.315,2.315,0,0,0-.671,1.708A2.314,2.314,0,0,0,70.175,11.928Zm5.81,1.262V7.251h.94l2.922,4.619h.033l-.033-1.142V7.251h.773V13.19h-.807l-3.06-4.847h-.034l.034,1.147v3.7Z" transform="translate(9.526 9.981)"/><path class="c" d="M68.526,21.865a4.214,4.214,0,1,0,4.283,4.214A4.178,4.178,0,0,0,68.526,21.865Zm0,6.768a2.559,2.559,0,1,1,2.409-2.554A2.449,2.449,0,0,1,68.526,28.633Zm-9.333-6.768a4.214,4.214,0,1,0,4.278,4.214A4.175,4.175,0,0,0,59.193,21.865Zm0,6.768a2.559,2.559,0,1,1,2.4-2.554A2.452,2.452,0,0,1,59.193,28.633ZM48.086,23.156v1.791h4.327a3.7,3.7,0,0,1-.984,2.249A4.468,4.468,0,0,1,48.086,28.5a4.722,4.722,0,0,1-4.747-4.7v-.059a4.722,4.722,0,0,1,4.688-4.756h.059a4.617,4.617,0,0,1,3.26,1.277l1.277-1.262a6.351,6.351,0,0,0-4.537-1.8,6.677,6.677,0,0,0-6.72,6.545,6.677,6.677,0,0,0,6.72,6.545,6.087,6.087,0,0,0,4.621-1.838,6.371,6.371,0,0,0,1.469-5.3ZM93.5,24.545a3.949,3.949,0,0,0-3.651-2.68,4.025,4.025,0,0,0-4.018,4.214,4.146,4.146,0,0,0,4.228,4.213,4.237,4.237,0,0,0,3.554-1.868l-1.453-.957a2.445,2.445,0,0,1-2.1,1.166A2.169,2.169,0,0,1,88,27.356l5.7-2.332-.2-.48Zm-5.814,1.4a2.324,2.324,0,0,1,2.227-2.457,1.658,1.658,0,0,1,1.586.894Zm-4.634,4.088h1.874V17.652H83.054ZM79.984,22.8h-.063a2.969,2.969,0,0,0-2.242-.938,4.215,4.215,0,0,0,0,8.427,2.929,2.929,0,0,0,2.242-.957h.063v.6a2.171,2.171,0,0,1-2.276,2.477,2.365,2.365,0,0,1-2.149-1.505l-1.63.673a4.067,4.067,0,0,0,3.78,2.491c2.2,0,4.051-1.278,4.051-4.387V22.12H79.984V22.8Zm-2.144,5.83a2.561,2.561,0,0,1,0-5.109,2.386,2.386,0,0,1,2.277,2.569A2.368,2.368,0,0,1,77.84,28.633Zm24.438-10.981H97.795V30.036h1.87V25.343h2.613a3.854,3.854,0,1,0,0-7.691Zm.049,5.969H99.664V19.374h2.663a2.125,2.125,0,1,1,0,4.247Zm11.556-1.78a3.515,3.515,0,0,0-3.333,1.9l1.66.687a1.773,1.773,0,0,1,1.707-.91,1.8,1.8,0,0,1,1.969,1.593v.13a4.152,4.152,0,0,0-1.954-.48c-1.787,0-3.607.973-3.607,2.787a2.88,2.88,0,0,0,3.109,2.728,2.652,2.652,0,0,0,2.388-1.213h.064v.957h1.805v-4.75C117.691,23.07,116.032,21.841,113.883,21.841Zm-.225,6.787c-.612,0-1.464-.3-1.464-1.05,0-.958,1.063-1.326,1.983-1.326a3.391,3.391,0,0,1,1.709.416A2.262,2.262,0,0,1,113.658,28.628Zm10.611-6.516-2.148,5.369h-.064l-2.222-5.369h-2.016l3.338,7.5-1.9,4.174h1.954l5.143-11.677Zm-16.851,7.924h1.874V17.652h-1.874Z" transform="translate(9.526 9.981)"/><path class="d" d="M10.688,7.782a1.957,1.957,0,0,0-.465,1.394v21.91a1.956,1.956,0,0,0,.465,1.393l.073.067L23.183,20.273v-.29L10.761,7.711Z" transform="translate(9.526 9.981)"/><path class="e" d="M27.319,24.366l-4.136-4.093v-.29l4.141-4.093.093.054,4.9,2.758c1.4.782,1.4,2.07,0,2.858l-4.9,2.753Z" transform="translate(9.526 9.981)"/><path class="f" d="M27.417,24.313l-4.234-4.185-12.5,12.351a1.648,1.648,0,0,0,2.085.058l14.644-8.224" transform="translate(9.526 9.981)"/><path class="g" d="M27.417,15.944,12.773,7.719a1.653,1.653,0,0,0-2.085.063l12.5,12.346Z" transform="translate(9.526 9.981)"/></g></svg>