<svg xmlns="http://www.w3.org/2000/svg" width="143.469" height="143.469" viewBox="0 0 143.469 143.469"><defs><style>.a{fill:#4fae50;}</style></defs><path class="a" d="M138.578,101.675a91.206,91.206,0,0,1-28.136-4.463,7.79,7.79,0,0,0-8.05,1.913l-12.514,15.7C67.322,104.066,46.2,83.741,34.962,60.387L50.5,47.156a8.134,8.134,0,0,0,1.913-8.13,88.891,88.891,0,0,1-4.463-28.136A7.961,7.961,0,0,0,40.063,3H12.485C8.181,3,3,4.913,3,10.891,3,84.937,64.612,146.469,138.578,146.469c5.659,0,7.891-5.021,7.891-9.405v-27.5a7.961,7.961,0,0,0-7.891-7.891Z" transform="translate(-3 -3)"/></svg>